<svg width="156" height="156" viewBox="0 0 156 156" fill="none" xmlns="http://www.w3.org/2000/svg">
<path d="M4.53702 77.8591C3.4192 64.1631 6.53475 49.4356 16.6009 39.5038C20.8293 35.3319 26.1117 32.1435 31.9186 30.7705C39.3254 29.0191 46.9358 30.8651 54.4138 29.9144C66.9148 28.3252 81.3906 18.3226 93.6979 18.3103C123.075 18.2809 131.72 35.2776 132.803 38.6873C133.864 42.026 136.163 44.7456 138.559 47.2182C143.779 52.6067 147.764 57.2429 148.134 65.0959C148.452 71.8438 147.208 78.8247 144.849 85.1383C140.14 97.7413 129.734 108.214 116.168 110.613C108.755 111.924 101.921 109.844 94.8247 107.933C87.6532 106.003 80.2897 104.898 72.8627 104.71C64.2675 104.492 55.6389 105.465 47.3152 107.623C39.5784 109.629 31.6822 113.63 23.4939 112.338C9.00392 110.052 5.45671 89.8362 4.53702 77.8591Z" fill="white" fill-opacity="0.2"/>
<path d="M107.263 92.7369H103.512C101.957 92.7369 100.697 93.9972 100.697 95.5519V99.3033C100.697 100.858 101.957 102.118 103.512 102.118H104.913L107.263 104.469V102.118C108.818 102.118 110.078 100.858 110.078 99.3033V95.5519C110.078 93.9973 108.818 92.7369 107.263 92.7369Z" fill="#6495ED"/>
<path d="M108.019 95.3402H102.71V96.1881H108.019V95.3402Z" fill="white"/>
<path d="M108.019 96.9988H102.71V97.8466H108.019V96.9988Z" fill="white"/>
<path d="M105.776 98.6573H102.71V99.5051H105.776V98.6573Z" fill="white"/>
<path d="M15.3776 89.1006H10.0457C9.11923 89.1006 8.36816 88.3495 8.36816 87.423V83.4812C8.36816 82.8654 8.86736 82.3661 9.48325 82.3661H15.9402C16.556 82.3661 17.0553 82.8653 17.0553 83.4812V87.423C17.0552 88.3495 16.3041 89.1006 15.3776 89.1006Z" fill="#6495ED"/>
<path d="M15.9885 87.5091C15.7316 87.2262 15.4689 86.949 15.2083 86.6698C14.9444 86.3939 14.6837 86.1147 14.417 85.8416C14.1882 85.6073 13.9615 85.371 13.7315 85.1379L13.8004 85.085C14.1298 84.8247 14.4626 84.5688 14.7886 84.3041C15.117 84.0424 15.4417 83.7759 15.7657 83.5085C16.0877 83.2385 16.4103 82.9692 16.7246 82.6891C16.3701 82.9163 16.0239 83.1544 15.6771 83.3918C15.3323 83.6318 14.9882 83.8727 14.6477 84.1184C14.3049 84.3611 13.9688 84.6125 13.6294 84.8596L13.5301 84.934L13.529 84.9329L13.4281 85.0086L12.7086 85.5489L11.9337 85.0059L11.8283 84.932L11.8271 84.9334L11.7626 84.8884C11.4143 84.6519 11.0691 84.4111 10.7176 84.1791C10.3683 83.944 10.0155 83.7139 9.66205 83.4847C9.30676 83.2581 8.95186 83.0309 8.58923 82.8146C8.91371 83.0848 9.24592 83.344 9.57765 83.6039C9.91126 83.8612 10.2455 84.1175 10.5833 84.3689C10.9189 84.6234 11.2607 84.869 11.5995 85.1189L11.638 85.1466C11.42 85.3928 11.205 85.6416 10.988 85.8887C10.7363 86.1759 10.4904 86.4682 10.2414 86.7578C9.99581 87.0505 9.748 87.3412 9.5062 87.6373C9.26245 87.9317 9.02237 88.2292 8.78595 88.5302C9.06028 88.2633 9.33094 87.9931 9.59793 87.7198C9.86687 87.4481 10.1298 87.171 10.3951 86.896C10.6568 86.6178 10.9216 86.3423 11.1806 86.0619C11.4103 85.8127 11.6421 85.5655 11.8704 85.3152L12.6254 85.8553L12.6356 85.8626L12.7148 85.9194L12.7906 85.8612L12.8021 85.8524L13.504 85.3144C13.7454 85.5531 13.9907 85.788 14.2335 86.0252C14.5067 86.2919 14.7859 86.5526 15.0618 86.8165C15.341 87.0771 15.6181 87.3398 15.901 87.5967C16.1821 87.8555 16.4665 88.1109 16.7546 88.3626C16.5027 88.0746 16.2473 87.7901 15.9885 87.5091Z" fill="#0047AB"/>
<path d="M95.4671 92.2984C95.0729 91.9041 94.5966 91.707 94.0383 91.707C93.48 91.707 93.0038 91.9041 92.6095 92.2984C92.2152 92.6926 92.0182 93.1688 92.0182 93.7272C92.0182 94.2855 92.2153 94.7616 92.6095 95.1559C93.0037 95.5502 93.48 95.7473 94.0383 95.7473C94.5966 95.7473 95.0728 95.5502 95.4671 95.1559C95.8614 94.7617 96.0584 94.2855 96.0584 93.7272C96.0584 93.1688 95.8613 92.6926 95.4671 92.2984Z" fill="#FDC564"/>
<path d="M95.2008 95.3762C95.1998 95.375 95.1986 95.3745 95.1972 95.3744H94.9657C94.9643 95.3745 94.9631 95.375 94.9621 95.3762C94.9609 95.3772 94.9604 95.3784 94.9603 95.3798C94.9604 95.3812 94.9609 95.3825 94.9621 95.3835C94.9631 95.3846 94.9643 95.3852 94.9657 95.3853H95.1972C95.1986 95.3852 95.1998 95.3846 95.2008 95.3835C95.202 95.3825 95.2025 95.3812 95.2026 95.3798C95.2025 95.3784 95.202 95.3772 95.2008 95.3762ZM95.3936 95.2183C95.3926 95.2171 95.3914 95.2166 95.39 95.2165H95.1586C95.1571 95.2166 95.1559 95.2171 95.1549 95.2183C95.1538 95.2193 95.1532 95.2205 95.1531 95.222C95.1532 95.2234 95.1538 95.2246 95.1549 95.2256C95.1559 95.2268 95.1571 95.2274 95.1586 95.2275H95.39C95.3914 95.2274 95.3926 95.2268 95.3936 95.2256C95.3948 95.2246 95.3953 95.2234 95.3954 95.222C95.3953 95.2205 95.3948 95.2193 95.3936 95.2183ZM95.5479 95.0622C95.5469 95.061 95.5457 95.0604 95.5442 95.0604H95.3128C95.3114 95.0604 95.3102 95.061 95.3092 95.0622C95.308 95.0632 95.3075 95.0644 95.3074 95.0658C95.3075 95.0672 95.308 95.0685 95.3092 95.0695C95.3102 95.0706 95.3114 95.0712 95.3128 95.0713H95.5442C95.5457 95.0712 95.5469 95.0706 95.5479 95.0695C95.549 95.0685 95.5496 95.0672 95.5497 95.0658C95.5496 95.0644 95.549 95.0632 95.5479 95.0622ZM95.6746 94.9061C95.6736 94.9049 95.6724 94.9044 95.671 94.9043H95.4396C95.4381 94.9044 95.4369 94.9049 95.4359 94.9061C95.4348 94.9071 95.4342 94.9083 95.4341 94.9097C95.4342 94.9111 95.4348 94.9124 95.4359 94.9134C95.4369 94.9145 95.4382 94.9151 95.4396 94.9152H95.671C95.6724 94.9151 95.6736 94.9145 95.6746 94.9134C95.6758 94.9124 95.6764 94.9111 95.6765 94.9097C95.6764 94.9083 95.6757 94.9071 95.6746 94.9061ZM94.7068 95.5397C94.7078 95.5408 94.709 95.5414 94.7104 95.5415H94.9418C94.9432 95.5414 94.9445 95.5408 94.9455 95.5397C94.9466 95.5387 94.9472 95.5374 94.9473 95.536C94.9472 95.5345 94.9466 95.5334 94.9455 95.5324C94.9445 95.5312 94.9432 95.5306 94.9418 95.5306H94.7104C94.709 95.5306 94.7078 95.5312 94.7068 95.5324C94.7056 95.5334 94.705 95.5346 94.705 95.536C94.705 95.5374 94.7056 95.5387 94.7068 95.5397ZM94.2752 95.6976C94.2762 95.6987 94.2774 95.6993 94.2788 95.6994H94.5103C94.5117 95.6993 94.5129 95.6987 94.5139 95.6976C94.5151 95.6966 94.5156 95.6954 94.5157 95.6939C94.5156 95.6925 94.5151 95.6913 94.5139 95.6903C94.5129 95.6891 94.5117 95.6886 94.5103 95.6885H94.2788C94.2774 95.6886 94.2762 95.6891 94.2752 95.6903C94.274 95.6913 94.2735 95.6925 94.2734 95.6939C94.2735 95.6954 94.274 95.6966 94.2752 95.6976ZM95.8637 94.5921C95.8627 94.5909 95.8615 94.5903 95.8601 94.5903H95.6287C95.6272 94.5903 95.626 94.5909 95.625 94.5921C95.6239 94.5931 95.6233 94.5943 95.6232 94.5957C95.6233 94.5971 95.6239 94.5984 95.625 94.5993C95.626 94.6005 95.6273 94.6011 95.6287 94.6012H95.8601C95.8615 94.6011 95.8627 94.6005 95.8637 94.5993C95.8649 94.5984 95.8655 94.5971 95.8655 94.5957C95.8655 94.5943 95.8649 94.5931 95.8637 94.5921ZM95.9317 94.4341C95.9307 94.433 95.9295 94.4324 95.9281 94.4323H95.6948C95.6933 94.4324 95.6922 94.433 95.6912 94.4341C95.69 94.4351 95.6894 94.4364 95.6894 94.4378C95.6894 94.4392 95.69 94.4404 95.6912 94.4414C95.6922 94.4426 95.6934 94.4432 95.6948 94.4432H95.9281C95.9295 94.4432 95.9307 94.4426 95.9317 94.4414C95.9328 94.4404 95.9334 94.4392 95.9335 94.4378C95.9334 94.4363 95.9328 94.4351 95.9317 94.4341ZM95.7462 94.2761C95.7448 94.2762 95.7436 94.2768 95.7426 94.278C95.7414 94.279 95.7409 94.2802 95.7408 94.2816C95.7409 94.283 95.7414 94.2842 95.7426 94.2852C95.7436 94.2864 95.7448 94.287 95.7462 94.2871H95.9777C95.9791 94.287 95.9803 94.2864 95.9813 94.2852C95.9825 94.2842 95.983 94.283 95.9831 94.2816C95.983 94.2801 95.9825 94.279 95.9813 94.278C95.9803 94.2768 95.9791 94.2762 95.9777 94.2761H95.7462ZM96.018 94.1201C96.017 94.119 96.0158 94.1184 96.0144 94.1183H95.783C95.7815 94.1184 95.7803 94.119 95.7793 94.1201C95.7782 94.1211 95.7776 94.1224 95.7775 94.1238C95.7776 94.1252 95.7782 94.1264 95.7793 94.1274C95.7803 94.1286 95.7815 94.1291 95.783 94.1292H96.0144C96.0158 94.1291 96.017 94.1286 96.018 94.1274C96.0192 94.1264 96.0197 94.1252 96.0198 94.1238C96.0197 94.1223 96.0192 94.1211 96.018 94.1201ZM95.5405 94.7555C95.5415 94.7567 95.5428 94.7573 95.5442 94.7573H95.7774C95.7788 94.7573 95.7801 94.7567 95.781 94.7555C95.7822 94.7545 95.7828 94.7533 95.7829 94.7519C95.7828 94.7504 95.7822 94.7492 95.781 94.7483C95.7801 94.7471 95.7788 94.7465 95.7774 94.7464H95.5442C95.5428 94.7465 95.5415 94.7471 95.5405 94.7483C95.5394 94.7492 95.5388 94.7505 95.5387 94.7519C95.5388 94.7533 95.5394 94.7544 95.5405 94.7555ZM95.8123 93.8152C95.8133 93.8164 95.8145 93.8169 95.8159 93.817H96.0474C96.0488 93.8169 96.05 93.8164 96.051 93.8152C96.0522 93.8142 96.0527 93.813 96.0528 93.8116C96.0527 93.8101 96.0522 93.8089 96.051 93.8079C96.05 93.8068 96.0488 93.8062 96.0474 93.8061H95.8159C95.8144 93.8062 95.8133 93.8068 95.8123 93.8079C95.8111 93.8089 95.8106 93.8102 95.8105 93.8116C95.8106 93.813 95.8111 93.8142 95.8123 93.8152ZM95.805 93.9621C95.8036 93.9622 95.8024 93.9628 95.8014 93.9639C95.8002 93.9649 95.7996 93.9662 95.7996 93.9676C95.7996 93.9691 95.8002 93.9702 95.8014 93.9712C95.8024 93.9724 95.8036 93.973 95.805 93.973H96.0364C96.0378 93.973 96.0391 93.9724 96.0401 93.9712C96.0412 93.9702 96.0418 93.969 96.0419 93.9676C96.0418 93.9662 96.0412 93.9649 96.0401 93.9639C96.0391 93.9628 96.0378 93.9622 96.0364 93.9621H95.805ZM95.8178 93.6481C95.8164 93.6482 95.8152 93.6488 95.8142 93.6499C95.813 93.6509 95.8125 93.6522 95.8124 93.6536C95.8125 93.655 95.813 93.6562 95.8142 93.6572C95.8152 93.6584 95.8164 93.6589 95.8178 93.659H96.0493C96.0507 93.6589 96.0519 93.6584 96.0529 93.6572C96.0541 93.6562 96.0546 93.655 96.0547 93.6536C96.0546 93.6521 96.0541 93.6509 96.0529 93.6499C96.0519 93.6488 96.0507 93.6482 96.0493 93.6481H95.8178ZM95.9849 93.1798C95.9839 93.1786 95.9827 93.1781 95.9813 93.178H95.7499C95.7484 93.1781 95.7472 93.1786 95.7462 93.1798C95.7451 93.1808 95.7445 93.182 95.7444 93.1834C95.7445 93.1849 95.7451 93.1861 95.7462 93.1871C95.7472 93.1882 95.7485 93.1888 95.7499 93.1889H95.9813C95.9827 93.1888 95.9839 93.1882 95.9849 93.1871C95.9861 93.1861 95.9867 93.1849 95.9868 93.1834C95.9868 93.182 95.9861 93.1808 95.9849 93.1798ZM96.0198 93.3359C96.0188 93.3348 96.0176 93.3342 96.0162 93.3341H95.7848C95.7834 93.3342 95.7821 93.3348 95.7811 93.3359C95.78 93.3369 95.7794 93.3381 95.7793 93.3395C95.7794 93.341 95.78 93.3422 95.7811 93.3432C95.7821 93.3443 95.7834 93.3449 95.7848 93.345H96.0162C96.0176 93.3449 96.0188 93.3443 96.0198 93.3432C96.021 93.3422 96.0216 93.341 96.0216 93.3395C96.0216 93.3381 96.021 93.3369 96.0198 93.3359ZM96.0419 93.4938C96.0409 93.4927 96.0397 93.4921 96.0383 93.492H95.8068C95.8054 93.4921 95.8042 93.4927 95.8032 93.4938C95.8021 93.4948 95.8015 93.4961 95.8014 93.4975C95.8015 93.499 95.8021 93.5001 95.8032 93.5011C95.8042 93.5023 95.8054 93.5028 95.8068 93.5029H96.0383C96.0397 93.5028 96.0409 93.5023 96.0419 93.5011C96.0431 93.5001 96.0436 93.4989 96.0437 93.4975C96.0436 93.4961 96.0431 93.4949 96.0419 93.4938ZM95.7003 93.0201C95.6989 93.0202 95.6976 93.0207 95.6966 93.0219C95.6955 93.0229 95.6949 93.0241 95.6948 93.0255C95.6949 93.0269 95.6955 93.0282 95.6966 93.0292C95.6976 93.0303 95.6989 93.0309 95.7003 93.031H95.9317C95.9331 93.0309 95.9343 93.0303 95.9353 93.0292C95.9365 93.0282 95.9371 93.0269 95.9372 93.0255C95.9371 93.024 95.9365 93.0229 95.9353 93.0219C95.9343 93.0207 95.9331 93.0202 95.9317 93.0201H95.7003ZM95.6305 92.8731C95.6315 92.8743 95.6327 92.8749 95.6341 92.875H95.8655C95.8669 92.8749 95.8682 92.8743 95.8692 92.8731C95.8703 92.8722 95.8709 92.8709 95.871 92.8695C95.8709 92.868 95.8703 92.8669 95.8692 92.8659C95.8682 92.8647 95.8669 92.8641 95.8655 92.8641H95.6341C95.6326 92.8641 95.6315 92.8647 95.6305 92.8659C95.6293 92.8669 95.6287 92.8681 95.6287 92.8695C95.6287 92.8709 95.6294 92.8722 95.6305 92.8731ZM95.5479 92.7152C95.5489 92.7164 95.5501 92.717 95.5515 92.7171H95.783C95.7844 92.717 95.7856 92.7164 95.7866 92.7152C95.7877 92.7142 95.7883 92.713 95.7884 92.7116C95.7883 92.7102 95.7877 92.709 95.7866 92.708C95.7856 92.7068 95.7844 92.7062 95.783 92.7061H95.5515C95.5501 92.7062 95.5489 92.7068 95.5479 92.708C95.5467 92.709 95.5462 92.7102 95.5461 92.7116C95.5462 92.713 95.5467 92.7142 95.5479 92.7152ZM95.445 92.5591C95.446 92.5603 95.4473 92.5609 95.4487 92.5609H95.6801C95.6815 92.5609 95.6827 92.5603 95.6837 92.5591C95.6849 92.5581 95.6855 92.5569 95.6855 92.5555C95.6855 92.554 95.6849 92.5528 95.6837 92.5519C95.6827 92.5507 95.6815 92.5501 95.6801 92.55H95.4487C95.4472 92.5501 95.446 92.5507 95.445 92.5519C95.4439 92.5528 95.4433 92.5541 95.4432 92.5555C95.4433 92.5569 95.4439 92.5581 95.445 92.5591ZM95.322 92.3939C95.3206 92.3939 95.3194 92.3945 95.3184 92.3957C95.3172 92.3967 95.3166 92.3979 95.3166 92.3993C95.3166 92.4007 95.3172 92.402 95.3184 92.4029C95.3194 92.4041 95.3206 92.4047 95.322 92.4048H95.5534C95.5548 92.4047 95.5561 92.4041 95.5571 92.4029C95.5582 92.402 95.5588 92.4007 95.5589 92.3993C95.5588 92.3978 95.5582 92.3967 95.5571 92.3957C95.5561 92.3945 95.5548 92.3939 95.5534 92.3939H95.322ZM95.4046 92.2414C95.4045 92.24 95.4039 92.2387 95.4028 92.2378C95.4018 92.2366 95.4006 92.236 95.3991 92.2359H95.1677C95.1663 92.236 95.1651 92.2366 95.1641 92.2378C95.1629 92.2387 95.1623 92.24 95.1623 92.2414C95.1623 92.2428 95.1629 92.244 95.1641 92.245C95.1651 92.2462 95.1663 92.2468 95.1677 92.2469H95.3991C95.4006 92.2468 95.4018 92.2462 95.4028 92.245C95.4039 92.244 95.4046 92.2429 95.4046 92.2414ZM94.9805 92.0798C94.979 92.0799 94.9778 92.0805 94.9767 92.0817C94.9756 92.0826 94.975 92.0839 94.9749 92.0853C94.975 92.0868 94.9756 92.0879 94.9767 92.0889C94.9777 92.0901 94.979 92.0907 94.9805 92.0907H95.2119C95.2133 92.0907 95.2145 92.0901 95.2155 92.0889C95.2167 92.0879 95.2173 92.0867 95.2173 92.0853C95.2173 92.0839 95.2167 92.0826 95.2155 92.0817C95.2145 92.0805 95.2133 92.0799 95.2119 92.0798H94.9805ZM94.7251 91.931C94.7261 91.9322 94.7274 91.9328 94.7288 91.9328H94.9602C94.9616 91.9328 94.9628 91.9322 94.9638 91.931C94.965 91.93 94.9656 91.9288 94.9657 91.9273C94.9656 91.9259 94.965 91.9246 94.9638 91.9236C94.9628 91.9225 94.9616 91.9219 94.9602 91.9218H94.7288C94.7273 91.9219 94.7261 91.9225 94.7251 91.9236C94.724 91.9246 94.7234 91.9259 94.7233 91.9273C94.7234 91.9288 94.724 91.93 94.7251 91.931ZM94.3193 91.775C94.3203 91.7762 94.3216 91.7767 94.323 91.7768H94.5544C94.5558 91.7767 94.5571 91.7762 94.558 91.775C94.5592 91.774 94.5598 91.7728 94.5599 91.7714C94.5598 91.7699 94.5592 91.7687 94.558 91.7677C94.5571 91.7666 94.5558 91.766 94.5544 91.7659H94.323C94.3215 91.766 94.3203 91.7666 94.3193 91.7677C94.3182 91.7687 94.3176 91.77 94.3175 91.7714C94.3175 91.7728 94.3181 91.7739 94.3193 91.775Z" fill="#CA872A"/>
<path d="M95.2357 92.2984C94.8414 91.9041 94.3652 91.707 93.8069 91.707C93.2486 91.707 92.7724 91.9041 92.3781 92.2984C91.9838 92.6926 91.7867 93.1688 91.7867 93.7272C91.7867 94.2855 91.9839 94.7616 92.3781 95.1559C92.7723 95.5502 93.2485 95.7473 93.8069 95.7473C94.3651 95.7473 94.8414 95.5502 95.2357 95.1559C95.6299 94.7617 95.827 94.2855 95.827 93.7272C95.827 93.1688 95.6299 92.6926 95.2357 92.2984Z" fill="#FBB43C"/>
<path d="M94.9426 92.591C94.6292 92.2777 94.2507 92.1211 93.807 92.1211C93.3633 92.1211 92.9847 92.2777 92.6713 92.591C92.358 92.9044 92.2014 93.2829 92.2014 93.7267C92.2014 94.1704 92.358 94.5489 92.6713 94.8623C92.9847 95.1756 93.3632 95.3322 93.807 95.3322C94.2507 95.3322 94.6292 95.1756 94.9426 94.8623C95.2559 94.5489 95.4125 94.1704 95.4125 93.7267C95.4125 93.283 95.2559 92.9044 94.9426 92.591Z" fill="#F4A621"/>
<path d="M93.4214 93.083C93.3473 93.1572 93.3102 93.2525 93.3102 93.369C93.3102 93.4368 93.3211 93.495 93.343 93.5438C93.3642 93.5925 93.3946 93.6353 93.4341 93.672C93.4723 93.708 93.5189 93.7401 93.5739 93.7683C93.6283 93.7959 93.6929 93.8238 93.7678 93.852C93.8433 93.8803 93.897 93.9114 93.9288 93.9453C93.9591 93.9785 93.9743 94.0233 93.9743 94.0798C93.9743 94.1342 93.957 94.1776 93.9224 94.2101C93.8871 94.2418 93.8391 94.2578 93.7784 94.2578C93.7049 94.2578 93.6491 94.2359 93.611 94.1921C93.5715 94.1483 93.5517 94.0855 93.5517 94.0035H93.253C93.253 94.1448 93.2918 94.2581 93.3695 94.3436C93.4472 94.4283 93.5566 94.4784 93.6978 94.494V94.6984H93.862V94.4929C93.9905 94.4795 94.0911 94.4364 94.1639 94.3637C94.2373 94.2902 94.274 94.1949 94.274 94.0777C94.274 94.0148 94.2642 93.9601 94.2444 93.9135C94.2253 93.8655 94.1974 93.8235 94.1607 93.7875C94.1247 93.75 94.0798 93.7168 94.0261 93.6879C93.9732 93.6582 93.9057 93.6268 93.8239 93.5936C93.7412 93.5604 93.6848 93.528 93.6544 93.4961C93.624 93.4644 93.6088 93.4224 93.6088 93.3701C93.6088 93.3136 93.6244 93.2695 93.6554 93.2377C93.6865 93.2052 93.7303 93.1889 93.7868 93.1889C93.8439 93.1889 93.8899 93.2098 93.9244 93.2515C93.9576 93.2917 93.9742 93.3535 93.9742 93.4368H94.274C94.274 93.302 94.2394 93.1925 94.1702 93.1085C94.101 93.0238 94.0056 92.9726 93.8842 92.9549V92.7314H93.7179V92.9527C93.5944 92.9648 93.4956 93.0082 93.4214 93.083Z" fill="#624118"/>
<path d="M93.3847 93.083C93.3105 93.1572 93.2735 93.2525 93.2735 93.369C93.2735 93.4368 93.2844 93.495 93.3063 93.5438C93.3274 93.5925 93.3578 93.6353 93.3974 93.672C93.4355 93.708 93.4821 93.7401 93.5372 93.7683C93.5915 93.7959 93.6562 93.8238 93.731 93.852C93.8066 93.8803 93.8603 93.9114 93.892 93.9453C93.9224 93.9785 93.9376 94.0233 93.9376 94.0798C93.9376 94.1342 93.9202 94.1776 93.8857 94.2101C93.8504 94.2418 93.8024 94.2578 93.7416 94.2578C93.6682 94.2578 93.6124 94.2359 93.5742 94.1921C93.5347 94.1483 93.5149 94.0855 93.5149 94.0035H93.2162C93.2162 94.1448 93.255 94.2581 93.3327 94.3436C93.4104 94.4283 93.5198 94.4784 93.6611 94.494V94.6984H93.8252V94.4929C93.9538 94.4795 94.0544 94.4364 94.1271 94.3637C94.2006 94.2902 94.2373 94.1949 94.2373 94.0777C94.2373 94.0148 94.2274 93.9601 94.2076 93.9135C94.1885 93.8655 94.1606 93.8235 94.1239 93.7875C94.0879 93.75 94.043 93.7168 93.9894 93.6879C93.9364 93.6582 93.869 93.6268 93.7871 93.5936C93.7045 93.5604 93.648 93.528 93.6176 93.4961C93.5872 93.4644 93.5721 93.4224 93.5721 93.3701C93.5721 93.3136 93.5876 93.2695 93.6187 93.2377C93.6497 93.2052 93.6935 93.1889 93.75 93.1889C93.8072 93.1889 93.8531 93.2098 93.8877 93.2515C93.9209 93.2917 93.9375 93.3535 93.9375 93.4368H94.2373C94.2373 93.302 94.2027 93.1925 94.1335 93.1085C94.0643 93.0238 93.9689 92.9726 93.8475 92.9549V92.7314H93.6812V92.9527C93.5577 92.9648 93.4588 93.0082 93.3847 93.083Z" fill="#724B1E"/>
<path d="M95.827 91.7069V85.3979" stroke="#0047AB" stroke-miterlimit="10"/>
<path d="M93.5559 90.5589V88.3445" stroke="#0047AB" stroke-miterlimit="10"/>
<path d="M93.5559 86.8018V84.6649" stroke="#0047AB" stroke-miterlimit="10"/>
<path d="M91.3375 93.7325V88.7371" stroke="#0047AB" stroke-miterlimit="10"/>
<path d="M16.8013 56.8382C16.4071 56.4439 15.9308 56.2468 15.3725 56.2468C14.8142 56.2468 14.338 56.4439 13.9437 56.8382C13.5495 57.2324 13.3524 57.7086 13.3524 58.2669C13.3524 58.8252 13.5495 59.3015 13.9437 59.6957C14.3379 60.09 14.8141 60.2871 15.3725 60.2871C15.9307 60.2871 16.407 60.09 16.8013 59.6957C17.1955 59.3015 17.3926 58.8253 17.3926 58.2669C17.3926 57.7086 17.1955 57.2324 16.8013 56.8382Z" fill="#FDC564"/>
<path d="M16.535 59.916C16.534 59.9148 16.5328 59.9143 16.5314 59.9142H16.3C16.2985 59.9143 16.2973 59.9148 16.2963 59.916C16.2952 59.917 16.2946 59.9182 16.2945 59.9196C16.2946 59.921 16.2952 59.9223 16.2963 59.9233C16.2973 59.9244 16.2986 59.925 16.3 59.9251H16.5314C16.5329 59.925 16.534 59.9244 16.535 59.9233C16.5362 59.9223 16.5368 59.921 16.5368 59.9196C16.5368 59.9182 16.5361 59.917 16.535 59.916ZM16.7278 59.7581C16.7268 59.7569 16.7256 59.7564 16.7242 59.7563H16.4928C16.4914 59.7564 16.4901 59.7569 16.4891 59.7581C16.488 59.7591 16.4874 59.7603 16.4873 59.7617C16.4874 59.7631 16.488 59.7644 16.4891 59.7654C16.4901 59.7665 16.4914 59.7671 16.4928 59.7672H16.7242C16.7256 59.7671 16.7268 59.7665 16.7278 59.7654C16.729 59.7644 16.7296 59.7631 16.7297 59.7617C16.7296 59.7603 16.729 59.7591 16.7278 59.7581ZM16.8821 59.602C16.8811 59.6008 16.8799 59.6003 16.8785 59.6002H16.6471C16.6456 59.6003 16.6444 59.6008 16.6434 59.602C16.6423 59.603 16.6417 59.6042 16.6416 59.6056C16.6417 59.607 16.6423 59.6083 16.6434 59.6093C16.6444 59.6104 16.6457 59.611 16.6471 59.6111H16.8785C16.8799 59.611 16.8811 59.6104 16.8821 59.6093C16.8833 59.6083 16.8839 59.607 16.8839 59.6056C16.8839 59.6042 16.8832 59.603 16.8821 59.602ZM17.0088 59.4459C17.0078 59.4447 17.0066 59.4442 17.0051 59.4441H16.7737C16.7722 59.4442 16.7711 59.4447 16.7701 59.4459C16.7689 59.4469 16.7683 59.4481 16.7683 59.4495C16.7683 59.4509 16.7689 59.4522 16.7701 59.4532C16.7711 59.4543 16.7723 59.4549 16.7737 59.455H17.0051C17.0066 59.4549 17.0078 59.4543 17.0088 59.4532C17.0099 59.4522 17.0105 59.4509 17.0106 59.4495C17.0105 59.4481 17.0099 59.4469 17.0088 59.4459ZM16.041 60.0795C16.042 60.0806 16.0432 60.0812 16.0447 60.0813H16.2761C16.2775 60.0812 16.2787 60.0806 16.2797 60.0795C16.2809 60.0785 16.2814 60.0772 16.2815 60.0758C16.2814 60.0743 16.2809 60.0732 16.2797 60.0722C16.2787 60.071 16.2775 60.0705 16.2761 60.0704H16.0447C16.0432 60.0705 16.042 60.071 16.041 60.0722C16.0399 60.0732 16.0393 60.0744 16.0392 60.0758C16.0392 60.0772 16.0399 60.0785 16.041 60.0795ZM15.6094 60.2374C15.6104 60.2385 15.6117 60.2391 15.6131 60.2392H15.8445C15.8459 60.2391 15.8471 60.2385 15.8481 60.2374C15.8493 60.2364 15.8499 60.2351 15.8499 60.2337C15.8499 60.2323 15.8493 60.2311 15.8481 60.2301C15.8471 60.2289 15.8459 60.2284 15.8445 60.2283H15.6131C15.6116 60.2284 15.6104 60.2289 15.6094 60.2301C15.6083 60.2311 15.6077 60.2323 15.6076 60.2337C15.6077 60.2351 15.6083 60.2364 15.6094 60.2374ZM17.198 59.1319C17.197 59.1307 17.1957 59.1301 17.1943 59.13H16.9629C16.9614 59.1301 16.9602 59.1307 16.9593 59.1319C16.9581 59.1329 16.9575 59.1341 16.9574 59.1355C16.9575 59.1369 16.9581 59.1382 16.9593 59.1391C16.9602 59.1403 16.9615 59.1409 16.9629 59.141H17.1943C17.1957 59.1409 17.197 59.1403 17.198 59.1391C17.1991 59.1382 17.1997 59.1369 17.1998 59.1355C17.1997 59.1341 17.1991 59.1329 17.198 59.1319ZM17.2659 58.9739C17.2649 58.9728 17.2637 58.9722 17.2623 58.9721H17.029C17.0276 58.9722 17.0264 58.9728 17.0254 58.9739C17.0242 58.9749 17.0237 58.9762 17.0236 58.9776C17.0237 58.979 17.0242 58.9802 17.0254 58.9812C17.0264 58.9824 17.0276 58.983 17.029 58.983H17.2623C17.2637 58.983 17.2649 58.9824 17.2659 58.9812C17.2671 58.9802 17.2677 58.979 17.2677 58.9776C17.2677 58.9761 17.2671 58.9749 17.2659 58.9739ZM17.0804 58.8159C17.079 58.816 17.0777 58.8166 17.0767 58.8178C17.0756 58.8188 17.075 58.82 17.0749 58.8214C17.075 58.8229 17.0756 58.8241 17.0767 58.825C17.0777 58.8262 17.079 58.8268 17.0804 58.8269H17.3118C17.3132 58.8268 17.3145 58.8262 17.3154 58.825C17.3166 58.8241 17.3172 58.8228 17.3173 58.8214C17.3172 58.8199 17.3166 58.8188 17.3154 58.8178C17.3145 58.8166 17.3132 58.816 17.3118 58.8159H17.0804ZM17.3522 58.6598C17.3512 58.6587 17.35 58.6581 17.3486 58.658H17.1172C17.1157 58.6581 17.1145 58.6587 17.1135 58.6598C17.1124 58.6608 17.1118 58.6621 17.1117 58.6635C17.1118 58.665 17.1124 58.6661 17.1135 58.6671C17.1145 58.6683 17.1158 58.6689 17.1172 58.6689H17.3486C17.35 58.6689 17.3512 58.6683 17.3522 58.6671C17.3534 58.6661 17.354 58.6649 17.3541 58.6635C17.354 58.6621 17.3534 58.6608 17.3522 58.6598ZM16.8748 59.2953C16.8758 59.2965 16.877 59.2971 16.8784 59.2971H17.1116C17.113 59.2971 17.1143 59.2965 17.1153 59.2953C17.1164 59.2943 17.117 59.2931 17.1171 59.2917C17.117 59.2902 17.1164 59.289 17.1153 59.288C17.1143 59.2869 17.113 59.2863 17.1116 59.2862H16.8784C16.8769 59.2863 16.8758 59.2869 16.8748 59.288C16.8736 59.289 16.873 59.2903 16.8729 59.2917C16.8729 59.2931 16.8736 59.2943 16.8748 59.2953ZM17.1465 58.355C17.1475 58.3562 17.1488 58.3567 17.1502 58.3568H17.3816C17.383 58.3567 17.3842 58.3562 17.3852 58.355C17.3864 58.354 17.387 58.3528 17.387 58.3514C17.387 58.35 17.3864 58.3487 17.3852 58.3477C17.3842 58.3466 17.383 58.346 17.3816 58.3459H17.1502C17.1487 58.346 17.1475 58.3466 17.1465 58.3477C17.1454 58.3487 17.1448 58.35 17.1447 58.3514C17.1448 58.3528 17.1454 58.354 17.1465 58.355ZM17.1392 58.5019C17.1377 58.502 17.1365 58.5026 17.1355 58.5037C17.1344 58.5047 17.1338 58.506 17.1337 58.5074C17.1338 58.5088 17.1344 58.51 17.1355 58.511C17.1365 58.5122 17.1378 58.5128 17.1392 58.5128H17.3706C17.372 58.5128 17.3732 58.5122 17.3742 58.511C17.3754 58.51 17.376 58.5088 17.376 58.5074C17.376 58.5059 17.3754 58.5047 17.3742 58.5037C17.3732 58.5026 17.372 58.502 17.3706 58.5019H17.1392ZM17.1521 58.1879C17.1506 58.188 17.1494 58.1886 17.1484 58.1897C17.1473 58.1907 17.1467 58.192 17.1466 58.1934C17.1467 58.1949 17.1473 58.196 17.1484 58.197C17.1494 58.1982 17.1507 58.1987 17.1521 58.1988H17.3835C17.3849 58.1987 17.3861 58.1982 17.3871 58.197C17.3883 58.196 17.3889 58.1948 17.3889 58.1934C17.3889 58.192 17.3883 58.1907 17.3871 58.1897C17.3861 58.1886 17.3849 58.188 17.3835 58.1879H17.1521ZM17.3192 57.7196C17.3182 57.7185 17.3169 57.7179 17.3155 57.7178H17.0841C17.0826 57.7179 17.0815 57.7185 17.0805 57.7196C17.0793 57.7206 17.0787 57.7218 17.0786 57.7232C17.0787 57.7247 17.0793 57.7259 17.0805 57.7269C17.0815 57.728 17.0827 57.7286 17.0841 57.7287H17.3155C17.3169 57.7286 17.3182 57.728 17.3192 57.7269C17.3203 57.7259 17.3209 57.7247 17.321 57.7232C17.3209 57.7218 17.3203 57.7206 17.3192 57.7196ZM17.3541 57.8757C17.3531 57.8746 17.3518 57.874 17.3504 57.8739H17.119C17.1176 57.874 17.1163 57.8746 17.1154 57.8757C17.1142 57.8767 17.1136 57.8779 17.1135 57.8793C17.1136 57.8808 17.1142 57.882 17.1154 57.883C17.1163 57.8841 17.1176 57.8847 17.119 57.8848H17.3504C17.3518 57.8847 17.3531 57.8841 17.3541 57.883C17.3552 57.882 17.3558 57.8808 17.3559 57.8793C17.3558 57.8779 17.3552 57.8767 17.3541 57.8757ZM17.376 58.0336C17.3751 58.0325 17.3738 58.0319 17.3724 58.0318H17.141C17.1395 58.0319 17.1383 58.0325 17.1374 58.0336C17.1362 58.0346 17.1356 58.0359 17.1355 58.0373C17.1356 58.0387 17.1362 58.0399 17.1374 58.0409C17.1383 58.0421 17.1396 58.0426 17.141 58.0427H17.3724C17.3739 58.0426 17.3751 58.0421 17.376 58.0409C17.3772 58.0399 17.3778 58.0387 17.3779 58.0373C17.3779 58.0359 17.3772 58.0346 17.376 58.0336ZM17.0345 57.5599C17.0331 57.56 17.0318 57.5605 17.0309 57.5617C17.0297 57.5627 17.0291 57.5639 17.029 57.5653C17.0291 57.5667 17.0297 57.568 17.0309 57.569C17.0318 57.5701 17.0331 57.5707 17.0345 57.5708H17.2659C17.2673 57.5707 17.2686 57.5701 17.2696 57.569C17.2707 57.568 17.2713 57.5667 17.2714 57.5653C17.2713 57.5638 17.2707 57.5627 17.2696 57.5617C17.2686 57.5605 17.2673 57.56 17.2659 57.5599H17.0345ZM16.9647 57.4129C16.9657 57.4141 16.9669 57.4147 16.9684 57.4148H17.1998C17.2012 57.4147 17.2024 57.4141 17.2034 57.4129C17.2046 57.412 17.2051 57.4107 17.2052 57.4093C17.2051 57.4078 17.2046 57.4067 17.2034 57.4057C17.2024 57.4045 17.2012 57.4039 17.1998 57.4039H16.9684C16.9669 57.4039 16.9657 57.4045 16.9647 57.4057C16.9636 57.4067 16.963 57.4079 16.9629 57.4093C16.963 57.4107 16.9636 57.412 16.9647 57.4129ZM16.8821 57.255C16.8831 57.2562 16.8844 57.2568 16.8858 57.2568H17.1172C17.1186 57.2568 17.1198 57.2562 17.1208 57.255C17.122 57.254 17.1226 57.2528 17.1226 57.2514C17.1226 57.2499 17.122 57.2487 17.1208 57.2478C17.1198 57.2466 17.1186 57.246 17.1172 57.2459H16.8858C16.8843 57.246 16.8831 57.2466 16.8821 57.2478C16.881 57.2487 16.8804 57.25 16.8803 57.2514C16.8803 57.2528 16.881 57.254 16.8821 57.255ZM16.7793 57.0989C16.7803 57.1001 16.7815 57.1007 16.7829 57.1007H17.0143C17.0158 57.1007 17.017 57.1001 17.018 57.0989C17.0191 57.0979 17.0197 57.0967 17.0198 57.0953C17.0197 57.0938 17.0191 57.0926 17.018 57.0917C17.017 57.0905 17.0157 57.0899 17.0143 57.0898H16.7829C16.7814 57.0899 16.7803 57.0905 16.7793 57.0917C16.7781 57.0926 16.7775 57.0939 16.7774 57.0953C16.7774 57.0967 16.7781 57.0979 16.7793 57.0989ZM16.6562 56.9337C16.6547 56.9337 16.6535 56.9343 16.6525 56.9355C16.6514 56.9365 16.6508 56.9377 16.6507 56.9391C16.6508 56.9406 16.6514 56.9418 16.6525 56.9427C16.6535 56.9439 16.6547 56.9445 16.6562 56.9446H16.8876C16.889 56.9445 16.8902 56.9439 16.8912 56.9427C16.8924 56.9418 16.8929 56.9405 16.893 56.9391C16.8929 56.9377 16.8924 56.9365 16.8912 56.9355C16.8902 56.9343 16.889 56.9337 16.8876 56.9337H16.6562ZM16.7388 56.7812C16.7388 56.7798 16.7382 56.7785 16.737 56.7776C16.736 56.7764 16.7348 56.7758 16.7334 56.7757H16.502C16.5006 56.7758 16.4993 56.7764 16.4983 56.7776C16.4972 56.7785 16.4966 56.7798 16.4965 56.7812C16.4966 56.7827 16.4972 56.7838 16.4983 56.7848C16.4993 56.786 16.5006 56.7866 16.502 56.7867H16.7334C16.7348 56.7866 16.736 56.786 16.737 56.7848C16.7382 56.7838 16.7388 56.7827 16.7388 56.7812ZM16.3146 56.6196C16.3131 56.6197 16.312 56.6203 16.3109 56.6215C16.3097 56.6224 16.3091 56.6237 16.3091 56.6251C16.3091 56.6265 16.3097 56.6277 16.3109 56.6287C16.3119 56.6299 16.3131 56.6305 16.3146 56.6306H16.546C16.5474 56.6305 16.5487 56.6299 16.5497 56.6287C16.5508 56.6277 16.5514 56.6265 16.5515 56.6251C16.5514 56.6236 16.5508 56.6224 16.5497 56.6215C16.5487 56.6203 16.5474 56.6197 16.546 56.6196H16.3146ZM16.0594 56.4708C16.0604 56.472 16.0616 56.4725 16.063 56.4726H16.2944C16.2958 56.4725 16.2971 56.472 16.2981 56.4708C16.2992 56.4698 16.2998 56.4686 16.2999 56.4672C16.2998 56.4657 16.2992 56.4645 16.2981 56.4635C16.2971 56.4624 16.2958 56.4618 16.2944 56.4617H16.063C16.0615 56.4618 16.0604 56.4624 16.0594 56.4635C16.0582 56.4645 16.0576 56.4658 16.0575 56.4672C16.0575 56.4686 16.0582 56.4698 16.0594 56.4708ZM15.6535 56.3147C15.6545 56.3159 15.6557 56.3164 15.6571 56.3165H15.8886C15.89 56.3164 15.8912 56.3159 15.8922 56.3147C15.8933 56.3137 15.8939 56.3125 15.894 56.3111C15.8939 56.3096 15.8933 56.3084 15.8922 56.3074C15.8912 56.3063 15.89 56.3057 15.8886 56.3056H15.6571C15.6556 56.3057 15.6545 56.3063 15.6535 56.3074C15.6523 56.3084 15.6518 56.3097 15.6517 56.3111C15.6518 56.3125 15.6523 56.3137 15.6535 56.3147Z" fill="#CA872A"/>
<path d="M16.5699 56.8382C16.1757 56.4439 15.6995 56.2468 15.1412 56.2468C14.5828 56.2468 14.1067 56.4439 13.7124 56.8382C13.3181 57.2324 13.121 57.7086 13.121 58.2669C13.121 58.8252 13.3181 59.3015 13.7124 59.6957C14.1066 60.09 14.5828 60.2871 15.1412 60.2871C15.6995 60.2871 16.1756 60.09 16.5699 59.6957C16.9642 59.3015 17.1613 58.8253 17.1613 58.2669C17.1613 57.7086 16.9642 57.2324 16.5699 56.8382Z" fill="#FBB43C"/>
<path d="M16.2768 57.1309C15.9635 56.8176 15.5849 56.6609 15.1412 56.6609C14.6975 56.6609 14.319 56.8176 14.0056 57.1309C13.6922 57.4442 13.5356 57.8227 13.5356 58.2665C13.5356 58.7103 13.6922 59.0887 14.0056 59.4021C14.3189 59.7154 14.6974 59.8721 15.1412 59.8721C15.5849 59.8721 15.9634 59.7154 16.2768 59.4021C16.5901 59.0888 16.7468 58.7103 16.7468 58.2665C16.7468 57.8227 16.5901 57.4442 16.2768 57.1309Z" fill="#F4A621"/>
<path d="M14.7553 57.6226C14.6811 57.6968 14.6441 57.7921 14.6441 57.9086C14.6441 57.9764 14.655 58.0346 14.6769 58.0834C14.6981 58.1321 14.7284 58.1748 14.768 58.2115C14.8061 58.2476 14.8527 58.2797 14.9078 58.3079C14.9622 58.3355 15.0268 58.3633 15.1016 58.3916C15.1772 58.4198 15.2309 58.4509 15.2626 58.4848C15.293 58.518 15.3082 58.5629 15.3082 58.6194C15.3082 58.6737 15.2909 58.7172 15.2563 58.7497C15.221 58.7814 15.173 58.7973 15.1122 58.7973C15.0388 58.7973 14.983 58.7755 14.9449 58.7317C14.9054 58.6879 14.8856 58.625 14.8856 58.5431H14.5869C14.5869 58.6843 14.6257 58.7977 14.7034 58.8831C14.781 58.9679 14.8905 59.018 15.0317 59.0335V59.238H15.1959V59.0325C15.3244 59.0191 15.425 58.976 15.4977 58.9033C15.5712 58.8298 15.6079 58.7345 15.6079 58.6173C15.6079 58.5544 15.598 58.4997 15.5782 58.4531C15.5592 58.4051 15.5313 58.3631 15.4945 58.327C15.4585 58.2896 15.4137 58.2564 15.36 58.2275C15.307 58.1978 15.2396 58.1664 15.1577 58.1332C15.0751 58.1 15.0186 58.0675 14.9882 58.0358C14.9579 58.004 14.9427 57.962 14.9427 57.9097C14.9427 57.8532 14.9582 57.8091 14.9893 57.7774C15.0203 57.7449 15.0642 57.7286 15.1206 57.7286C15.1778 57.7286 15.2237 57.7495 15.2583 57.7911C15.2915 57.8313 15.3081 57.8931 15.3081 57.9765H15.6078C15.6078 57.8416 15.5732 57.7321 15.504 57.6481C15.4348 57.5634 15.3395 57.5122 15.218 57.4945V57.271H15.0518V57.4924C14.9283 57.5043 14.8294 57.5477 14.7553 57.6226Z" fill="#624118"/>
<path d="M14.7185 57.6226C14.6444 57.6968 14.6073 57.7921 14.6073 57.9086C14.6073 57.9764 14.6183 58.0346 14.6401 58.0834C14.6613 58.1321 14.6917 58.1748 14.7312 58.2115C14.7694 58.2476 14.816 58.2797 14.871 58.3079C14.9254 58.3355 14.99 58.3633 15.0649 58.3916C15.1404 58.4198 15.1941 58.4509 15.2259 58.4848C15.2563 58.518 15.2714 58.5629 15.2714 58.6194C15.2714 58.6737 15.2541 58.7172 15.2195 58.7497C15.1843 58.7814 15.1362 58.7973 15.0755 58.7973C15.002 58.7973 14.9462 58.7755 14.9081 58.7317C14.8686 58.6879 14.8488 58.625 14.8488 58.5431H14.5501C14.5501 58.6843 14.5889 58.7977 14.6666 58.8831C14.7443 58.9679 14.8537 59.018 14.995 59.0335V59.238H15.1592V59.0325C15.2877 59.0191 15.3883 58.976 15.461 58.9033C15.5345 58.8298 15.5712 58.7345 15.5712 58.6173C15.5712 58.5544 15.5613 58.4997 15.5415 58.4531C15.5225 58.4051 15.4946 58.3631 15.4578 58.327C15.4218 58.2896 15.377 58.2564 15.3233 58.2275C15.2703 58.1978 15.2029 58.1664 15.121 58.1332C15.0384 58.1 14.9819 58.0675 14.9515 58.0358C14.9212 58.004 14.906 57.962 14.906 57.9097C14.906 57.8532 14.9215 57.8091 14.9526 57.7774C14.9836 57.7449 15.0275 57.7286 15.0839 57.7286C15.1411 57.7286 15.187 57.7495 15.2216 57.7911C15.2548 57.8313 15.2714 57.8931 15.2714 57.9765H15.5712C15.5712 57.8416 15.5366 57.7321 15.4674 57.6481C15.3982 57.5634 15.3029 57.5122 15.1814 57.4945V57.271H15.0151V57.4924C14.8916 57.5043 14.7927 57.5477 14.7185 57.6226Z" fill="#724B1E"/>
<path d="M17.1613 56.2468V49.9378" stroke="#0047AB" stroke-miterlimit="10"/>
<path d="M14.8903 55.0987V52.8843" stroke="#0047AB" stroke-miterlimit="10"/>
<path d="M14.8903 51.3417V49.2047" stroke="#0047AB" stroke-miterlimit="10"/>
<path d="M12.6719 58.2724V53.2769" stroke="#0047AB" stroke-miterlimit="10"/>
<path d="M54.623 26.6308C55.9873 26.6308 57.0933 25.5248 57.0933 24.1605C57.0933 22.7962 55.9873 21.6902 54.623 21.6902C53.2587 21.6902 52.1526 22.7962 52.1526 24.1605C52.1526 25.5248 53.2587 26.6308 54.623 26.6308Z" fill="#E8F0F7"/>
<path d="M145.498 42.1836C145.655 41.2179 144.999 40.308 144.033 40.1513C143.068 39.9945 142.158 40.6503 142.001 41.616C141.844 42.5817 142.5 43.4915 143.466 43.6483C144.431 43.805 145.341 43.1492 145.498 42.1836Z" fill="#E8F0F7"/>
<path d="M137.073 39.5734C137.74 39.5734 138.282 39.0321 138.282 38.3644C138.282 37.6967 137.74 37.1554 137.073 37.1554C136.405 37.1554 135.864 37.6967 135.864 38.3644C135.864 39.0321 136.405 39.5734 137.073 39.5734Z" fill="#E8F0F7"/>
<path d="M82.5713 112.434C85.4724 112.434 87.8241 110.083 87.8241 107.182C87.8241 104.281 85.4724 101.929 82.5713 101.929C79.6703 101.929 77.3185 104.281 77.3185 107.182C77.3185 110.083 79.6703 112.434 82.5713 112.434Z" fill="#E8F0F7"/>
<path d="M91.7868 112.917C92.5963 112.917 93.2526 112.261 93.2526 111.451C93.2526 110.642 92.5963 109.985 91.7868 109.985C90.9772 109.985 90.3209 110.642 90.3209 111.451C90.3209 112.261 90.9772 112.917 91.7868 112.917Z" fill="#E8F0F7"/>
<path d="M13.9414 128.142H141.118" stroke="#0047AB" stroke-opacity="0.45" stroke-miterlimit="10" stroke-linecap="round" stroke-linejoin="round"/>
<path d="M142.14 128.141H145.459" stroke="#0047AB" stroke-opacity="0.45" stroke-miterlimit="10" stroke-linecap="round" stroke-linejoin="round"/>
<path d="M146.469 128.141H147.448" stroke="#0047AB" stroke-opacity="0.45" stroke-miterlimit="10" stroke-linecap="round" stroke-linejoin="round"/>
<path d="M12.5861 128.141H9.26721" stroke="#0047AB" stroke-opacity="0.45" stroke-miterlimit="10" stroke-linecap="round" stroke-linejoin="round"/>
<path d="M8.2571 128.141H7.2782" stroke="#0047AB" stroke-opacity="0.45" stroke-miterlimit="10" stroke-linecap="round" stroke-linejoin="round"/>
<path d="M40.8146 36.7384C41.1365 36.7384 41.3975 36.4774 41.3975 36.1555C41.3975 35.8336 41.1365 35.5726 40.8146 35.5726C40.4927 35.5726 40.2317 35.8336 40.2317 36.1555C40.2317 36.4774 40.4927 36.7384 40.8146 36.7384Z" stroke="#5672B6" stroke-width="0.54" stroke-miterlimit="10" stroke-linecap="round" stroke-linejoin="round"/>
<path d="M81.9885 89.4549C82.3104 89.4549 82.5714 89.194 82.5714 88.872C82.5714 88.5501 82.3104 88.2891 81.9885 88.2891C81.6666 88.2891 81.4056 88.5501 81.4056 88.872C81.4056 89.194 81.6666 89.4549 81.9885 89.4549Z" stroke="#5672B6" stroke-width="3.536" stroke-miterlimit="10" stroke-linecap="round" stroke-linejoin="round"/>
<path d="M63.5987 36.1555C64.2426 36.1555 64.7645 35.6335 64.7645 34.9896C64.7645 34.3457 64.2426 33.8238 63.5987 33.8238C62.9548 33.8238 62.4328 34.3457 62.4328 34.9896C62.4328 35.6335 62.9548 36.1555 63.5987 36.1555Z" stroke="#5672B6" stroke-width="0.54" stroke-miterlimit="10" stroke-linecap="round" stroke-linejoin="round"/>
<path d="M28.7477 55.4826C29.4501 55.4826 30.0196 54.9132 30.0196 54.2108C30.0196 53.5083 29.4501 52.9389 28.7477 52.9389C28.0453 52.9389 27.4758 53.5083 27.4758 54.2108C27.4758 54.9132 28.0453 55.4826 28.7477 55.4826Z" stroke="#5672B6" stroke-width="0.54" stroke-miterlimit="10" stroke-linecap="round" stroke-linejoin="round"/>
<path d="M118.394 94.2031C118.507 93.5097 118.036 92.8564 117.343 92.7439C116.649 92.6313 115.996 93.1022 115.883 93.7956C115.771 94.4889 116.242 95.1422 116.935 95.2548C117.628 95.3673 118.282 94.8964 118.394 94.2031Z" stroke="#5672B6" stroke-width="0.54" stroke-miterlimit="10" stroke-linecap="round" stroke-linejoin="round"/>
<path d="M126.36 48.7969L125.525 47.9617" stroke="#5672B6" stroke-miterlimit="10" stroke-linecap="round" stroke-linejoin="round"/>
<path d="M124.278 46.7153L123.493 45.9299" stroke="#5672B6" stroke-miterlimit="10" stroke-linecap="round" stroke-linejoin="round"/>
<path d="M124.328 47.9617L123.493 48.7969" stroke="#5672B6" stroke-miterlimit="10" stroke-linecap="round" stroke-linejoin="round"/>
<path d="M126.36 45.9299L125.525 46.7651" stroke="#5672B6" stroke-miterlimit="10" stroke-linecap="round" stroke-linejoin="round"/>
<path d="M85.7135 30.306L84.8784 29.4708" stroke="#5672B6" stroke-miterlimit="10" stroke-linecap="round" stroke-linejoin="round"/>
<path d="M83.6319 28.2244L82.8466 27.439" stroke="#5672B6" stroke-miterlimit="10" stroke-linecap="round" stroke-linejoin="round"/>
<path d="M83.6818 29.4708L82.8466 30.306" stroke="#5672B6" stroke-miterlimit="10" stroke-linecap="round" stroke-linejoin="round"/>
<path d="M85.7135 27.439L84.8784 28.2742" stroke="#5672B6" stroke-miterlimit="10" stroke-linecap="round" stroke-linejoin="round"/>
<path d="M40.0101 96.0807L39.1749 95.2456" stroke="#5672B6" stroke-width="0.54" stroke-miterlimit="10" stroke-linecap="round" stroke-linejoin="round"/>
<path d="M37.9285 93.9991L37.1431 93.2137" stroke="#5672B6" stroke-width="0.54" stroke-miterlimit="10" stroke-linecap="round" stroke-linejoin="round"/>
<path d="M37.9784 95.2456L37.1431 96.0807" stroke="#5672B6" stroke-width="0.54" stroke-miterlimit="10" stroke-linecap="round" stroke-linejoin="round"/>
<path d="M40.0101 93.2137L39.1749 94.049" stroke="#5672B6" stroke-width="0.54" stroke-miterlimit="10" stroke-linecap="round" stroke-linejoin="round"/>
<path d="M137.656 62.2563C137.978 62.2563 138.239 61.9953 138.239 61.6734C138.239 61.3515 137.978 61.0905 137.656 61.0905C137.334 61.0905 137.073 61.3515 137.073 61.6734C137.073 61.9953 137.334 62.2563 137.656 62.2563Z" stroke="#5672B6" stroke-width="0.54" stroke-miterlimit="10" stroke-linecap="round" stroke-linejoin="round"/>
<path d="M105.479 31.9187C105.801 31.9187 106.062 31.6577 106.062 31.3358C106.062 31.0139 105.801 30.7529 105.479 30.7529C105.157 30.7529 104.896 31.0139 104.896 31.3358C104.896 31.6577 105.157 31.9187 105.479 31.9187Z" stroke="#5672B6" stroke-width="3.536" stroke-miterlimit="10" stroke-linecap="round" stroke-linejoin="round"/>
<path d="M114.951 84.7971H37.3042C36.4906 84.7971 35.8311 84.1375 35.8311 83.3239V42.2475C35.8311 41.4339 36.4906 40.7744 37.3042 40.7744H114.951C115.764 40.7744 116.424 41.4339 116.424 42.2475V83.3239C116.424 84.1375 115.764 84.7971 114.951 84.7971Z" fill="#E3E8FF"/>
<path d="M76.1275 62.7856H35.831V42.6722C35.831 41.4363 36.833 40.4343 38.0689 40.4343H76.1274L76.1275 62.7856ZM114.186 84.6585H76.1274V62.8257H116.424V82.4205C116.424 83.6565 115.422 84.6585 114.186 84.6585Z" fill="#F0F3FF"/>
<path d="M114.951 85.0571H37.3048C36.158 85.0571 35.225 84.124 35.225 82.9773V41.9008C35.225 40.7541 36.1581 39.821 37.3048 39.821H114.951C116.098 39.821 117.031 40.7541 117.031 41.9008V82.9772C117.031 84.124 116.098 85.0571 114.951 85.0571ZM37.3048 41.0343C36.827 41.0343 36.4382 41.423 36.4382 41.9008V82.9772C36.4382 83.455 36.827 83.8438 37.3048 83.8438H114.951C115.429 83.8438 115.818 83.455 115.818 82.9772V41.9008C115.818 41.423 115.429 41.0343 114.951 41.0343H37.3048Z" fill="#0047AB"/>
<path d="M114.951 85.057V83.8438C115.429 83.8438 115.817 83.4551 115.817 82.9773H117.031C117.031 84.124 116.098 85.057 114.951 85.057ZM117.031 41.9008H115.817C115.817 41.423 115.429 41.0342 114.951 41.0342V39.821C116.098 39.821 117.031 40.7541 117.031 41.9008ZM36.4376 41.9008H35.2244C35.2244 40.7541 36.1574 39.821 37.3042 39.821V41.0342C36.8264 41.0342 36.4376 41.423 36.4376 41.9008ZM37.3042 85.057C36.1574 85.057 35.2244 84.124 35.2244 82.9773H36.4377C36.4377 83.4551 36.8264 83.8438 37.3042 83.8438V85.057Z" fill="#0047AB"/>
<path d="M40.0101 58.1627H40.0539" stroke="#4C4D51" stroke-width="0.1" stroke-linecap="round" stroke-linejoin="round"/>
<path d="M40.4025 58.1627H69.0181" stroke="#4C4D51" stroke-width="0.1" stroke-linecap="round" stroke-linejoin="round" stroke-dasharray="1.12 4.47"/>
<path d="M69.1926 58.1627H69.2363" stroke="#4C4D51" stroke-width="0.1" stroke-linecap="round" stroke-linejoin="round"/>
<path d="M40.0101 53.7723H40.0539" stroke="#4C4D51" stroke-width="0.1" stroke-linecap="round" stroke-linejoin="round"/>
<path d="M40.4025 53.7723H69.0181" stroke="#4C4D51" stroke-width="0.1" stroke-linecap="round" stroke-linejoin="round" stroke-dasharray="1.12 4.47"/>
<path d="M69.1926 53.7723H69.2363" stroke="#4C4D51" stroke-width="0.1" stroke-linecap="round" stroke-linejoin="round"/>
<path d="M40.0101 49.382H40.0539" stroke="#4C4D51" stroke-width="0.1" stroke-linecap="round" stroke-linejoin="round"/>
<path d="M40.4025 49.382H69.0181" stroke="#4C4D51" stroke-width="0.1" stroke-linecap="round" stroke-linejoin="round" stroke-dasharray="1.12 4.47"/>
<path d="M69.1926 49.382H69.2363" stroke="#4C4D51" stroke-width="0.1" stroke-linecap="round" stroke-linejoin="round"/>
<path d="M40.0101 44.9916H40.0539" stroke="#4C4D51" stroke-width="0.1" stroke-linecap="round" stroke-linejoin="round"/>
<path d="M40.4025 44.9916H69.0181" stroke="#4C4D51" stroke-width="0.1" stroke-linecap="round" stroke-linejoin="round" stroke-dasharray="1.12 4.47"/>
<path d="M69.1926 44.9916H69.2363" stroke="#4C4D51" stroke-width="0.1" stroke-linecap="round" stroke-linejoin="round"/>
<path d="M68.6251 43.4855V45.7149L67.8844 44.9743L59.8392 53.0515L58.0103 51.2226L52.0537 57.1792L49.0649 54.1904L42.0149 61.2101H40.387L49.0649 52.5664L52.0537 55.5551L58.0103 49.5986L59.8392 51.4274L67.0723 44.1624L66.3957 43.4855H68.6251Z" fill="#6495ED"/>
<path d="M70.1621 61.2101H40.0101V42.8829" stroke="#4C4D51" stroke-width="0.1" stroke-miterlimit="10"/>
<path d="M70.1621 61.7611V60.6591L70.7131 61.2101L70.1621 61.7611Z" fill="#4C4D51"/>
<path d="M40.5611 42.8829H39.4591L40.0101 42.332L40.5611 42.8829Z" fill="#4C4D51"/>
<path d="M80.1003 79.3583H80.144" stroke="#4C4D51" stroke-width="0.1" stroke-linecap="round" stroke-linejoin="round"/>
<path d="M80.4925 79.3583H109.108" stroke="#4C4D51" stroke-width="0.1" stroke-linecap="round" stroke-linejoin="round" stroke-dasharray="1.12 4.47"/>
<path d="M109.283 79.3583H109.326" stroke="#4C4D51" stroke-width="0.1" stroke-linecap="round" stroke-linejoin="round"/>
<path d="M80.1003 74.9679H80.144" stroke="#4C4D51" stroke-width="0.1" stroke-linecap="round" stroke-linejoin="round"/>
<path d="M80.4925 74.9679H109.108" stroke="#4C4D51" stroke-width="0.1" stroke-linecap="round" stroke-linejoin="round" stroke-dasharray="1.12 4.47"/>
<path d="M109.283 74.9679H109.326" stroke="#4C4D51" stroke-width="0.1" stroke-linecap="round" stroke-linejoin="round"/>
<path d="M80.1003 70.5774H80.144" stroke="#4C4D51" stroke-width="0.1" stroke-linecap="round" stroke-linejoin="round"/>
<path d="M80.4926 70.5774H109.108" stroke="#4C4D51" stroke-width="0.1" stroke-linecap="round" stroke-linejoin="round" stroke-dasharray="1.12 4.47"/>
<path d="M109.283 70.5774H109.326" stroke="#4C4D51" stroke-width="0.1" stroke-linecap="round" stroke-linejoin="round"/>
<path d="M80.1003 66.1871H80.144" stroke="#4C4D51" stroke-width="0.1" stroke-linecap="round" stroke-linejoin="round"/>
<path d="M80.4926 66.1871H109.108" stroke="#4C4D51" stroke-width="0.1" stroke-linecap="round" stroke-linejoin="round" stroke-dasharray="1.12 4.47"/>
<path d="M109.283 66.1871H109.326" stroke="#4C4D51" stroke-width="0.1" stroke-linecap="round" stroke-linejoin="round"/>
<path d="M110.252 82.5356H79.9702V64.0785H80.2303V82.2757H110.252V82.5356Z" fill="#4C4D51"/>
<path d="M110.252 82.9566V81.8547L110.803 82.4057L110.252 82.9566Z" fill="#4C4D51"/>
<path d="M80.6512 64.0785H79.5493L80.1002 63.5275L80.6512 64.0785Z" fill="#4C4D51"/>
<path d="M107.519 66.7231L107.311 65.9722L106.56 66.18L106.919 66.3835L101.204 76.7018L93.0832 71.861L88.7208 76.9756L85.0566 74.6229L79.9916 82.3343L80.2089 82.477L85.1326 74.9808L88.7712 77.317L93.1385 72.1966L101.302 77.0625L107.146 66.5116L107.519 66.7231Z" fill="#4C4D51"/>
<path d="M110.023 65.7956L110.022 65.0164L109.243 65.0175L109.541 65.3145L100.29 74.5328L90.2271 71.8801L85.421 78.7001H80.1003V78.96H85.5559L90.3356 72.1775L100.296 74.8032L100.368 74.8222L109.725 65.4981L109.713 65.4869L110.023 65.7956Z" fill="#6495ED"/>
<path d="M78.4001 58.4371H113.752" stroke="#4C4D51" stroke-width="0.1" stroke-miterlimit="10" stroke-linecap="round" stroke-linejoin="round" stroke-dasharray="1.11 4.44"/>
<path d="M83.3607 54.7459H80.1492C79.9099 54.7459 79.7159 54.9399 79.7159 55.1792V61.2101H83.794V55.1792C83.794 54.9399 83.6 54.7459 83.3607 54.7459Z" fill="#6495ED"/>
<path d="M78.4001 54.7459H113.752" stroke="#4C4D51" stroke-width="0.1" stroke-miterlimit="10" stroke-linecap="round" stroke-linejoin="round" stroke-dasharray="1.11 4.44"/>
<path d="M78.4001 51.0547H113.752" stroke="#4C4D51" stroke-width="0.1" stroke-miterlimit="10" stroke-linecap="round" stroke-linejoin="round" stroke-dasharray="1.11 4.44"/>
<path d="M78.4001 47.3634H113.752" stroke="#4C4D51" stroke-width="0.1" stroke-miterlimit="10" stroke-linecap="round" stroke-linejoin="round" stroke-dasharray="1.11 4.44"/>
<path d="M78.4001 43.6722H113.752" stroke="#4C4D51" stroke-width="0.1" stroke-miterlimit="10" stroke-linecap="round" stroke-linejoin="round" stroke-dasharray="1.11 4.44"/>
<path d="M90.3517 52.146H87.1402C86.9009 52.146 86.7069 52.34 86.7069 52.5793V61.2101H90.785V52.5793C90.785 52.34 90.591 52.146 90.3517 52.146ZM97.3427 50.4129H94.1312C93.8919 50.4129 93.6979 50.6069 93.6979 50.8462V61.2101H97.776V50.8462C97.776 50.6069 97.582 50.4129 97.3427 50.4129ZM104.334 47.8131H101.122C100.883 47.8131 100.689 48.0071 100.689 48.2464V61.2101H104.767V48.2464C104.767 48.0071 104.573 47.8131 104.334 47.8131ZM111.325 46.0799H108.113C107.874 46.0799 107.68 46.2739 107.68 46.5132V61.2101H111.758V46.5132C111.758 46.2739 111.564 46.0799 111.325 46.0799Z" fill="#6495ED"/>
<path d="M113.752 61.0368H78.4001" stroke="#4C4D51" stroke-width="0.1" stroke-miterlimit="10"/>
<path d="M60.1743 79.1436C63.2406 76.0773 63.2405 71.1058 60.1741 68.0395C57.1078 64.9733 52.1363 64.9733 49.07 68.0397C46.0038 71.1061 46.0038 76.0776 49.0702 79.1438C52.1366 82.2101 57.1081 82.21 60.1743 79.1436Z" fill="#D0D0D0"/>
<path d="M59.7413 78.7106C62.5684 75.8834 62.5683 71.2997 59.7411 68.4725C56.9139 65.6454 52.3302 65.6455 49.503 68.4727C46.6759 71.2999 46.676 75.8837 49.5032 78.7108C52.3304 81.5379 56.9142 81.5378 59.7413 78.7106Z" fill="white"/>
<path d="M54.623 73.5918L59.7386 78.3441C58.4181 79.7655 56.5632 80.5742 54.623 80.5742C51.9866 80.5742 49.5661 79.081 48.3831 76.7249L54.623 73.5918Z" fill="#F0F0F0"/>
<path d="M54.623 73.5918L57.9689 67.4634C60.2076 68.6856 61.6054 71.0411 61.6054 73.5918C61.6054 75.3492 60.9418 77.0435 59.7484 78.3335L54.623 73.5918Z" fill="#0047AB"/>
<path d="M54.623 73.5918L48.4149 76.7874C47.9062 75.7991 47.6407 74.7034 47.6407 73.5918C47.6407 69.7615 50.7926 66.6096 54.623 66.6096C55.8233 66.6096 57.0035 66.9191 58.0493 67.5081L54.623 73.5918Z" fill="#6495ED"/>
<path opacity="0.31" d="M92.2899 114.335L83.702 110.177L74.0103 121.735L72.383 119.425L74.4085 103.888L66.3858 79.7403L48 86.2495L52.8971 98.5776L68.6352 136.464L72.106 145.049L72.5081 142.556L76.3431 127.933L81.703 121.982L91.2733 121.246L76.0321 110.697L92.2899 114.335Z" fill="white"/>
<path d="M77.4849 68.869C83.1706 68.869 87.7797 64.4212 87.7797 58.9345C87.7797 53.4478 83.1706 49 77.4849 49C71.7992 49 67.19 53.4478 67.19 58.9345C67.19 64.4212 71.7992 68.869 77.4849 68.869Z" fill="#0047AB"/>
<path d="M104.655 128.715L98.3927 131.86C96.5719 128.396 92.7104 126.101 88.3368 126.45C83.2197 126.86 79.1382 130.976 78.9258 135.926C78.8461 137.773 79.2861 139.518 80.1282 141.028L79.7034 141.24L76.3578 142.917L72.1093 145.049C69.9168 140.099 68.0619 135.129 66.4953 130.225C66.2412 129.44 65.9946 128.647 65.7594 127.862V127.854C65.585 127.277 65.4105 126.686 65.2777 126.227C65.1449 125.771 65.0539 125.457 65.0539 125.457C62.2431 115.651 60.5248 106.248 59.493 97.9974L59.5006 98.1567C58.1274 89.1022 58.0592 79.2436 58.0592 79.2436C58.0136 77.6049 58.0023 76.1218 58.0023 74.8131C58.0023 74.0203 58.0023 73.2882 58.0174 72.6282C58.0592 70.0033 58.154 68.4518 58.1654 68.2318V68.2053L63.6504 68.9487L66.4195 69.4115C66.4005 69.6543 66.3891 69.9008 66.3891 70.1474C66.3891 75.6362 70.9979 80.0819 76.6802 80.0819C81.4217 80.0819 85.4084 76.9942 86.6033 72.7875L89.562 73.2806L94.076 74.0734V74.0924C94.0646 74.2479 93.9432 76.4631 93.9584 80.025C93.9584 80.025 94.2201 90.0695 94.645 93.9462C95.1798 99.4426 96.0826 105.531 97.6113 111.482C97.6189 111.501 97.6227 111.516 97.6265 111.535C98.203 113.876 98.2827 113.948 98.2865 113.948C99.819 119.247 101.882 124.345 104.659 128.711L104.655 128.715Z" fill="#6495ED"/>
</svg>
