<svg width="151" height="108" viewBox="0 0 151 108" fill="none" xmlns="http://www.w3.org/2000/svg">
<path opacity="0.31" d="M44.3725 77.2287L35.7686 73.0636L26.0589 84.6431L24.4285 82.3287L26.4579 66.7627L18.4203 42.57L0.000244141 49.0913L4.90642 61.4423L20.6738 99.3996L24.1511 108L24.5539 105.503L28.396 90.8528L33.7659 84.8901L43.354 84.1528L28.0844 73.5842L44.3725 77.2287Z" fill="white"/>
<path d="M29.5398 31.6784C35.2361 31.6784 39.8538 27.2223 39.8538 21.7255C39.8538 16.2286 35.2361 11.7725 29.5398 11.7725C23.8436 11.7725 19.2258 16.2286 19.2258 21.7255C19.2258 27.2223 23.8436 31.6784 29.5398 31.6784Z" fill="#0047AB"/>
<path d="M56.761 91.6358L50.4868 94.7863C48.6626 91.3166 44.7939 89.0174 40.4122 89.3671C35.2856 89.7775 31.1965 93.9008 30.9837 98.8602C30.9039 100.711 31.3447 102.459 32.1883 103.972L31.7627 104.184L28.4109 105.864L24.1545 108C21.958 103.041 20.0996 98.0621 18.5301 93.1484C18.2755 92.3617 18.0285 91.5674 17.7928 90.7808V90.7732C17.618 90.1955 17.4432 89.6027 17.3102 89.1428C17.1772 88.6868 17.086 88.3714 17.086 88.3714C14.27 78.5476 12.5484 69.1267 11.5148 60.8611L11.5224 61.0207C10.1467 51.9494 10.0782 42.0724 10.0782 42.0724C10.0326 40.4307 10.0212 38.9448 10.0212 37.6337C10.0212 36.8394 10.0212 36.106 10.0364 35.4447C10.0782 32.8149 10.1732 31.2606 10.1847 31.0402V31.0136L15.6799 31.7584L18.4541 32.2221C18.4351 32.4653 18.4237 32.7123 18.4237 32.9593C18.4237 38.4583 23.041 42.9123 28.7339 42.9123C33.4842 42.9123 37.4784 39.8188 38.6755 35.6043L41.6397 36.0984L46.162 36.8926V36.9116C46.1506 37.0674 46.029 39.2868 46.0442 42.8553C46.0442 42.8553 46.3064 52.9184 46.7321 56.8023C47.2679 62.309 48.1724 68.4084 49.7039 74.3711C49.7115 74.3901 49.7153 74.4053 49.7191 74.4243C50.2967 76.7691 50.3766 76.8413 50.3804 76.8413C51.9157 82.1503 53.983 87.2579 56.7649 91.632L56.761 91.6358Z" fill="#6495ED"/>
<path opacity="0.31" d="M106.573 65.4562L115.177 61.2911L124.886 72.8706L126.517 70.5562L124.487 54.9902L132.525 30.7975L150.945 37.3188L146.039 49.6698L130.271 87.6271L126.794 96.2272L126.391 93.7304L122.549 79.0803L117.179 73.1176L107.591 72.3803L122.861 61.8117L106.573 65.4562Z" fill="white"/>
<path d="M121.406 19.9059C115.709 19.9059 111.092 15.4498 111.092 9.95297C111.092 4.4561 115.709 0 121.406 0C127.102 0 131.72 4.4561 131.72 9.95297C131.72 15.4498 127.102 19.9059 121.406 19.9059Z" fill="#0047AB"/>
<path d="M94.1845 79.8633L100.459 83.0138C102.283 79.5441 106.152 77.2449 110.533 77.5946C115.66 78.005 119.749 82.1283 119.962 87.0877C120.042 88.9384 119.601 90.6866 118.757 92.1991L119.183 92.4119L122.535 94.0916L126.791 96.2274C128.988 91.268 130.846 86.2896 132.415 81.3759C132.67 80.5892 132.917 79.7949 133.153 79.0083V79.0007C133.328 78.423 133.502 77.8302 133.635 77.3703C133.768 76.9143 133.86 76.5989 133.86 76.5989C136.676 66.7751 138.397 57.3542 139.431 49.0886L139.423 49.2482C140.799 40.1769 140.867 30.2999 140.867 30.2999C140.913 28.6582 140.924 27.1723 140.924 25.8612C140.924 25.0669 140.924 24.3334 140.909 23.6722C140.867 21.0424 140.772 19.4881 140.761 19.2677V19.2411L135.266 19.9859L132.491 20.4495C132.51 20.6928 132.522 20.9398 132.522 21.1868C132.522 26.6858 127.905 31.1398 122.212 31.1398C117.461 31.1398 113.467 28.0463 112.27 23.8318L109.306 24.3258L104.784 25.1201V25.1391C104.795 25.2949 104.917 27.5143 104.901 31.0828C104.901 31.0828 104.639 41.1459 104.213 45.0298C103.678 50.5365 102.773 56.6359 101.242 62.5986C101.234 62.6176 101.23 62.6328 101.226 62.6518C100.649 64.9966 100.569 65.0688 100.565 65.0688C99.0299 70.3778 96.9625 75.4854 94.1807 79.8595L94.1845 79.8633Z" fill="#6495ED"/>
<path d="M13.3048 72.0736C13.3048 72.0736 13.3048 72.0736 13.3023 72.0786C10.6538 73.8612 9.51114 77.0912 9.19881 80.1535L9.20135 80.1561C8.96012 82.5354 9.14549 84.9477 9.60256 87.2889L9.60002 87.2914C9.64572 87.5047 9.69143 87.718 9.73714 87.9237C7.39085 88.9496 4.43767 89.5666 2.10154 88.7007C-1.29601 81.2124 4.94044 71.7841 13.2947 72.0786L13.3048 72.0736Z" fill="#0047AB"/>
<path d="M13.3579 72.038C13.3401 72.0481 13.3249 72.0608 13.3096 72.0761C13.3045 72.0761 13.3045 72.0761 13.3045 72.0761C13.3223 72.0634 13.3401 72.0481 13.3579 72.038ZM13.2944 72.0786C13.2969 72.0786 13.3071 72.0659 13.302 72.0786C10.6535 73.8612 9.51087 77.0911 9.19853 80.1535L9.20108 80.156C8.96238 82.5328 9.14268 84.9502 9.60229 87.2889L9.59974 87.2914C9.64291 87.5072 9.68862 87.7155 9.73687 87.9237C8.49008 88.4747 7.16711 88.8581 5.89748 89.0206C3.36074 79.9046 4.7802 71.7536 13.2944 72.0786Z" fill="#6495ED"/>
<path d="M13.3099 72.0736C13.3048 72.0736 13.3048 72.0736 13.3048 72.0736C13.3404 72.0508 13.3785 72.0229 13.414 72C13.3785 72.0203 13.3429 72.0457 13.3099 72.0736ZM17.7359 72.9472C13.0103 75.0014 12.0783 80.2399 13.9803 84.9021C12.6624 86.3215 11.4283 87.1798 9.73967 87.9213C9.69143 87.7181 9.64826 87.4921 9.60256 87.289L9.60509 87.2864C9.14294 84.9503 8.96266 82.5355 9.20135 80.1562L9.19881 80.1536C9.50098 77.0938 10.669 73.8461 13.3023 72.0787C14.8233 72.0863 16.3266 72.386 17.7359 72.9472Z" fill="white"/>
<path d="M3.13238 90.6661C3.11714 90.6636 3.10191 90.656 3.08667 90.6458C3.10191 90.6483 3.1146 90.6585 3.12983 90.661C3.13237 90.6661 3.13238 90.6661 3.13238 90.6661Z" fill="#6495ED"/>
<path d="M21.9484 92.3929C16.9587 98.1164 7.0454 97.0956 3.13238 90.6687C8.23886 92.9617 13.8608 89.7215 17.718 86.4078C19.6707 87.8704 21.5954 90.0491 21.9484 92.3929ZM3.13238 90.6661C3.11714 90.6636 3.10191 90.656 3.08667 90.6458C3.10191 90.6484 3.1146 90.6585 3.12983 90.6611C3.13237 90.6661 3.13238 90.6661 3.13238 90.6661Z" fill="#0047AB"/>
<path d="M20.4226 89.0588C14.7651 94.729 7.36823 97.931 3.13525 90.6687C8.24174 92.9617 13.8637 89.7215 17.7209 86.4078C18.7518 87.1772 19.6913 88.0888 20.4226 89.0588Z" fill="#6495ED"/>
<path d="M17.3498 86.5018C17.1492 86.6618 16.941 86.8217 16.7327 86.9842C16.6312 87.0655 16.5245 87.1391 16.4179 87.2204C16.0878 87.4642 15.7551 87.7003 15.4022 87.9289C15.3234 87.9796 15.2498 88.0279 15.1762 88.0787C14.8791 88.2717 14.5667 88.4596 14.2519 88.6449C13.7846 88.9166 13.3047 89.1807 12.8096 89.4169C12.6089 89.5184 12.4058 89.6099 12.2027 89.7063C11.9944 89.7952 11.7862 89.8866 11.5805 89.9679C11.5628 89.978 11.5475 89.9882 11.5298 89.9933C11.3749 90.0568 11.2174 90.1203 11.0651 90.1761C10.6004 90.3513 10.1306 90.5011 9.6507 90.623C9.49834 90.6662 9.33837 90.7043 9.17839 90.7449C8.86098 90.8211 8.54103 90.8846 8.22616 90.9354C8.06619 90.9607 7.90621 90.9785 7.74878 90.9988C7.6599 91.009 7.57103 91.0217 7.48216 91.0242C7.31457 91.0369 7.14951 91.0522 6.97684 91.0623C6.80671 91.0674 6.62896 91.0725 6.45883 91.0699C6.36996 91.0674 6.29124 91.0649 6.20236 91.0649C6.14396 91.0623 6.0881 91.0623 6.03223 91.0572C5.9459 91.0547 5.85956 91.0471 5.77322 91.0395C5.59801 91.0242 5.42788 91.0039 5.25775 90.9836C5.08508 90.9607 4.91495 90.9303 4.74735 90.8947C4.63055 90.8719 4.51882 90.8439 4.40202 90.816C4.33092 90.8008 4.25981 90.7805 4.19379 90.7601C4.14555 90.7474 4.0973 90.7373 4.04905 90.7195C3.9678 90.6967 3.884 90.6713 3.80021 90.6433C3.74688 90.6205 3.68594 90.6027 3.63262 90.5849H3.62754C3.55644 90.557 3.49042 90.5341 3.41932 90.5062C3.3533 90.4783 3.28474 90.4529 3.21364 90.4199C3.14508 90.3894 3.07398 90.3615 3.00796 90.331C2.96733 90.3132 2.92924 90.2955 2.88861 90.2777C2.88607 90.2751 2.88607 90.2751 2.88607 90.2726C2.58643 89.7647 2.32489 89.2417 2.10651 88.711L2.10397 88.7084C1.79672 87.9568 1.52502 87.2458 1.37774 86.4688C1.35488 86.3367 1.3168 86.1615 1.29395 86.032C2.01256 86.5881 3.1146 87.2204 4.39947 87.548C4.67626 87.6216 4.95304 87.6749 5.22474 87.7079C5.33647 87.7206 5.4482 87.7333 5.55485 87.7409C6.79909 87.8425 8.02556 87.5835 9.20379 87.0452L9.20886 87.0426C9.31551 86.9919 9.41963 86.9436 9.52374 86.8852C10.7172 86.2834 11.8497 85.3972 12.9035 84.2825C12.9086 84.2748 12.9187 84.2647 12.9289 84.2545C12.9441 84.2367 12.9619 84.219 12.9797 84.1987C13.132 84.2444 13.2793 84.2901 13.4266 84.3409C13.4622 84.3536 13.5028 84.3663 13.5409 84.3815L13.5434 84.384C13.6399 84.4145 13.7339 84.445 13.8278 84.478C13.8913 84.4983 13.9522 84.5262 14.0157 84.5491C14.5286 84.7395 14.9959 84.9554 15.4225 85.1788C16.0903 85.5521 16.7378 86.0015 17.3498 86.5018Z" fill="#DDDDEB"/>
<path d="M17.7153 86.4027C13.8633 89.7241 8.2413 92.9616 3.13228 90.6687L3.12974 90.6661C2.28924 89.3736 1.64426 87.8882 1.35986 86.39C5.26781 89.526 10.1407 88.1396 13.2488 84.2824C13.4367 84.3357 13.6322 84.3814 13.8175 84.4424L13.8201 84.4449C15.2802 84.8385 16.5168 85.5063 17.7153 86.4027Z" fill="white"/>
<path d="M17.1186 86.9131C17.0323 86.9893 16.9332 87.063 16.8393 87.1442C15.0237 84.5872 13.0405 84.5161 13.0405 84.5161C13.0862 84.4678 13.1294 84.4196 13.1726 84.3663C13.1777 84.3586 13.1878 84.3485 13.198 84.3383C13.2132 84.3205 13.2284 84.3002 13.2462 84.2799C13.3046 84.2952 13.3656 84.3129 13.424 84.3282C13.556 84.3612 13.6855 84.3967 13.8125 84.4374L13.815 84.4399C13.9877 84.4831 14.14 84.5313 14.2949 84.5846C14.8155 84.7548 15.2903 84.9477 15.7296 85.1534C16.4127 85.5064 17.0805 85.9254 17.7128 86.3977C17.5198 86.5729 17.3217 86.743 17.1186 86.9131Z" fill="#DDDDEB"/>
<path d="M21.9485 92.3929C21.9257 92.4436 21.9028 92.4919 21.8749 92.5401C21.1512 93.2841 20.3183 93.9418 19.3839 94.4954C19.0893 94.6706 18.7897 94.8306 18.485 94.9778C18.3631 95.0388 18.2412 95.0921 18.1168 95.1505C18.6373 93.3476 18.6957 91.9688 18.4977 90.8287C18.292 89.6377 17.807 88.7058 17.2788 87.8145C17.1366 87.5733 16.9893 87.3549 16.842 87.1467C16.9385 87.0731 17.0299 86.9944 17.1214 86.9182C17.3296 86.7506 17.5276 86.5779 17.7181 86.4078C18.7516 87.1797 19.6911 88.0913 20.4224 89.0588C21.2324 90.1329 21.7936 91.2807 21.9485 92.3929Z" fill="#DDDDEB"/>
<path d="M23.6193 77.9926C26.3947 82.6953 25.6431 88.5433 22.0145 92.3953C22.8397 88.0964 20.105 84.1325 17.068 81.3597C16.7988 81.1083 15.3006 80.3033 15.0188 80.0748C14.3154 79.4882 13.5943 78.9626 12.8528 78.4674C13.7238 76.1821 15.1254 73.9983 17.1721 72.7388C17.3651 72.8048 17.5454 72.8709 17.7358 72.947L17.7383 72.9496C20.1176 73.9018 22.2125 75.6158 23.6193 77.9926Z" fill="#0047AB"/>
<path d="M24.7417 87.7409C24.2033 89.4524 23.2816 91.0648 22.0145 92.3954C22.8397 88.0964 20.105 84.1326 17.068 81.3597C16.7988 81.1083 15.3006 80.3033 15.0188 80.0748C14.3154 79.4882 13.5943 78.9626 12.8528 78.4675C13.3302 77.2207 13.9624 76.0297 14.7065 75.0267C20.8718 78.47 24.8178 83.6857 24.7417 87.7409Z" fill="#6495ED"/>
<path d="M20.519 84.841C22.4742 88.5255 22.4285 90.9683 22.1492 92.2532C21.1335 93.3603 19.8689 94.3125 18.485 94.9778C20.1102 91.0622 17.9899 86.5017 14.2978 84.5871C7.49251 82.7487 12.8148 78.4827 12.8504 78.47C15.1383 78.9194 18.6856 81.6999 20.519 84.841Z" fill="white"/>
<path d="M17.6137 72.8989C16.9433 73.3052 15.9479 74.0442 15.0769 75.2427C14.757 75.6769 14.4548 76.1721 14.1907 76.7383C13.9038 77.3579 13.6676 77.9826 13.4797 78.5996C13.4543 78.6809 13.4264 78.7647 13.4035 78.8434C12.7205 81.2176 12.7383 83.3887 13.1318 84.2825C11.5499 82.6091 12.85 78.4676 12.85 78.4676C12.8525 78.465 12.8551 78.4676 12.8576 78.4676C12.8551 78.465 12.8525 78.4676 12.85 78.4625C13.3274 77.2157 13.9596 76.0248 14.7037 75.0218C15.3689 74.1229 16.2932 73.2773 17.1693 72.7364C17.3242 72.7898 17.4664 72.8405 17.6137 72.8989Z" fill="#DDDDEB"/>
<path d="M9.89994 82.1499C11.9179 79.206 12.1922 75.8862 10.5127 74.7349C8.8331 73.5836 5.83566 75.0368 3.81769 77.9806C1.79971 80.9245 1.52538 84.2443 3.20494 85.3956C4.88451 86.5469 7.88196 85.0938 9.89994 82.1499Z" fill="#0047AB"/>
<path d="M23.2462 77.4213V77.4188C23.132 77.2512 23.0203 77.0937 22.8984 76.9312C22.1137 75.8774 21.1564 74.9557 20.0722 74.2066C20.0696 74.2066 20.0645 74.2015 20.0645 74.2015C27.4462 83.0128 16.0804 97.4663 3.8335 91.6539C5.67955 93.9621 8.35848 95.5873 11.4564 96.0469C11.789 96.0977 12.1293 96.1332 12.4721 96.1535C13.5564 96.2221 14.6153 96.1485 15.6335 95.9402C15.6995 95.9301 15.763 95.9174 15.829 95.8996C15.895 95.8869 15.956 95.8717 16.022 95.859C17.7513 95.4502 19.3459 94.663 20.7044 93.5889C23.2945 91.5473 25.039 88.4545 25.2675 84.902C25.4427 82.1469 24.6759 79.5492 23.2462 77.4213Z" fill="#DDDDEB"/>
<path d="M61.6118 102.813C66.5962 102.813 70.6369 98.7724 70.6369 93.7879C70.6369 88.8035 66.5962 84.7628 61.6118 84.7628C56.6274 84.7628 52.5867 88.8035 52.5867 93.7879C52.5867 98.7724 56.6274 102.813 61.6118 102.813Z" fill="white"/>
<path d="M66.8059 88.2177L64.3037 90.9042L64.2259 90.9873L64.2181 90.9977H64.2129L64.1064 90.9717L60.5919 90.1073L60.4803 90.0814L60.4518 90.0736H60.4492L60.418 89.9646L59.4395 86.4111L59.4446 86.4059L59.5251 86.3203L60.9501 84.7888C62.8372 84.6487 64.6567 85.1081 66.196 86.0244L66.767 88.1061L66.8059 88.2177ZM69.6404 97.9021C68.8409 99.4647 67.5898 100.781 66.0324 101.658L63.7664 101.103L63.6574 101.074H63.647L62.6736 97.5361L62.6425 97.4245L62.6399 97.4115L62.71 97.3363L65.1369 94.7354L65.2174 94.6472L65.2304 94.6368H65.233L65.3446 94.6627L68.9967 95.5608L68.9993 95.5712L69.0304 95.6854L69.6404 97.9021Z" fill="#0047AB"/>
<path d="M63.7661 101.103L62.7642 97.4505L62.7331 97.3415L62.7123 97.3363L62.6188 97.313L58.9642 96.4175L58.9148 96.4045L58.8603 96.3889H58.8577L58.7773 96.4668V96.472L58.7747 96.4771L56.2257 99.2104L56.1946 99.2493L56.2024 99.2986L56.7838 101.414C56.8669 101.463 56.9447 101.515 57.0304 101.562L56.41 99.3064L58.9174 96.6121L58.9226 96.6095L62.5747 97.5076V97.5128L63.5507 101.058L61.918 102.808C62.0141 102.805 62.1101 102.8 62.2061 102.792L63.7713 101.113L63.7661 101.103Z" fill="#0047AB"/>
<path d="M65.3471 94.6601L65.3263 94.5771L64.3425 91.008L64.314 90.9042H64.3062L64.192 90.8757L60.571 89.9879L60.4309 89.9542L60.4205 89.9646L60.3712 90.0191L57.8378 92.7368L57.7651 92.8172L57.7963 92.934L58.7723 96.4797L58.8034 96.5887L58.8138 96.5913L58.9176 96.6147L62.5749 97.5128L62.6787 97.5387H62.6865L62.767 97.4505L65.2692 94.7666L65.3523 94.6757L65.3471 94.6601ZM62.619 97.3155L58.9669 96.4174V96.4148L57.9962 92.8951L57.9884 92.8665L60.4984 90.1722L60.5269 90.18L64.1297 91.0677L64.1479 91.0703L65.1238 94.6212L65.1109 94.6342L62.6164 97.3129L62.619 97.3155Z" fill="#0047AB"/>
<path d="M58.8914 96.5004V96.5056L58.8135 96.5913L56.3035 99.2856L56.3009 99.283L56.1945 99.257L54.0583 98.7327C53.399 97.7282 52.9318 96.5757 52.7163 95.3168C52.6151 94.7276 52.5736 94.1384 52.5865 93.5621L54.0531 91.9918L54.118 91.9217L54.1335 91.9269L57.7623 92.8172L57.8739 92.8431L57.8791 92.8457V92.8509L57.9102 92.9625L58.8551 96.3914L58.8914 96.5004Z" fill="#0047AB"/>
<path d="M60.5734 89.9853L59.5663 86.328L59.5326 86.3203L57.4119 85.7985C57.3263 85.8427 57.238 85.892 57.1524 85.9413L59.4054 86.4942L60.3762 90.0165L60.3839 90.045L57.8739 92.7393L57.8454 92.7315L54.2244 91.8412L53.6119 89.6193C53.5677 89.7076 53.5236 89.7959 53.4795 89.8867L54.0479 91.9477L54.0609 91.9892L54.0687 92.01L57.8039 92.9288L57.8662 92.9444L57.9207 92.9574L57.9388 92.9626L58.0011 92.8951L60.5319 90.18L60.5605 90.1515L60.602 90.1047L60.6098 90.097L60.5734 89.9853ZM68.9548 95.47L65.3261 94.5796L65.3079 94.5771L64.3294 91.0236L64.3423 91.0106L66.8368 88.3293L69.204 88.9107C69.1495 88.8277 69.095 88.7446 69.0379 88.6641L66.8342 88.1242L66.7771 88.1061H66.7745L64.1944 90.8782L64.1528 90.9224L64.1113 90.9691L64.1191 91.0184L64.1321 91.0703L65.1132 94.6394L65.1236 94.6757L65.1392 94.738V94.7406L65.2664 94.7717L69.0223 95.6958L69.0301 95.688L70.6316 93.9645C70.6368 93.8684 70.6342 93.7698 70.6342 93.6712L68.9548 95.47Z" fill="#0047AB"/>
<path d="M70.5048 92.2618C70.2219 90.6187 69.5106 89.1573 68.5061 87.9685C68.6852 92.851 67.7716 102.086 58.3052 102.188C59.7899 102.774 61.4485 102.971 63.1357 102.683C68.0493 101.84 71.3484 97.1753 70.5048 92.2618Z" fill="#EBF2FC"/>
<path d="M60.5807 9.73606C55.613 8.22854 50.0029 12.2283 48.0502 18.6657C46.0976 25.1031 48.5415 31.5447 53.5092 33.0522C58.4769 34.5598 64.087 30.56 66.0397 24.1226C67.9923 17.6831 65.5484 11.2415 60.5807 9.73606ZM53.7276 32.3342C49.163 30.9505 46.9395 24.9162 48.7683 18.8841C50.597 12.8519 55.7999 9.07049 60.3623 10.4541C64.9269 11.8378 67.1504 17.8721 65.3216 23.9042C63.4929 29.9364 58.2921 33.7178 53.7276 32.3342Z" fill="#6495ED"/>
<path d="M48.7673 18.8842C49.0465 17.9625 49.4055 17.0954 49.8276 16.2891L49.0969 16.0687C48.6812 16.8791 48.3284 17.7483 48.0492 18.668C47.3059 21.1203 47.2009 23.5748 47.6293 25.7542L48.4481 26.0019C47.9484 23.8435 48.0156 21.3639 48.7673 18.8842ZM65.3227 23.9044C64.571 26.384 63.2483 28.4836 61.6358 29.9996L62.4546 30.2473C64.023 28.6726 65.2975 26.5751 66.0407 24.1207C66.32 23.201 66.509 22.2814 66.6139 21.3765L65.8833 21.156C65.7846 22.0609 65.6019 22.9827 65.3227 23.9044Z" fill="#0047AB"/>
<path d="M47.9768 27.1041C47.9768 27.1041 51.1724 37.3229 49.984 41.4424L50.8827 41.7153L51.7813 41.9883C53.081 37.9045 61.4143 31.1816 61.4143 31.1816C55.231 34.184 50.6748 33.0124 47.9768 27.1041ZM52.2579 38.2804C52.0668 38.5302 51.6679 38.4105 51.649 38.0956C51.5671 36.7833 51.3614 35.2674 51.0296 33.5583C50.975 33.277 51.2732 33.0565 51.5251 33.193C52.6379 33.7956 53.8263 34.1567 55.0861 34.2722C55.3716 34.2995 55.4976 34.6459 55.296 34.8496C54.0678 36.0884 53.0558 37.2327 52.2579 38.2804Z" fill="#6495ED"/>
<path d="M51.9723 41.1819L50.2737 40.6675C48.4933 44.3692 47.3154 48.2009 46.7842 52.1713L48.4828 52.6857C50.2485 49.0891 51.3949 45.2489 51.9723 41.1819Z" fill="#6495ED"/>
<path d="M48.9463 52.3434L46.8299 51.7009C46.6389 51.6422 46.4373 51.7513 46.3785 51.9424L46.3218 52.1314C46.263 52.3224 46.3722 52.524 46.5633 52.5828L48.6797 53.2253C48.8708 53.284 49.0723 53.1749 49.1311 52.9838L49.1878 52.7948C49.2445 52.6038 49.1374 52.4022 48.9463 52.3434Z" fill="#0047AB"/>
<path d="M64.1092 26.7826C64.1281 26.749 64.1449 26.7154 64.1638 26.6818L63.5235 26.4887L63.9329 25.1365L64.7811 25.3948C64.7958 25.3591 64.8105 25.3255 64.8252 25.2898L63.9644 25.0294L64.3738 23.6773L65.3018 23.9586C65.3081 23.9397 65.3123 23.9229 65.3186 23.904C65.3249 23.8851 65.3291 23.8684 65.3354 23.8495L64.4074 23.5681L64.8168 22.216L65.6777 22.4763C65.6861 22.4385 65.6923 22.4028 65.6986 22.365L64.8504 22.1068L65.2598 20.7546L65.9002 20.9478C65.9044 20.91 65.9086 20.8722 65.9107 20.8344L65.2934 20.6476L65.7028 19.2954L65.9569 19.3731C65.9569 19.3332 65.9548 19.2933 65.9548 19.2555L65.7364 19.1904L65.917 18.592C65.9086 18.4933 65.9002 18.3926 65.8897 18.2939L65.6273 19.1568L64.2751 18.7474L64.6845 17.3953L65.8183 17.7396C65.812 17.6976 65.8057 17.6577 65.7994 17.6157L64.716 17.2882L65.1255 15.936L65.4341 16.0305C65.4215 15.9864 65.4089 15.9444 65.3942 15.9003L65.1569 15.8289L65.2577 15.4993C65.2367 15.4405 65.2157 15.3838 65.1926 15.325L65.0499 15.7954L63.6977 15.3859L64.1071 14.0338L64.6887 14.2101C64.6635 14.164 64.6383 14.1157 64.6131 14.0695L64.1407 13.9267L64.2709 13.4984C64.2436 13.4585 64.2184 13.4165 64.1911 13.3766L64.0337 13.8931L62.6815 13.4837L63.0909 12.1315L63.1896 12.1609C63.1308 12.1021 63.072 12.0454 63.0111 11.9888L61.6653 11.5814L61.8144 11.0922C61.7808 11.0733 61.7472 11.0523 61.7136 11.0334L61.5582 11.5478L60.2061 11.1384L60.4097 10.4665C60.3908 10.4602 60.374 10.4539 60.3551 10.4497C60.3362 10.4434 60.3194 10.4392 60.3005 10.435L60.0969 11.1069L58.7447 10.6975L58.9001 10.1831C58.8623 10.181 58.8224 10.1789 58.7846 10.1768L58.6356 10.666L57.2897 10.2587C57.2078 10.2713 57.128 10.286 57.0461 10.3028L57.1448 10.3322L56.7354 11.6843L55.3833 11.2749L55.5407 10.7563C55.4966 10.7752 55.4504 10.7941 55.4064 10.813L55.2762 11.2413L54.8038 11.0985C54.7576 11.1237 54.7093 11.1489 54.6631 11.1741L55.2447 11.3505L54.8353 12.7026L53.4831 12.2932L53.6259 11.8229C53.5755 11.8586 53.5251 11.8943 53.4747 11.9321L53.3739 12.2617L53.1367 12.1903C53.101 12.2176 53.0674 12.247 53.0317 12.2764L53.3403 12.3709L52.9309 13.723L51.8475 13.3955C51.8202 13.4249 51.7908 13.4564 51.7635 13.4879L52.8973 13.8322L52.4879 15.1844L51.1358 14.7749L51.3982 13.912C51.3352 13.9876 51.2722 14.0653 51.2113 14.143L51.0308 14.7413L50.8124 14.6763C50.7893 14.7078 50.7662 14.7413 50.7431 14.7728L50.9972 14.8505L50.5878 16.2027L49.9705 16.0158C49.9516 16.0494 49.9348 16.083 49.9159 16.1166L50.5563 16.3098L50.1468 17.6619L49.2986 17.4037C49.2839 17.4393 49.2692 17.4729 49.2545 17.5086L50.1153 17.769L49.7059 19.1211L48.7779 18.8398C48.7716 18.8587 48.7674 18.8755 48.7611 18.8944C48.7548 18.9133 48.7506 18.9301 48.7443 18.949L49.6723 19.2303L49.2629 20.5825L48.4021 20.3221C48.3937 20.3599 48.3874 20.3956 48.3811 20.4334L49.2293 20.6916L48.8199 22.0438L48.1795 21.8506C48.1753 21.8884 48.1732 21.9262 48.169 21.964L48.7863 22.1509L48.3769 23.503L48.1228 23.4253C48.1228 23.4652 48.1249 23.5051 48.1249 23.5429L48.3433 23.608L48.1627 24.2064C48.1711 24.3051 48.1795 24.4059 48.19 24.5045L48.4524 23.6416L49.8046 24.051L49.3952 25.4032L48.2614 25.0588C48.2677 25.1008 48.274 25.1407 48.2803 25.1827L49.3637 25.5102L48.9543 26.8624L48.6456 26.7679C48.6582 26.812 48.6708 26.854 48.6855 26.8981L48.9228 26.9695L48.822 27.2991C48.843 27.3579 48.864 27.4146 48.8871 27.4734L49.0298 27.0031L50.382 27.4125L49.9726 28.7646L49.391 28.5883C49.4162 28.6345 49.4414 28.6828 49.4666 28.7289L49.939 28.8717L49.8088 29.3C49.8361 29.3399 49.8613 29.3819 49.8886 29.4218L50.0461 28.9053L51.3982 29.3147L50.9888 30.6669L50.8901 30.6375C50.9489 30.6963 51.0077 30.753 51.0686 30.8097L52.4144 31.217L52.2653 31.7062C52.2989 31.7251 52.3325 31.7461 52.3661 31.765L52.5215 31.2506L53.8736 31.66L53.67 32.3319C53.6889 32.3382 53.7057 32.3445 53.7225 32.3487C53.7414 32.355 53.7582 32.3592 53.7771 32.3634L53.9807 31.6915L55.3329 32.1009L55.1775 32.6153C55.2153 32.6174 55.2552 32.6195 55.293 32.6216L55.4421 32.1324L56.7879 32.5397C56.8698 32.5271 56.9496 32.5124 57.0314 32.4957L56.9328 32.4663L57.3422 31.1141L58.6943 31.5235L58.5369 32.04C58.581 32.0211 58.6272 32.0022 58.6713 31.9833L58.8014 31.555L59.2738 31.6978C59.32 31.6726 59.3683 31.6474 59.4145 31.6222L58.8329 31.4458L59.2423 30.0937L60.5945 30.5031L60.4517 30.9734C60.5021 30.9377 60.5525 30.902 60.6029 30.8643L60.7037 30.5346L60.9409 30.606C60.9766 30.5787 61.0102 30.5493 61.0459 30.5199L60.7373 30.4254L61.1467 29.0733L62.228 29.4008C62.2553 29.3714 62.2847 29.3399 62.312 29.3084L61.1782 28.9641L61.5876 27.612L62.9398 28.0214L62.6773 28.8843C62.7403 28.8087 62.8033 28.7311 62.8642 28.6534L63.0447 28.055L63.2631 28.1201C63.2862 28.0886 63.3093 28.055 63.3324 28.0235L63.0783 27.9458L63.4877 26.5936L64.1092 26.7826ZM49.8445 23.9313L48.4923 23.5219L48.9018 22.1698L50.2539 22.5792L49.8445 23.9313ZM50.2854 22.4721L48.9333 22.0627L49.3427 20.7105L50.6948 21.12L50.2854 22.4721ZM50.7284 21.0129L49.3763 20.6035L49.7857 19.2513L51.1379 19.6607L50.7284 21.0129ZM51.1714 19.5537L49.8193 19.1442L50.2287 17.7921L51.5809 18.2015L51.1714 19.5537ZM51.6145 18.0944L50.2623 17.685L50.6717 16.3329L52.0239 16.7423L51.6145 18.0944ZM52.0554 16.6352L50.7032 16.2258L51.1127 14.8736L52.4648 15.283L52.0554 16.6352ZM50.4177 27.2907L49.0655 26.8813L49.475 25.5291L50.8271 25.9386L50.4177 27.2907ZM50.8607 25.8315L49.5086 25.4221L49.918 24.0699L51.2701 24.4793L50.8607 25.8315ZM51.3037 24.3723L49.9516 23.9628L50.361 22.6107L51.7131 23.0201L51.3037 24.3723ZM51.7446 22.9151L50.3925 22.5057L50.8019 21.1536L52.1541 21.563L51.7446 22.9151ZM52.1877 21.4559L50.8355 21.0465L51.2449 19.6943L52.5971 20.1038L52.1877 21.4559ZM52.6307 19.9967L51.2785 19.5872L51.6879 18.2351L53.0401 18.6445L52.6307 19.9967ZM53.0737 18.5374L51.7215 18.128L52.131 16.7759L53.4831 17.1853L53.0737 18.5374ZM53.5146 17.0782L52.1625 16.6688L52.5719 15.3166L53.924 15.7261L53.5146 17.0782ZM53.9576 15.619L52.6055 15.2096L53.0149 13.8574L54.3671 14.2668L53.9576 15.619ZM54.4006 14.1598L53.0485 13.7503L53.4579 12.3982L54.8101 12.8076L54.4006 14.1598ZM51.4339 29.193L50.0817 28.7835L50.4912 27.4314L51.8433 27.8408L51.4339 29.193ZM51.8769 27.7337L50.5248 27.3243L50.9342 25.9722L52.2863 26.3816L51.8769 27.7337ZM52.3199 26.2745L50.9678 25.8651L51.3772 24.5129L52.7293 24.9224L52.3199 26.2745ZM52.7608 24.8153L51.4087 24.4059L51.8181 23.0537L53.1703 23.4631L52.7608 24.8153ZM53.2039 23.356L51.8517 22.9466L52.2611 21.5945L53.6133 22.0039L53.2039 23.356ZM53.6469 21.8968L52.2947 21.4874L52.7042 20.1352L54.0563 20.5447L53.6469 21.8968ZM54.0899 20.4397L52.7378 20.0303L53.1472 18.6781L54.4993 19.0875L54.0899 20.4397ZM54.5308 18.9805L53.1787 18.571L53.5881 17.2189L54.9402 17.6283L54.5308 18.9805ZM54.9738 17.5212L53.6217 17.1118L54.0311 15.7597L55.3833 16.1691L54.9738 17.5212ZM55.4169 16.062L54.0647 15.6526L54.4741 14.3004L55.8263 14.7099L55.4169 16.062ZM55.8599 14.6028L54.5077 14.1933L54.9172 12.8412L56.2693 13.2506L55.8599 14.6028ZM56.3008 13.1435L54.9486 12.7341L55.3581 11.382L56.7102 11.7914L56.3008 13.1435ZM52.4501 31.0952L51.098 30.6858L51.5074 29.3336L52.8595 29.7431L52.4501 31.0952ZM52.8931 29.636L51.541 29.2266L51.9504 27.8744L53.3026 28.2838L52.8931 29.636ZM53.3361 28.1768L51.984 27.7673L52.3934 26.4152L53.7456 26.8246L53.3361 28.1768ZM53.7792 26.7175L52.427 26.3081L52.8364 24.956L54.1886 25.3654L53.7792 26.7175ZM54.2201 25.2583L52.8679 24.8489L53.2774 23.4967L54.6295 23.9061L54.2201 25.2583ZM54.6631 23.7991L53.3109 23.3896L53.7204 22.0375L55.0725 22.4469L54.6631 23.7991ZM55.1061 22.3398L53.754 21.9304L54.1634 20.5783L55.5155 20.9877L55.1061 22.3398ZM55.5491 20.8806L54.197 20.4712L54.6064 19.119L55.9585 19.5285L55.5491 20.8806ZM55.99 19.4214L54.6379 19.012L55.0473 17.6598L56.3995 18.0692L55.99 19.4214ZM56.4331 17.9621L55.0809 17.5527L55.4903 16.2006L56.8425 16.61L56.4331 17.9621ZM56.8761 16.505L55.5239 16.0956L55.9334 14.7434L57.2855 15.1529L56.8761 16.505ZM57.3191 15.0458L55.967 14.6364L56.3764 13.2842L57.7285 13.6936L57.3191 15.0458ZM57.76 13.5866L56.4079 13.1771L56.8173 11.825L58.1694 12.2344L57.76 13.5866ZM58.203 12.1273L56.8509 11.7179L57.2603 10.3658L58.6125 10.7752L58.203 12.1273ZM53.9093 31.5361L52.5572 31.1267L52.9666 29.7746L54.3188 30.184L53.9093 31.5361ZM54.3524 30.0769L53.0002 29.6675L53.4096 28.3153L54.7618 28.7248L54.3524 30.0769ZM54.7954 28.6198L53.4432 28.2103L53.8526 26.8582L55.2048 27.2676L54.7954 28.6198ZM55.2384 27.1605L53.8862 26.7511L54.2957 25.399L55.6478 25.8084L55.2384 27.1605ZM55.6793 25.7013L54.3272 25.2919L54.7366 23.9397L56.0887 24.3492L55.6793 25.7013ZM56.1223 24.2421L54.7702 23.8327L55.1796 22.4805L56.5318 22.8899L56.1223 24.2421ZM56.5653 22.7829L55.2132 22.3734L55.6226 21.0213L56.9748 21.4307L56.5653 22.7829ZM57.0084 21.3236L55.6562 20.9142L56.0656 19.5621L57.4178 19.9715L57.0084 21.3236ZM57.4493 19.8644L56.0971 19.455L56.5065 18.1028L57.8587 18.5122L57.4493 19.8644ZM57.8923 18.4052L56.5401 17.9957L56.9496 16.6436L58.3017 17.053L57.8923 18.4052ZM58.3353 16.9459L56.9832 16.5365L57.3926 15.1844L58.7447 15.5938L58.3353 16.9459ZM58.7783 15.4867L57.4262 15.0773L57.8356 13.7251L59.1878 14.1346L58.7783 15.4867ZM59.2192 14.0275L57.8671 13.6181L58.2765 12.2659L59.6287 12.6753L59.2192 14.0275ZM59.6623 12.5704L58.3101 12.1609L58.7195 10.8088L60.0717 11.2182L59.6623 12.5704ZM55.3686 31.9791L54.0164 31.5697L54.4258 30.2176L55.778 30.627L55.3686 31.9791ZM55.8116 30.5199L54.4594 30.1105L54.8689 28.7583L56.221 29.1678L55.8116 30.5199ZM56.2546 29.0607L54.9025 28.6513L55.3119 27.2991L56.664 27.7085L56.2546 29.0607ZM56.6955 27.6015L55.3434 27.192L55.7528 25.8399L57.1049 26.2493L56.6955 27.6015ZM57.1385 26.1422L55.7864 25.7328L56.1958 24.3807L57.548 24.7901L57.1385 26.1422ZM57.5816 24.6851L56.2294 24.2757L56.6388 22.9235L57.991 23.333L57.5816 24.6851ZM58.0246 23.2259L56.6724 22.8164L57.0818 21.4643L58.434 21.8737L58.0246 23.2259ZM58.4655 21.7666L57.1133 21.3572L57.5228 20.0051L58.8749 20.4145L58.4655 21.7666ZM58.9085 20.3074L57.5563 19.898L57.9658 18.5458L59.3179 18.9553L58.9085 20.3074ZM59.3515 18.8482L57.9994 18.4388L58.4088 17.0866L59.7609 17.496L59.3515 18.8482ZM59.7945 17.389L58.4424 16.9795L58.8518 15.6274L60.204 16.0368L59.7945 17.389ZM60.2355 15.9297L58.8833 15.5203L59.2927 14.1682L60.6449 14.5776L60.2355 15.9297ZM60.6785 14.4705L59.3263 14.0611L59.7357 12.7089L61.0879 13.1183L60.6785 14.4705ZM61.1215 13.0113L59.7693 12.6018L60.1788 11.2497L61.5309 11.6591L61.1215 13.0113ZM56.8278 32.4222L55.4756 32.0127L55.8851 30.6606L57.2372 31.07L56.8278 32.4222ZM57.2708 30.9629L55.9187 30.5535L56.3281 29.2014L57.6802 29.6108L57.2708 30.9629ZM57.7138 29.5037L56.3617 29.0943L56.7711 27.7421L58.1232 28.1516L57.7138 29.5037ZM58.1547 28.0445L56.8026 27.6351L57.212 26.2829L58.5642 26.6923L58.1547 28.0445ZM58.5978 26.5852L57.2456 26.1758L57.655 24.8237L59.0072 25.2331L58.5978 26.5852ZM59.0408 25.126L57.6886 24.7166L58.0981 23.3644L59.4502 23.7739L59.0408 25.126ZM59.4838 23.6668L58.1317 23.2574L58.5411 21.9052L59.8932 22.3146L59.4838 23.6668ZM59.9247 22.2076L58.5726 21.7981L58.982 20.446L60.3341 20.8554L59.9247 22.2076ZM60.3677 20.7504L59.0156 20.341L59.425 18.9889L60.7772 19.3983L60.3677 20.7504ZM60.8107 19.2912L59.4586 18.8818L59.868 17.5296L61.2202 17.9391L60.8107 19.2912ZM61.2538 17.832L59.9016 17.4225L60.311 16.0704L61.6632 16.4798L61.2538 17.832ZM61.6947 16.3727L60.3425 15.9633L60.752 14.6112L62.1041 15.0206L61.6947 16.3727ZM62.1377 14.9135L60.7856 14.5041L61.195 13.1519L62.5471 13.5614L62.1377 14.9135ZM62.5807 13.4543L61.2286 13.0449L61.638 11.6927L62.9901 12.1021L62.5807 13.4543ZM58.73 31.406L57.3779 30.9965L57.7873 29.6444L59.1395 30.0538L58.73 31.406ZM59.1731 29.9467L57.8209 29.5373L58.2303 28.1852L59.5825 28.5946L59.1731 29.9467ZM59.614 28.4875L58.2618 28.0781L58.6713 26.7259L60.0234 27.1353L59.614 28.4875ZM60.057 27.0283L58.7048 26.6188L59.1143 25.2667L60.4664 25.6761L60.057 27.0283ZM60.5 25.569L59.1479 25.1596L59.5573 23.8075L60.9094 24.2169L60.5 25.569ZM60.943 24.1098L59.5909 23.7004L60.0003 22.3482L61.3524 22.7577L60.943 24.1098ZM61.3839 22.6506L60.0318 22.2412L60.4412 20.889L61.7934 21.2984L61.3839 22.6506ZM61.827 21.1913L60.4748 20.7819L60.8842 19.4298L62.2364 19.8392L61.827 21.1913ZM62.27 19.7321L60.9178 19.3227L61.3273 17.9705L62.6794 18.38L62.27 19.7321ZM62.713 18.275L61.3609 17.8656L61.7703 16.5134L63.1224 16.9228L62.713 18.275ZM63.1539 16.8158L61.8018 16.4063L62.2112 15.0542L63.5633 15.4636L63.1539 16.8158ZM63.5969 15.3565L62.2448 14.9471L62.6542 13.595L64.0064 14.0044L63.5969 15.3565ZM60.6302 30.3897L59.278 29.9803L59.6875 28.6282L61.0396 29.0376L60.6302 30.3897ZM61.0732 28.9305L59.7211 28.5211L60.1305 27.1689L61.4826 27.5784L61.0732 28.9305ZM61.5162 27.4713L60.1641 27.0619L60.5735 25.7097L61.9257 26.1191L61.5162 27.4713ZM61.9592 26.0121L60.6071 25.6026L61.0165 24.2505L62.3687 24.6599L61.9592 26.0121ZM62.4002 24.5528L61.048 24.1434L61.4574 22.7913L62.8096 23.2007L62.4002 24.5528ZM62.8432 23.0936L61.491 22.6842L61.9004 21.332L63.2526 21.7414L62.8432 23.0936ZM63.2862 21.6344L61.934 21.2249L62.3435 19.8728L63.6956 20.2822L63.2862 21.6344ZM63.7292 20.1751L62.3771 19.7657L62.7865 18.4136L64.1386 18.823L63.7292 20.1751ZM64.1701 18.7159L62.818 18.3065L63.2274 16.9543L64.5795 17.3638L64.1701 18.7159ZM64.6131 17.2567L63.261 16.8473L63.6704 15.4951L65.0226 15.9045L64.6131 17.2567ZM62.9755 27.9122L61.6233 27.5028L62.0327 26.1506L63.3849 26.5601L62.9755 27.9122ZM63.4185 26.4551L62.0663 26.0456L62.4757 24.6935L63.8279 25.1029L63.4185 26.4551ZM63.8594 24.9958L62.5072 24.5864L62.9167 23.2343L64.2688 23.6437L63.8594 24.9958ZM64.3024 23.5366L62.9502 23.1272L63.3597 21.775L64.7118 22.1845L64.3024 23.5366ZM64.7454 22.0774L63.3933 21.668L63.8027 20.3158L65.1548 20.7252L64.7454 22.0774ZM65.1884 20.6182L63.8363 20.2087L64.2457 18.8566L65.5979 19.266L65.1884 20.6182Z" fill="#B6B5EB"/>
<path d="M52.1876 41.4572L49.9389 40.7748C49.731 40.7118 49.5126 40.8294 49.4497 41.0372L49.1935 41.8813C49.1305 42.0892 49.2481 42.3075 49.456 42.3705L51.7046 43.0529C51.9125 43.1159 52.1309 42.9983 52.1938 42.7904L52.45 41.9464C52.513 41.7385 52.3954 41.5202 52.1876 41.4572Z" fill="#0047AB"/>
<path d="M150.322 95.5978C150.322 97.3648 137.403 98.7973 121.466 98.7973C105.53 98.7973 92.6111 97.3648 92.6111 95.5978C92.6111 93.8307 103.476 91.9675 121.049 95.0276C136.854 97.7799 150.322 93.8307 150.322 95.5978Z" fill="#EBEBEB"/>
<path d="M105.549 35.3178L104.452 32.3152C104.39 32.1433 104.369 31.9385 104.394 31.7424C104.42 31.5463 104.49 31.3735 104.59 31.2589C104.644 31.1968 104.706 31.1537 104.771 31.1324C104.836 31.1111 104.903 31.112 104.967 31.1351C105.032 31.1582 105.093 31.2029 105.147 31.2665C105.2 31.3301 105.246 31.4112 105.279 31.5047L106.27 34.2501L105.549 35.3178ZM138.839 32.4659L139.873 30.0586C139.921 29.9468 139.993 29.8681 140.074 29.8377C140.155 29.8073 140.241 29.8274 140.313 29.894C140.353 29.9305 140.388 29.9798 140.416 30.039C140.444 30.0982 140.464 30.166 140.476 30.2384C140.487 30.3108 140.489 30.3863 140.483 30.4604C140.476 30.5344 140.46 30.6054 140.436 30.6691L139.469 33.2496L138.839 32.4659Z" fill="#0047AB"/>
<path d="M120.819 91.8263C120.721 91.8263 120.623 91.8254 120.526 91.8235C118.913 91.7931 117.396 91.5101 116.017 90.982C113.489 90.0139 111.336 88.192 109.619 85.5669C107.532 82.3767 106.056 77.9719 105.233 72.4749C104.618 68.3716 104.373 63.7438 104.504 58.72C104.656 52.8472 103.06 48.0119 101.653 43.7458C100.762 41.0462 99.9204 38.4964 99.7207 36.1514C99.4984 33.5406 100.08 31.4092 101.552 29.4437C102.09 28.7251 102.621 28.4816 103.129 28.7201C103.586 28.9347 104.029 29.557 104.409 30.5196C104.583 30.958 104.73 31.4253 104.849 31.9144L104.714 32.0035C104.708 31.9779 104.12 29.44 103.09 28.9572C102.629 28.7409 102.141 28.9697 101.641 29.6376C98.5323 33.7888 99.9648 38.1295 101.778 43.625C103.196 47.9199 104.802 52.7878 104.648 58.7309C104.432 67.0266 105.136 78.3846 109.715 85.3835C113.339 90.9226 118.822 92.7595 126.012 90.8434C131.839 89.2905 135.827 85.2806 138.202 78.5845C140.29 72.6984 141.241 64.7996 141.285 52.9732C141.296 50.1416 142.455 46.0534 143.576 42.0999C144.248 39.732 144.942 37.2834 145.375 35.1511C145.857 32.7823 145.959 31.0642 145.687 29.8987C145.508 29.1279 145.17 28.5908 144.655 28.2567C143.355 27.4132 142.26 27.5474 141.402 28.6553C140.761 29.4839 140.498 30.5785 140.495 30.5894L140.361 30.4979C140.372 30.4509 140.639 29.3366 141.31 28.4659C141.703 27.9552 142.166 27.6288 142.656 27.5189C143.275 27.3748 143.964 27.5455 144.706 28.0266C145.253 28.3816 145.629 28.9809 145.821 29.8077C145.975 30.4669 146.017 31.2604 145.949 32.2336C145.89 33.0913 145.747 34.072 145.511 35.2318C145.075 37.3777 144.379 39.8329 143.706 42.2071C142.592 46.1361 141.44 50.1988 141.43 52.9748C141.408 58.6275 141.178 63.3351 140.725 67.3669C140.218 71.877 139.433 75.5881 138.325 78.712C137.169 82.0021 135.554 84.7527 133.624 86.7188C132.611 87.7624 131.468 88.6559 130.226 89.3746C128.962 90.1062 127.552 90.6822 126.034 91.0865C124.191 91.5778 122.438 91.8263 120.819 91.8263Z" fill="#0047AB"/>
</svg>
