<svg width="369" height="625" viewBox="0 0 369 625" fill="none" xmlns="http://www.w3.org/2000/svg">
<path opacity="0.31" d="M288.146 425.063L232.274 398.015L169.221 473.211L158.633 458.181L171.812 357.098L119.617 199.995L0 242.343L31.86 322.548L134.251 569.037L156.832 624.885L159.448 608.671L184.398 513.535L219.269 474.815L281.532 470.027L182.374 401.396L288.146 425.063Z" fill="#2A72DA"/>
<path d="M191.823 129.266C228.813 129.266 258.8 100.329 258.8 64.633C258.8 28.9372 228.813 0 191.823 0C154.832 0 124.845 28.9372 124.845 64.633C124.845 100.329 154.832 129.266 191.823 129.266Z" fill="#0047AB"/>
<path d="M368.601 518.618L327.857 539.077C316.011 516.545 290.888 501.615 262.434 503.885C229.143 506.55 202.588 533.327 201.206 565.532C200.688 577.551 203.551 588.903 209.03 598.725L206.266 600.107L184.499 611.015L156.859 624.884C142.595 592.678 130.527 560.35 120.335 528.44C118.682 523.332 117.077 518.174 115.547 513.066V513.016C114.412 509.265 113.277 505.415 112.413 502.429C111.549 499.468 110.957 497.419 110.957 497.419C92.6704 433.625 81.491 372.447 74.7785 318.772L74.8279 319.808C65.8943 260.901 65.45 196.761 65.45 196.761C65.1539 186.1 65.0798 176.451 65.0798 167.937C65.0798 162.779 65.0799 158.016 65.1786 153.722C65.45 136.644 66.067 126.551 66.141 125.12V124.947L101.826 129.784L119.841 132.795C119.718 134.374 119.644 135.978 119.644 137.582C119.644 173.292 149.628 202.215 186.597 202.215C217.445 202.215 243.382 182.127 251.156 154.758L270.405 157.967L299.772 163.124V163.248C299.698 164.26 298.909 178.672 299.007 201.845C299.007 201.845 300.71 267.194 303.474 292.415C306.954 328.174 312.827 367.783 322.773 406.504C322.822 406.627 322.847 406.726 322.871 406.849C326.623 422.076 327.141 422.545 327.166 422.545C337.136 457.021 350.561 490.189 368.625 518.594L368.601 518.618Z" fill="#6495ED"/>
</svg>
