<svg width="850" height="766" viewBox="0 0 850 766" fill="none" xmlns="http://www.w3.org/2000/svg">
<path d="M186.29 193.342C124.261 295.138 152.15 632.182 187.042 650.105C234.879 666.068 643.894 672.834 752.614 657.136C802.543 649.926 789.03 253.314 748.628 191.574C708.23 129.831 213.944 147.961 186.29 193.342Z" fill="url(#paint0_linear_1_2958)"/>
<path opacity="0.1" d="M210.915 324.97C242.39 331.776 274.822 333.468 306.946 332.899C338.286 332.345 369.528 329.505 400.669 326.067C429.556 322.877 458.551 320.047 487.076 314.327C517.818 308.164 549.13 298.966 575.437 281.39C587.784 273.139 598.881 262.887 607.145 250.486C607.994 249.213 607.76 249.295 606.371 249.677C605.496 249.92 604.621 250.155 603.743 250.387C601.818 250.895 599.886 251.38 597.952 251.844C593.746 252.85 589.517 253.756 585.27 254.567C576.198 256.3 567.043 257.614 557.846 258.472C539.695 260.159 521.067 260.294 503.123 256.729C495.498 255.213 487.857 253.164 481.229 248.973C475.132 245.119 470.086 239.913 465.248 234.625C460.154 229.059 455.164 223.306 449.085 218.774C442.299 213.718 434.699 210.919 426.274 210.247C411.015 209.027 396.484 214.178 382.029 218.243C370.432 221.505 357.462 224.322 346.327 218.075C339.6 214.3 335.078 208.203 330.981 201.846C326.719 195.236 322.302 188.697 317.573 182.412C312.239 175.319 306.343 168.441 299.517 162.73C238.58 170.011 194.048 180.602 186.285 193.34C170.72 218.881 160.817 259.238 155.267 305.642C172.761 314.626 191.713 320.82 210.915 324.97Z" fill="url(#paint1_linear_1_2958)"/>
<path d="M745.535 222.49C743.733 223.097 743.241 223.59 742.633 225.392C742.026 223.59 741.533 223.097 739.732 222.49C741.533 221.88 742.026 221.39 742.633 219.586C743.241 221.39 743.733 221.882 745.535 222.49ZM690.126 407.811C688.325 408.418 687.832 408.911 687.225 410.713C686.617 408.911 686.125 408.418 684.32 407.811C686.122 407.203 686.617 406.711 687.225 404.909C687.832 406.708 688.325 407.201 690.126 407.811ZM581.813 435.652C579.355 436.481 578.681 437.155 577.852 439.615C577.02 437.155 576.348 436.484 573.888 435.652C576.348 434.822 577.02 434.149 577.852 431.691C578.681 434.149 579.355 434.822 581.813 435.652ZM334.674 181.347C332.214 182.177 331.543 182.848 330.714 185.308C329.884 182.851 329.21 182.177 326.75 181.347C329.21 180.518 329.882 179.844 330.714 177.384C331.54 179.844 332.214 180.515 334.674 181.347ZM742.633 469.559C740.176 470.388 739.502 471.06 738.672 473.52C737.843 471.062 737.169 470.388 734.709 469.559C737.167 468.73 737.84 468.056 738.672 465.596C739.502 468.056 740.173 468.73 742.633 469.559ZM204.076 255.363C201.615 256.193 200.942 256.867 200.112 259.327C199.283 256.869 198.609 256.195 196.151 255.363C198.612 254.534 199.283 253.86 200.112 251.403C200.944 253.86 201.615 254.534 204.076 255.363Z" fill="white"/>
<path opacity="0.8" d="M693.426 496.055C694.582 496.055 695.518 495.118 695.518 493.962C695.518 492.798 694.582 491.862 693.426 491.862C692.27 491.862 691.333 492.798 691.333 493.962C691.333 495.116 692.27 496.055 693.426 496.055ZM693.426 506.832C694.582 506.832 695.518 505.896 695.518 504.74C695.518 503.576 694.582 502.639 693.426 502.639C692.27 502.639 691.333 503.576 691.333 504.74C691.333 505.896 692.27 506.832 693.426 506.832Z" fill="white"/>
<path opacity="0.6" d="M693.426 517.612C694.582 517.612 695.518 516.673 695.518 515.52C695.518 514.356 694.582 513.419 693.426 513.419C692.27 513.419 691.333 514.356 691.333 515.52C691.333 516.676 692.27 517.612 693.426 517.612Z" fill="white"/>
<path opacity="0.3" d="M693.426 528.393C694.582 528.393 695.518 527.456 695.518 526.3C695.518 525.136 694.582 524.2 693.426 524.2C692.27 524.2 691.333 525.136 691.333 526.3C691.333 527.453 692.27 528.393 693.426 528.393Z" fill="white"/>
<path opacity="0.8" d="M182.37 350.378C183.526 350.378 184.463 349.442 184.463 348.286C184.463 347.122 183.526 346.185 182.37 346.185C181.214 346.185 180.277 347.122 180.277 348.286C180.277 349.442 181.217 350.378 182.37 350.378ZM182.37 361.158C183.526 361.158 184.463 360.222 184.463 359.066C184.463 357.902 183.526 356.965 182.37 356.965C181.214 356.965 180.277 357.902 180.277 359.066C180.277 360.219 181.217 361.158 182.37 361.158Z" fill="white"/>
<path opacity="0.6" d="M182.37 371.936C183.526 371.936 184.463 370.997 184.463 369.843C184.463 368.679 183.526 367.743 182.37 367.743C181.214 367.743 180.277 368.679 180.277 369.843C180.277 370.999 181.217 371.936 182.37 371.936Z" fill="white"/>
<path opacity="0.3" d="M182.37 382.716C183.526 382.716 184.463 381.779 184.463 380.623C184.463 379.46 183.526 378.523 182.37 378.523C181.214 378.523 180.277 379.46 180.277 380.623C180.277 381.777 181.217 382.716 182.37 382.716Z" fill="white"/>
<path opacity="0.8" d="M736.845 268.601C738.001 268.601 738.937 267.665 738.937 266.509C738.937 265.345 738.001 264.408 736.845 264.408C735.689 264.408 734.752 265.345 734.752 266.509C734.749 267.662 735.689 268.601 736.845 268.601ZM736.845 279.379C738.001 279.379 738.937 278.442 738.937 277.286C738.937 276.122 738.001 275.186 736.845 275.186C735.689 275.186 734.752 276.122 734.752 277.286C734.749 278.442 735.689 279.379 736.845 279.379Z" fill="white"/>
<path opacity="0.6" d="M736.845 290.159C738.001 290.159 738.937 289.22 738.937 288.066C738.937 286.902 738.001 285.963 736.845 285.963C735.689 285.963 734.752 286.902 734.752 288.066C734.749 289.22 735.689 290.159 736.845 290.159Z" fill="white"/>
<path opacity="0.3" d="M736.845 300.936C738.001 300.936 738.937 300 738.937 298.844C738.937 297.68 738.001 296.743 736.845 296.743C735.689 296.743 734.752 297.68 734.752 298.844C734.749 300 735.689 300.936 736.845 300.936Z" fill="white"/>
<path opacity="0.35" d="M777.794 550.701C762.211 563.147 742.986 572.169 723.077 574.545C713.861 575.645 704.038 575.443 695.231 572.256C684.591 568.404 675.84 560.901 666.568 554.667C657.306 548.439 645.329 542.187 633.827 542.684C623.721 543.121 615.608 550.216 608.125 556.277C589.163 571.641 569.001 586.381 547.719 598.399C527.432 609.856 505.469 617.435 482.214 619.671C469.216 620.919 456.017 620.94 442.968 621.121C429.746 621.302 416.505 621.144 403.319 620.095C377.805 618.066 352.315 612.469 329.869 599.77C284.679 574.203 255.304 529.202 214.256 498.385C204.29 508.272 193.791 517.63 182.528 526.019C174.454 532.034 165.955 537.573 157.084 542.388C164.067 600.745 175.145 643.995 187.046 650.108C234.882 666.071 643.898 672.837 752.617 657.139C769.3 654.729 778.894 608.822 782.776 546.477C781.145 547.939 779.483 549.35 777.794 550.701Z" fill="#03142B"/>
<path opacity="0.1" d="M651.048 167.882C649.838 173.058 647.118 177.33 641.567 178.17C636.205 178.982 630.585 177.328 625.412 176.098C619.19 174.617 612.647 172.892 606.2 173.673C603.222 174.036 599.833 174.97 597.638 177.129C595.313 179.418 594.471 182.797 593.654 185.847C593.001 188.289 592.434 191.142 590.665 193.067C588.887 195.006 585.993 195.542 583.499 195.813C576.631 196.558 569.46 195.124 562.761 197.17C556.151 199.189 550.281 203.745 543.293 204.444C533.868 205.388 525.712 199.692 516.708 198.076C516.514 198.041 515.371 197.722 515.253 197.928C515.202 198.018 515.759 198.85 515.833 198.977C516.254 199.71 516.7 200.427 517.17 201.129C518.066 202.463 519.051 203.74 520.102 204.954C522.333 207.529 524.872 209.826 527.585 211.883C538.888 220.44 552.889 225.154 566.548 228.365C582.973 232.224 599.927 233.742 616.73 234.86C637.364 236.233 658.064 236.429 678.728 235.779C699.533 235.123 720.302 233.604 741.01 231.519C748.174 230.797 755.33 230.006 762.478 229.158C758.331 212.317 753.689 199.312 748.623 191.569C738.853 176.641 702.55 166.382 652.725 160.047C651.921 162.594 651.653 165.29 651.048 167.882Z" fill="url(#paint2_linear_1_2958)"/>
<path d="M617.868 630.88H369.556C362.796 630.88 357.316 629.984 357.316 623.226V615.629H630.106V623.224C630.108 629.984 624.629 630.88 617.868 630.88Z" fill="#133868"/>
<path d="M683.358 631.373V662.858C586.883 667.569 436.835 666.778 326.089 662.302V631.373H683.358Z" fill="url(#paint3_linear_1_2958)"/>
<path opacity="0.2" d="M580.263 659.221C578.505 646.912 577.783 637.995 584.398 641.027C591.016 644.059 580.815 663.08 580.263 659.221ZM587.981 643.508C588.218 636.615 638.98 630.826 643.665 642.13C648.351 653.433 587.705 651.501 587.981 643.508Z" fill="white"/>
<path opacity="0.35" d="M572.73 665.795C573.431 654.341 573.089 642.857 572.74 631.373H326.092V662.302C349.801 663.261 375.319 664.047 401.718 664.652C399.863 660.589 398.75 656.059 399.659 651.749C401.055 645.139 407.754 641.28 414.134 640.795C417.99 640.501 421.913 641.063 425.759 641.356C430.58 641.724 435.393 642.211 440.201 642.727C449.912 643.768 459.615 644.937 469.367 645.504C478.965 646.062 488.638 645.904 498.249 645.797C507.848 645.69 517.431 645.253 526.963 644.062C531.551 643.487 536.107 642.643 540.716 642.245C544.169 641.946 547.9 641.624 551.236 642.778C555.664 644.309 558.121 648.27 559.247 652.619C560.38 656.998 560.421 661.449 560.242 665.913C564.43 665.877 568.59 665.836 572.73 665.795Z" fill="#133868"/>
<path d="M624.103 630.88H441.339C435.903 630.88 432.116 626.47 432.879 621.037L450.422 487.401C451.185 481.965 456.213 477.557 461.649 477.557H644.415C649.851 477.557 653.639 481.965 652.875 487.401L635.332 621.037C634.567 626.47 629.539 630.88 624.103 630.88Z" fill="#133868"/>
<path d="M638.364 477.555H455.6C450.164 477.555 445.136 481.962 444.373 487.398L426.83 611.752C426.646 613.064 426.738 614.309 427.042 615.455H357.584V623.224H620.629C624.919 623.224 628.398 619.745 628.398 615.453H628.342C628.628 614.743 628.862 613.995 628.977 613.171L646.824 487.398C647.587 481.962 643.8 477.555 638.364 477.555Z" fill="url(#paint4_linear_1_2958)"/>
<path d="M611.649 616.315H443.177C438.167 616.315 434.676 612.252 435.38 607.242L451.658 491.905C452.36 486.895 456.994 482.832 462.006 482.832H630.476C635.488 482.832 638.98 486.895 638.275 491.905L621.998 607.242C621.293 612.252 616.659 616.315 611.649 616.315Z" fill="#D1DEEE"/>
<path fill-rule="evenodd" clip-rule="evenodd" d="M587.82 505.383L515.684 505.291V503.492C515.684 501.59 514.143 500.046 512.239 500.046H492.126C490.225 500.046 488.681 501.588 488.681 503.492V505.255H488.29C481.798 505.248 476.527 510.502 476.52 516.995L476.436 582.826C476.428 589.319 481.683 594.589 488.175 594.597L587.705 594.724C594.197 594.732 599.467 589.475 599.475 582.985L599.559 517.153C599.569 510.661 594.312 505.39 587.82 505.383Z" fill="url(#paint5_linear_1_2958)"/>
<path d="M536.038 525.613C533.501 527.913 526.48 533.387 515.708 535.046C515.792 540.449 517.283 563.53 536.038 573.815C554.796 563.532 556.279 540.449 556.363 535.046C545.598 533.387 538.58 527.913 536.038 525.613ZM534.41 555.624L526.279 547.273L530.352 543.491L534.407 548.087L549.988 539.533L534.41 555.624Z" fill="#D1DEEE"/>
<path fill-rule="evenodd" clip-rule="evenodd" d="M478.92 518.049C478.529 516.173 479.586 509.382 483.087 511.383C486.589 513.384 479.335 520.05 478.92 518.049ZM485.062 509.41C485.05 509.109 491.729 506.159 493.229 508.66C494.73 511.158 485.147 511.408 485.062 509.41Z" fill="white"/>
<path opacity="0.2" fill-rule="evenodd" clip-rule="evenodd" d="M593.728 570.097C597.334 570.576 593.498 594.262 587.514 590.35C581.529 586.438 586.824 569.175 593.728 570.097Z" fill="#03142B"/>
<path opacity="0.1" d="M631.162 482.901C626.035 492.337 619.014 500.784 611.116 508.114C596.954 521.259 580.069 531.358 562.695 539.645C545.351 547.919 527.154 554.501 508.608 559.503C486.632 565.431 463.742 568.984 440.934 567.894L435.38 607.24C434.676 612.25 438.167 616.313 443.177 616.313H611.649C616.659 616.313 621.293 612.25 621.998 607.24L638.275 491.903C638.944 487.133 635.792 483.264 631.162 482.901Z" fill="#133868"/>
<path opacity="0.35" d="M730.031 178.407V370.696C730.031 380.371 722.188 388.213 712.513 388.213H386.288C376.613 388.213 368.771 380.371 368.771 370.696V157.363C502.371 148.083 670.33 152.373 730.031 178.407Z" fill="#03142B"/>
<path d="M718.444 156.725V355.261C718.444 364.93 710.604 372.77 700.932 372.77H374.701C365.031 372.77 357.191 364.93 357.191 355.261V156.725C357.191 147.052 365.031 139.215 374.701 139.215H397.124C399.977 121.541 415.303 108.046 433.78 108.046C452.257 108.046 467.585 121.541 470.438 139.215H700.932C710.604 139.215 718.444 147.052 718.444 156.725Z" fill="#2382FF"/>
<path opacity="0.2" d="M373.619 208.224C361.504 219.019 365.064 150.607 373.828 152.264C382.592 153.917 382.592 200.23 373.619 208.224Z" fill="white"/>
<path opacity="0.1" d="M671.786 199.848H454.712V239.094H671.786V199.848ZM448.786 199.848H403.624V239.094H448.786V199.848ZM671.786 254.6H454.712V293.847H671.786V254.6ZM448.786 254.6H403.624V293.847H448.786V254.6Z" fill="#133868"/>
<path d="M489.669 272.764L493.42 269.507L495.796 273.759L491.315 275.29L495.796 276.745L493.267 281.188L489.669 277.855L490.7 282.605H485.797L486.795 277.855L483.271 281.265L480.627 276.707L485.108 275.173L480.706 273.795L483.079 269.543L486.833 272.759L485.723 267.971H490.738L489.669 272.764ZM510.964 272.764L514.715 269.507L517.091 273.759L512.61 275.29L517.091 276.745L514.562 281.188L510.964 277.855L511.995 282.605H507.092L508.09 277.855L504.565 281.265L501.921 276.707L506.403 275.173L502.001 273.795L504.374 269.543L508.128 272.759L507.018 267.971H512.033L510.964 272.764ZM544.764 280.93H561.391V282.656H544.764V280.93ZM532.687 272.764L536.439 269.507L538.815 273.759L534.333 275.29L538.815 276.745L536.286 281.188L532.687 277.855L533.718 282.605H528.816L529.813 277.855L526.289 281.265L523.645 276.707L528.126 275.173L523.724 273.795L526.098 269.543L529.852 272.759L528.741 267.971H533.756L532.687 272.764ZM431.175 219.644C432.604 218.483 433.517 216.714 433.517 214.729C433.517 211.233 430.685 208.4 427.188 208.4C423.692 208.4 420.859 211.233 420.859 214.729C420.859 216.712 421.773 218.483 423.202 219.644C416.995 221.341 412.383 226.9 412.11 233.579H442.266C441.993 226.9 437.381 221.341 431.175 219.644ZM422.434 271.967V267.693C422.434 264.893 424.71 262.617 427.51 262.617C430.309 262.617 432.586 264.893 432.586 267.693V271.967H435.978V267.693C435.978 263.025 432.18 259.225 427.51 259.225C422.842 259.225 419.042 263.025 419.042 267.693V271.967H422.434Z" fill="white"/>
<path d="M437.526 269.673H431.039C430.993 269.673 430.949 269.665 430.914 269.65H417.681C416.596 269.65 415.716 270.533 415.716 271.62V286.073C415.716 287.15 416.596 288.033 417.681 288.033H437.266C438.35 288.033 439.231 287.15 439.231 286.073V271.62C439.231 270.623 438.486 269.798 437.526 269.673ZM429.609 283.386H425.34C425.34 283.386 426.049 279.933 426.496 278.052C426.13 277.874 425.822 277.596 425.607 277.251C425.392 276.905 425.279 276.506 425.281 276.099C425.281 274.887 426.264 273.91 427.473 273.91C428.686 273.91 429.666 274.887 429.666 276.099C429.666 276.957 429.168 277.697 428.446 278.052C428.897 279.93 429.609 283.386 429.609 283.386ZM478.686 213.205H482.869V223.477C482.869 225.506 483.87 226.68 485.853 226.68C487.836 226.68 488.885 225.506 488.885 223.477V213.205H493.068V223.452C493.068 228.196 489.742 230.544 485.779 230.544C481.792 230.544 478.686 228.196 478.686 223.452V213.205ZM502.225 230.544C498.532 230.544 495.645 228.709 495.523 225.238H499.974C500.096 226.558 500.928 227.196 502.099 227.196C503.324 227.196 504.105 226.583 504.105 225.583C504.105 222.403 495.52 224.116 495.569 218.026C495.569 214.772 498.236 212.963 501.829 212.963C505.57 212.963 508.089 214.821 508.26 218.1H503.735C503.661 217 502.878 216.339 501.755 216.314C500.752 216.288 499.991 216.804 499.991 217.878C499.991 220.862 508.477 219.517 508.477 225.264C508.485 228.148 506.234 230.544 502.225 230.544ZM521.575 216.554H515.243V220.027H520.842V223.255H515.243V227.022H521.575V230.373H511.057V213.205H521.575V216.554ZM531.316 213.205C535.524 213.205 537.627 215.627 537.627 218.611C537.627 220.762 536.453 222.794 533.812 223.577L537.773 230.376H533.054L529.484 223.896H528.483V230.376H524.3V213.208H531.316V213.205ZM531.071 216.676H528.481V220.931H531.071C532.635 220.931 533.37 220.124 533.37 218.779C533.373 217.508 532.638 216.676 531.071 216.676ZM555.609 213.205V230.373H551.426L544.434 219.785V230.373H540.251V213.205H544.434L551.426 223.845V213.205H555.609ZM569.34 227.339H562.934L561.905 230.371H557.526L563.738 213.203H568.582L574.794 230.371H570.366L569.34 227.339ZM566.137 217.827L564.031 224.113H568.263L566.137 217.827ZM576.685 213.205H581.626L586.444 225.09L591.211 213.205H596.127V230.373H591.944V220.078L588.105 230.373H584.729L580.865 220.053V230.373H576.682V213.205H576.685ZM609.663 216.554H603.331V220.027H608.93V223.255H603.331V227.022H609.663V230.373H599.146V213.205H609.663V216.554Z" fill="white"/>
<path opacity="0.1" d="M718.452 156.725V355.266C718.452 364.941 710.61 372.76 700.935 372.76H374.712C365.037 372.76 357.194 364.941 357.194 355.266V314.894C585.853 366.75 674.88 206.098 701.468 139.23C710.911 139.508 718.452 147.236 718.452 156.725Z" fill="#133868"/>
<path d="M540.797 180.255C518.558 180.255 500.464 162.161 500.464 139.922C500.464 117.683 518.556 99.5882 540.797 99.5882C563.039 99.5882 581.131 117.683 581.131 139.922C581.131 162.161 563.036 180.255 540.797 180.255Z" fill="white"/>
<path d="M540.798 177.057C561.307 177.057 577.933 160.431 577.933 139.922C577.933 119.412 561.307 102.786 540.798 102.786C520.288 102.786 503.662 119.412 503.662 139.922C503.662 160.431 520.288 177.057 540.798 177.057Z" fill="url(#paint6_linear_1_2958)"/>
<path d="M525.862 125.569H532.454V132.161H525.862V125.569ZM525.862 135.976H532.454V147.838H525.862V135.976ZM539.707 125.569H546.299V129.912H539.707V125.569ZM535.228 135.976H544.561V140.32H535.228V135.976ZM549.905 142.109H556.498V146.452H549.905V142.109ZM549.913 125.569H556.505V132.161H549.913V125.569ZM533.314 125.569H537.717V127.205H533.314V125.569ZM525.862 149.734H532.454V156.327H525.862V149.734ZM549.913 149.734H556.505V156.327H549.913V149.734ZM534.105 149.597H538.508V153.435H534.105V149.597ZM554.346 133.319H556.505V135.522H554.346V133.319ZM550.97 137.936H553.129V140.139H550.97V137.936ZM540.146 151.128H544.549V156.327H540.146V151.128ZM546.236 153.029H547.871V156.327H546.236V153.029ZM546.236 149.597H547.871V151.707H546.236V149.597ZM533.975 129.915H535.611V133.212H533.975V129.915ZM535.767 144.595H537.403V147.892H535.767V144.595ZM540.59 141.981H546.629V147.062H540.59V141.981ZM545.552 135.979H547.187V139.276H545.552V135.979ZM521.544 128.271H523.152V122.914H528.509V121.307H521.544V128.271ZM523.152 153.626H521.544V160.589H528.509V158.981H523.152V153.626ZM559.218 158.981H553.864V160.589H560.826V153.626H559.218V158.981ZM553.864 121.307V122.914H559.218V128.271H560.826V121.307H553.864Z" fill="white"/>
<path opacity="0.1" d="M577.936 139.922C577.936 160.438 561.299 177.057 540.8 177.057C529.446 177.057 519.276 171.963 512.479 163.922C512.732 163.937 513 163.937 513.253 163.937C541.732 163.937 564.818 140.851 564.818 112.372C564.818 112.119 564.818 111.851 564.803 111.598C572.842 118.397 577.936 128.567 577.936 139.922Z" fill="#133868"/>
<path d="M648.073 180.255C625.834 180.255 607.739 162.161 607.739 139.922C607.739 117.683 625.834 99.5882 648.073 99.5882C670.312 99.5882 688.406 117.683 688.406 139.922C688.406 162.161 670.312 180.255 648.073 180.255Z" fill="white"/>
<path d="M648.073 177.057C668.583 177.057 685.209 160.431 685.209 139.922C685.209 119.412 668.583 102.786 648.073 102.786C627.564 102.786 610.938 119.412 610.938 139.922C610.938 160.431 627.564 177.057 648.073 177.057Z" fill="url(#paint7_linear_1_2958)"/>
<path d="M629.366 149.638C628.97 149.638 628.595 149.405 628.432 149.017C627.311 146.368 626.742 143.556 626.742 140.657C626.742 140.098 627.196 139.643 627.755 139.643C628.314 139.643 628.769 140.098 628.769 140.657C628.769 143.283 629.282 145.83 630.297 148.229C630.514 148.744 630.274 149.339 629.759 149.558C629.631 149.612 629.498 149.638 629.366 149.638ZM666.461 152.021C666.29 152.021 666.122 151.978 665.972 151.895C665.822 151.813 665.696 151.694 665.604 151.55C665.512 151.406 665.459 151.241 665.448 151.07C665.437 150.899 665.469 150.729 665.542 150.574C666.408 148.734 666.979 146.768 667.234 144.75C667.303 144.194 667.813 143.801 668.367 143.87C668.923 143.939 669.316 144.447 669.247 145.003C668.967 147.232 668.337 149.404 667.379 151.437C667.298 151.612 667.168 151.759 667.005 151.863C666.842 151.966 666.653 152.021 666.461 152.021ZM668.694 141.67C668.132 141.67 667.678 141.216 667.678 140.657C667.678 132.819 663.015 125.786 655.798 122.731C655.675 122.679 655.564 122.603 655.47 122.508C655.377 122.413 655.303 122.301 655.253 122.177C655.203 122.054 655.178 121.922 655.179 121.789C655.18 121.655 655.207 121.524 655.259 121.401C655.311 121.278 655.387 121.167 655.482 121.073C655.577 120.98 655.689 120.906 655.812 120.856C655.936 120.806 656.068 120.781 656.201 120.782C656.335 120.783 656.466 120.81 656.589 120.863C664.559 124.234 669.709 132.002 669.709 140.657C669.708 140.925 669.601 141.183 669.41 141.373C669.22 141.562 668.962 141.669 668.694 141.67ZM628.889 134.942C628.727 134.942 628.567 134.904 628.423 134.829C628.28 134.755 628.155 134.648 628.062 134.516C627.968 134.384 627.907 134.232 627.884 134.072C627.861 133.911 627.876 133.748 627.929 133.595C630.93 124.969 639.084 119.176 648.223 119.176C648.782 119.176 649.236 119.63 649.236 120.189C649.236 120.748 648.782 121.202 648.223 121.202C639.949 121.202 632.564 126.449 629.846 134.261C629.776 134.46 629.647 134.632 629.476 134.754C629.304 134.876 629.099 134.942 628.889 134.942Z" fill="white"/>
<path d="M631.971 143.666C631.466 143.666 631.027 143.288 630.965 142.772C630.881 142.073 630.838 141.361 630.838 140.654C630.838 134.486 634.153 128.723 639.489 125.617C639.605 125.55 639.732 125.507 639.864 125.489C639.996 125.471 640.13 125.479 640.259 125.514C640.387 125.548 640.508 125.607 640.614 125.688C640.72 125.769 640.809 125.869 640.875 125.985C641.156 126.469 640.993 127.09 640.508 127.37C635.794 130.114 632.864 135.205 632.864 140.654C632.864 141.279 632.903 141.91 632.977 142.527C632.992 142.66 632.982 142.794 632.946 142.922C632.911 143.05 632.85 143.17 632.767 143.275C632.685 143.38 632.583 143.467 632.467 143.532C632.351 143.598 632.223 143.639 632.091 143.655C632.053 143.663 632.012 143.666 631.971 143.666ZM658.286 128.754C658.066 128.754 657.847 128.685 657.663 128.539C654.945 126.418 651.681 125.298 648.225 125.298C647.483 125.298 646.735 125.352 646.005 125.456C645.451 125.535 644.936 125.153 644.857 124.599C644.777 124.045 645.16 123.529 645.714 123.45C646.541 123.33 647.386 123.269 648.225 123.269C652.138 123.269 655.833 124.538 658.911 126.939C659.123 127.105 659.261 127.348 659.294 127.615C659.327 127.882 659.253 128.151 659.087 128.363C658.992 128.485 658.87 128.583 658.731 128.65C658.593 128.718 658.44 128.753 658.286 128.754ZM658.99 159.08C658.763 159.08 658.536 159.004 658.35 158.851C658.246 158.766 658.161 158.663 658.098 158.545C658.035 158.428 657.996 158.299 657.983 158.166C657.97 158.034 657.983 157.9 658.022 157.773C658.061 157.645 658.124 157.527 658.209 157.424C663.479 150.998 666.008 139.848 661.121 132.311C660.975 132.085 660.925 131.811 660.981 131.548C661.037 131.285 661.194 131.055 661.42 130.908C661.645 130.761 661.919 130.711 662.182 130.767C662.445 130.823 662.675 130.981 662.821 131.206C665.317 135.055 666.274 140.1 665.516 145.416C664.824 150.255 662.731 155.102 659.776 158.708C659.577 158.953 659.284 159.08 658.99 159.08ZM649.274 147.836C648.731 147.836 648.282 147.407 648.261 146.858C648.187 144.903 647.909 143.01 647.434 141.233C647.368 140.975 647.406 140.7 647.541 140.47C647.676 140.239 647.896 140.071 648.154 140.002C648.412 139.933 648.687 139.968 648.919 140.1C649.151 140.232 649.322 140.451 649.394 140.708C649.91 142.632 650.211 144.674 650.29 146.782C650.3 147.05 650.203 147.312 650.02 147.509C649.837 147.706 649.584 147.823 649.315 147.833C649.3 147.833 649.287 147.836 649.274 147.836ZM646.919 162.138C646.794 162.138 646.666 162.115 646.541 162.064C646.417 162.014 646.304 161.941 646.209 161.848C646.114 161.755 646.038 161.643 645.985 161.521C645.933 161.398 645.905 161.267 645.904 161.133C645.902 161 645.927 160.868 645.977 160.744C647.322 157.383 648.164 153.777 648.407 150.316C648.416 150.184 648.451 150.054 648.51 149.935C648.57 149.815 648.652 149.709 648.752 149.622C648.853 149.535 648.97 149.468 649.096 149.426C649.222 149.384 649.356 149.367 649.489 149.377C650.048 149.415 650.469 149.903 650.428 150.462C650.168 154.129 649.279 157.945 647.858 161.5C647.783 161.688 647.654 161.849 647.486 161.963C647.319 162.077 647.121 162.138 646.919 162.138ZM632.211 154.415C632.119 154.415 632.025 154.402 631.93 154.377C631.802 154.34 631.683 154.278 631.578 154.195C631.474 154.112 631.387 154.009 631.323 153.893C631.258 153.776 631.218 153.648 631.203 153.516C631.188 153.383 631.199 153.249 631.236 153.121C631.795 151.176 631.951 149.035 631.69 146.927C631.674 146.795 631.684 146.661 631.719 146.532C631.755 146.404 631.815 146.284 631.897 146.179C631.979 146.074 632.081 145.986 632.197 145.92C632.313 145.855 632.441 145.813 632.573 145.797C632.706 145.78 632.84 145.79 632.968 145.826C633.097 145.861 633.217 145.922 633.322 146.004C633.427 146.086 633.514 146.188 633.58 146.304C633.646 146.42 633.688 146.547 633.704 146.68C633.997 149.056 633.819 151.475 633.186 153.68C633.125 153.892 632.997 154.077 632.821 154.21C632.645 154.343 632.431 154.414 632.211 154.415Z" fill="white"/>
<path d="M660.627 141.67C660.068 141.67 659.613 141.216 659.613 140.657C659.613 136.9 657.761 133.386 654.657 131.257C654.435 131.105 654.283 130.871 654.234 130.606C654.185 130.341 654.242 130.068 654.394 129.846C654.47 129.736 654.566 129.642 654.677 129.57C654.789 129.497 654.913 129.447 655.044 129.423C655.175 129.398 655.309 129.4 655.44 129.427C655.57 129.455 655.693 129.508 655.803 129.583C657.602 130.815 659.074 132.468 660.091 134.397C661.108 136.326 661.639 138.473 661.64 140.654C661.642 141.216 661.188 141.67 660.627 141.67ZM635.823 141.67C635.264 141.67 634.81 141.216 634.81 140.657C634.81 133.258 640.827 127.24 648.226 127.24C648.685 127.24 649.15 127.263 649.604 127.309C649.869 127.34 650.112 127.473 650.279 127.681C650.446 127.89 650.525 128.155 650.497 128.421C650.47 128.686 650.34 128.93 650.134 129.1C649.928 129.27 649.663 129.352 649.397 129.328C649.008 129.289 648.617 129.269 648.226 129.269C641.945 129.269 636.838 134.378 636.838 140.657C636.837 140.925 636.73 141.183 636.539 141.373C636.349 141.562 636.091 141.669 635.823 141.67ZM635.504 157.705C635.386 157.705 635.266 157.684 635.149 157.641C634.897 157.546 634.693 157.355 634.582 157.11C634.47 156.866 634.46 156.586 634.554 156.334C635.379 154.139 635.795 151.825 635.795 149.456C635.795 147.907 635.613 146.368 635.256 144.875C635.126 144.329 635.46 143.783 636.006 143.653C636.55 143.523 637.099 143.857 637.229 144.403C637.624 146.059 637.823 147.754 637.824 149.456C637.824 152.07 637.362 154.622 636.453 157.046C636.381 157.24 636.252 157.407 636.082 157.525C635.912 157.642 635.71 157.705 635.504 157.705ZM650.918 162.207C650.597 162.207 650.278 162.053 650.081 161.768C649.929 161.546 649.871 161.273 649.92 161.008C649.968 160.744 650.12 160.509 650.342 160.356C655.459 156.84 658.738 151.455 659.58 145.192C659.654 144.638 660.162 144.247 660.721 144.321C661.275 144.395 661.665 144.906 661.591 145.462C660.673 152.297 657.084 158.179 651.49 162.025C651.316 162.15 651.117 162.207 650.918 162.207Z" fill="white"/>
<path d="M640.93 137.87C640.772 137.87 640.611 137.831 640.46 137.755C640.342 137.693 640.237 137.609 640.152 137.507C640.066 137.405 640.001 137.287 639.962 137.16C639.922 137.033 639.907 136.899 639.919 136.767C639.931 136.634 639.969 136.505 640.031 136.387C641.632 133.322 644.771 131.418 648.226 131.418C650.533 131.418 652.741 132.273 654.446 133.825C654.544 133.914 654.624 134.022 654.68 134.143C654.737 134.263 654.769 134.394 654.775 134.527C654.782 134.66 654.762 134.793 654.716 134.918C654.671 135.043 654.602 135.158 654.512 135.256C654.422 135.355 654.314 135.435 654.194 135.491C654.073 135.548 653.943 135.58 653.81 135.586C653.677 135.592 653.544 135.572 653.419 135.527C653.294 135.482 653.179 135.412 653.08 135.323C651.754 134.112 650.022 133.442 648.226 133.444C646.907 133.442 645.612 133.803 644.484 134.487C643.356 135.171 642.438 136.153 641.831 137.324C641.744 137.488 641.615 137.626 641.456 137.722C641.297 137.818 641.115 137.869 640.93 137.87ZM641.295 151.467C640.736 151.467 640.282 151.016 640.282 150.457C640.274 147.555 639.881 144.674 639.113 141.889C638.965 141.351 639.281 140.792 639.82 140.641C640.361 140.493 640.917 140.81 641.068 141.348C641.884 144.306 642.303 147.369 642.31 150.452C642.309 150.721 642.202 150.978 642.012 151.169C641.821 151.359 641.564 151.466 641.295 151.467ZM639.365 160.101C639.225 160.101 639.082 160.073 638.947 160.009C638.702 159.898 638.511 159.694 638.417 159.442C638.322 159.191 638.331 158.912 638.441 158.667C639.105 157.205 639.574 155.662 639.835 154.078C639.878 153.813 640.025 153.576 640.244 153.419C640.462 153.262 640.733 153.198 640.999 153.241C641.55 153.333 641.925 153.854 641.836 154.407C641.547 156.168 641.027 157.882 640.289 159.506C640.209 159.684 640.079 159.835 639.915 159.94C639.751 160.046 639.56 160.101 639.365 160.101ZM657.314 146.925C657.291 146.925 657.271 146.925 657.25 146.922C656.982 146.904 656.731 146.781 656.553 146.579C656.376 146.378 656.285 146.114 656.301 145.845C656.452 143.459 656.13 141.113 655.347 138.878C655.16 138.35 655.438 137.77 655.967 137.586C656.495 137.4 657.074 137.678 657.258 138.209C658.134 140.703 658.491 143.316 658.322 145.975C658.307 146.232 658.194 146.474 658.007 146.65C657.819 146.827 657.572 146.925 657.314 146.925ZM642.938 161.449C642.8 161.449 642.66 161.421 642.525 161.362C642.014 161.132 641.785 160.535 642.012 160.022C642.489 158.953 642.895 157.84 643.219 156.717C643.256 156.589 643.318 156.47 643.401 156.366C643.484 156.262 643.587 156.175 643.703 156.111C643.82 156.047 643.948 156.006 644.081 155.991C644.213 155.977 644.347 155.988 644.475 156.025C645.013 156.181 645.322 156.743 645.166 157.281C644.817 158.493 644.378 159.695 643.862 160.849C643.699 161.224 643.326 161.449 642.938 161.449ZM644.86 154.841C644.809 154.841 644.758 154.839 644.707 154.831C644.441 154.791 644.202 154.647 644.042 154.43C643.883 154.214 643.815 153.943 643.854 153.677C644.094 152.09 644.163 150.467 644.061 148.849C644.012 148.078 643.924 147.309 643.798 146.547C643.777 146.416 643.781 146.281 643.811 146.151C643.841 146.022 643.896 145.899 643.974 145.791C644.051 145.682 644.15 145.591 644.263 145.52C644.376 145.45 644.501 145.402 644.633 145.381C645.184 145.289 645.707 145.661 645.799 146.215C645.937 147.042 646.034 147.884 646.085 148.721C646.197 150.482 646.121 152.253 645.86 153.981C645.824 154.22 645.703 154.438 645.519 154.596C645.336 154.754 645.102 154.841 644.86 154.841Z" fill="white"/>
<path d="M653.761 148.216C653.203 148.216 652.748 147.762 652.748 147.203C652.748 143.801 651.804 137.372 648.226 137.372C646.414 137.372 644.941 138.847 644.941 140.657C644.941 140.718 644.944 140.779 644.947 140.84C644.954 140.973 644.935 141.106 644.891 141.232C644.848 141.358 644.779 141.473 644.691 141.573C644.602 141.672 644.495 141.753 644.375 141.811C644.255 141.869 644.125 141.902 643.992 141.91C643.859 141.918 643.726 141.899 643.6 141.855C643.474 141.812 643.358 141.744 643.259 141.655C643.159 141.566 643.079 141.459 643.021 141.339C642.963 141.219 642.93 141.088 642.923 140.955C642.918 140.858 642.915 140.759 642.915 140.659C642.915 137.729 645.299 135.346 648.228 135.346C653.062 135.346 654.78 141.734 654.78 147.205C654.777 147.474 654.669 147.73 654.478 147.92C654.287 148.109 654.03 148.215 653.761 148.216ZM651.827 157.345C651.689 157.345 651.549 157.317 651.414 157.256C650.903 157.028 650.671 156.429 650.901 155.916C651.669 154.192 652.205 152.373 652.493 150.508C652.538 150.246 652.685 150.012 652.901 149.857C653.117 149.702 653.385 149.637 653.648 149.678C653.91 149.718 654.147 149.86 654.306 150.073C654.465 150.286 654.535 150.553 654.499 150.817C654.183 152.86 653.597 154.851 652.756 156.74C652.676 156.92 652.546 157.072 652.381 157.18C652.216 157.287 652.024 157.344 651.827 157.345Z" fill="white"/>
<path opacity="0.1" d="M685.211 139.922C685.211 160.438 668.574 177.057 648.076 177.057C636.721 177.057 626.551 171.963 619.755 163.922C620.008 163.937 620.276 163.937 620.528 163.937C649.007 163.937 672.093 140.851 672.093 112.372C672.093 112.119 672.093 111.851 672.078 111.598C680.117 118.397 685.211 128.567 685.211 139.922Z" fill="#133868"/>
<path opacity="0.1" d="M433.78 113.533C416.329 113.533 402.134 127.73 402.134 145.179C402.134 162.63 416.331 176.825 433.78 176.825C451.231 176.825 465.426 162.628 465.426 145.179C465.426 127.728 451.231 113.533 433.78 113.533Z" fill="#133868"/>
<path d="M428.219 139.922V134.828C428.219 131.492 430.932 128.779 434.268 128.779C437.603 128.779 440.316 131.492 440.316 134.828V139.922H444.359V134.828C444.359 129.264 439.834 124.737 434.268 124.737C428.704 124.737 424.177 129.264 424.177 134.828V139.922H428.219Z" fill="white"/>
<path d="M446.203 137.186H438.476C438.422 137.186 438.368 137.176 438.325 137.16H422.558C421.264 137.16 420.218 138.214 420.218 139.506V156.727C420.218 158.011 421.264 159.062 422.558 159.062H445.894C447.188 159.062 448.235 158.008 448.235 156.727V139.506C448.235 138.319 447.347 137.334 446.203 137.186ZM436.771 153.524H431.682C431.682 153.524 432.527 149.408 433.06 147.17C432.624 146.958 432.257 146.627 432.001 146.216C431.744 145.805 431.609 145.329 431.61 144.845C431.61 143.4 432.782 142.236 434.224 142.236C435.668 142.236 436.837 143.4 436.837 144.845C436.837 145.865 436.245 146.749 435.382 147.17C435.921 149.41 436.771 153.524 436.771 153.524Z" fill="white"/>
<path opacity="0.31" d="M247.016 534.102L199.119 510.916L145.066 575.378L135.99 562.494L147.287 475.839L102.542 341.161L0 377.465L27.3122 446.221L115.088 657.526L134.445 705.401L136.688 691.502L158.077 609.946L187.97 576.753L241.346 572.648L156.342 513.814L247.016 534.102Z" fill="#010101" fill-opacity="0.3"/>
<path d="M164.443 280.529C196.154 280.529 221.86 255.723 221.86 225.122C221.86 194.522 196.154 169.715 164.443 169.715C132.733 169.715 107.026 194.522 107.026 225.122C107.026 255.723 132.733 280.529 164.443 280.529Z" fill="#0047AB"/>
<path d="M315.983 614.303L281.055 631.842C270.9 612.526 249.363 599.727 224.971 601.673C196.431 603.958 173.668 626.912 172.483 654.521C172.039 664.824 174.493 674.555 179.189 682.975L176.82 684.16L158.16 693.511L134.466 705.4C122.238 677.792 111.892 650.078 103.155 622.723C101.738 618.344 100.363 613.923 99.0509 609.543V609.501C98.0777 606.285 97.1045 602.985 96.364 600.425C95.6236 597.886 95.1158 596.13 95.1158 596.13C79.4394 541.443 69.8557 488.997 64.1013 442.983L64.1437 443.872C56.4853 393.373 56.1044 338.389 56.1044 338.389C55.8506 329.249 55.7871 320.977 55.7871 313.679C55.7871 309.257 55.7871 305.174 55.8718 301.493C56.1045 286.853 56.6333 278.2 56.6968 276.973V276.825L87.2882 280.972L102.732 283.553C102.626 284.907 102.563 286.282 102.563 287.657C102.563 318.269 128.267 343.064 159.959 343.064C186.403 343.064 208.638 325.843 215.302 302.381L231.804 305.132L256.979 309.553V309.659C256.916 310.526 256.239 322.881 256.324 342.747C256.324 342.747 257.783 398.768 260.153 420.389C263.136 451.044 268.171 484.999 276.697 518.192C276.739 518.298 276.76 518.383 276.781 518.488C279.997 531.542 280.441 531.944 280.462 531.944C289.009 561.498 300.518 589.932 316.004 614.282L315.983 614.303Z" fill="#6495ED"/>
<path d="M258.686 481.147C228.748 469.598 224.648 462.557 224.72 456.683C224.834 447.324 249.999 394.345 255.094 383.713C286.864 317.433 293.268 314.249 296.008 312.882C299.064 311.358 301.475 310.163 328.465 321.933C366.517 338.527 367.597 341.854 368.249 343.843C369.172 346.691 369.365 347.278 360.506 368.558C355.362 380.915 348.714 396.206 342.282 410.495C329.667 438.522 312.873 473.992 303.793 485.476C302.384 487.265 298.641 492.001 293.497 491.565C287.966 491.086 272.389 486.435 258.686 481.147Z" fill="#132844"/>
<path d="M255.888 474.943C225.95 463.394 221.85 456.354 221.922 450.479C222.036 441.12 247.202 388.142 252.296 377.509C284.066 311.229 290.47 308.045 293.203 306.678C296.259 305.154 298.67 303.959 325.66 315.73C363.712 332.323 364.792 335.65 365.444 337.639C366.367 340.487 366.56 341.074 357.702 362.354C352.557 374.711 345.91 390.002 339.477 404.291C326.862 432.319 310.068 467.788 300.988 479.272C299.579 481.061 295.836 485.798 290.692 485.361C285.161 484.882 269.584 480.231 255.888 474.943Z" fill="#133868"/>
<path d="M295.619 313.304C299.941 311.15 358.142 338.262 358.951 340.745C359.759 343.221 301.572 479.351 292.141 478.55C282.675 477.741 228.702 459.867 228.838 449.778C228.981 439.632 286.317 317.941 295.619 313.304Z" fill="#D1DEEE"/>
<path d="M289.51 403.69L289.503 403.697C289.496 403.697 289.496 403.697 289.496 403.683C272.859 381.516 289.431 349.825 289.431 349.825C303.692 353.624 315.613 348.186 316.342 347.843C316.35 347.836 316.35 347.836 316.364 347.836V347.857C316.571 348.601 320.106 360.515 332.413 367.835C332.406 367.828 318.224 400.048 289.51 403.69Z" fill="url(#paint8_linear_1_2958)"/>
<path d="M290.304 402.016C276.966 383.355 287.442 357.653 290.175 351.714C301.795 354.404 311.634 351.363 315.355 349.918C316.664 353.481 320.728 362.333 330.438 368.558C327.526 374.354 314.074 398.517 290.304 402.016Z" fill="url(#paint9_linear_1_2958)"/>
<path opacity="0.2" d="M314.26 442.909C304.107 463.473 295.356 478.821 292.129 478.557C290.469 478.421 287.471 477.762 283.635 476.711L254.57 388.328C263.286 369.888 272.788 350.791 280.594 336.452L314.26 442.909ZM319.111 432.927L285.882 327.035C290.39 319.272 293.867 314.184 295.62 313.318C295.821 313.211 296.164 313.168 296.622 313.204L327.877 414.223C325.001 420.479 322.079 426.714 319.111 432.927Z" fill="#F2F3F4"/>
<defs>
<linearGradient id="paint0_linear_1_2958" x1="427.768" y1="110.325" x2="521.369" y2="873.844" gradientUnits="userSpaceOnUse">
<stop offset="0.262" stop-color="#18519B"/>
<stop offset="1" stop-color="#03142B"/>
</linearGradient>
<linearGradient id="paint1_linear_1_2958" x1="361.94" y1="118.395" x2="455.541" y2="881.913" gradientUnits="userSpaceOnUse">
<stop offset="0.02" stop-color="#D1DEEE"/>
<stop offset="0.363" stop-color="#508FE2"/>
<stop offset="1" stop-color="#18519B"/>
</linearGradient>
<linearGradient id="paint2_linear_1_2958" x1="623.275" y1="86.3573" x2="716.876" y2="849.876" gradientUnits="userSpaceOnUse">
<stop offset="0.02" stop-color="#D1DEEE"/>
<stop offset="0.363" stop-color="#508FE2"/>
<stop offset="1" stop-color="#18519B"/>
</linearGradient>
<linearGradient id="paint3_linear_1_2958" x1="432.353" y1="553.833" x2="614.145" y2="787.452" gradientUnits="userSpaceOnUse">
<stop offset="0.02" stop-color="#D1DEEE"/>
<stop offset="0.363" stop-color="#508FE2"/>
<stop offset="1" stop-color="#18519B"/>
</linearGradient>
<linearGradient id="paint4_linear_1_2958" x1="723.705" y1="422.064" x2="373.667" y2="663.503" gradientUnits="userSpaceOnUse">
<stop offset="0.02" stop-color="#D1DEEE"/>
<stop offset="0.363" stop-color="#508FE2"/>
<stop offset="1" stop-color="#18519B"/>
</linearGradient>
<linearGradient id="paint5_linear_1_2958" x1="493.967" y1="479.847" x2="587.844" y2="629.394" gradientUnits="userSpaceOnUse">
<stop offset="0.02" stop-color="#D1DEEE"/>
<stop offset="0.363" stop-color="#508FE2"/>
<stop offset="1" stop-color="#18519B"/>
</linearGradient>
<linearGradient id="paint6_linear_1_2958" x1="510.175" y1="101.296" x2="609.099" y2="226.076" gradientUnits="userSpaceOnUse">
<stop offset="0.02" stop-color="#D1DEEE"/>
<stop offset="0.363" stop-color="#508FE2"/>
<stop offset="1" stop-color="#18519B"/>
</linearGradient>
<linearGradient id="paint7_linear_1_2958" x1="617.45" y1="101.296" x2="716.375" y2="226.076" gradientUnits="userSpaceOnUse">
<stop offset="0.02" stop-color="#D1DEEE"/>
<stop offset="0.363" stop-color="#508FE2"/>
<stop offset="1" stop-color="#18519B"/>
</linearGradient>
<linearGradient id="paint8_linear_1_2958" x1="297.884" y1="332.616" x2="317.349" y2="423.611" gradientUnits="userSpaceOnUse">
<stop offset="0.02" stop-color="#D1DEEE"/>
<stop offset="0.363" stop-color="#508FE2"/>
<stop offset="1" stop-color="#18519B"/>
</linearGradient>
<linearGradient id="paint9_linear_1_2958" x1="299.26" y1="294.567" x2="313.509" y2="442.238" gradientUnits="userSpaceOnUse">
<stop offset="0.02" stop-color="#D1DEEE"/>
<stop offset="0.363" stop-color="#508FE2"/>
<stop offset="1" stop-color="#18519B"/>
</linearGradient>
</defs>
</svg>
