<svg width="32" height="32" viewBox="0 0 32 32" fill="none" xmlns="http://www.w3.org/2000/svg">
<path d="M25.7255 31.7159C24.5926 32.5466 17.3232 27.2809 15.9309 27.2693C14.5386 27.2578 7.18741 32.4025 6.0677 31.5531C4.94798 30.7037 7.58038 21.9798 7.16087 20.6171C6.74137 19.2544 -0.296995 13.6675 0.143892 12.3119C0.584878 10.9563 9.48118 10.8304 10.6141 9.99969C11.747 9.16909 14.7484 0.571546 16.1408 0.583019C17.5329 0.594593 20.3987 9.24073 21.5184 10.0901C22.6381 10.9393 31.5314 11.2127 31.951 12.5754C32.3705 13.9381 25.2453 19.4077 24.8044 20.7633C24.3635 22.1189 26.8584 30.8852 25.7255 31.7159Z" fill="url(#paint0_linear_75_8385)"/>
<defs>
<linearGradient id="paint0_linear_75_8385" x1="0.124064" y1="16.1939" x2="31.9688" y2="16.1939" gradientUnits="userSpaceOnUse">
<stop stop-color="#474747"/>
<stop offset="1" stop-color="#BEBEBE"/>
</linearGradient>
</defs>
</svg>
