<svg width="171" height="156" viewBox="0 0 171 156" fill="none" xmlns="http://www.w3.org/2000/svg">
<path d="M19.537 77.8591C18.4192 64.1631 21.5348 49.4356 31.6009 39.5038C35.8293 35.3319 41.1117 32.1435 46.9186 30.7705C54.3254 29.0191 61.9358 30.8651 69.4138 29.9144C81.9148 28.3252 96.3906 18.3226 108.698 18.3103C138.075 18.2809 146.72 35.2776 147.803 38.6873C148.864 42.026 151.163 44.7456 153.559 47.2182C158.779 52.6067 162.764 57.2429 163.134 65.0959C163.452 71.8438 162.208 78.8247 159.849 85.1383C155.14 97.7413 144.734 108.214 131.168 110.613C123.755 111.924 116.921 109.844 109.825 107.933C102.653 106.003 95.2897 104.898 87.8627 104.71C79.2675 104.492 70.6389 105.465 62.3152 107.623C54.5784 109.629 46.6822 113.63 38.4939 112.338C24.0039 110.052 20.4567 89.8362 19.537 77.8591Z" fill="white" fill-opacity="0.2"/>
<path d="M122.263 92.7369H118.512C116.957 92.7369 115.697 93.9972 115.697 95.5519V99.3033C115.697 100.858 116.957 102.118 118.512 102.118H119.913L122.263 104.469V102.118C123.818 102.118 125.078 100.858 125.078 99.3033V95.5519C125.078 93.9973 123.818 92.7369 122.263 92.7369Z" fill="#6495ED"/>
<path d="M123.019 95.3402H117.71V96.1881H123.019V95.3402Z" fill="white"/>
<path d="M123.019 96.9988H117.71V97.8466H123.019V96.9988Z" fill="white"/>
<path d="M120.776 98.6573H117.71V99.5051H120.776V98.6573Z" fill="white"/>
<path d="M30.3776 89.1006H25.0457C24.1192 89.1006 23.3682 88.3495 23.3682 87.423V83.4812C23.3682 82.8654 23.8674 82.3661 24.4833 82.3661H30.9402C31.556 82.3661 32.0553 82.8653 32.0553 83.4812V87.423C32.0552 88.3495 31.3041 89.1006 30.3776 89.1006Z" fill="#6495ED"/>
<path d="M30.9885 87.5091C30.7316 87.2262 30.4689 86.949 30.2083 86.6698C29.9444 86.3939 29.6837 86.1147 29.417 85.8416C29.1882 85.6073 28.9615 85.371 28.7315 85.1379L28.8004 85.085C29.1298 84.8247 29.4626 84.5688 29.7886 84.3041C30.117 84.0424 30.4417 83.7759 30.7657 83.5085C31.0877 83.2385 31.4103 82.9692 31.7246 82.6891C31.3701 82.9163 31.0239 83.1544 30.6771 83.3918C30.3323 83.6318 29.9882 83.8727 29.6477 84.1184C29.3049 84.3611 28.9688 84.6125 28.6294 84.8596L28.5301 84.934L28.529 84.9329L28.4281 85.0086L27.7086 85.5489L26.9337 85.0059L26.8283 84.932L26.8271 84.9334L26.7626 84.8884C26.4143 84.6519 26.0691 84.4111 25.7176 84.1791C25.3683 83.944 25.0155 83.7139 24.662 83.4847C24.3068 83.2581 23.9519 83.0309 23.5892 82.8146C23.9137 83.0848 24.2459 83.344 24.5776 83.6039C24.9113 83.8612 25.2455 84.1175 25.5833 84.3689C25.9189 84.6234 26.2607 84.869 26.5995 85.1189L26.638 85.1466C26.42 85.3928 26.205 85.6416 25.988 85.8887C25.7363 86.1759 25.4904 86.4682 25.2414 86.7578C24.9958 87.0505 24.748 87.3412 24.5062 87.6373C24.2625 87.9317 24.0224 88.2292 23.7859 88.5302C24.0603 88.2633 24.3309 87.9931 24.5979 87.7198C24.8669 87.4481 25.1298 87.171 25.3951 86.896C25.6568 86.6178 25.9216 86.3423 26.1806 86.0619C26.4103 85.8127 26.6421 85.5655 26.8704 85.3152L27.6254 85.8553L27.6356 85.8626L27.7148 85.9194L27.7906 85.8612L27.8021 85.8524L28.504 85.3144C28.7454 85.5531 28.9907 85.788 29.2335 86.0252C29.5067 86.2919 29.7859 86.5526 30.0618 86.8165C30.341 87.0771 30.6181 87.3398 30.901 87.5967C31.1821 87.8555 31.4665 88.1109 31.7546 88.3626C31.5027 88.0746 31.2473 87.7901 30.9885 87.5091Z" fill="#0047AB"/>
<path d="M110.467 92.2984C110.073 91.9041 109.597 91.707 109.038 91.707C108.48 91.707 108.004 91.9041 107.61 92.2984C107.215 92.6926 107.018 93.1688 107.018 93.7272C107.018 94.2855 107.215 94.7616 107.61 95.1559C108.004 95.5502 108.48 95.7473 109.038 95.7473C109.597 95.7473 110.073 95.5502 110.467 95.1559C110.861 94.7617 111.058 94.2855 111.058 93.7272C111.058 93.1688 110.861 92.6926 110.467 92.2984Z" fill="#FDC564"/>
<path d="M110.201 95.3762C110.2 95.375 110.199 95.3745 110.197 95.3744H109.966C109.964 95.3745 109.963 95.375 109.962 95.3762C109.961 95.3772 109.96 95.3784 109.96 95.3798C109.96 95.3812 109.961 95.3825 109.962 95.3835C109.963 95.3846 109.964 95.3852 109.966 95.3853H110.197C110.199 95.3852 110.2 95.3846 110.201 95.3835C110.202 95.3825 110.203 95.3812 110.203 95.3798C110.203 95.3784 110.202 95.3772 110.201 95.3762ZM110.394 95.2183C110.393 95.2171 110.391 95.2166 110.39 95.2165H110.159C110.157 95.2166 110.156 95.2171 110.155 95.2183C110.154 95.2193 110.153 95.2205 110.153 95.222C110.153 95.2234 110.154 95.2246 110.155 95.2256C110.156 95.2268 110.157 95.2274 110.159 95.2275H110.39C110.391 95.2274 110.393 95.2268 110.394 95.2256C110.395 95.2246 110.395 95.2234 110.395 95.222C110.395 95.2205 110.395 95.2193 110.394 95.2183ZM110.548 95.0622C110.547 95.061 110.546 95.0604 110.544 95.0604H110.313C110.311 95.0604 110.31 95.061 110.309 95.0622C110.308 95.0632 110.307 95.0644 110.307 95.0658C110.307 95.0672 110.308 95.0685 110.309 95.0695C110.31 95.0706 110.311 95.0712 110.313 95.0713H110.544C110.546 95.0712 110.547 95.0706 110.548 95.0695C110.549 95.0685 110.55 95.0672 110.55 95.0658C110.55 95.0644 110.549 95.0632 110.548 95.0622ZM110.675 94.9061C110.674 94.9049 110.672 94.9044 110.671 94.9043H110.44C110.438 94.9044 110.437 94.9049 110.436 94.9061C110.435 94.9071 110.434 94.9083 110.434 94.9097C110.434 94.9111 110.435 94.9124 110.436 94.9134C110.437 94.9145 110.438 94.9151 110.44 94.9152H110.671C110.672 94.9151 110.674 94.9145 110.675 94.9134C110.676 94.9124 110.676 94.9111 110.676 94.9097C110.676 94.9083 110.676 94.9071 110.675 94.9061ZM109.707 95.5397C109.708 95.5408 109.709 95.5414 109.71 95.5415H109.942C109.943 95.5414 109.944 95.5408 109.945 95.5397C109.947 95.5387 109.947 95.5374 109.947 95.536C109.947 95.5345 109.947 95.5334 109.945 95.5324C109.944 95.5312 109.943 95.5306 109.942 95.5306H109.71C109.709 95.5306 109.708 95.5312 109.707 95.5324C109.706 95.5334 109.705 95.5346 109.705 95.536C109.705 95.5374 109.706 95.5387 109.707 95.5397ZM109.275 95.6976C109.276 95.6987 109.277 95.6993 109.279 95.6994H109.51C109.512 95.6993 109.513 95.6987 109.514 95.6976C109.515 95.6966 109.516 95.6954 109.516 95.6939C109.516 95.6925 109.515 95.6913 109.514 95.6903C109.513 95.6891 109.512 95.6886 109.51 95.6885H109.279C109.277 95.6886 109.276 95.6891 109.275 95.6903C109.274 95.6913 109.273 95.6925 109.273 95.6939C109.273 95.6954 109.274 95.6966 109.275 95.6976ZM110.864 94.5921C110.863 94.5909 110.861 94.5903 110.86 94.5903H110.629C110.627 94.5903 110.626 94.5909 110.625 94.5921C110.624 94.5931 110.623 94.5943 110.623 94.5957C110.623 94.5971 110.624 94.5984 110.625 94.5993C110.626 94.6005 110.627 94.6011 110.629 94.6012H110.86C110.861 94.6011 110.863 94.6005 110.864 94.5993C110.865 94.5984 110.865 94.5971 110.866 94.5957C110.866 94.5943 110.865 94.5931 110.864 94.5921ZM110.932 94.4341C110.931 94.433 110.929 94.4324 110.928 94.4323H110.695C110.693 94.4324 110.692 94.433 110.691 94.4341C110.69 94.4351 110.689 94.4364 110.689 94.4378C110.689 94.4392 110.69 94.4404 110.691 94.4414C110.692 94.4426 110.693 94.4432 110.695 94.4432H110.928C110.929 94.4432 110.931 94.4426 110.932 94.4414C110.933 94.4404 110.933 94.4392 110.934 94.4378C110.933 94.4363 110.933 94.4351 110.932 94.4341ZM110.746 94.2761C110.745 94.2762 110.744 94.2768 110.743 94.278C110.741 94.279 110.741 94.2802 110.741 94.2816C110.741 94.283 110.741 94.2842 110.743 94.2852C110.744 94.2864 110.745 94.287 110.746 94.2871H110.978C110.979 94.287 110.98 94.2864 110.981 94.2852C110.982 94.2842 110.983 94.283 110.983 94.2816C110.983 94.2801 110.982 94.279 110.981 94.278C110.98 94.2768 110.979 94.2762 110.978 94.2761H110.746ZM111.018 94.1201C111.017 94.119 111.016 94.1184 111.014 94.1183H110.783C110.782 94.1184 110.78 94.119 110.779 94.1201C110.778 94.1211 110.778 94.1224 110.777 94.1238C110.778 94.1252 110.778 94.1264 110.779 94.1274C110.78 94.1286 110.782 94.1291 110.783 94.1292H111.014C111.016 94.1291 111.017 94.1286 111.018 94.1274C111.019 94.1264 111.02 94.1252 111.02 94.1238C111.02 94.1223 111.019 94.1211 111.018 94.1201ZM110.541 94.7555C110.542 94.7567 110.543 94.7573 110.544 94.7573H110.777C110.779 94.7573 110.78 94.7567 110.781 94.7555C110.782 94.7545 110.783 94.7533 110.783 94.7519C110.783 94.7504 110.782 94.7492 110.781 94.7483C110.78 94.7471 110.779 94.7465 110.777 94.7464H110.544C110.543 94.7465 110.542 94.7471 110.541 94.7483C110.539 94.7492 110.539 94.7505 110.539 94.7519C110.539 94.7533 110.539 94.7544 110.541 94.7555ZM110.812 93.8152C110.813 93.8164 110.815 93.8169 110.816 93.817H111.047C111.049 93.8169 111.05 93.8164 111.051 93.8152C111.052 93.8142 111.053 93.813 111.053 93.8116C111.053 93.8101 111.052 93.8089 111.051 93.8079C111.05 93.8068 111.049 93.8062 111.047 93.8061H110.816C110.814 93.8062 110.813 93.8068 110.812 93.8079C110.811 93.8089 110.811 93.8102 110.81 93.8116C110.811 93.813 110.811 93.8142 110.812 93.8152ZM110.805 93.9621C110.804 93.9622 110.802 93.9628 110.801 93.9639C110.8 93.9649 110.8 93.9662 110.8 93.9676C110.8 93.9691 110.8 93.9702 110.801 93.9712C110.802 93.9724 110.804 93.973 110.805 93.973H111.036C111.038 93.973 111.039 93.9724 111.04 93.9712C111.041 93.9702 111.042 93.969 111.042 93.9676C111.042 93.9662 111.041 93.9649 111.04 93.9639C111.039 93.9628 111.038 93.9622 111.036 93.9621H110.805ZM110.818 93.6481C110.816 93.6482 110.815 93.6488 110.814 93.6499C110.813 93.6509 110.812 93.6522 110.812 93.6536C110.812 93.655 110.813 93.6562 110.814 93.6572C110.815 93.6584 110.816 93.6589 110.818 93.659H111.049C111.051 93.6589 111.052 93.6584 111.053 93.6572C111.054 93.6562 111.055 93.655 111.055 93.6536C111.055 93.6521 111.054 93.6509 111.053 93.6499C111.052 93.6488 111.051 93.6482 111.049 93.6481H110.818ZM110.985 93.1798C110.984 93.1786 110.983 93.1781 110.981 93.178H110.75C110.748 93.1781 110.747 93.1786 110.746 93.1798C110.745 93.1808 110.745 93.182 110.744 93.1834C110.745 93.1849 110.745 93.1861 110.746 93.1871C110.747 93.1882 110.748 93.1888 110.75 93.1889H110.981C110.983 93.1888 110.984 93.1882 110.985 93.1871C110.986 93.1861 110.987 93.1849 110.987 93.1834C110.987 93.182 110.986 93.1808 110.985 93.1798ZM111.02 93.3359C111.019 93.3348 111.018 93.3342 111.016 93.3341H110.785C110.783 93.3342 110.782 93.3348 110.781 93.3359C110.78 93.3369 110.779 93.3381 110.779 93.3395C110.779 93.341 110.78 93.3422 110.781 93.3432C110.782 93.3443 110.783 93.3449 110.785 93.345H111.016C111.018 93.3449 111.019 93.3443 111.02 93.3432C111.021 93.3422 111.022 93.341 111.022 93.3395C111.022 93.3381 111.021 93.3369 111.02 93.3359ZM111.042 93.4938C111.041 93.4927 111.04 93.4921 111.038 93.492H110.807C110.805 93.4921 110.804 93.4927 110.803 93.4938C110.802 93.4948 110.801 93.4961 110.801 93.4975C110.801 93.499 110.802 93.5001 110.803 93.5011C110.804 93.5023 110.805 93.5028 110.807 93.5029H111.038C111.04 93.5028 111.041 93.5023 111.042 93.5011C111.043 93.5001 111.044 93.4989 111.044 93.4975C111.044 93.4961 111.043 93.4949 111.042 93.4938ZM110.7 93.0201C110.699 93.0202 110.698 93.0207 110.697 93.0219C110.695 93.0229 110.695 93.0241 110.695 93.0255C110.695 93.0269 110.695 93.0282 110.697 93.0292C110.698 93.0303 110.699 93.0309 110.7 93.031H110.932C110.933 93.0309 110.934 93.0303 110.935 93.0292C110.936 93.0282 110.937 93.0269 110.937 93.0255C110.937 93.024 110.936 93.0229 110.935 93.0219C110.934 93.0207 110.933 93.0202 110.932 93.0201H110.7ZM110.63 92.8731C110.631 92.8743 110.633 92.8749 110.634 92.875H110.866C110.867 92.8749 110.868 92.8743 110.869 92.8731C110.87 92.8722 110.871 92.8709 110.871 92.8695C110.871 92.868 110.87 92.8669 110.869 92.8659C110.868 92.8647 110.867 92.8641 110.866 92.8641H110.634C110.633 92.8641 110.631 92.8647 110.63 92.8659C110.629 92.8669 110.629 92.8681 110.629 92.8695C110.629 92.8709 110.629 92.8722 110.63 92.8731ZM110.548 92.7152C110.549 92.7164 110.55 92.717 110.552 92.7171H110.783C110.784 92.717 110.786 92.7164 110.787 92.7152C110.788 92.7142 110.788 92.713 110.788 92.7116C110.788 92.7102 110.788 92.709 110.787 92.708C110.786 92.7068 110.784 92.7062 110.783 92.7061H110.552C110.55 92.7062 110.549 92.7068 110.548 92.708C110.547 92.709 110.546 92.7102 110.546 92.7116C110.546 92.713 110.547 92.7142 110.548 92.7152ZM110.445 92.5591C110.446 92.5603 110.447 92.5609 110.449 92.5609H110.68C110.682 92.5609 110.683 92.5603 110.684 92.5591C110.685 92.5581 110.685 92.5569 110.686 92.5555C110.685 92.554 110.685 92.5528 110.684 92.5519C110.683 92.5507 110.682 92.5501 110.68 92.55H110.449C110.447 92.5501 110.446 92.5507 110.445 92.5519C110.444 92.5528 110.443 92.5541 110.443 92.5555C110.443 92.5569 110.444 92.5581 110.445 92.5591ZM110.322 92.3939C110.321 92.3939 110.319 92.3945 110.318 92.3957C110.317 92.3967 110.317 92.3979 110.317 92.3993C110.317 92.4007 110.317 92.402 110.318 92.4029C110.319 92.4041 110.321 92.4047 110.322 92.4048H110.553C110.555 92.4047 110.556 92.4041 110.557 92.4029C110.558 92.402 110.559 92.4007 110.559 92.3993C110.559 92.3978 110.558 92.3967 110.557 92.3957C110.556 92.3945 110.555 92.3939 110.553 92.3939H110.322ZM110.405 92.2414C110.405 92.24 110.404 92.2387 110.403 92.2378C110.402 92.2366 110.401 92.236 110.399 92.2359H110.168C110.166 92.236 110.165 92.2366 110.164 92.2378C110.163 92.2387 110.162 92.24 110.162 92.2414C110.162 92.2428 110.163 92.244 110.164 92.245C110.165 92.2462 110.166 92.2468 110.168 92.2469H110.399C110.401 92.2468 110.402 92.2462 110.403 92.245C110.404 92.244 110.405 92.2429 110.405 92.2414ZM109.98 92.0798C109.979 92.0799 109.978 92.0805 109.977 92.0817C109.976 92.0826 109.975 92.0839 109.975 92.0853C109.975 92.0868 109.976 92.0879 109.977 92.0889C109.978 92.0901 109.979 92.0907 109.98 92.0907H110.212C110.213 92.0907 110.215 92.0901 110.216 92.0889C110.217 92.0879 110.217 92.0867 110.217 92.0853C110.217 92.0839 110.217 92.0826 110.216 92.0817C110.215 92.0805 110.213 92.0799 110.212 92.0798H109.98ZM109.725 91.931C109.726 91.9322 109.727 91.9328 109.729 91.9328H109.96C109.962 91.9328 109.963 91.9322 109.964 91.931C109.965 91.93 109.966 91.9288 109.966 91.9273C109.966 91.9259 109.965 91.9246 109.964 91.9236C109.963 91.9225 109.962 91.9219 109.96 91.9218H109.729C109.727 91.9219 109.726 91.9225 109.725 91.9236C109.724 91.9246 109.723 91.9259 109.723 91.9273C109.723 91.9288 109.724 91.93 109.725 91.931ZM109.319 91.775C109.32 91.7762 109.322 91.7767 109.323 91.7768H109.554C109.556 91.7767 109.557 91.7762 109.558 91.775C109.559 91.774 109.56 91.7728 109.56 91.7714C109.56 91.7699 109.559 91.7687 109.558 91.7677C109.557 91.7666 109.556 91.766 109.554 91.7659H109.323C109.321 91.766 109.32 91.7666 109.319 91.7677C109.318 91.7687 109.318 91.77 109.318 91.7714C109.318 91.7728 109.318 91.7739 109.319 91.775Z" fill="#CA872A"/>
<path d="M110.236 92.2983C109.841 91.9041 109.365 91.707 108.807 91.707C108.249 91.707 107.772 91.9041 107.378 92.2983C106.984 92.6926 106.787 93.1688 106.787 93.7271C106.787 94.2855 106.984 94.7616 107.378 95.1559C107.772 95.5502 108.249 95.7473 108.807 95.7473C109.365 95.7473 109.841 95.5501 110.236 95.1559C110.63 94.7617 110.827 94.2855 110.827 93.7271C110.827 93.1688 110.63 92.6926 110.236 92.2983Z" fill="#FBB43C"/>
<path d="M109.943 92.591C109.629 92.2777 109.251 92.121 108.807 92.121C108.363 92.121 107.985 92.2777 107.671 92.591C107.358 92.9044 107.201 93.2829 107.201 93.7266C107.201 94.1703 107.358 94.5489 107.671 94.8622C107.985 95.1756 108.363 95.3322 108.807 95.3322C109.251 95.3322 109.629 95.1756 109.943 94.8622C110.256 94.5489 110.413 94.1704 110.413 93.7266C110.413 93.2829 110.256 92.9044 109.943 92.591Z" fill="#F4A621"/>
<path d="M108.421 93.083C108.347 93.1571 108.31 93.2525 108.31 93.369C108.31 93.4368 108.321 93.495 108.343 93.5438C108.364 93.5925 108.395 93.6352 108.434 93.6719C108.472 93.7079 108.519 93.7401 108.574 93.7683C108.628 93.7958 108.693 93.8237 108.768 93.852C108.843 93.8802 108.897 93.9113 108.929 93.9452C108.959 93.9784 108.974 94.0233 108.974 94.0798C108.974 94.1341 108.957 94.1776 108.922 94.21C108.887 94.2418 108.839 94.2577 108.778 94.2577C108.705 94.2577 108.649 94.2358 108.611 94.1921C108.571 94.1483 108.552 94.0854 108.552 94.0035H108.253C108.253 94.1448 108.292 94.2581 108.369 94.3435C108.447 94.4283 108.557 94.4784 108.698 94.4939V94.6984H108.862V94.4929C108.991 94.4795 109.091 94.4364 109.164 94.3636C109.237 94.2902 109.274 94.1949 109.274 94.0777C109.274 94.0148 109.264 93.9601 109.244 93.9135C109.225 93.8655 109.197 93.8234 109.161 93.7874C109.125 93.75 109.08 93.7168 109.026 93.6879C108.973 93.6582 108.906 93.6268 108.824 93.5936C108.741 93.5604 108.685 93.5279 108.654 93.4961C108.624 93.4644 108.609 93.4223 108.609 93.3701C108.609 93.3136 108.624 93.2695 108.655 93.2376C108.686 93.2052 108.73 93.1889 108.787 93.1889C108.844 93.1889 108.89 93.2098 108.924 93.2514C108.958 93.2917 108.974 93.3535 108.974 93.4368H109.274C109.274 93.3019 109.239 93.1924 109.17 93.1085C109.101 93.0237 109.006 92.9726 108.884 92.9549V92.7314H108.718V92.9527C108.594 92.9647 108.496 93.0081 108.421 93.083Z" fill="#624118"/>
<path d="M108.385 93.083C108.311 93.1571 108.273 93.2525 108.273 93.369C108.273 93.4368 108.284 93.495 108.306 93.5438C108.327 93.5925 108.358 93.6352 108.397 93.6719C108.436 93.7079 108.482 93.7401 108.537 93.7683C108.592 93.7958 108.656 93.8237 108.731 93.852C108.807 93.8802 108.86 93.9113 108.892 93.9452C108.922 93.9784 108.938 94.0233 108.938 94.0798C108.938 94.1341 108.92 94.1776 108.886 94.21C108.85 94.2418 108.802 94.2577 108.742 94.2577C108.668 94.2577 108.612 94.2358 108.574 94.1921C108.535 94.1483 108.515 94.0854 108.515 94.0035H108.216C108.216 94.1448 108.255 94.2581 108.333 94.3435C108.41 94.4283 108.52 94.4784 108.661 94.4939V94.6984H108.825V94.4929C108.954 94.4795 109.054 94.4364 109.127 94.3636C109.201 94.2902 109.237 94.1949 109.237 94.0777C109.237 94.0148 109.227 93.9601 109.208 93.9135C109.189 93.8655 109.161 93.8234 109.124 93.7874C109.088 93.75 109.043 93.7168 108.989 93.6879C108.936 93.6582 108.869 93.6268 108.787 93.5936C108.704 93.5604 108.648 93.5279 108.618 93.4961C108.587 93.4644 108.572 93.4223 108.572 93.3701C108.572 93.3136 108.588 93.2695 108.619 93.2376C108.65 93.2052 108.694 93.1889 108.75 93.1889C108.807 93.1889 108.853 93.2098 108.888 93.2514C108.921 93.2917 108.938 93.3535 108.938 93.4368H109.237C109.237 93.3019 109.203 93.1924 109.133 93.1085C109.064 93.0237 108.969 92.9726 108.847 92.9549V92.7314H108.681V92.9527C108.558 92.9647 108.459 93.0081 108.385 93.083Z" fill="#724B1E"/>
<path d="M110.827 91.7069V85.3979" stroke="#0047AB" stroke-miterlimit="10"/>
<path d="M108.556 90.5589V88.3445" stroke="#0047AB" stroke-miterlimit="10"/>
<path d="M108.556 86.8018V84.6649" stroke="#0047AB" stroke-miterlimit="10"/>
<path d="M106.337 93.7325V88.7371" stroke="#0047AB" stroke-miterlimit="10"/>
<path d="M31.8013 56.8382C31.4071 56.4439 30.9308 56.2468 30.3725 56.2468C29.8142 56.2468 29.338 56.4439 28.9437 56.8382C28.5495 57.2324 28.3524 57.7086 28.3524 58.2669C28.3524 58.8252 28.5495 59.3015 28.9437 59.6957C29.3379 60.09 29.8141 60.2871 30.3725 60.2871C30.9307 60.2871 31.407 60.09 31.8013 59.6957C32.1955 59.3015 32.3926 58.8253 32.3926 58.2669C32.3926 57.7086 32.1955 57.2324 31.8013 56.8382Z" fill="#FDC564"/>
<path d="M31.535 59.916C31.534 59.9148 31.5328 59.9143 31.5314 59.9142H31.3C31.2985 59.9143 31.2973 59.9148 31.2963 59.916C31.2952 59.917 31.2946 59.9182 31.2945 59.9196C31.2946 59.921 31.2952 59.9223 31.2963 59.9233C31.2973 59.9244 31.2986 59.925 31.3 59.9251H31.5314C31.5329 59.925 31.534 59.9244 31.535 59.9233C31.5362 59.9223 31.5368 59.921 31.5368 59.9196C31.5368 59.9182 31.5361 59.917 31.535 59.916ZM31.7278 59.7581C31.7268 59.7569 31.7256 59.7564 31.7242 59.7563H31.4928C31.4914 59.7564 31.4901 59.7569 31.4891 59.7581C31.488 59.7591 31.4874 59.7603 31.4873 59.7617C31.4874 59.7631 31.488 59.7644 31.4891 59.7654C31.4901 59.7665 31.4914 59.7671 31.4928 59.7672H31.7242C31.7256 59.7671 31.7268 59.7665 31.7278 59.7654C31.729 59.7644 31.7296 59.7631 31.7297 59.7617C31.7296 59.7603 31.729 59.7591 31.7278 59.7581ZM31.8821 59.602C31.8811 59.6008 31.8799 59.6003 31.8785 59.6002H31.6471C31.6456 59.6003 31.6444 59.6008 31.6434 59.602C31.6423 59.603 31.6417 59.6042 31.6416 59.6056C31.6417 59.607 31.6423 59.6083 31.6434 59.6093C31.6444 59.6104 31.6457 59.611 31.6471 59.6111H31.8785C31.8799 59.611 31.8811 59.6104 31.8821 59.6093C31.8833 59.6083 31.8839 59.607 31.8839 59.6056C31.8839 59.6042 31.8832 59.603 31.8821 59.602ZM32.0088 59.4459C32.0078 59.4447 32.0066 59.4442 32.0051 59.4441H31.7737C31.7722 59.4442 31.7711 59.4447 31.7701 59.4459C31.7689 59.4469 31.7683 59.4481 31.7683 59.4495C31.7683 59.4509 31.7689 59.4522 31.7701 59.4532C31.7711 59.4543 31.7723 59.4549 31.7737 59.455H32.0051C32.0066 59.4549 32.0078 59.4543 32.0088 59.4532C32.0099 59.4522 32.0105 59.4509 32.0106 59.4495C32.0105 59.4481 32.0099 59.4469 32.0088 59.4459ZM31.041 60.0795C31.042 60.0806 31.0432 60.0812 31.0447 60.0813H31.2761C31.2775 60.0812 31.2787 60.0806 31.2797 60.0795C31.2809 60.0785 31.2814 60.0772 31.2815 60.0758C31.2814 60.0743 31.2809 60.0732 31.2797 60.0722C31.2787 60.071 31.2775 60.0705 31.2761 60.0704H31.0447C31.0432 60.0705 31.042 60.071 31.041 60.0722C31.0399 60.0732 31.0393 60.0744 31.0392 60.0758C31.0392 60.0772 31.0399 60.0785 31.041 60.0795ZM30.6094 60.2374C30.6104 60.2385 30.6117 60.2391 30.6131 60.2392H30.8445C30.8459 60.2391 30.8471 60.2385 30.8481 60.2374C30.8493 60.2364 30.8499 60.2351 30.8499 60.2337C30.8499 60.2323 30.8493 60.2311 30.8481 60.2301C30.8471 60.2289 30.8459 60.2284 30.8445 60.2283H30.6131C30.6116 60.2284 30.6104 60.2289 30.6094 60.2301C30.6083 60.2311 30.6077 60.2323 30.6076 60.2337C30.6077 60.2351 30.6083 60.2364 30.6094 60.2374ZM32.198 59.1319C32.197 59.1307 32.1957 59.1301 32.1943 59.13H31.9629C31.9614 59.1301 31.9602 59.1307 31.9593 59.1319C31.9581 59.1329 31.9575 59.1341 31.9574 59.1355C31.9575 59.1369 31.9581 59.1382 31.9593 59.1391C31.9602 59.1403 31.9615 59.1409 31.9629 59.141H32.1943C32.1957 59.1409 32.197 59.1403 32.198 59.1391C32.1991 59.1382 32.1997 59.1369 32.1998 59.1355C32.1997 59.1341 32.1991 59.1329 32.198 59.1319ZM32.2659 58.9739C32.2649 58.9728 32.2637 58.9722 32.2623 58.9721H32.029C32.0276 58.9722 32.0264 58.9728 32.0254 58.9739C32.0242 58.9749 32.0237 58.9762 32.0236 58.9776C32.0237 58.979 32.0242 58.9802 32.0254 58.9812C32.0264 58.9824 32.0276 58.983 32.029 58.983H32.2623C32.2637 58.983 32.2649 58.9824 32.2659 58.9812C32.2671 58.9802 32.2677 58.979 32.2677 58.9776C32.2677 58.9761 32.2671 58.9749 32.2659 58.9739ZM32.0804 58.8159C32.079 58.816 32.0777 58.8166 32.0767 58.8178C32.0756 58.8188 32.075 58.82 32.0749 58.8214C32.075 58.8229 32.0756 58.8241 32.0767 58.825C32.0777 58.8262 32.079 58.8268 32.0804 58.8269H32.3118C32.3132 58.8268 32.3145 58.8262 32.3154 58.825C32.3166 58.8241 32.3172 58.8228 32.3173 58.8214C32.3172 58.8199 32.3166 58.8188 32.3154 58.8178C32.3145 58.8166 32.3132 58.816 32.3118 58.8159H32.0804ZM32.3522 58.6598C32.3512 58.6587 32.35 58.6581 32.3486 58.658H32.1172C32.1157 58.6581 32.1145 58.6587 32.1135 58.6598C32.1124 58.6608 32.1118 58.6621 32.1117 58.6635C32.1118 58.665 32.1124 58.6661 32.1135 58.6671C32.1145 58.6683 32.1158 58.6689 32.1172 58.6689H32.3486C32.35 58.6689 32.3512 58.6683 32.3522 58.6671C32.3534 58.6661 32.354 58.6649 32.3541 58.6635C32.354 58.6621 32.3534 58.6608 32.3522 58.6598ZM31.8748 59.2953C31.8758 59.2965 31.877 59.2971 31.8784 59.2971H32.1116C32.113 59.2971 32.1143 59.2965 32.1153 59.2953C32.1164 59.2943 32.117 59.2931 32.1171 59.2917C32.117 59.2902 32.1164 59.289 32.1153 59.288C32.1143 59.2869 32.113 59.2863 32.1116 59.2862H31.8784C31.8769 59.2863 31.8758 59.2869 31.8748 59.288C31.8736 59.289 31.873 59.2903 31.8729 59.2917C31.8729 59.2931 31.8736 59.2943 31.8748 59.2953ZM32.1465 58.355C32.1475 58.3562 32.1488 58.3567 32.1502 58.3568H32.3816C32.383 58.3567 32.3842 58.3562 32.3852 58.355C32.3864 58.354 32.387 58.3528 32.387 58.3514C32.387 58.35 32.3864 58.3487 32.3852 58.3477C32.3842 58.3466 32.383 58.346 32.3816 58.3459H32.1502C32.1487 58.346 32.1475 58.3466 32.1465 58.3477C32.1454 58.3487 32.1448 58.35 32.1447 58.3514C32.1448 58.3528 32.1454 58.354 32.1465 58.355ZM32.1392 58.5019C32.1377 58.502 32.1365 58.5026 32.1355 58.5037C32.1344 58.5047 32.1338 58.506 32.1337 58.5074C32.1338 58.5088 32.1344 58.51 32.1355 58.511C32.1365 58.5122 32.1378 58.5128 32.1392 58.5128H32.3706C32.372 58.5128 32.3732 58.5122 32.3742 58.511C32.3754 58.51 32.376 58.5088 32.376 58.5074C32.376 58.5059 32.3754 58.5047 32.3742 58.5037C32.3732 58.5026 32.372 58.502 32.3706 58.5019H32.1392ZM32.1521 58.1879C32.1506 58.188 32.1494 58.1886 32.1484 58.1897C32.1473 58.1907 32.1467 58.192 32.1466 58.1934C32.1467 58.1949 32.1473 58.196 32.1484 58.197C32.1494 58.1982 32.1507 58.1987 32.1521 58.1988H32.3835C32.3849 58.1987 32.3861 58.1982 32.3871 58.197C32.3883 58.196 32.3889 58.1948 32.3889 58.1934C32.3889 58.192 32.3883 58.1907 32.3871 58.1897C32.3861 58.1886 32.3849 58.188 32.3835 58.1879H32.1521ZM32.3192 57.7196C32.3182 57.7185 32.3169 57.7179 32.3155 57.7178H32.0841C32.0826 57.7179 32.0815 57.7185 32.0805 57.7196C32.0793 57.7206 32.0787 57.7218 32.0786 57.7232C32.0787 57.7247 32.0793 57.7259 32.0805 57.7269C32.0815 57.728 32.0827 57.7286 32.0841 57.7287H32.3155C32.3169 57.7286 32.3182 57.728 32.3192 57.7269C32.3203 57.7259 32.3209 57.7247 32.321 57.7232C32.3209 57.7218 32.3203 57.7206 32.3192 57.7196ZM32.3541 57.8757C32.3531 57.8746 32.3518 57.874 32.3504 57.8739H32.119C32.1176 57.874 32.1163 57.8746 32.1154 57.8757C32.1142 57.8767 32.1136 57.8779 32.1135 57.8793C32.1136 57.8808 32.1142 57.882 32.1154 57.883C32.1163 57.8841 32.1176 57.8847 32.119 57.8848H32.3504C32.3518 57.8847 32.3531 57.8841 32.3541 57.883C32.3552 57.882 32.3558 57.8808 32.3559 57.8793C32.3558 57.8779 32.3552 57.8767 32.3541 57.8757ZM32.376 58.0336C32.3751 58.0325 32.3738 58.0319 32.3724 58.0318H32.141C32.1395 58.0319 32.1383 58.0325 32.1374 58.0336C32.1362 58.0346 32.1356 58.0359 32.1355 58.0373C32.1356 58.0387 32.1362 58.0399 32.1374 58.0409C32.1383 58.0421 32.1396 58.0426 32.141 58.0427H32.3724C32.3739 58.0426 32.3751 58.0421 32.376 58.0409C32.3772 58.0399 32.3778 58.0387 32.3779 58.0373C32.3779 58.0359 32.3772 58.0346 32.376 58.0336ZM32.0345 57.5599C32.0331 57.56 32.0318 57.5605 32.0309 57.5617C32.0297 57.5627 32.0291 57.5639 32.029 57.5653C32.0291 57.5667 32.0297 57.568 32.0309 57.569C32.0318 57.5701 32.0331 57.5707 32.0345 57.5708H32.2659C32.2673 57.5707 32.2686 57.5701 32.2696 57.569C32.2707 57.568 32.2713 57.5667 32.2714 57.5653C32.2713 57.5638 32.2707 57.5627 32.2696 57.5617C32.2686 57.5605 32.2673 57.56 32.2659 57.5599H32.0345ZM31.9647 57.4129C31.9657 57.4141 31.9669 57.4147 31.9684 57.4148H32.1998C32.2012 57.4147 32.2024 57.4141 32.2034 57.4129C32.2046 57.412 32.2051 57.4107 32.2052 57.4093C32.2051 57.4078 32.2046 57.4067 32.2034 57.4057C32.2024 57.4045 32.2012 57.4039 32.1998 57.4039H31.9684C31.9669 57.4039 31.9657 57.4045 31.9647 57.4057C31.9636 57.4067 31.963 57.4079 31.9629 57.4093C31.963 57.4107 31.9636 57.412 31.9647 57.4129ZM31.8821 57.255C31.8831 57.2562 31.8844 57.2568 31.8858 57.2568H32.1172C32.1186 57.2568 32.1198 57.2562 32.1208 57.255C32.122 57.254 32.1226 57.2528 32.1226 57.2514C32.1226 57.2499 32.122 57.2487 32.1208 57.2478C32.1198 57.2466 32.1186 57.246 32.1172 57.2459H31.8858C31.8843 57.246 31.8831 57.2466 31.8821 57.2478C31.881 57.2487 31.8804 57.25 31.8803 57.2514C31.8803 57.2528 31.881 57.254 31.8821 57.255ZM31.7793 57.0989C31.7803 57.1001 31.7815 57.1007 31.7829 57.1007H32.0143C32.0158 57.1007 32.017 57.1001 32.018 57.0989C32.0191 57.0979 32.0197 57.0967 32.0198 57.0953C32.0197 57.0938 32.0191 57.0926 32.018 57.0917C32.017 57.0905 32.0157 57.0899 32.0143 57.0898H31.7829C31.7814 57.0899 31.7803 57.0905 31.7793 57.0917C31.7781 57.0926 31.7775 57.0939 31.7774 57.0953C31.7774 57.0967 31.7781 57.0979 31.7793 57.0989ZM31.6562 56.9337C31.6547 56.9337 31.6535 56.9343 31.6525 56.9355C31.6514 56.9365 31.6508 56.9377 31.6507 56.9391C31.6508 56.9406 31.6514 56.9418 31.6525 56.9427C31.6535 56.9439 31.6547 56.9445 31.6562 56.9446H31.8876C31.889 56.9445 31.8902 56.9439 31.8912 56.9427C31.8924 56.9418 31.8929 56.9405 31.893 56.9391C31.8929 56.9377 31.8924 56.9365 31.8912 56.9355C31.8902 56.9343 31.889 56.9337 31.8876 56.9337H31.6562ZM31.7388 56.7812C31.7388 56.7798 31.7382 56.7785 31.737 56.7776C31.736 56.7764 31.7348 56.7758 31.7334 56.7757H31.502C31.5006 56.7758 31.4993 56.7764 31.4983 56.7776C31.4972 56.7785 31.4966 56.7798 31.4965 56.7812C31.4966 56.7827 31.4972 56.7838 31.4983 56.7848C31.4993 56.786 31.5006 56.7866 31.502 56.7867H31.7334C31.7348 56.7866 31.736 56.786 31.737 56.7848C31.7382 56.7838 31.7388 56.7827 31.7388 56.7812ZM31.3146 56.6196C31.3131 56.6197 31.312 56.6203 31.3109 56.6215C31.3097 56.6224 31.3091 56.6237 31.3091 56.6251C31.3091 56.6265 31.3097 56.6277 31.3109 56.6287C31.3119 56.6299 31.3131 56.6305 31.3146 56.6306H31.546C31.5474 56.6305 31.5487 56.6299 31.5497 56.6287C31.5508 56.6277 31.5514 56.6265 31.5515 56.6251C31.5514 56.6236 31.5508 56.6224 31.5497 56.6215C31.5487 56.6203 31.5474 56.6197 31.546 56.6196H31.3146ZM31.0594 56.4708C31.0604 56.472 31.0616 56.4725 31.063 56.4726H31.2944C31.2958 56.4725 31.2971 56.472 31.2981 56.4708C31.2992 56.4698 31.2998 56.4686 31.2999 56.4672C31.2998 56.4657 31.2992 56.4645 31.2981 56.4635C31.2971 56.4624 31.2958 56.4618 31.2944 56.4617H31.063C31.0615 56.4618 31.0604 56.4624 31.0594 56.4635C31.0582 56.4645 31.0576 56.4658 31.0575 56.4672C31.0575 56.4686 31.0582 56.4698 31.0594 56.4708ZM30.6535 56.3147C30.6545 56.3159 30.6557 56.3164 30.6571 56.3165H30.8886C30.89 56.3164 30.8912 56.3159 30.8922 56.3147C30.8933 56.3137 30.8939 56.3125 30.894 56.3111C30.8939 56.3096 30.8933 56.3084 30.8922 56.3074C30.8912 56.3063 30.89 56.3057 30.8886 56.3056H30.6571C30.6556 56.3057 30.6545 56.3063 30.6535 56.3074C30.6523 56.3084 30.6518 56.3097 30.6517 56.3111C30.6518 56.3125 30.6523 56.3137 30.6535 56.3147Z" fill="#CA872A"/>
<path d="M31.5699 56.8382C31.1757 56.4439 30.6995 56.2468 30.1412 56.2468C29.5828 56.2468 29.1067 56.4439 28.7124 56.8382C28.3181 57.2324 28.121 57.7086 28.121 58.2669C28.121 58.8252 28.3181 59.3015 28.7124 59.6957C29.1066 60.09 29.5828 60.2871 30.1412 60.2871C30.6995 60.2871 31.1756 60.09 31.5699 59.6957C31.9642 59.3015 32.1613 58.8253 32.1613 58.2669C32.1613 57.7086 31.9642 57.2324 31.5699 56.8382Z" fill="#FBB43C"/>
<path d="M31.2768 57.1309C30.9635 56.8176 30.5849 56.6609 30.1412 56.6609C29.6975 56.6609 29.319 56.8176 29.0056 57.1309C28.6922 57.4442 28.5356 57.8227 28.5356 58.2665C28.5356 58.7103 28.6922 59.0887 29.0056 59.4021C29.3189 59.7154 29.6974 59.8721 30.1412 59.8721C30.5849 59.8721 30.9634 59.7154 31.2768 59.4021C31.5901 59.0888 31.7468 58.7103 31.7468 58.2665C31.7468 57.8227 31.5901 57.4442 31.2768 57.1309Z" fill="#F4A621"/>
<path d="M29.7553 57.6226C29.6811 57.6968 29.6441 57.7921 29.6441 57.9086C29.6441 57.9764 29.655 58.0346 29.6769 58.0834C29.6981 58.1321 29.7284 58.1748 29.768 58.2115C29.8061 58.2476 29.8527 58.2797 29.9078 58.3079C29.9622 58.3355 30.0268 58.3633 30.1016 58.3916C30.1772 58.4198 30.2309 58.4509 30.2626 58.4848C30.293 58.518 30.3082 58.5629 30.3082 58.6194C30.3082 58.6737 30.2909 58.7172 30.2563 58.7497C30.221 58.7814 30.173 58.7973 30.1122 58.7973C30.0388 58.7973 29.983 58.7755 29.9449 58.7317C29.9054 58.6879 29.8856 58.625 29.8856 58.5431H29.5869C29.5869 58.6843 29.6257 58.7977 29.7034 58.8831C29.781 58.9679 29.8905 59.018 30.0317 59.0335V59.238H30.1959V59.0325C30.3244 59.0191 30.425 58.976 30.4977 58.9033C30.5712 58.8298 30.6079 58.7345 30.6079 58.6173C30.6079 58.5544 30.598 58.4997 30.5782 58.4531C30.5592 58.4051 30.5313 58.3631 30.4945 58.327C30.4585 58.2896 30.4137 58.2564 30.36 58.2275C30.307 58.1978 30.2396 58.1664 30.1577 58.1332C30.0751 58.1 30.0186 58.0675 29.9882 58.0358C29.9579 58.004 29.9427 57.962 29.9427 57.9097C29.9427 57.8532 29.9582 57.8091 29.9893 57.7774C30.0203 57.7449 30.0642 57.7286 30.1206 57.7286C30.1778 57.7286 30.2237 57.7495 30.2583 57.7911C30.2915 57.8313 30.3081 57.8931 30.3081 57.9765H30.6078C30.6078 57.8416 30.5732 57.7321 30.504 57.6481C30.4348 57.5634 30.3395 57.5122 30.218 57.4945V57.271H30.0518V57.4924C29.9283 57.5043 29.8294 57.5477 29.7553 57.6226Z" fill="#624118"/>
<path d="M29.7185 57.6226C29.6444 57.6968 29.6073 57.7921 29.6073 57.9086C29.6073 57.9764 29.6183 58.0346 29.6401 58.0834C29.6613 58.1321 29.6917 58.1748 29.7312 58.2115C29.7694 58.2476 29.816 58.2797 29.871 58.3079C29.9254 58.3355 29.99 58.3633 30.0649 58.3916C30.1404 58.4198 30.1941 58.4509 30.2259 58.4848C30.2563 58.518 30.2714 58.5629 30.2714 58.6194C30.2714 58.6737 30.2541 58.7172 30.2195 58.7497C30.1843 58.7814 30.1362 58.7973 30.0755 58.7973C30.002 58.7973 29.9462 58.7755 29.9081 58.7317C29.8686 58.6879 29.8488 58.625 29.8488 58.5431H29.5501C29.5501 58.6843 29.5889 58.7977 29.6666 58.8831C29.7443 58.9679 29.8537 59.018 29.995 59.0335V59.238H30.1592V59.0325C30.2877 59.0191 30.3883 58.976 30.461 58.9033C30.5345 58.8298 30.5712 58.7345 30.5712 58.6173C30.5712 58.5544 30.5613 58.4997 30.5415 58.4531C30.5225 58.4051 30.4946 58.3631 30.4578 58.327C30.4218 58.2896 30.377 58.2564 30.3233 58.2275C30.2703 58.1978 30.2029 58.1664 30.121 58.1332C30.0384 58.1 29.9819 58.0675 29.9515 58.0358C29.9212 58.004 29.906 57.962 29.906 57.9097C29.906 57.8532 29.9215 57.8091 29.9526 57.7774C29.9836 57.7449 30.0275 57.7286 30.0839 57.7286C30.1411 57.7286 30.187 57.7495 30.2216 57.7911C30.2548 57.8313 30.2714 57.8931 30.2714 57.9765H30.5712C30.5712 57.8416 30.5366 57.7321 30.4674 57.6481C30.3982 57.5634 30.3029 57.5122 30.1814 57.4945V57.271H30.0151V57.4924C29.8916 57.5043 29.7927 57.5477 29.7185 57.6226Z" fill="#724B1E"/>
<path d="M32.1613 56.2468V49.9378" stroke="#0047AB" stroke-miterlimit="10"/>
<path d="M29.8903 55.0987V52.8843" stroke="#0047AB" stroke-miterlimit="10"/>
<path d="M29.8903 51.3417V49.2047" stroke="#0047AB" stroke-miterlimit="10"/>
<path d="M27.6719 58.2724V53.2769" stroke="#0047AB" stroke-miterlimit="10"/>
<path d="M69.623 26.6308C70.9873 26.6308 72.0933 25.5248 72.0933 24.1605C72.0933 22.7962 70.9873 21.6902 69.623 21.6902C68.2587 21.6902 67.1526 22.7962 67.1526 24.1605C67.1526 25.5248 68.2587 26.6308 69.623 26.6308Z" fill="#E8F0F7"/>
<path d="M160.498 42.1836C160.655 41.2179 159.999 40.308 159.033 40.1513C158.068 39.9945 157.158 40.6503 157.001 41.616C156.844 42.5817 157.5 43.4915 158.466 43.6483C159.431 43.805 160.341 43.1492 160.498 42.1836Z" fill="#E8F0F7"/>
<path d="M152.073 39.5734C152.74 39.5734 153.282 39.0321 153.282 38.3644C153.282 37.6967 152.74 37.1554 152.073 37.1554C151.405 37.1554 150.864 37.6967 150.864 38.3644C150.864 39.0321 151.405 39.5734 152.073 39.5734Z" fill="#E8F0F7"/>
<path d="M97.5713 112.434C100.472 112.434 102.824 110.083 102.824 107.182C102.824 104.281 100.472 101.929 97.5713 101.929C94.6703 101.929 92.3185 104.281 92.3185 107.182C92.3185 110.083 94.6703 112.434 97.5713 112.434Z" fill="#E8F0F7"/>
<path d="M106.787 112.917C107.596 112.917 108.253 112.261 108.253 111.451C108.253 110.642 107.596 109.985 106.787 109.985C105.977 109.985 105.321 110.642 105.321 111.451C105.321 112.261 105.977 112.917 106.787 112.917Z" fill="#E8F0F7"/>
<path d="M28.9414 128.142H156.118" stroke="#0047AB" stroke-opacity="0.45" stroke-miterlimit="10" stroke-linecap="round" stroke-linejoin="round"/>
<path d="M157.14 128.141H160.459" stroke="#0047AB" stroke-opacity="0.45" stroke-miterlimit="10" stroke-linecap="round" stroke-linejoin="round"/>
<path d="M161.469 128.141H162.448" stroke="#0047AB" stroke-opacity="0.45" stroke-miterlimit="10" stroke-linecap="round" stroke-linejoin="round"/>
<path d="M27.5861 128.141H24.2672" stroke="#0047AB" stroke-opacity="0.45" stroke-miterlimit="10" stroke-linecap="round" stroke-linejoin="round"/>
<path d="M23.2571 128.141H22.2782" stroke="#0047AB" stroke-opacity="0.45" stroke-miterlimit="10" stroke-linecap="round" stroke-linejoin="round"/>
<path d="M55.8146 36.7384C56.1365 36.7384 56.3975 36.4774 56.3975 36.1555C56.3975 35.8336 56.1365 35.5726 55.8146 35.5726C55.4927 35.5726 55.2317 35.8336 55.2317 36.1555C55.2317 36.4774 55.4927 36.7384 55.8146 36.7384Z" stroke="#5672B6" stroke-width="0.54" stroke-miterlimit="10" stroke-linecap="round" stroke-linejoin="round"/>
<path d="M96.9885 89.4549C97.3104 89.4549 97.5714 89.194 97.5714 88.872C97.5714 88.5501 97.3104 88.2891 96.9885 88.2891C96.6666 88.2891 96.4056 88.5501 96.4056 88.872C96.4056 89.194 96.6666 89.4549 96.9885 89.4549Z" stroke="#5672B6" stroke-width="3.536" stroke-miterlimit="10" stroke-linecap="round" stroke-linejoin="round"/>
<path d="M78.5987 36.1555C79.2426 36.1555 79.7645 35.6335 79.7645 34.9896C79.7645 34.3457 79.2426 33.8238 78.5987 33.8238C77.9548 33.8238 77.4328 34.3457 77.4328 34.9896C77.4328 35.6335 77.9548 36.1555 78.5987 36.1555Z" stroke="#5672B6" stroke-width="0.54" stroke-miterlimit="10" stroke-linecap="round" stroke-linejoin="round"/>
<path d="M43.7477 55.4826C44.4501 55.4826 45.0196 54.9132 45.0196 54.2108C45.0196 53.5083 44.4501 52.9389 43.7477 52.9389C43.0453 52.9389 42.4758 53.5083 42.4758 54.2108C42.4758 54.9132 43.0453 55.4826 43.7477 55.4826Z" stroke="#5672B6" stroke-width="0.54" stroke-miterlimit="10" stroke-linecap="round" stroke-linejoin="round"/>
<path d="M133.394 94.2031C133.507 93.5097 133.036 92.8564 132.343 92.7439C131.649 92.6313 130.996 93.1022 130.883 93.7956C130.771 94.4889 131.242 95.1422 131.935 95.2548C132.628 95.3673 133.282 94.8964 133.394 94.2031Z" stroke="#5672B6" stroke-width="0.54" stroke-miterlimit="10" stroke-linecap="round" stroke-linejoin="round"/>
<path d="M141.36 48.7969L140.525 47.9617" stroke="#5672B6" stroke-miterlimit="10" stroke-linecap="round" stroke-linejoin="round"/>
<path d="M139.278 46.7153L138.493 45.9299" stroke="#5672B6" stroke-miterlimit="10" stroke-linecap="round" stroke-linejoin="round"/>
<path d="M139.328 47.9617L138.493 48.7969" stroke="#5672B6" stroke-miterlimit="10" stroke-linecap="round" stroke-linejoin="round"/>
<path d="M141.36 45.9299L140.525 46.7651" stroke="#5672B6" stroke-miterlimit="10" stroke-linecap="round" stroke-linejoin="round"/>
<path d="M100.714 30.306L99.8784 29.4708" stroke="#5672B6" stroke-miterlimit="10" stroke-linecap="round" stroke-linejoin="round"/>
<path d="M98.6319 28.2244L97.8466 27.439" stroke="#5672B6" stroke-miterlimit="10" stroke-linecap="round" stroke-linejoin="round"/>
<path d="M98.6818 29.4708L97.8466 30.306" stroke="#5672B6" stroke-miterlimit="10" stroke-linecap="round" stroke-linejoin="round"/>
<path d="M100.714 27.439L99.8784 28.2742" stroke="#5672B6" stroke-miterlimit="10" stroke-linecap="round" stroke-linejoin="round"/>
<path d="M55.0101 96.0807L54.1749 95.2456" stroke="#5672B6" stroke-width="0.54" stroke-miterlimit="10" stroke-linecap="round" stroke-linejoin="round"/>
<path d="M52.9285 93.9991L52.1431 93.2137" stroke="#5672B6" stroke-width="0.54" stroke-miterlimit="10" stroke-linecap="round" stroke-linejoin="round"/>
<path d="M52.9784 95.2456L52.1431 96.0807" stroke="#5672B6" stroke-width="0.54" stroke-miterlimit="10" stroke-linecap="round" stroke-linejoin="round"/>
<path d="M55.0101 93.2137L54.1749 94.049" stroke="#5672B6" stroke-width="0.54" stroke-miterlimit="10" stroke-linecap="round" stroke-linejoin="round"/>
<path d="M152.656 62.2563C152.978 62.2563 153.239 61.9953 153.239 61.6734C153.239 61.3515 152.978 61.0905 152.656 61.0905C152.334 61.0905 152.073 61.3515 152.073 61.6734C152.073 61.9953 152.334 62.2563 152.656 62.2563Z" stroke="#5672B6" stroke-width="0.54" stroke-miterlimit="10" stroke-linecap="round" stroke-linejoin="round"/>
<path d="M120.479 31.9187C120.801 31.9187 121.062 31.6577 121.062 31.3358C121.062 31.0139 120.801 30.7529 120.479 30.7529C120.157 30.7529 119.896 31.0139 119.896 31.3358C119.896 31.6577 120.157 31.9187 120.479 31.9187Z" stroke="#5672B6" stroke-width="3.536" stroke-miterlimit="10" stroke-linecap="round" stroke-linejoin="round"/>
<path d="M129.951 84.7971H52.3042C51.4906 84.7971 50.8311 84.1375 50.8311 83.3239V42.2475C50.8311 41.4339 51.4906 40.7744 52.3042 40.7744H129.951C130.764 40.7744 131.424 41.4339 131.424 42.2475V83.3239C131.424 84.1375 130.764 84.7971 129.951 84.7971Z" fill="#E3E8FF"/>
<path d="M91.1275 62.7856H50.831V42.6722C50.831 41.4363 51.833 40.4343 53.0689 40.4343H91.1274L91.1275 62.7856ZM129.186 84.6585H91.1274V62.8257H131.424V82.4205C131.424 83.6565 130.422 84.6585 129.186 84.6585Z" fill="#F0F3FF"/>
<path d="M129.951 85.0571H52.3048C51.158 85.0571 50.225 84.124 50.225 82.9773V41.9008C50.225 40.7541 51.1581 39.821 52.3048 39.821H129.951C131.098 39.821 132.031 40.7541 132.031 41.9008V82.9772C132.031 84.124 131.098 85.0571 129.951 85.0571ZM52.3048 41.0343C51.827 41.0343 51.4382 41.423 51.4382 41.9008V82.9772C51.4382 83.455 51.827 83.8438 52.3048 83.8438H129.951C130.429 83.8438 130.818 83.455 130.818 82.9772V41.9008C130.818 41.423 130.429 41.0343 129.951 41.0343H52.3048Z" fill="#0047AB"/>
<path d="M129.951 85.057V83.8438C130.429 83.8438 130.817 83.4551 130.817 82.9773H132.031C132.031 84.124 131.098 85.057 129.951 85.057ZM132.031 41.9008H130.817C130.817 41.423 130.429 41.0342 129.951 41.0342V39.821C131.098 39.821 132.031 40.7541 132.031 41.9008ZM51.4376 41.9008H50.2244C50.2244 40.7541 51.1574 39.821 52.3042 39.821V41.0342C51.8264 41.0342 51.4376 41.423 51.4376 41.9008ZM52.3042 85.057C51.1574 85.057 50.2244 84.124 50.2244 82.9773H51.4377C51.4377 83.4551 51.8264 83.8438 52.3042 83.8438V85.057Z" fill="#0047AB"/>
<path d="M55.0101 58.1627H55.0539" stroke="#4C4D51" stroke-width="0.1" stroke-linecap="round" stroke-linejoin="round"/>
<path d="M55.4025 58.1627H84.0181" stroke="#4C4D51" stroke-width="0.1" stroke-linecap="round" stroke-linejoin="round" stroke-dasharray="1.12 4.47"/>
<path d="M84.1926 58.1627H84.2363" stroke="#4C4D51" stroke-width="0.1" stroke-linecap="round" stroke-linejoin="round"/>
<path d="M55.0101 53.7723H55.0539" stroke="#4C4D51" stroke-width="0.1" stroke-linecap="round" stroke-linejoin="round"/>
<path d="M55.4025 53.7723H84.0181" stroke="#4C4D51" stroke-width="0.1" stroke-linecap="round" stroke-linejoin="round" stroke-dasharray="1.12 4.47"/>
<path d="M84.1926 53.7723H84.2363" stroke="#4C4D51" stroke-width="0.1" stroke-linecap="round" stroke-linejoin="round"/>
<path d="M55.0101 49.382H55.0539" stroke="#4C4D51" stroke-width="0.1" stroke-linecap="round" stroke-linejoin="round"/>
<path d="M55.4025 49.382H84.0181" stroke="#4C4D51" stroke-width="0.1" stroke-linecap="round" stroke-linejoin="round" stroke-dasharray="1.12 4.47"/>
<path d="M84.1926 49.382H84.2363" stroke="#4C4D51" stroke-width="0.1" stroke-linecap="round" stroke-linejoin="round"/>
<path d="M55.0101 44.9916H55.0539" stroke="#4C4D51" stroke-width="0.1" stroke-linecap="round" stroke-linejoin="round"/>
<path d="M55.4025 44.9916H84.0181" stroke="#4C4D51" stroke-width="0.1" stroke-linecap="round" stroke-linejoin="round" stroke-dasharray="1.12 4.47"/>
<path d="M84.1926 44.9916H84.2363" stroke="#4C4D51" stroke-width="0.1" stroke-linecap="round" stroke-linejoin="round"/>
<path d="M83.6251 43.4855V45.7149L82.8844 44.9743L74.8392 53.0515L73.0103 51.2226L67.0537 57.1792L64.0649 54.1904L57.0149 61.2101H55.387L64.0649 52.5664L67.0537 55.5551L73.0103 49.5986L74.8392 51.4274L82.0723 44.1624L81.3957 43.4855H83.6251Z" fill="#6495ED"/>
<path d="M85.1621 61.2101H55.0101V42.8829" stroke="#4C4D51" stroke-width="0.1" stroke-miterlimit="10"/>
<path d="M85.1621 61.7611V60.6591L85.7131 61.2101L85.1621 61.7611Z" fill="#4C4D51"/>
<path d="M55.5611 42.8829H54.4591L55.0101 42.332L55.5611 42.8829Z" fill="#4C4D51"/>
<path d="M95.1003 79.3583H95.144" stroke="#4C4D51" stroke-width="0.1" stroke-linecap="round" stroke-linejoin="round"/>
<path d="M95.4925 79.3583H124.108" stroke="#4C4D51" stroke-width="0.1" stroke-linecap="round" stroke-linejoin="round" stroke-dasharray="1.12 4.47"/>
<path d="M124.283 79.3583H124.326" stroke="#4C4D51" stroke-width="0.1" stroke-linecap="round" stroke-linejoin="round"/>
<path d="M95.1003 74.9679H95.144" stroke="#4C4D51" stroke-width="0.1" stroke-linecap="round" stroke-linejoin="round"/>
<path d="M95.4925 74.9679H124.108" stroke="#4C4D51" stroke-width="0.1" stroke-linecap="round" stroke-linejoin="round" stroke-dasharray="1.12 4.47"/>
<path d="M124.283 74.9679H124.326" stroke="#4C4D51" stroke-width="0.1" stroke-linecap="round" stroke-linejoin="round"/>
<path d="M95.1003 70.5774H95.144" stroke="#4C4D51" stroke-width="0.1" stroke-linecap="round" stroke-linejoin="round"/>
<path d="M95.4926 70.5774H124.108" stroke="#4C4D51" stroke-width="0.1" stroke-linecap="round" stroke-linejoin="round" stroke-dasharray="1.12 4.47"/>
<path d="M124.283 70.5774H124.326" stroke="#4C4D51" stroke-width="0.1" stroke-linecap="round" stroke-linejoin="round"/>
<path d="M95.1003 66.1871H95.144" stroke="#4C4D51" stroke-width="0.1" stroke-linecap="round" stroke-linejoin="round"/>
<path d="M95.4926 66.1871H124.108" stroke="#4C4D51" stroke-width="0.1" stroke-linecap="round" stroke-linejoin="round" stroke-dasharray="1.12 4.47"/>
<path d="M124.283 66.1871H124.326" stroke="#4C4D51" stroke-width="0.1" stroke-linecap="round" stroke-linejoin="round"/>
<path d="M125.252 82.5356H94.9702V64.0785H95.2303V82.2757H125.252V82.5356Z" fill="#4C4D51"/>
<path d="M125.252 82.9566V81.8547L125.803 82.4057L125.252 82.9566Z" fill="#4C4D51"/>
<path d="M95.6512 64.0785H94.5493L95.1002 63.5275L95.6512 64.0785Z" fill="#4C4D51"/>
<path d="M122.519 66.7231L122.311 65.9722L121.56 66.18L121.919 66.3835L116.204 76.7018L108.083 71.861L103.721 76.9756L100.057 74.6229L94.9916 82.3343L95.2089 82.477L100.133 74.9808L103.771 77.317L108.138 72.1966L116.302 77.0625L122.146 66.5116L122.519 66.7231Z" fill="#4C4D51"/>
<path d="M125.023 65.7956L125.022 65.0164L124.243 65.0175L124.541 65.3145L115.29 74.5328L105.227 71.8801L100.421 78.7001H95.1003V78.96H100.556L105.336 72.1775L115.296 74.8032L115.368 74.8222L124.725 65.4981L124.713 65.4869L125.023 65.7956Z" fill="#6495ED"/>
<path d="M93.4001 58.4371H128.752" stroke="#4C4D51" stroke-width="0.1" stroke-miterlimit="10" stroke-linecap="round" stroke-linejoin="round" stroke-dasharray="1.11 4.44"/>
<path d="M98.3607 54.7459H95.1492C94.9099 54.7459 94.7159 54.9399 94.7159 55.1792V61.2101H98.794V55.1792C98.794 54.9399 98.6 54.7459 98.3607 54.7459Z" fill="#6495ED"/>
<path d="M93.4001 54.7459H128.752" stroke="#4C4D51" stroke-width="0.1" stroke-miterlimit="10" stroke-linecap="round" stroke-linejoin="round" stroke-dasharray="1.11 4.44"/>
<path d="M93.4001 51.0547H128.752" stroke="#4C4D51" stroke-width="0.1" stroke-miterlimit="10" stroke-linecap="round" stroke-linejoin="round" stroke-dasharray="1.11 4.44"/>
<path d="M93.4001 47.3634H128.752" stroke="#4C4D51" stroke-width="0.1" stroke-miterlimit="10" stroke-linecap="round" stroke-linejoin="round" stroke-dasharray="1.11 4.44"/>
<path d="M93.4001 43.6722H128.752" stroke="#4C4D51" stroke-width="0.1" stroke-miterlimit="10" stroke-linecap="round" stroke-linejoin="round" stroke-dasharray="1.11 4.44"/>
<path d="M105.352 52.146H102.14C101.901 52.146 101.707 52.34 101.707 52.5793V61.2101H105.785V52.5793C105.785 52.34 105.591 52.146 105.352 52.146ZM112.343 50.4129H109.131C108.892 50.4129 108.698 50.6069 108.698 50.8462V61.2101H112.776V50.8462C112.776 50.6069 112.582 50.4129 112.343 50.4129ZM119.334 47.8131H116.122C115.883 47.8131 115.689 48.0071 115.689 48.2464V61.2101H119.767V48.2464C119.767 48.0071 119.573 47.8131 119.334 47.8131ZM126.325 46.0799H123.113C122.874 46.0799 122.68 46.2739 122.68 46.5132V61.2101H126.758V46.5132C126.758 46.2739 126.564 46.0799 126.325 46.0799Z" fill="#6495ED"/>
<path d="M128.752 61.0368H93.4001" stroke="#4C4D51" stroke-width="0.1" stroke-miterlimit="10"/>
<path d="M75.1743 79.1436C78.2406 76.0773 78.2405 71.1058 75.1741 68.0395C72.1078 64.9733 67.1363 64.9733 64.07 68.0397C61.0038 71.1061 61.0038 76.0776 64.0702 79.1438C67.1366 82.2101 72.1081 82.21 75.1743 79.1436Z" fill="#D0D0D0"/>
<path d="M74.7413 78.7106C77.5684 75.8834 77.5683 71.2997 74.7411 68.4725C71.9139 65.6454 67.3302 65.6455 64.503 68.4727C61.6759 71.2999 61.676 75.8837 64.5032 78.7108C67.3304 81.5379 71.9142 81.5378 74.7413 78.7106Z" fill="white"/>
<path d="M69.623 73.5918L74.7386 78.3441C73.4181 79.7655 71.5632 80.5742 69.623 80.5742C66.9866 80.5742 64.5661 79.081 63.3831 76.7249L69.623 73.5918Z" fill="#F0F0F0"/>
<path d="M69.623 73.5918L72.9689 67.4634C75.2076 68.6856 76.6054 71.0411 76.6054 73.5918C76.6054 75.3492 75.9418 77.0435 74.7484 78.3335L69.623 73.5918Z" fill="#0047AB"/>
<path d="M69.623 73.5918L63.4149 76.7874C62.9062 75.7991 62.6407 74.7034 62.6407 73.5918C62.6407 69.7615 65.7926 66.6096 69.623 66.6096C70.8233 66.6096 72.0035 66.9191 73.0493 67.5081L69.623 73.5918Z" fill="#6495ED"/>
<path opacity="0.31" d="M107.29 114.335L98.702 110.177L89.0103 121.735L87.383 119.425L89.4085 103.888L81.3858 79.7403L63 86.2495L67.8971 98.5776L83.6352 136.464L87.106 145.049L87.5081 142.556L91.3431 127.933L96.703 121.982L106.273 121.246L91.0321 110.697L107.29 114.335Z" fill="white"/>
<path d="M92.4849 68.869C98.1706 68.869 102.78 64.4212 102.78 58.9345C102.78 53.4478 98.1706 49 92.4849 49C86.7992 49 82.19 53.4478 82.19 58.9345C82.19 64.4212 86.7992 68.869 92.4849 68.869Z" fill="#0047AB"/>
<path d="M119.655 128.715L113.393 131.86C111.572 128.396 107.71 126.101 103.337 126.45C98.2197 126.86 94.1382 130.976 93.9258 135.926C93.8461 137.773 94.2861 139.518 95.1282 141.028L94.7034 141.24L91.3578 142.917L87.1093 145.049C84.9168 140.099 83.0619 135.129 81.4953 130.225C81.2412 129.44 80.9946 128.647 80.7594 127.862V127.854C80.585 127.277 80.4105 126.686 80.2777 126.227C80.1449 125.771 80.0539 125.457 80.0539 125.457C77.2431 115.651 75.5248 106.248 74.493 97.9974L74.5006 98.1567C73.1274 89.1022 73.0592 79.2436 73.0592 79.2436C73.0136 77.6049 73.0023 76.1218 73.0023 74.8131C73.0023 74.0203 73.0023 73.2882 73.0174 72.6282C73.0592 70.0033 73.154 68.4518 73.1654 68.2318V68.2053L78.6504 68.9487L81.4195 69.4115C81.4005 69.6543 81.3891 69.9008 81.3891 70.1474C81.3891 75.6362 85.9979 80.0819 91.6802 80.0819C96.4217 80.0819 100.408 76.9942 101.603 72.7875L104.562 73.2806L109.076 74.0734V74.0924C109.065 74.2479 108.943 76.4631 108.958 80.025C108.958 80.025 109.22 90.0695 109.645 93.9462C110.18 99.4426 111.083 105.531 112.611 111.482C112.619 111.501 112.623 111.516 112.626 111.535C113.203 113.876 113.283 113.948 113.286 113.948C114.819 119.247 116.882 124.345 119.659 128.711L119.655 128.715Z" fill="#6495ED"/>
</svg>
