<svg width="29" height="29" viewBox="0 0 29 29" fill="none" xmlns="http://www.w3.org/2000/svg">
<path d="M26.3287 11.9676H2.39352V22.7384C2.39352 23.6906 2.77178 24.6038 3.44509 25.2771C4.1184 25.9504 5.0316 26.3287 5.9838 26.3287H22.7384C23.6906 26.3287 24.6038 25.9504 25.2771 25.2771C25.9504 24.6038 26.3287 23.6906 26.3287 22.7384V11.9676ZM8.37732 9.57405C8.05992 9.57405 7.75552 9.44796 7.53108 9.22353C7.30665 8.99909 7.18056 8.69469 7.18056 8.37729V3.59025C7.18056 3.27285 7.30665 2.96845 7.53108 2.74402C7.75552 2.51958 8.05992 2.39349 8.37732 2.39349C8.69472 2.39349 8.99912 2.51958 9.22356 2.74402C9.44799 2.96845 9.57408 3.27285 9.57408 3.59025V8.37729C9.57408 8.69469 9.44799 8.99909 9.22356 9.22353C8.99912 9.44796 8.69472 9.57405 8.37732 9.57405ZM20.3449 9.57405C20.0275 9.57405 19.7231 9.44796 19.4987 9.22353C19.2742 8.99909 19.1482 8.69469 19.1482 8.37729V3.59025C19.1482 3.27285 19.2742 2.96845 19.4987 2.74402C19.7231 2.51958 20.0275 2.39349 20.3449 2.39349C20.6623 2.39349 20.9667 2.51958 21.1912 2.74402C21.4156 2.96845 21.5417 3.27285 21.5417 3.59025V8.37729C21.5417 8.69469 21.4156 8.99909 21.1912 9.22353C20.9667 9.44796 20.6623 9.57405 20.3449 9.57405Z" fill="#6495ED" fill-opacity="0.55"/>
<path d="M22.7384 4.78705H21.5417V8.37733C21.5417 8.69473 21.4156 8.99913 21.1912 9.22356C20.9667 9.448 20.6623 9.57409 20.3449 9.57409C20.0275 9.57409 19.7231 9.448 19.4987 9.22356C19.2742 8.99913 19.1482 8.69473 19.1482 8.37733V4.78705H9.57408V8.37733C9.57408 8.69473 9.44799 8.99913 9.22356 9.22356C8.99912 9.448 8.69472 9.57409 8.37732 9.57409C8.05992 9.57409 7.75552 9.448 7.53108 9.22356C7.30665 8.99913 7.18056 8.69473 7.18056 8.37733V4.78705H5.9838C5.0316 4.78705 4.1184 5.16531 3.44509 5.83862C2.77178 6.51192 2.39352 7.42513 2.39352 8.37733V11.9676H26.3287V8.37733C26.3287 7.42513 25.9504 6.51192 25.2771 5.83862C24.6038 5.16531 23.6906 4.78705 22.7384 4.78705Z" fill="#0047AB"/>
</svg>
