<svg width="92" height="111" viewBox="0 0 92 111" fill="none" xmlns="http://www.w3.org/2000/svg">
<path opacity="0.31" d="M61.8798 78.4907L52.7988 74.0946L42.5505 86.3163L40.8297 83.8736L42.9716 67.4442L34.4882 41.9097L15.0465 48.7927L20.2248 61.8287L36.8668 101.891L40.5369 110.968L40.9621 108.333L45.0173 92.8704L50.6849 86.577L60.8049 85.7989L44.6884 74.6441L61.8798 78.4907Z" fill="#0047AB"/>
<path d="M46.2243 30.414C52.2365 30.414 57.1103 25.7108 57.1103 19.909C57.1103 14.1073 52.2365 9.40402 46.2243 9.40402C40.2121 9.40402 35.3382 14.1073 35.3382 19.909C35.3382 25.7108 40.2121 30.414 46.2243 30.414Z" fill="#0047AB"/>
<path d="M74.9555 93.6969L68.3332 97.0221C66.4079 93.36 62.3246 90.9333 57.6998 91.3023C52.2889 91.7355 47.973 96.0875 47.7484 101.322C47.6641 103.275 48.1294 105.12 49.0199 106.717L48.5706 106.941L45.0329 108.714L40.5405 110.969C38.2221 105.734 36.2607 100.48 34.6041 95.2933C34.3353 94.463 34.0746 93.6247 33.8259 92.7944V92.7864C33.6414 92.1767 33.4569 91.551 33.3165 91.0657C33.1761 90.5843 33.0799 90.2514 33.0799 90.2514C30.1077 79.8828 28.2906 69.9393 27.1996 61.2152L27.2077 61.3837C25.7556 51.8093 25.6834 41.3845 25.6834 41.3845C25.6353 39.6517 25.6233 38.0834 25.6233 36.6996C25.6233 35.8612 25.6233 35.0871 25.6393 34.3892C25.6834 31.6135 25.7837 29.973 25.7957 29.7403V29.7123L31.5958 30.4984L34.5239 30.9878C34.5038 31.2445 34.4918 31.5052 34.4918 31.7659C34.4918 37.57 39.3652 42.2709 45.3738 42.2709C50.3876 42.2709 54.6033 39.0059 55.8668 34.5576L58.9954 35.0791L63.7686 35.9174V35.9375C63.7566 36.1019 63.6282 38.4444 63.6443 42.2108C63.6443 42.2108 63.921 52.8321 64.3703 56.9314C64.9358 62.7435 65.8905 69.1812 67.5069 75.4746C67.5149 75.4947 67.5189 75.5107 67.523 75.5308C68.1326 78.0056 68.2169 78.0818 68.2209 78.0818C69.8414 83.6853 72.0234 89.0762 74.9595 93.6929L74.9555 93.6969Z" fill="#6495ED"/>
<path fill-rule="evenodd" clip-rule="evenodd" d="M19.7825 1.4424C20.1557 0.114733 21.5099 -0.243402 22.3388 0.151791C23.1678 0.546985 23.4716 1.69551 23.0983 3.02317C22.8522 4.00997 21.8613 5.19373 20.9977 6.03663C19.8301 5.73096 18.3836 5.19186 17.6818 4.45581C16.701 3.48633 16.3972 2.33776 16.9223 1.58443C17.4475 0.831051 18.8016 0.472917 19.7825 1.4424ZM5.91548 27.3177C6.89677 24.988 9.44127 24.645 10.859 25.5526C12.2768 26.4601 12.5677 28.6183 11.5864 30.9481C10.9141 32.6868 8.84228 34.6142 7.07936 35.9506C5.02553 35.1288 2.51726 33.8188 1.4085 32.3203C-0.154751 30.3336 -0.445709 28.1754 0.681061 26.9247C1.80783 25.6741 4.35228 25.331 5.91548 27.3177Z" fill="#0047AB"/>
<path fill-rule="evenodd" clip-rule="evenodd" d="M5.86301 25.6435C5.64602 24.8802 5.68204 23.9235 5.9071 22.8473C6.25244 21.1961 7.0445 19.2706 8.091 17.3258C9.66671 14.3976 11.8197 11.4266 13.9079 9.28058C15.2845 7.8659 16.6294 6.80966 17.7605 6.37386L17.6252 6.02272C16.4564 6.47303 15.0606 7.55634 13.6382 9.01812C11.528 11.1867 9.35183 14.1885 7.75959 17.1475C6.69409 19.1276 5.89032 21.089 5.53873 22.7702C5.2992 23.9156 5.27007 24.934 5.50098 25.7464L5.86301 25.6435ZM23.5153 4.84653C28.2107 2.59019 33.2713 1.11592 38.868 0.790754C42.3996 0.585578 45.6517 1.94523 48.6588 3.67631C50.7152 4.86007 53.9728 8.26552 58.2309 9.44092L58.2351 9.442C60.6381 10.0454 62.651 9.76465 64.2233 8.4991C64.2421 8.48397 64.2578 8.46528 64.2693 8.4441C64.2809 8.42293 64.2882 8.39968 64.2908 8.37568C64.2934 8.35169 64.2912 8.32742 64.2845 8.30426C64.2777 8.2811 64.2664 8.2595 64.2513 8.2407C64.2361 8.2219 64.2174 8.20626 64.1963 8.19468C64.1751 8.1831 64.1518 8.17581 64.1278 8.17321C64.1038 8.17062 64.0796 8.17278 64.0564 8.17957C64.0333 8.18635 64.0117 8.19764 63.9929 8.21277C62.5059 9.40967 60.5995 9.65623 58.3272 9.08618C54.1045 7.91979 50.8814 4.53166 48.8421 3.35779C45.7731 1.59108 42.4509 0.214451 38.8467 0.42381C33.1998 0.751924 28.0937 2.2387 23.3561 4.51532C23.3344 4.52577 23.3149 4.5404 23.2988 4.55838C23.2827 4.57636 23.2703 4.59733 23.2623 4.6201C23.2543 4.64286 23.2509 4.66698 23.2522 4.69107C23.2536 4.71516 23.2596 4.73876 23.2701 4.76051C23.2805 4.78225 23.2952 4.80173 23.3131 4.81782C23.3311 4.83392 23.3521 4.84631 23.3749 4.8543C23.3976 4.86229 23.4218 4.86571 23.4458 4.86438C23.4699 4.86305 23.4935 4.85698 23.5153 4.84653Z" fill="#ECF3FF"/>
<path fill-rule="evenodd" clip-rule="evenodd" d="M87.3737 57.0227H90.3962V102.645H87.3737V57.0227ZM80.2661 50.9093C80.2516 50.9252 80.2402 50.9442 80.2237 50.9583C79.3497 51.7081 77.5029 51.0606 75.7447 50.0878C73.99 49.1168 72.3235 47.8218 71.8007 47.2683L70.3142 49.8776C72.0256 51.6896 73.704 53.0495 75.291 53.7562C76.5337 54.3096 77.7407 54.4847 78.8948 54.2513C79.8038 54.0676 80.6944 53.6293 81.5435 52.8665L85.6703 55.9526L88.9207 55.1234L83.187 50.8503C83.8396 50.3348 84.3748 49.8195 84.4565 49.1467C84.668 47.4057 79.6891 44.1147 78.1022 43.272L75.1751 45.3513C76.5226 46.0668 79.2677 47.6515 80.0812 48.4327C80.4938 48.8289 80.8103 49.2119 80.8588 49.6528C80.903 50.0553 80.679 50.4508 80.2661 50.9093Z" fill="#04295C"/>
<path fill-rule="evenodd" clip-rule="evenodd" d="M64.2405 3.99527C64.2405 3.99527 64.2471 8.27247 64.3922 11.4142C63.9697 11.2717 63.7104 11.2782 63.2649 11.3039C62.785 11.3316 62.3366 11.4857 61.9932 11.8074C61.6354 12.1426 61.3806 12.6671 61.3593 13.4625C61.3124 15.2159 62.7292 16.071 63.8506 16.0199C64.4353 15.9934 64.8843 15.7107 65.0317 15.2202C65.1729 14.7507 65.1978 13.556 65.1476 12.1127C65.0541 9.41981 65.1273 5.80145 65.0192 4.6514L71.7823 3.84807L72.5046 11.1786C72.1064 10.9481 71.6734 10.8399 71.2846 10.8176C70.8129 10.7905 70.411 10.9035 70.1796 11.0405C69.6677 11.3437 69.1827 12.1027 69.2888 13.0217C69.3785 13.7995 69.726 14.4603 70.663 14.8174L70.8543 14.8694C71.5258 15.0001 71.8732 14.7545 72.2757 14.4C72.7973 13.9407 73.1871 13.2151 73.3166 12.0969C73.3196 12.0712 73.3198 12.0453 73.3173 12.0195L72.4688 3.40903C72.4641 3.36103 72.4498 3.31445 72.4269 3.27202C72.404 3.22959 72.3728 3.19215 72.3353 3.16189C72.2977 3.13162 72.2545 3.10914 72.2082 3.09576C72.1618 3.08237 72.1133 3.07834 72.0654 3.08391L64.2405 3.99527ZM64.424 12.2032C64.0284 12.031 63.7575 12.003 63.3068 12.029C63.0003 12.0467 62.709 12.132 62.4897 12.3375C62.2447 12.567 62.0999 12.9372 62.0853 13.482C62.0563 14.5664 62.7108 15.1249 63.4668 15.2671C63.6963 15.3103 63.9155 15.3081 64.0904 15.2443C64.2071 15.2017 64.3008 15.129 64.3362 15.0111C64.4646 14.5842 64.4681 13.5078 64.424 12.2032ZM72.3575 12.3015C71.9794 11.878 71.6805 11.5678 71.243 11.5426C70.9588 11.5263 70.7088 11.5637 70.5726 11.6513C70.3068 11.8223 69.9304 12.3375 70.0087 12.9259C70.0622 13.3278 70.5924 14.0003 71.0382 14.0247C71.8763 14.0706 72.1779 13.5724 72.3575 12.3015Z" fill="#6495ED"/>
<path d="M89.3527 60.5521C90.8147 60.5521 91.9999 59.2726 91.9999 57.6942C91.9999 56.1158 90.8147 54.8362 89.3527 54.8362C87.8907 54.8362 86.7055 56.1158 86.7055 57.6942C86.7055 59.2726 87.8907 60.5521 89.3527 60.5521Z" fill="#0047AB"/>
<path d="M53.3402 31.3489C55.8178 31.3489 57.8263 29.4233 57.8263 27.0479C57.8263 24.6726 55.8178 22.747 53.3402 22.747C50.8626 22.747 48.8541 24.6726 48.8541 27.0479C48.8541 29.4233 50.8626 31.3489 53.3402 31.3489Z" fill="#6495ED"/>
<path fill-rule="evenodd" clip-rule="evenodd" d="M57.2623 27.8555C54.6552 28.0535 53.3616 29.2091 53.2832 31.2509C53.2832 31.2509 64.0612 40.7632 66.6922 42.4594C67.3627 42.8917 69.17 41.4599 68.6741 40.8349C66.9795 38.6996 57.1505 28.1907 57.2623 27.8555Z" fill="#04295C"/>
<path d="M87.851 60.4996C89.313 60.4996 90.4982 59.2342 90.4982 57.6732C90.4982 56.1123 89.313 54.8469 87.851 54.8469C86.389 54.8469 85.2038 56.1123 85.2038 57.6732C85.2038 59.2342 86.389 60.4996 87.851 60.4996Z" fill="#6495ED"/>
</svg>
