<svg width="18" height="18" viewBox="0 0 18 18" fill="none" xmlns="http://www.w3.org/2000/svg">
<path d="M8.42554 6.51634V0.176323C8.42554 0.02299 8.49884 -0.0303317 8.64551 0.0163349C8.73217 0.0430016 8.82219 0.0729979 8.91553 0.106331C8.97553 0.126331 9.00215 0.166326 8.99548 0.226326C8.71548 2.55299 8.89218 4.82966 9.52551 7.05633C9.62882 7.41787 9.84838 7.73528 10.1503 7.95943C10.4522 8.18359 10.8196 8.30201 11.1956 8.29633C13.5889 8.25633 15.6655 8.23966 17.4255 8.24633C17.6322 8.253 17.7422 8.373 17.7555 8.60633C17.7688 8.81966 17.6689 8.93632 17.4556 8.95632C9.82556 9.72632 8.56554 7.88632 8.92554 17.1463C8.9322 17.2863 8.86558 17.3363 8.72558 17.2963C8.64558 17.2697 8.56559 17.243 8.48559 17.2163C8.44559 17.203 8.42554 17.1397 8.42554 17.0263V11.0863C8.42564 10.5707 8.22363 10.0756 7.86279 9.70728C7.50195 9.33897 7.01099 9.12679 6.49548 9.11633L0.225584 8.97633C0.191499 8.97594 0.157949 8.96766 0.12744 8.9521C0.0969309 8.93653 0.070123 8.91407 0.0490705 8.88631C0.028018 8.85856 0.0132741 8.82622 0.00573559 8.79163C-0.0018029 8.75705 -0.00193705 8.72109 0.00549145 8.68633C0.0521581 8.46633 0.128927 8.35633 0.235594 8.35633C2.55559 8.31633 4.71223 8.28299 6.70556 8.25632C7.16357 8.25106 7.60097 8.06542 7.92297 7.73968C8.24497 7.41393 8.42557 6.97437 8.42554 6.51634Z" fill="#0047AB"/>
</svg>
