<svg width="232" height="87" viewBox="0 0 232 87" fill="none" xmlns="http://www.w3.org/2000/svg">
<rect x="43.5" y="29.5" width="188" height="49" rx="9.5" fill="url(#paint0_linear_26_3826)" stroke="url(#paint1_linear_26_3826)"/>
<path d="M67.904 62.364C66.1013 62.364 64.5847 61.9653 63.354 61.168C62.1233 60.3533 61.2567 59.2527 60.754 57.866L63.822 56.072C64.5327 57.9267 65.928 58.854 68.008 58.854C69.0133 58.854 69.75 58.672 70.218 58.308C70.686 57.944 70.92 57.4847 70.92 56.93C70.92 56.2887 70.634 55.7947 70.062 55.448C69.49 55.084 68.4673 54.694 66.994 54.278C66.1793 54.0353 65.486 53.7927 64.914 53.55C64.3593 53.3073 63.796 52.9867 63.224 52.588C62.6693 52.172 62.2447 51.652 61.95 51.028C61.6553 50.404 61.508 49.676 61.508 48.844C61.508 47.1973 62.0887 45.8887 63.25 44.918C64.4287 43.93 65.8413 43.436 67.488 43.436C68.9613 43.436 70.2527 43.8 71.362 44.528C72.4887 45.2387 73.364 46.2353 73.988 47.518L70.972 49.26C70.244 47.7 69.0827 46.92 67.488 46.92C66.7427 46.92 66.1533 47.0933 65.72 47.44C65.304 47.7693 65.096 48.2027 65.096 48.74C65.096 49.312 65.33 49.78 65.798 50.144C66.2833 50.4907 67.202 50.872 68.554 51.288C69.1087 51.4613 69.5247 51.6 69.802 51.704C70.0967 51.7907 70.4867 51.938 70.972 52.146C71.4747 52.3367 71.856 52.5187 72.116 52.692C72.3933 52.8653 72.7053 53.0993 73.052 53.394C73.3987 53.6887 73.6587 53.992 73.832 54.304C74.0227 54.616 74.1787 54.9973 74.3 55.448C74.4387 55.8813 74.508 56.358 74.508 56.878C74.508 58.5593 73.8927 59.894 72.662 60.882C71.4487 61.87 69.8627 62.364 67.904 62.364ZM76.7213 43.8H80.3093V62H76.7213V43.8ZM94.2083 43.8H97.7963V62H95.0663L87.2663 50.872V62H83.6783V43.8H86.4083L94.2083 54.902V43.8ZM119.034 52.224V53.628C119.034 56.228 118.202 58.334 116.538 59.946C114.874 61.558 112.725 62.364 110.09 62.364C107.282 62.364 104.951 61.454 103.096 59.634C101.259 57.7967 100.34 55.5607 100.34 52.926C100.34 50.274 101.25 48.0293 103.07 46.192C104.908 44.3547 107.178 43.436 109.882 43.436C111.581 43.436 113.132 43.826 114.536 44.606C115.94 45.3687 117.032 46.3913 117.812 47.674L114.744 49.442C114.311 48.6967 113.652 48.09 112.768 47.622C111.902 47.154 110.931 46.92 109.856 46.92C108.123 46.92 106.693 47.492 105.566 48.636C104.457 49.7627 103.902 51.1927 103.902 52.926C103.902 54.642 104.466 56.0633 105.592 57.19C106.736 58.2993 108.244 58.854 110.116 58.854C111.503 58.854 112.647 58.5507 113.548 57.944C114.467 57.32 115.091 56.4707 115.42 55.396H109.908V52.224H119.034ZM132.626 62L131.534 58.724H124.28L123.188 62H119.314L125.684 43.8H130.13L136.526 62H132.626ZM125.424 55.37H130.416L127.92 47.934L125.424 55.37ZM145.08 43.8C146.83 43.8 148.304 44.3893 149.5 45.568C150.696 46.7467 151.294 48.194 151.294 49.91C151.294 51.626 150.696 53.0733 149.5 54.252C148.304 55.4307 146.83 56.02 145.08 56.02H141.882V62H138.294V43.8H145.08ZM145.08 52.666C145.842 52.666 146.475 52.406 146.978 51.886C147.48 51.3487 147.732 50.69 147.732 49.91C147.732 49.1127 147.48 48.454 146.978 47.934C146.475 47.414 145.842 47.154 145.08 47.154H141.882V52.666H145.08ZM168.817 59.634C166.979 61.454 164.743 62.364 162.109 62.364C159.474 62.364 157.238 61.454 155.401 59.634C153.581 57.7967 152.67 55.552 152.67 52.9C152.67 50.248 153.581 48.012 155.401 46.192C157.238 44.3547 159.474 43.436 162.109 43.436C164.743 43.436 166.979 44.3547 168.817 46.192C170.654 48.012 171.573 50.248 171.573 52.9C171.573 55.552 170.654 57.7967 168.817 59.634ZM157.923 57.19C159.049 58.2993 160.445 58.854 162.109 58.854C163.773 58.854 165.168 58.2993 166.295 57.19C167.421 56.0633 167.985 54.6333 167.985 52.9C167.985 51.1667 167.421 49.7367 166.295 48.61C165.168 47.4833 163.773 46.92 162.109 46.92C160.445 46.92 159.049 47.4833 157.923 48.61C156.796 49.7367 156.233 51.1667 156.233 52.9C156.233 54.6333 156.796 56.0633 157.923 57.19ZM184.078 62L180.412 55.682H177.682V62H174.094V43.8H181.374C183.056 43.8 184.486 44.3893 185.664 45.568C186.843 46.7467 187.432 48.168 187.432 49.832C187.432 50.9587 187.112 52.0073 186.47 52.978C185.829 53.9313 184.98 54.6507 183.922 55.136L187.952 62H184.078ZM177.682 47.154V52.536H181.374C182.05 52.536 182.631 52.276 183.116 51.756C183.602 51.2187 183.844 50.5773 183.844 49.832C183.844 49.0867 183.602 48.454 183.116 47.934C182.631 47.414 182.05 47.154 181.374 47.154H177.682ZM193.653 58.568H201.323V62H190.065V43.8H201.193V47.232H193.653V51.106H200.543V54.486H193.653V58.568Z" fill="#989898"/>
<path d="M48.9183 2.13675C50.0462 1.58984 51.2562 1.1955 52.5284 1.05701C53.5588 0.944344 54.6057 1.00185 55.628 1.20137C57.521 1.57106 59.2862 2.39848 60.9504 3.32096C62.5911 4.23053 64.1615 5.24926 65.787 6.18347C67.4289 7.12708 69.1494 8.00611 71.0061 8.48613C72.1023 8.76898 73.2372 8.90159 74.3639 8.83235C75.7992 8.74315 77.1677 8.32651 78.4317 7.7127C78.1547 9.17739 77.8778 10.6421 77.602 12.1068C76.7182 16.7837 75.8356 21.4595 74.9519 26.1365C73.6879 26.7491 72.3206 27.1669 70.8841 27.2561C69.7574 27.3253 68.6213 27.1939 67.5263 26.9099C65.6684 26.4298 63.9491 25.5508 62.3071 24.6072C60.6817 23.673 59.1125 22.6543 57.4706 21.7447C55.8064 20.8222 54.0412 19.996 52.1481 19.6251C51.1259 19.4256 50.079 19.3681 49.0486 19.4807C47.7764 19.6192 46.5652 20.0136 45.4385 20.5605C46.3222 15.8836 47.2048 11.2078 48.0885 6.53086C48.3643 5.06734 48.6413 3.60262 48.9183 2.13675Z" fill="white" stroke="#0047AB" stroke-width="0.25" stroke-miterlimit="10"/>
<path d="M48.9182 2.13675C50.0461 1.58984 51.2561 1.1955 52.5283 1.05701C53.5588 0.944344 54.6057 1.00185 55.6279 1.20137C57.521 1.57106 59.2861 2.39848 60.9504 3.32096C62.5911 4.23053 64.1614 5.24926 65.7869 6.18347C67.4288 7.12708 69.1494 8.00611 71.0061 8.48613C72.1022 8.76898 73.2372 8.90159 74.3638 8.83235C75.7992 8.74315 77.1676 8.32651 78.4317 7.71269C77.8519 10.7829 77.2721 13.8543 76.6912 16.9246C75.4272 17.5372 74.0599 17.955 72.6233 18.0442C71.4966 18.1135 70.3606 17.982 69.2656 17.698C67.4077 17.218 65.6883 16.3389 64.0464 15.3953C62.4209 14.4611 60.8518 13.4424 59.2098 12.5328C57.5456 11.6103 55.7805 10.7841 53.8874 10.4132C52.8652 10.2137 51.8171 10.1562 50.7878 10.2689C49.5144 10.4074 48.3044 10.8017 47.1777 11.3486C47.7587 8.27841 48.3385 5.20816 48.9182 2.13675Z" fill="#ED2939"/>
<path d="M52.6667 5.60604C52.953 4.09088 54.3755 2.59801 56.1219 2.67313C55.866 2.54989 55.602 2.45717 55.3238 2.40318C53.2253 1.99006 51.2748 3.95592 50.9379 5.76919C50.7865 6.58487 50.986 7.40641 51.6104 8.02609C52.2453 8.65633 53.1608 9.02249 54.0434 9.18445C54.318 9.23492 54.595 9.26662 54.8743 9.2807C54.1619 8.92626 53.5094 8.41339 53.088 7.75967C52.6655 7.10596 52.527 6.34308 52.6667 5.60604Z" fill="white"/>
<path d="M56.649 4.37258C56.5411 4.55332 56.4343 4.73525 56.3275 4.91717C56.5305 4.84909 56.7335 4.78218 56.9389 4.7188C57.0962 4.9101 57.2511 5.1026 57.4037 5.29625C57.3743 5.06621 57.3438 4.83734 57.3145 4.60731C57.5152 4.5498 57.717 4.49465 57.9201 4.44184C57.7018 4.35147 57.4812 4.26462 57.2593 4.18247C57.23 3.95478 57.1995 3.72592 57.169 3.49823C57.0622 3.6778 56.9554 3.85737 56.8474 4.03694C56.6256 3.963 56.4026 3.89375 56.1772 3.8292C56.3369 4.00877 56.4941 4.1895 56.649 4.37258Z" fill="white"/>
<path d="M59.543 6.67409C59.3282 6.56259 59.1123 6.45226 58.8951 6.34546C58.867 6.10956 58.8376 5.87366 58.8095 5.63776C58.7038 5.80911 58.5982 5.98047 58.4926 6.15182C58.2766 6.05089 58.0583 5.95348 57.8389 5.85841C57.9926 6.06145 58.1464 6.26566 58.2966 6.47105C58.191 6.64357 58.0853 6.81609 57.9797 6.98979C58.1792 6.94401 58.3787 6.89943 58.5783 6.85835C58.7308 7.06961 58.8822 7.28203 59.0324 7.49446C59.0043 7.25738 58.9761 7.0203 58.9479 6.78323C59.1463 6.74567 59.3446 6.70929 59.543 6.67409Z" fill="white"/>
<path d="M55.4028 7.31724C55.3723 7.09542 55.3406 6.87361 55.3089 6.65179C55.2009 6.8384 55.0918 7.02384 54.9838 7.21045C54.7573 7.15763 54.5296 7.11066 54.3008 7.06959C54.4639 7.23037 54.6247 7.39353 54.782 7.55784C54.6728 7.74562 54.5648 7.93455 54.4557 8.12233C54.6611 8.03666 54.8688 7.95334 55.0765 7.87236C55.2373 8.04724 55.3946 8.22328 55.5507 8.40167C55.5202 8.17751 55.4897 7.95452 55.458 7.73036C55.661 7.65759 55.8664 7.58717 56.0718 7.5191C55.8511 7.44751 55.6282 7.37944 55.4028 7.31724Z" fill="white"/>
<path d="M57.7676 8.18218C57.7383 7.94863 57.7101 7.71625 57.6808 7.4827C57.5751 7.65639 57.4683 7.83126 57.3627 8.00613C57.1444 7.91459 56.9249 7.82657 56.7031 7.74207C56.8592 7.93689 57.013 8.13289 57.1655 8.33006C57.0587 8.5061 56.9531 8.68097 56.8463 8.85702C57.047 8.80303 57.2477 8.75141 57.4495 8.70212C57.6033 8.90633 57.7559 9.11172 57.9073 9.31828C57.8791 9.08355 57.8498 8.84883 57.8204 8.61527C58.0188 8.57067 58.2183 8.52841 58.419 8.48734C58.2042 8.38288 57.9871 8.28076 57.7676 8.18218Z" fill="white"/>
<path d="M54.7394 5.53096C54.9025 5.6941 55.0621 5.8584 55.2194 6.02623C55.1877 5.80676 55.156 5.58728 55.1243 5.36781C55.3297 5.28448 55.5363 5.20235 55.744 5.12489C55.5187 5.06503 55.2933 5.01103 55.0656 4.96291C55.0339 4.74579 55.0023 4.52866 54.9694 4.31036C54.8602 4.50049 54.7511 4.69181 54.6419 4.88194C54.4119 4.84438 54.1819 4.81269 53.9507 4.78687C54.1162 4.93474 54.2793 5.08498 54.4401 5.23755C54.3309 5.43003 54.2206 5.62367 54.1115 5.81615C54.3192 5.71874 54.5281 5.62251 54.7394 5.53096Z" fill="white"/>
<path d="M40.832 44.498L49.0029 1.85156" stroke="#0047AB" stroke-miterlimit="10" stroke-linecap="round" stroke-linejoin="round"/>
<path opacity="0.31" d="M18.4578 79.4265L18.4226 79.3373L4.37178 45.5179L0 34.5115L9.05695 31.3063C9.17784 34.5784 9.4865 40.0065 10.2635 45.1423L10.2541 45.0038C11.1754 52.3672 12.7128 60.7622 15.2209 69.5164C15.2209 69.5164 15.3019 69.798 15.4216 70.2053C15.5378 70.6125 15.6985 71.1395 15.8511 71.6535C15.8511 71.6535 15.8511 71.6582 15.8511 71.6629C16.0612 72.3601 16.2807 73.0666 16.5084 73.7684C17.1069 75.6451 17.7559 77.5311 18.4578 79.4265Z" fill="#2A72DA"/>
<path d="M26.3234 18.9996C31.3986 18.9996 35.5129 15.0287 35.5129 10.1304C35.5129 5.2321 31.3986 1.26123 26.3234 1.26123C21.2481 1.26123 17.1338 5.2321 17.1338 10.1304C17.1338 15.0287 21.2481 18.9996 26.3234 18.9996Z" fill="#0047AB"/>
<path d="M50.5742 72.4164L44.9865 75.2238C43.3634 72.1347 39.9129 70.0867 36.0094 70.3954C31.4404 70.7616 27.7975 74.4327 27.6097 78.8538C27.5381 80.5039 27.9313 82.059 28.6824 83.4099L28.3021 83.5976L25.3152 85.0952H25.3105L21.5197 87L18.4577 79.4265C17.7558 77.5311 17.108 75.6439 16.5083 73.7673C16.2806 73.0654 16.0611 72.3589 15.851 71.6618C15.851 71.6571 15.851 71.6524 15.851 71.6524C15.6996 71.1383 15.5377 70.6102 15.4215 70.2041C15.3006 69.7969 15.2208 69.5152 15.2208 69.5152C12.7127 60.7622 11.1753 52.366 10.254 45.0026L10.2634 45.1411C9.48524 40.0041 9.17657 34.5772 9.05686 31.3051C8.98527 29.4273 8.97586 28.2607 8.97586 28.2607C8.93595 26.7948 8.92188 25.4757 8.92188 24.3044C8.92188 23.5979 8.92189 22.9453 8.9348 22.355C8.97001 20.0124 9.05567 18.6216 9.06858 18.4303C9.06858 18.4127 9.06858 18.4034 9.06858 18.4034L13.9638 19.07L16.4355 19.4807C16.4179 19.7002 16.4085 19.9185 16.4085 20.138C16.4085 25.0379 20.5209 29.0072 25.5957 29.0072C29.829 29.0072 33.3875 26.2491 34.4567 22.4935L37.0938 22.9359L41.1217 23.6425V23.6601C41.1124 23.7939 41.0055 25.775 41.0185 28.9532C41.0185 28.9532 41.2555 37.9209 41.6358 41.382C42.1099 46.2866 42.9139 51.7229 44.2823 57.0382C44.287 57.0559 44.2917 57.0653 44.2953 57.0829C44.8093 59.1708 44.8809 59.2376 44.8856 59.2376C46.2505 63.9674 48.0978 68.5188 50.5742 72.4164Z" fill="#6495ED"/>
<path d="M21.52 87C20.4027 84.479 19.3828 81.9487 18.458 79.4265L21.52 87Z" fill="#0047AB"/>
<defs>
<linearGradient id="paint0_linear_26_3826" x1="232" y1="47.5" x2="43" y2="47.5" gradientUnits="userSpaceOnUse">
<stop stop-color="#828282" stop-opacity="0.25"/>
<stop offset="1" stop-color="#D9D9D9" stop-opacity="0"/>
</linearGradient>
<linearGradient id="paint1_linear_26_3826" x1="232" y1="54" x2="43" y2="54" gradientUnits="userSpaceOnUse">
<stop stop-color="#9B9B9B"/>
<stop offset="1" stop-color="white"/>
</linearGradient>
</defs>
</svg>
