<svg width="114" height="114" viewBox="0 0 114 114" fill="none" xmlns="http://www.w3.org/2000/svg">
<path d="M74.8125 99.75H67.6875C66.6187 99.75 65.9062 99.0375 65.9062 97.9688C65.9062 96.9 66.6187 96.1875 67.6875 96.1875H74.8125C85.5 96.1875 94.4062 87.2812 94.4062 76.5938V73.0312C94.4062 71.9625 95.1187 71.25 96.1875 71.25C97.2563 71.25 97.9688 71.9625 97.9688 73.0312V76.5938C97.9688 89.4187 87.6375 99.75 74.8125 99.75Z" fill="#004463"/>
<path d="M69.4688 97.9688C69.4688 100.106 68.0437 101.531 65.9062 101.531H62.3438C60.2062 101.531 58.7812 100.106 58.7812 97.9688C58.7812 95.8312 60.2062 94.4062 62.3438 94.4062H65.9062C68.0437 94.4062 69.4688 95.8312 69.4688 97.9688Z" fill="#607D95"/>
<path d="M92.625 57C91.5563 57 90.8438 56.2875 90.8438 55.2188V44.5312C90.8438 43.4625 91.5563 42.75 92.625 42.75C93.6937 42.75 94.4062 43.4625 94.4062 44.5312V55.2188C94.4062 56.2875 93.6937 57 92.625 57ZM17.8125 57C16.7437 57 16.0312 56.2875 16.0312 55.2188V44.5312C16.0312 43.4625 16.7437 42.75 17.8125 42.75C18.8813 42.75 19.5938 43.4625 19.5938 44.5312V55.2188C19.5938 56.2875 18.8813 57 17.8125 57Z" fill="#004463"/>
<path d="M89.0625 55.2188H96.1875C98.325 55.2188 99.75 56.6437 99.75 58.7812V73.0312C99.75 75.1688 98.325 76.5938 96.1875 76.5938H89.0625V55.2188Z" fill="#607D95"/>
<path d="M92.2688 46.3125C94.4063 46.3125 96.1875 44.5312 95.8313 42.3937C94.05 21.7312 76.5938 5.34375 55.2188 5.34375C33.8438 5.34375 16.3875 21.7312 14.6063 42.3937C14.25 44.5312 16.0313 46.3125 18.1688 46.3125C19.95 46.3125 21.375 44.8875 21.7313 43.1063C23.1563 26.0063 37.7625 12.4688 55.575 12.4688C73.3875 12.4688 87.6375 26.0063 89.4188 43.1063C89.0625 44.8875 90.4875 46.3125 92.2688 46.3125Z" fill="#6495ED"/>
<path d="M21.7313 42.3937C23.5125 22.8 39.1875 7.125 58.7813 5.34375H55.2188C33.8438 5.34375 16.3875 21.7312 14.6063 42.3937C14.25 44.5312 16.0313 46.3125 18.1688 46.3125C19.95 46.3125 21.375 44.8875 21.7313 43.1063C21.375 43.1063 21.7313 42.75 21.7313 42.3937ZM62.3438 12.4688C61.275 12.4688 59.85 12.4687 58.7813 12.825C74.8125 14.6062 87.2813 27.4312 89.0625 43.4625C89.0625 45.2437 90.8438 46.6688 92.625 46.6688C94.7625 46.6688 96.1875 44.8875 96.1875 43.1063C94.05 25.65 79.8 12.4688 62.3438 12.4688Z" fill="#0047AB"/>
<path d="M67.6875 65.9062H42.75C40.6125 65.9062 39.1875 67.3312 39.1875 69.4688V83.7188C39.1875 85.8563 40.6125 87.2812 42.75 87.2812H46.3125V94.4062L57 87.2812H67.6875C69.825 87.2812 71.25 85.8563 71.25 83.7188V69.4688C71.25 67.3312 69.825 65.9062 67.6875 65.9062Z" fill="#EEF2FA"/>
<path d="M53.4375 89.775V87.2812H49.875C47.7375 87.2812 46.3125 85.8563 46.3125 83.7188V69.4688C46.3125 67.3312 47.7375 65.9062 49.875 65.9062H42.75C40.6125 65.9062 39.1875 67.3312 39.1875 69.4688V83.7188C39.1875 85.8563 40.6125 87.2812 42.75 87.2812H46.3125V94.4062L53.4375 89.775Z" fill="#D5E5F2"/>
<path d="M24.9375 80.1562C22.8 80.1562 21.375 78.7313 21.375 76.5938V55.2188C21.375 53.0812 22.8 51.6562 24.9375 51.6562C27.075 51.6562 28.5 53.0812 28.5 55.2188V76.5938C28.5 78.7313 27.075 80.1562 24.9375 80.1562ZM85.5 51.6562C87.6375 51.6562 89.0625 53.0812 89.0625 55.2188V76.5938C89.0625 78.7313 87.6375 80.1562 85.5 80.1562C83.3625 80.1562 81.9375 78.7313 81.9375 76.5938V55.2188C81.9375 53.0812 83.3625 51.6562 85.5 51.6562Z" fill="#4B6C85"/>
<path d="M24.9375 73.0312C22.8 73.0312 21.375 71.6063 21.375 69.4688V76.5938C21.375 78.7312 22.8 80.1562 24.9375 80.1562C27.075 80.1562 28.5 78.7312 28.5 76.5938V69.4688C28.5 71.6063 27.075 73.0312 24.9375 73.0312ZM85.5 73.0312C83.3625 73.0312 81.9375 71.6063 81.9375 69.4688V76.5938C81.9375 78.7312 83.3625 80.1562 85.5 80.1562C87.6375 80.1562 89.0625 78.7312 89.0625 76.5938V69.4688C89.0625 71.6063 87.6375 73.0312 85.5 73.0312Z" fill="#40657C"/>
<path d="M21.375 76.5938H14.25C12.1125 76.5938 10.6875 75.1688 10.6875 73.0312V58.7812C10.6875 56.6437 12.1125 55.2188 14.25 55.2188H21.375V76.5938Z" fill="#607D95"/>
<path d="M16.0312 55.2188V67.6875C16.0312 69.825 14.6063 71.25 12.4688 71.25H10.6875V73.0312C10.6875 75.1688 12.1125 76.5938 14.25 76.5938H21.375V55.2188H16.0312ZM94.4062 55.2188V67.6875C94.4062 69.825 95.8313 71.25 97.9688 71.25H99.75V73.0312C99.75 75.1688 98.325 76.5938 96.1875 76.5938H89.0625V55.2188H94.4062Z" fill="#4B6C85"/>
<path d="M64.4813 74.8125H45.9563C44.8875 74.8125 44.175 74.1 44.175 73.0312C44.175 71.9625 44.8875 71.25 45.9563 71.25H64.4813C65.5501 71.25 66.2626 71.9625 66.2626 73.0312C66.2626 74.1 65.5501 74.8125 64.4813 74.8125ZM57.3563 81.9375H45.9563C44.8875 81.9375 44.175 81.225 44.175 80.1562C44.175 79.0875 44.8875 78.375 45.9563 78.375H57.3563C58.4251 78.375 59.1376 79.0875 59.1376 80.1562C59.1376 81.225 58.4251 81.9375 57.3563 81.9375Z" fill="#99B5CE"/>
</svg>
