<svg width="38" height="38" viewBox="0 0 38 38" fill="none" xmlns="http://www.w3.org/2000/svg">
<path d="M26.3565 21.5378C25.6003 21.0849 24.6166 20.5803 23.7251 20.9448C23.0422 21.2242 22.606 22.294 22.1626 22.8408C21.935 23.121 21.6644 23.1648 21.3149 23.0247C18.7496 22.0027 16.7836 20.2898 15.3676 17.9298C15.128 17.5629 15.171 17.2739 15.4599 16.9341C15.8882 16.4302 16.4246 15.8587 16.5408 15.1798C16.6563 14.5008 16.3379 13.7081 16.0577 13.1039C15.6995 12.3319 15.2984 11.2303 14.5255 10.7933C13.8147 10.3921 12.8779 10.6166 12.2443 11.1324C11.1515 12.0231 10.6238 13.4176 10.6397 14.8009C10.6437 15.1941 10.6922 15.5857 10.7845 15.9654C11.005 16.8775 11.4261 17.7292 11.9013 18.5387C12.2586 19.1492 12.6479 19.7414 13.0665 20.3113C14.4388 22.1754 16.1461 23.7951 18.1224 25.0058C19.1102 25.6107 20.1744 26.1416 21.276 26.5054C22.5113 26.9137 23.6121 27.3387 24.9469 27.0848C26.3438 26.8198 27.7208 25.9553 28.2747 24.6094C28.4387 24.2106 28.5207 23.7673 28.4292 23.3462C28.2389 22.4762 27.0609 21.9581 26.3565 21.5378Z" fill="#0047AB"/>
<path d="M19.5223 0.609619C9.39143 0.609619 1.14936 8.85168 1.14936 18.9817C1.14936 22.0804 1.94451 25.1336 3.45443 27.8573L0.787216 37.8075L10.7891 35.1284C13.4778 36.5865 16.481 37.3546 19.5231 37.3546C29.6531 37.3546 37.8952 29.1126 37.8952 18.9817C37.8944 8.85168 29.6523 0.609619 19.5223 0.609619ZM19.5223 33.8819C16.8582 33.8819 14.2284 33.1536 11.9154 31.775L11.285 31.3993L5.69821 32.8965L7.18663 27.3408L6.79981 26.7064C5.37426 24.3655 4.62129 21.6943 4.62129 18.9817C4.62129 10.7659 11.3057 4.08234 19.5215 4.08234C27.7365 4.08234 34.4208 10.7659 34.4208 18.9817C34.4216 27.1983 27.7373 33.8819 19.5223 33.8819Z" fill="#0047AB"/>
</svg>
