<svg width="26" height="26" viewBox="0 0 26 26" fill="none" xmlns="http://www.w3.org/2000/svg">
<path d="M13 2.4375C7.15 2.4375 2.4375 7.15 2.4375 13C2.4375 18.85 7.15 23.5625 13 23.5625C18.85 23.5625 23.5625 18.85 23.5625 13C23.5625 7.15 18.85 2.4375 13 2.4375Z" fill="#F4F4F4"/>
<path d="M12.1875 4.875V4.0625C7.88125 4.46875 4.46875 7.88125 4.0625 12.1875H4.875C5.28125 12.1875 5.6875 12.5938 5.6875 13C5.6875 13.4062 5.28125 13.8125 4.875 13.8125H4.0625C4.46875 18.1188 7.88125 21.5312 12.1875 21.9375V21.125C12.1875 20.7188 12.5938 20.3125 13 20.3125V5.6875C12.5938 5.6875 12.1875 5.28125 12.1875 4.875Z" fill="#D3D3D3" fill-opacity="0.15"/>
<path d="M22.75 2.92501L22.2625 2.43751C21.2063 1.38126 19.4188 1.38126 18.3625 2.43751L17.3875 3.41251C15.6813 2.60001 13.7312 2.27501 11.7 2.51876C6.90625 3.08751 3.0875 6.90626 2.51875 11.7C1.7875 18.1188 6.74375 23.5625 13 23.5625C14.7875 23.5625 16.4938 23.1563 17.9563 22.3438L19.7437 24.1313C19.825 24.2125 19.9063 24.2938 19.9875 24.2938H20.0688H20.15C20.2313 24.2938 20.2313 24.2938 20.3125 24.2938C20.3938 24.2938 20.3938 24.2938 20.475 24.2938H20.5562H20.6375C20.7188 24.2938 20.8 24.2125 20.8813 24.1313C20.9625 24.05 21.0438 23.9688 21.0438 23.8875V23.8063V23.725V23.6438V19.825C22.5875 17.9563 23.4813 15.6 23.4813 13.0813C23.4813 11.05 22.9125 9.26251 21.9375 7.63751L22.75 6.82501C23.8063 5.76876 23.8063 3.98126 22.75 2.92501ZM21.125 13.8125H21.9375C21.6938 16.4938 20.2313 18.85 18.1187 20.3125C17.7937 20.5563 17.4688 20.7188 17.1438 20.8813C16.1688 21.3688 15.0312 21.775 13.8938 21.8563V21.0438C13.8938 20.6375 13.4875 20.2313 13.0813 20.2313C12.675 20.2313 12.2688 20.6375 12.2688 21.0438V21.8563C7.9625 21.45 4.55 18.0375 4.14375 13.7313H4.95625C5.3625 13.7313 5.76875 13.325 5.76875 12.9188C5.76875 12.5125 5.3625 12.1063 4.95625 12.1063H4.0625C4.46875 7.88126 7.88125 4.46876 12.1875 4.06251V4.87501C12.1875 5.28126 12.5938 5.68751 13 5.68751C13.4062 5.68751 13.8125 5.28126 13.8125 4.87501V4.06251C18.1187 4.46876 21.5312 7.88126 21.9375 12.1875H21.125C20.7188 12.1875 20.3125 12.5938 20.3125 13C20.3125 13.4063 20.7188 13.8125 21.125 13.8125Z" fill="#0047AB"/>
<path d="M13 5.68751V2.43751C11.4563 2.43751 9.9125 2.76251 8.6125 3.41251L7.6375 2.43751C6.58125 1.38126 4.79375 1.38126 3.7375 2.43751L3.25 2.92501C2.19375 3.98126 2.19375 5.76876 3.25 6.82501L3.98125 7.55626C3.00625 9.18126 2.4375 10.9688 2.4375 13C2.4375 15.5188 3.33125 17.875 4.875 19.7438V23.5625C4.875 23.6438 4.875 23.725 4.875 23.8063V23.8875C4.875 23.8875 4.875 23.8875 4.875 23.9688C4.875 24.05 4.95625 24.1313 5.0375 24.2125C5.11875 24.2938 5.2 24.2938 5.28125 24.375C5.28125 24.375 5.28125 24.375 5.3625 24.375H5.44375C5.525 24.375 5.60625 24.375 5.6875 24.375C5.76875 24.375 5.85 24.375 5.93125 24.375H6.0125C6.0125 24.375 6.0125 24.375 6.09375 24.375C6.175 24.375 6.25625 24.2938 6.3375 24.2125L8.125 22.425C9.5875 23.2375 11.2938 23.6438 13.0813 23.6438V20.3938C12.675 20.3938 12.2688 20.8 12.2688 21.2063V22.0188C11.05 21.9375 9.99375 21.6125 9.01875 21.0438C8.69375 20.8813 8.36875 20.6375 8.04375 20.475C5.93125 19.0125 4.46875 16.6563 4.225 13.975H5.0375C5.44375 13.975 5.85 13.5688 5.85 13.1625C5.85 12.7563 5.44375 12.35 5.0375 12.35H4.0625C4.46875 7.88126 7.88125 4.46876 12.1875 4.06251V4.87501C12.1875 5.28126 12.5938 5.68751 13 5.68751Z" fill="#0047AB"/>
<path d="M17.0625 11.375H14.625V7.3125C14.625 6.825 14.3 6.5 13.8125 6.5C13.325 6.5 13 6.825 13 7.3125V12.1875C13 12.675 13.325 13 13.8125 13H17.0625C17.55 13 17.875 12.675 17.875 12.1875C17.875 11.7 17.55 11.375 17.0625 11.375Z" fill="#6495ED" fill-opacity="0.15"/>
<path d="M16.25 11.375H13.8125V7.3125C13.8125 6.825 13.4875 6.5 13 6.5C12.5125 6.5 12.1875 6.825 12.1875 7.3125V12.1875C12.1875 12.675 12.5125 13 13 13H16.25C16.7375 13 17.0625 12.675 17.0625 12.1875C17.0625 11.7 16.7375 11.375 16.25 11.375Z" fill="#6495ED"/>
<path d="M12.1875 7.3125V12.1875C12.1875 12.675 12.5125 13 13 13V6.5C12.5125 6.5 12.1875 6.825 12.1875 7.3125Z" fill="#6495ED"/>
</svg>
