<svg width="1822" height="1324" viewBox="0 0 1822 1324" fill="none" xmlns="http://www.w3.org/2000/svg">
<path d="M1.5 1253.57V66.2762C3.57172 65.9393 4.79324 65.7352 5.92665 65.5122L5.63708 64.0404L5.92666 65.5122C36.1959 59.5566 60.5081 37.0206 68.7387 7.28927L67.293 6.88907L68.7387 7.28926C69.1031 5.97297 69.4505 4.53187 70.1262 1.72885L70.135 1.69239L70.1814 1.5H1754.02C1754.74 33.6671 1778.76 60.6619 1810.79 64.9969L1820.5 66.3107V1253.57C1820.5 1270.11 1820.5 1282.37 1819.23 1291.77C1817.97 1301.14 1815.49 1307.46 1810.69 1312.26C1805.89 1317.06 1799.57 1319.54 1790.2 1320.8C1780.8 1322.07 1768.54 1322.07 1752 1322.07H1536.38H342.598H100.736H70C53.4584 1322.07 41.2032 1322.07 31.7954 1320.8C22.4307 1319.54 16.1124 1317.06 11.3119 1312.26C6.51145 1307.46 4.02708 1301.14 2.76803 1291.77C1.50319 1282.37 1.5 1270.11 1.5 1253.57Z" fill="url(#paint0_linear_26_146)" stroke="url(#paint1_linear_26_146)" stroke-width="3"/>
<defs>
<linearGradient id="paint0_linear_26_146" x1="911" y1="-1.98484e-07" x2="911" y2="1450" gradientUnits="userSpaceOnUse">
<stop stop-color="#EBEBEB"/>
<stop offset="1" stop-color="white" stop-opacity="0"/>
</linearGradient>
<linearGradient id="paint1_linear_26_146" x1="911" y1="0" x2="875.506" y2="1044.68" gradientUnits="userSpaceOnUse">
<stop stop-color="#0047AB" stop-opacity="0.35"/>
<stop offset="1" stop-color="#4894FF" stop-opacity="0"/>
</linearGradient>
</defs>
</svg>
