<svg width="363" height="140" viewBox="0 0 363 140" fill="none" xmlns="http://www.w3.org/2000/svg">
<path d="M202.799 104.808C197.564 98.4404 192.965 91.6818 189.373 84.1533L174.67 58.5923L187.13 36.9016C192.366 28.4076 195.957 23.5842 199.545 21.0706H177.109C179.053 24.737 180.097 26.8636 180.097 27.8291C180.097 29.1817 179.648 30.9171 178.603 33.0437L178.303 33.4308L170.962 50.4937L162.597 33.6264C161.553 31.5039 160.953 29.3773 160.953 27.8333C160.953 26.0979 161.852 23.9754 163.642 21.0747H134.019C138.36 25.9023 141.801 31.1169 145.988 39.8023L159.372 63.6446L146.383 87.8239C141.597 96.1223 137.856 101.145 134.115 104.808H156.704C154.757 101.528 153.562 99.2103 153.562 97.6663C153.562 96.1223 154.012 94.004 155.056 92.2645L163.625 70.245L174.204 91.686L174.504 92.2645C175.553 94.3869 176.002 96.3179 176.002 97.6663C176.002 99.2103 174.953 101.528 173.16 104.808H202.799Z" fill="#6495ED"/>
<path d="M292.525 34.7625C292.525 34.7625 292.525 27.9748 296.974 21.0706H277.785V21.2745L255.362 83.912L224.611 21.0706H208.11C211.223 26.2186 212.346 30.0848 212.367 37.9212V88.0071C212.093 96.1057 211.568 99.356 208.01 104.858H227.087C223.629 99.589 222.463 95.4814 222.414 88.0071V50.2065L241.482 96.6675C241.482 96.6675 243.517 101.462 246.605 103.339C249.893 105.328 255.707 105.445 255.707 105.445L277.785 47.9384V91.2906C277.776 92.3352 277.568 99.8595 273.219 104.858H296.974C292.525 97.9493 292.525 91.1616 292.525 91.1616V34.7583V34.7625Z" fill="#0047AB"/>
<path d="M345.115 95.032C345.115 95.032 344.366 95.5313 343.238 96.089C341.882 96.759 340.196 96.7923 340.196 96.7923H322.176V66.7159H334.466C334.466 66.7159 341.253 66.7159 348.158 71.1647V54.0768C343.164 58.4258 335.639 58.6339 334.59 58.6422H322.18V29.1525H340.2C340.2 29.1525 341.886 29.1817 343.243 29.8558C344.37 30.4135 345.12 30.9046 345.12 30.9046L352.49 36.6394L358.578 21.0789H301.584C305.933 26.0729 306.141 33.5972 306.15 34.6459V91.2989C306.141 92.3435 305.933 99.8678 301.584 104.866H358.578L352.49 89.3013L345.12 95.0361L345.115 95.032Z" fill="#0047AB"/>
<path d="M-0.000195503 21.0413L5.96766 36.6018L13.3422 30.867C13.3422 30.867 14.0829 30.3718 15.2108 29.8183C16.5675 29.1441 18.2529 29.1149 18.2529 29.1149H27.5377V91.2613C27.5293 92.3059 27.3212 99.8302 22.9723 104.828H48.0173C43.5685 97.92 43.5685 91.1323 43.5685 91.1323V29.1108H53.1653C53.1653 29.1108 54.8508 29.1399 56.2075 29.8141C57.3353 30.3718 58.0761 30.8628 58.0761 30.8628L65.4506 36.5976L71.768 21.0371H-0.000195503V21.0413Z" fill="#6495ED"/>
<path opacity="0.31" d="M120.367 71.6809L110.945 67.1197L100.312 79.8003L98.5269 77.2658L100.749 60.2196L91.9473 33.7263L71.7756 40.8678L77.1483 54.3932L94.4151 95.9601L98.2231 105.378L98.6642 102.644L102.872 86.6005L108.752 80.0708L119.252 79.2634L102.53 67.6898L120.367 71.6809Z" fill="#2A72DA"/>
<path d="M104.123 21.7989C110.361 21.7989 115.418 16.919 115.418 10.8994C115.418 4.87985 110.361 0 104.123 0C97.8852 0 92.8283 4.87985 92.8283 10.8994C92.8283 16.919 97.8852 21.7989 104.123 21.7989Z" fill="#0047AB"/>
<path d="M133.936 87.4577L127.065 90.9078C125.067 87.1081 120.831 84.5903 116.032 84.9732C110.418 85.4227 105.94 89.9381 105.707 95.3691C105.62 97.3958 106.103 99.3102 107.026 100.967L106.56 101.2L102.89 103.039L98.2287 105.378C95.8232 99.9469 93.7882 94.4951 92.0694 89.1141C91.7906 88.2526 91.52 87.3828 91.262 86.5213V86.513C91.0706 85.8805 90.8791 85.2312 90.7335 84.7277C90.5878 84.2283 90.4879 83.8828 90.4879 83.8828C87.4041 73.1249 85.5189 62.8081 84.3869 53.7564L84.3952 53.9312C82.8887 43.9973 82.8138 33.1811 82.8138 33.1811C82.7639 31.3832 82.7514 29.756 82.7514 28.3202C82.7514 27.4504 82.7514 26.6472 82.768 25.9231C82.8138 23.0432 82.9178 21.3411 82.9303 21.0997V21.0706L88.9481 21.8862L91.9861 22.394C91.9653 22.6603 91.9529 22.9308 91.9529 23.2013C91.9529 29.2233 97.0093 34.1008 103.243 34.1008C108.446 34.1008 112.82 30.7132 114.13 26.0979L117.377 26.6389L122.329 27.5087V27.5295C122.316 27.7001 122.183 30.1305 122.2 34.0384C122.2 34.0384 122.487 45.0585 122.953 49.3117C123.54 55.342 124.531 62.0215 126.208 68.5512C126.216 68.572 126.22 68.5886 126.224 68.6095C126.857 71.1772 126.944 71.2563 126.948 71.2563C128.63 77.0702 130.894 82.6635 133.94 87.4536L133.936 87.4577Z" fill="#6495ED"/>
<path d="M360.097 134.065L359.53 128.5V124.3H362.785V128.5L362.239 134.065H360.097ZM362.428 138.748C362.078 139.098 361.658 139.273 361.168 139.273C360.678 139.273 360.258 139.098 359.908 138.748C359.558 138.398 359.383 137.978 359.383 137.488C359.383 136.998 359.558 136.578 359.908 136.228C360.258 135.878 360.678 135.703 361.168 135.703C361.658 135.703 362.078 135.878 362.428 136.228C362.778 136.578 362.953 136.998 362.953 137.488C362.953 137.978 362.778 138.398 362.428 138.748Z" fill="#0047AB"/>
<path d="M358.31 124.3L353.27 133.267V139H350.393V133.267L345.374 124.3H348.65L351.842 130.432L355.034 124.3H358.31Z" fill="#0047AB"/>
<path d="M342.25 139L339.289 133.897H337.084V139H334.186V124.3H340.066C341.424 124.3 342.579 124.776 343.531 125.728C344.483 126.68 344.959 127.828 344.959 129.172C344.959 130.082 344.7 130.929 344.182 131.713C343.664 132.483 342.978 133.064 342.124 133.456L345.379 139H342.25ZM337.084 127.009V131.356H340.066C340.612 131.356 341.081 131.146 341.473 130.726C341.865 130.292 342.061 129.774 342.061 129.172C342.061 128.57 341.865 128.059 341.473 127.639C341.081 127.219 340.612 127.009 340.066 127.009H337.084Z" fill="#0047AB"/>
<path d="M329.923 137.089C328.439 138.559 326.633 139.294 324.505 139.294C322.377 139.294 320.571 138.559 319.087 137.089C317.617 135.605 316.882 133.792 316.882 131.65C316.882 129.508 317.617 127.702 319.087 126.232C320.571 124.748 322.377 124.006 324.505 124.006C326.633 124.006 328.439 124.748 329.923 126.232C331.407 127.702 332.149 129.508 332.149 131.65C332.149 133.792 331.407 135.605 329.923 137.089ZM321.124 135.115C322.034 136.011 323.161 136.459 324.505 136.459C325.849 136.459 326.976 136.011 327.886 135.115C328.796 134.205 329.251 133.05 329.251 131.65C329.251 130.25 328.796 129.095 327.886 128.185C326.976 127.275 325.849 126.82 324.505 126.82C323.161 126.82 322.034 127.275 321.124 128.185C320.214 129.095 319.759 130.25 319.759 131.65C319.759 133.05 320.214 134.205 321.124 135.115Z" fill="#0047AB"/>
<path d="M316.777 124.3V127.072H312.808V139H309.91V127.072H305.962V124.3H316.777Z" fill="#0047AB"/>
<path d="M300.363 139.294C298.907 139.294 297.683 138.972 296.689 138.328C295.695 137.67 294.995 136.781 294.589 135.661L297.066 134.212C297.64 135.71 298.767 136.459 300.447 136.459C301.259 136.459 301.854 136.312 302.232 136.018C302.61 135.724 302.799 135.353 302.799 134.905C302.799 134.387 302.569 133.988 302.107 133.708C301.645 133.414 300.818 133.099 299.628 132.763C298.97 132.567 298.41 132.371 297.948 132.175C297.5 131.979 297.045 131.72 296.583 131.398C296.135 131.062 295.793 130.642 295.555 130.138C295.317 129.634 295.197 129.046 295.197 128.374C295.197 127.044 295.666 125.987 296.604 125.203C297.556 124.405 298.697 124.006 300.027 124.006C301.217 124.006 302.26 124.3 303.156 124.888C304.066 125.462 304.773 126.267 305.277 127.303L302.841 128.71C302.253 127.45 301.315 126.82 300.027 126.82C299.425 126.82 298.949 126.96 298.599 127.24C298.263 127.506 298.095 127.856 298.095 128.29C298.095 128.752 298.285 129.13 298.663 129.424C299.055 129.704 299.796 130.012 300.888 130.348C301.336 130.488 301.672 130.6 301.896 130.684C302.134 130.754 302.449 130.873 302.841 131.041C303.247 131.195 303.556 131.342 303.766 131.482C303.99 131.622 304.241 131.811 304.521 132.049C304.801 132.287 305.011 132.532 305.151 132.784C305.305 133.036 305.431 133.344 305.529 133.708C305.641 134.058 305.697 134.443 305.697 134.863C305.697 136.221 305.2 137.299 304.206 138.097C303.226 138.895 301.945 139.294 300.363 139.294Z" fill="#0047AB"/>
<path d="M285.517 139L284.635 136.354H278.776L277.894 139H274.765L279.91 124.3H283.501L288.667 139H285.517ZM279.7 133.645H283.732L281.716 127.639L279.7 133.645Z" fill="#0047AB"/>
<path d="M263.593 139.294C262.137 139.294 260.912 138.972 259.918 138.328C258.924 137.67 258.224 136.781 257.818 135.661L260.296 134.212C260.87 135.71 261.997 136.459 263.677 136.459C264.489 136.459 265.084 136.312 265.462 136.018C265.84 135.724 266.029 135.353 266.029 134.905C266.029 134.387 265.798 133.988 265.336 133.708C264.874 133.414 264.048 133.099 262.858 132.763C262.2 132.567 261.64 132.371 261.178 132.175C260.73 131.979 260.275 131.72 259.813 131.398C259.365 131.062 259.022 130.642 258.784 130.138C258.546 129.634 258.427 129.046 258.427 128.374C258.427 127.044 258.896 125.987 259.834 125.203C260.786 124.405 261.927 124.006 263.257 124.006C264.447 124.006 265.49 124.3 266.386 124.888C267.296 125.462 268.003 126.267 268.507 127.303L266.071 128.71C265.483 127.45 264.545 126.82 263.257 126.82C262.655 126.82 262.179 126.96 261.829 127.24C261.493 127.506 261.325 127.856 261.325 128.29C261.325 128.752 261.514 129.13 261.892 129.424C262.284 129.704 263.026 130.012 264.118 130.348C264.566 130.488 264.902 130.6 265.126 130.684C265.364 130.754 265.679 130.873 266.071 131.041C266.477 131.195 266.785 131.342 266.995 131.482C267.219 131.622 267.471 131.811 267.751 132.049C268.031 132.287 268.241 132.532 268.381 132.784C268.535 133.036 268.661 133.344 268.759 133.708C268.871 134.058 268.927 134.443 268.927 134.863C268.927 136.221 268.43 137.299 267.436 138.097C266.456 138.895 265.175 139.294 263.593 139.294Z" fill="#0047AB"/>
<path d="M251.587 136.228H257.194V139H248.689V124.3H251.587V136.228Z" fill="#0047AB"/>
<path d="M241.436 136.228H247.043V139H238.538V124.3H241.436V136.228Z" fill="#0047AB"/>
<path d="M230.3 136.228H236.495V139H227.402V124.3H236.39V127.072H230.3V130.201H235.865V132.931H230.3V136.228Z" fill="#0047AB"/>
<path d="M225.784 124.3V127.072H221.815V139H218.917V127.072H214.969V124.3H225.784Z" fill="#0047AB"/>
<path d="M209.193 124.3V127.072H205.224V139H202.326V127.072H198.378V124.3H209.193Z" fill="#6495ED"/>
<path d="M191.233 136.228H197.428V139H188.335V124.3H197.323V127.072H191.233V130.201H196.798V132.931H191.233V136.228Z" fill="#6495ED"/>
<path d="M186.902 139H183.563L178.313 132.112V139H175.415V124.3H178.313V130.789L183.353 124.3H186.692L181.253 131.44L186.902 139Z" fill="#6495ED"/>
<path d="M167.314 139.294C165.102 139.294 163.275 138.559 161.833 137.089C160.391 135.619 159.67 133.806 159.67 131.65C159.67 129.48 160.391 127.667 161.833 126.211C163.275 124.741 165.102 124.006 167.314 124.006C168.644 124.006 169.869 124.321 170.989 124.951C172.123 125.567 173.005 126.407 173.635 127.471L171.136 128.92C170.772 128.262 170.254 127.751 169.582 127.387C168.91 127.009 168.154 126.82 167.314 126.82C165.886 126.82 164.731 127.268 163.849 128.164C162.981 129.06 162.547 130.222 162.547 131.65C162.547 133.064 162.981 134.219 163.849 135.115C164.731 136.011 165.886 136.459 167.314 136.459C168.154 136.459 168.91 136.277 169.582 135.913C170.268 135.535 170.786 135.024 171.136 134.38L173.635 135.829C173.005 136.893 172.13 137.74 171.01 138.37C169.89 138.986 168.658 139.294 167.314 139.294Z" fill="#6495ED"/>
<path d="M154.722 124.3H157.62V139H154.722V124.3Z" fill="#6495ED"/>
<path d="M153.105 124.3V127.072H149.136V139H146.238V127.072H142.29V124.3H153.105Z" fill="#6495ED"/>
<path d="M136.723 124.3L131.683 133.267V139H128.806V133.267L123.787 124.3H127.063L130.255 130.432L133.447 124.3H136.723Z" fill="#0047AB"/>
<path d="M120.663 139L117.702 133.897H115.497V139H112.599V124.3H118.479C119.837 124.3 120.992 124.776 121.944 125.728C122.896 126.68 123.372 127.828 123.372 129.172C123.372 130.082 123.113 130.929 122.595 131.713C122.077 132.483 121.391 133.064 120.537 133.456L123.792 139H120.663ZM115.497 127.009V131.356H118.479C119.025 131.356 119.494 131.146 119.886 130.726C120.278 130.292 120.474 129.774 120.474 129.172C120.474 128.57 120.278 128.059 119.886 127.639C119.494 127.219 119.025 127.009 118.479 127.009H115.497Z" fill="#0047AB"/>
<path d="M104.362 136.228H110.557V139H101.464V124.3H110.452V127.072H104.362V130.201H109.927V132.931H104.362V136.228Z" fill="#0047AB"/>
<path d="M91.5 139L86.565 124.3H89.715L93.306 135.598L96.876 124.3H100.047L95.091 139H91.5Z" fill="#0047AB"/>
<path d="M79.6292 136.228H85.8242V139H76.7312V124.3H85.7192V127.072H79.6292V130.201H85.1942V132.931H79.6292V136.228Z" fill="#0047AB"/>
<path d="M63.2435 136.228H69.4385V139H60.3455V124.3H69.3335V127.072H63.2435V130.201H68.8085V132.931H63.2435V136.228Z" fill="#0047AB"/>
<path d="M55.5101 139L52.5491 133.897H50.3441V139H47.4461V124.3H53.3261C54.6841 124.3 55.8391 124.776 56.7911 125.728C57.7431 126.68 58.2191 127.828 58.2191 129.172C58.2191 130.082 57.9601 130.929 57.4421 131.713C56.9241 132.483 56.2381 133.064 55.3841 133.456L58.6391 139H55.5101ZM50.3441 127.009V131.356H53.3261C53.8721 131.356 54.3411 131.146 54.7331 130.726C55.1251 130.292 55.3211 129.774 55.3211 129.172C55.3211 128.57 55.1251 128.059 54.7331 127.639C54.3411 127.219 53.8721 127.009 53.3261 127.009H50.3441Z" fill="#0047AB"/>
<path d="M39.2083 136.228H45.4033V139H36.3103V124.3H45.2983V127.072H39.2083V130.201H44.7733V132.931H39.2083V136.228Z" fill="#0047AB"/>
<path d="M30.7025 124.3H33.5795V139H30.7025V132.91H25.2425V139H22.3445V124.3H25.2425V130.138H30.7025V124.3Z" fill="#0047AB"/>
<path d="M4.431 139L0.315 124.3H3.36L6.174 135.199L9.24 124.3H11.718L14.805 135.199L17.619 124.3H20.664L16.548 139H13.251L10.479 129.298L7.728 139H4.431Z" fill="#0047AB"/>
</svg>
