<svg width="15" height="25" viewBox="0 0 15 25" fill="none" xmlns="http://www.w3.org/2000/svg">
<path d="M12.8406 0.877014C13.9658 2.6469 13.892 5.10065 12.6633 6.79997C11.8436 7.93261 10.6143 8.69184 9.63808 9.69274C8.66182 10.6936 7.9205 12.1687 8.43558 13.4694C8.96005 14.7925 10.4962 15.3311 11.6466 16.1689C12.8996 17.0818 13.7798 18.4916 14.0493 20.0186C14.3188 21.5456 13.9752 23.1716 13.1096 24.4585H1.16066C1.16066 24.4585 -0.93831 20.458 1.76049 17.4093C4.45928 14.3607 5.90948 14.3107 5.80877 12.3116C5.70806 10.3124 4.30928 9.66259 3.50962 8.91294C2.70997 8.16328 -1.18902 6.41415 1.11066 0.877901L12.8406 0.877014Z" fill="#FAFAFA"/>
<path d="M12.8406 0.876986C12.8406 0.876986 12.7711 0.875922 12.6348 0.87539L12.0291 0.873618L9.69733 0.871135L1.11052 0.864929H1.10183L1.09864 0.872908C0.935336 1.28763 0.770263 1.71441 0.653418 2.16725C0.533026 2.61761 0.434442 3.08695 0.399512 3.5733C0.364583 4.05965 0.37859 4.55984 0.475223 5.05754C0.575936 5.56455 0.758403 6.05183 1.01548 6.50029C1.14877 6.72908 1.2992 6.94743 1.46548 7.15349C1.63554 7.36166 1.81916 7.55836 2.01514 7.74233C2.21441 7.929 2.42296 8.10552 2.63997 8.27124C2.85735 8.4395 3.0843 8.59837 3.30594 8.76628C3.41693 8.84997 3.51871 8.94358 3.62403 9.03809C3.72935 9.13259 3.83981 9.2193 3.95027 9.3076C4.17102 9.4849 4.39354 9.66079 4.60471 9.85406C5.03025 10.2342 5.38859 10.709 5.58611 11.2617C5.68518 11.5393 5.748 11.8285 5.77299 12.1222C5.77884 12.1959 5.78877 12.2697 5.79072 12.344C5.79267 12.4183 5.79657 12.4926 5.79303 12.567C5.79111 12.7162 5.7761 12.865 5.74817 13.0115C5.69086 13.3077 5.56833 13.5873 5.38947 13.8302C5.21217 14.0763 4.99514 14.2928 4.7689 14.5011C4.31535 14.916 3.83414 15.3119 3.37314 15.7394C2.91214 16.1669 2.46018 16.6134 2.02702 17.0852C1.81194 17.3217 1.5935 17.5598 1.40644 17.824C1.21355 18.086 1.04578 18.3656 0.905371 18.6591C0.621372 19.2548 0.447184 19.8967 0.391179 20.5542C0.329654 21.2147 0.376641 21.8876 0.507494 22.5461C0.572815 22.8768 0.658438 23.2032 0.76388 23.5234C0.867685 23.8466 0.994488 24.1621 1.14332 24.4672L1.14811 24.4771H1.46726H13.1091H13.1185L13.1236 24.4693C13.684 23.6257 14.0277 22.6569 14.1243 21.6487C14.2215 20.6802 14.0796 19.7026 13.7109 18.8017C13.3602 17.9407 12.8203 17.1696 12.1312 16.5455C11.7975 16.24 11.4256 15.9901 11.0529 15.7589C10.6802 15.5277 10.3035 15.313 9.94787 15.0786C9.59219 14.8442 9.25229 14.5937 8.97516 14.2875C8.69714 13.9839 8.48455 13.6273 8.37338 13.2442C8.26221 12.861 8.26061 12.4583 8.32586 12.0794C8.39111 11.7005 8.52586 11.3401 8.69519 11.0089C8.86317 10.6842 9.06475 10.378 9.29662 10.0954C9.52198 9.81665 9.77234 9.5693 10.0236 9.33597C10.5294 8.87018 11.0472 8.4629 11.513 8.04446C11.7463 7.83559 11.9674 7.62477 12.1709 7.40828C12.3689 7.19772 12.5511 6.97301 12.7163 6.73593C13.0158 6.30153 13.2465 5.82349 13.4 5.31871C13.5352 4.88322 13.6134 4.43207 13.6328 3.9765C13.6426 3.87224 13.6387 3.76976 13.6385 3.66993C13.6383 3.57011 13.6403 3.47241 13.6298 3.37755L13.6086 3.10024C13.5977 3.01053 13.5828 2.92294 13.5708 2.83925C13.4656 2.16229 13.2614 1.66778 13.1022 1.35111C13.0702 1.27958 13.0342 1.20995 12.9942 1.14259L12.9084 0.996492C12.8623 0.918122 12.8387 0.879114 12.8387 0.879114L12.9064 0.998797C12.9289 1.03816 12.9569 1.08698 12.9905 1.14525C13.0298 1.21272 13.0653 1.28234 13.0968 1.35377C13.2541 1.67079 13.4561 2.1653 13.5593 2.84102C13.5711 2.92542 13.5857 3.01212 13.5961 3.10148L13.6169 3.37844C13.6268 3.47294 13.6236 3.57028 13.6247 3.66993C13.6258 3.76958 13.6284 3.87171 13.6183 3.97579C13.5981 4.43002 13.5192 4.87973 13.3837 5.31375C13.2302 5.81545 13.0004 6.29052 12.7023 6.72228C12.5374 6.95847 12.3553 7.18224 12.1577 7.39179C11.9545 7.60757 11.7335 7.81733 11.5002 8.02584C11.0344 8.44322 10.5163 8.84979 10.009 9.31593C9.7562 9.54945 9.5046 9.79732 9.278 10.0771C9.0447 10.3612 8.84188 10.669 8.67285 10.9954C8.50228 11.3282 8.36718 11.6899 8.30051 12.0732C8.23384 12.4566 8.2349 12.8619 8.34767 13.2502C8.46044 13.6385 8.6748 13.999 8.9553 14.3054C9.23474 14.6146 9.57783 14.8662 9.9328 15.102C10.2878 15.3378 10.666 15.5518 11.0381 15.7832C11.4103 16.0146 11.78 16.2632 12.1117 16.5671C12.7968 17.1884 13.3334 17.9557 13.682 18.8123C14.0483 19.7084 14.1891 20.6807 14.0919 21.6439C13.9954 22.6464 13.6534 23.6096 13.0961 24.4484L13.1105 24.4406H1.46868H1.16069L1.17683 24.4504C1.02905 24.1469 0.903079 23.8334 0.799874 23.512C0.694832 23.1933 0.609562 22.8684 0.544551 22.5392C0.41423 21.8831 0.367243 21.214 0.428591 20.5574C0.484254 19.9043 0.657364 19.2666 0.939592 18.6749C1.07868 18.3834 1.2449 18.1055 1.43605 17.8451C1.62258 17.5829 1.83996 17.346 2.05486 17.1093C2.48725 16.6381 2.93519 16.1902 3.39867 15.7655C3.85967 15.3384 4.3384 14.943 4.79425 14.5268C5.02014 14.3176 5.23947 14.0997 5.41838 13.8502C5.60005 13.6033 5.72446 13.3191 5.78257 13.0181C5.81091 12.8696 5.8261 12.7189 5.82796 12.5677C5.8315 12.4926 5.82796 12.4174 5.82565 12.3426C5.82335 12.2677 5.81289 12.1933 5.80686 12.1188C5.78161 11.8223 5.71807 11.5302 5.61785 11.25C5.4182 10.6917 5.05454 10.2117 4.62705 9.82959C4.41535 9.63455 4.19141 9.45831 3.97102 9.28206C3.86073 9.19341 3.75151 9.10476 3.64583 9.01344C3.54016 8.92213 3.43768 8.82479 3.32668 8.74075C3.10398 8.57213 2.87738 8.41361 2.66036 8.24588C2.44407 8.08099 2.23624 7.90529 2.03766 7.71945C1.84228 7.53676 1.65925 7.34129 1.48978 7.13434C1.32437 6.9297 1.17471 6.71283 1.04208 6.48557C0.786338 6.03955 0.604829 5.55491 0.504657 5.05062C0.408201 4.55594 0.392243 4.0577 0.428236 3.57419C0.46423 3.09067 0.560686 2.62222 0.680191 2.17346C0.796328 1.72221 0.960692 1.29614 1.12346 0.882306L1.1114 0.890284L9.69308 0.883901L12.0266 0.880532L12.6339 0.878937C12.7701 0.87805 12.8406 0.876986 12.8406 0.876986Z" fill="#0047AB"/>
<path d="M1.58734 4.12298C-0.172613 4.41235 2.60225 7.52941 4.17302 8.75939C5.0826 9.47164 6.05921 10.244 6.49113 11.3155C6.98121 12.5309 6.61808 13.8972 6.8555 15.1199C6.89504 15.323 7.19504 15.291 7.19238 15.0845C7.18068 14.2818 7.20213 13.4797 7.33423 12.6894C7.52288 11.5688 7.95374 10.4601 8.73921 9.63866C9.38036 8.96826 10.221 8.52287 10.9048 7.89608C11.9034 6.981 12.9292 5.80084 13.0292 4.45011C13.0292 4.45011 11.1121 2.90595 10.0479 3.10081C8.80428 3.32865 7.5798 5.24764 5.65282 5.02796C4.30777 4.87423 3.62886 3.78752 1.58734 4.12298ZM1.43113 20.8071C1.47564 20.3668 1.59284 19.8688 1.98362 19.6611C2.22015 19.5354 2.50828 19.5494 2.7675 19.6175C3.02672 19.6856 3.27017 19.8035 3.52691 19.8798C4.03695 20.0298 4.58163 20.0126 5.08118 19.8306C5.55867 19.6551 5.96772 19.3381 6.41188 19.0888C6.85603 18.8395 7.3743 18.6537 7.86792 18.7766C8.719 18.9893 9.16227 20.0133 10.0038 20.2606C10.3777 20.3705 10.7795 20.3088 11.1596 20.2227C11.5398 20.1365 11.9221 20.026 12.3121 20.0406C12.6175 20.0519 12.935 20.1576 13.149 20.3666L13.1469 20.3638C13.149 20.3659 13.1508 20.3682 13.1529 20.3705C13.1883 20.4054 13.2206 20.4432 13.2494 20.4837C13.5106 20.8315 13.5522 21.2993 13.4719 21.7248C13.382 22.2005 13.1598 22.6403 12.9212 23.0617C12.6403 23.5582 12.3212 24.0522 11.8573 24.383C11.2843 24.7908 10.563 24.5094 9.86228 24.5647C8.22626 24.6938 6.46613 24.7819 4.82994 24.6552C3.96556 24.5882 3.15545 24.6818 2.46962 24.1516C1.98717 23.7793 1.67334 23.2163 1.52209 22.6254C1.37085 22.0344 1.36979 21.4138 1.43113 20.8071Z" fill="#6495ED"/>
<path d="M13.9871 25C13.9871 25 14.0199 24.4516 13.3046 24.1464H0.736003C0.736003 24.1464 0.0799656 24.478 0 24.9887L13.9871 25ZM1.00232 0.943823L1.02235 0.953043L12.8406 0.876978C12.8406 0.876978 12.8824 0.850027 12.9454 0.800913C13.2823 0.537612 13.0931 -0.00335318 12.6656 1.56616e-05L1.19505 0.0927476C0.721639 0.0966484 0.574297 0.741515 1.00232 0.943823Z" fill="#0047AB"/>
<path opacity="0.24" d="M2.89382 5.45204C2.87006 5.4976 2.95871 5.59619 3.12822 5.74654C3.29772 5.8969 3.54631 6.10346 3.86174 6.35772C4.17717 6.61198 4.56299 6.91394 5.05236 7.19763C5.31199 7.34765 5.58504 7.47314 5.86797 7.57246C6.02145 7.62558 6.17815 7.66887 6.33713 7.70207C6.50399 7.73803 6.67354 7.76009 6.84405 7.76802C7.18942 7.78709 7.53525 7.73984 7.86286 7.62884C8.17793 7.51944 8.44673 7.36554 8.68167 7.21093C8.9166 7.05631 9.12032 6.90046 9.31164 6.75294C9.50295 6.60542 9.67618 6.46251 9.83133 6.3274C10.4519 5.78945 10.7787 5.39406 10.7157 5.31764C10.6507 5.23838 10.2113 5.4898 9.52636 5.91073L8.96695 6.25417C8.76624 6.37652 8.55028 6.51145 8.33006 6.63627C8.10985 6.7611 7.87882 6.87457 7.63981 6.94816C7.39368 7.02223 7.13647 7.05254 6.87987 7.0377C6.34156 7.01039 5.81921 6.82067 5.36655 6.60223C4.91175 6.37953 4.50483 6.12775 4.15004 5.92846C3.79525 5.72917 3.49259 5.57917 3.27201 5.50026C3.05144 5.42136 2.91598 5.40824 2.89382 5.45204Z" fill="#0047AB"/>
<path d="M7.18321 16.5848C7.0536 16.5391 6.89846 16.6696 6.92133 16.8052C6.9442 16.9409 7.1341 17.0134 7.24048 16.9276C7.34687 16.8417 7.31974 16.6412 7.19261 16.5887" fill="#ABABAB"/>
<path d="M11.4104 7.4079C11.4254 7.39496 11.4394 7.38085 11.4521 7.3657C11.4805 7.33473 11.5187 7.29289 11.5667 7.24017C11.6151 7.18449 11.6787 7.12013 11.744 7.03786L11.9672 6.7602C12.0434 6.6524 12.13 6.53626 12.2168 6.40771C12.2582 6.34187 12.3009 6.2739 12.345 6.20381C12.3667 6.16835 12.3901 6.13288 12.411 6.09742L12.4727 5.98377C12.6594 5.65309 12.8056 5.30115 12.9082 4.93553C13.0115 4.56981 13.067 4.19226 13.0734 3.81229C13.0734 3.72487 13.0688 3.63959 13.0669 3.55678C13.0649 3.5153 13.0658 3.47434 13.0615 3.43444C13.0573 3.39455 13.0532 3.35519 13.0489 3.31653C13.0401 3.23923 13.0341 3.1644 13.0236 3.09295C13.0131 3.02149 12.9984 2.95394 12.9867 2.88887C12.9667 2.75802 12.9321 2.6433 12.9073 2.54135C12.8938 2.49081 12.8833 2.44294 12.8699 2.3995L12.8317 2.28265L12.7786 2.12148C12.7729 2.10255 12.7658 2.08406 12.7575 2.06616C12.7605 2.0858 12.7653 2.10513 12.7716 2.12396C12.7833 2.16421 12.7991 2.21865 12.819 2.28673L12.8544 2.40411C12.8667 2.4472 12.8762 2.49507 12.8888 2.54596C12.9115 2.64791 12.9443 2.76263 12.9626 2.89295C12.9736 2.95784 12.9851 3.02569 12.997 3.0965C13.0066 3.16742 13.0119 3.24206 13.02 3.31884C13.0239 3.35737 13.0278 3.39644 13.0317 3.43604C13.0355 3.47576 13.0344 3.51654 13.036 3.55749C13.0374 3.63977 13.0417 3.72452 13.041 3.81122C13.0326 4.18805 12.9766 4.56231 12.8743 4.92507C12.7724 5.28807 12.6281 5.63782 12.4445 5.9671C12.4239 6.0054 12.4037 6.04323 12.3839 6.08058C12.3631 6.11746 12.3401 6.15239 12.3188 6.18696C12.2755 6.25694 12.2335 6.32491 12.1927 6.39087C12.1073 6.51959 12.0223 6.63608 11.9477 6.7446L11.7282 7.02492C11.6647 7.10825 11.6028 7.17386 11.5562 7.23095L11.447 7.36074C11.4335 7.37542 11.4213 7.3912 11.4104 7.4079ZM12.0759 17.8245C12.0723 17.8164 12.0679 17.8087 12.0628 17.8015C12.0525 17.785 12.0386 17.7632 12.0211 17.7355L11.9521 17.6291L11.908 17.5612C11.8902 17.538 11.8704 17.5148 11.85 17.4903C11.8087 17.4396 11.7626 17.3839 11.7124 17.3222C11.6592 17.2641 11.5966 17.2038 11.5317 17.1375C11.3802 16.9922 11.2195 16.8569 11.0505 16.7325C10.6782 16.4504 10.198 16.1701 9.67762 15.8429C9.41929 15.6766 9.14747 15.5016 8.89038 15.2883C8.63328 15.075 8.38487 14.8328 8.18399 14.5419C7.78788 13.9528 7.62689 13.2706 7.61288 12.6606C7.59692 12.0461 7.7276 11.4987 7.88168 11.0624C8.0054 10.7168 8.16085 10.3834 8.34604 10.0664C8.41112 9.95368 8.46431 9.86787 8.50101 9.81006L8.54232 9.74393C8.54741 9.73661 8.5518 9.72883 8.55545 9.7207C8.54944 9.72723 8.54404 9.73429 8.53931 9.7418L8.49498 9.80598C8.45615 9.86255 8.40083 9.94783 8.33381 10.0592C8.1432 10.3745 7.98364 10.7076 7.85738 11.0537C7.6994 11.4909 7.56501 12.0415 7.57919 12.6613C7.58189 12.8196 7.5948 12.9776 7.61784 13.1342C7.64056 13.2979 7.67486 13.4598 7.7205 13.6186C7.81431 13.954 7.9605 14.2725 8.15367 14.5623C8.35722 14.8573 8.60828 15.1034 8.86786 15.316C9.12744 15.5286 9.39978 15.7061 9.65971 15.8713C10.1821 16.1976 10.6624 16.4742 11.0351 16.7532C11.2042 16.876 11.3654 17.0093 11.5177 17.1524C11.5828 17.2176 11.645 17.2765 11.6996 17.3339C11.7503 17.3942 11.797 17.4494 11.839 17.499C11.8597 17.524 11.8801 17.5469 11.8979 17.5699L11.9433 17.6368L12.0142 17.741L12.0589 17.805C12.064 17.812 12.0697 17.8185 12.0759 17.8245ZM12.728 19.0628C12.7317 19.0743 12.7368 19.0852 12.7433 19.0953L12.7933 19.1839C12.8158 19.2221 12.8426 19.2692 12.8697 19.3258C12.8968 19.3824 12.9323 19.4451 12.9617 19.5187L13.0112 19.6327C13.0289 19.6724 13.0419 19.7152 13.0583 19.7588C13.0926 19.8453 13.1192 19.9412 13.1495 20.0412C13.2715 20.4793 13.3135 20.9358 13.2736 21.3888C13.2621 21.4927 13.2534 21.5918 13.2355 21.6831C13.2271 21.7288 13.2215 21.7735 13.2121 21.8157C13.2027 21.8579 13.1931 21.898 13.1842 21.9368C13.1686 22.0145 13.1456 22.0824 13.1287 22.143C13.1119 22.2037 13.0947 22.2553 13.0794 22.2968L13.0466 22.3937C13.042 22.4051 13.0389 22.417 13.0374 22.4292C13.0442 22.4193 13.0496 22.4085 13.0534 22.3971C13.064 22.3716 13.0771 22.3404 13.0927 22.3024C13.114 22.2527 13.1325 22.2018 13.1482 22.1499C13.167 22.0895 13.1919 22.0216 13.2092 21.9437C13.219 21.9049 13.2291 21.8643 13.2396 21.8223C13.25 21.7803 13.2562 21.735 13.2653 21.6889C13.2846 21.5971 13.2945 21.4973 13.3071 21.3925C13.3516 20.9354 13.3095 20.474 13.183 20.0325C13.1514 19.9318 13.1236 19.8354 13.0878 19.7488C13.07 19.7052 13.056 19.6623 13.0383 19.6226L12.9864 19.5086C12.9551 19.4352 12.9183 19.373 12.8888 19.3169C12.8639 19.2689 12.8364 19.2222 12.8066 19.177L12.7507 19.0912C12.7446 19.0807 12.7369 19.0712 12.728 19.0628ZM4.05893 20.7485C4.06327 20.7526 4.06809 20.7561 4.07329 20.759L4.11691 20.7863L4.28712 20.8886L4.41124 20.9616C4.45716 20.987 4.50894 21.0109 4.56355 21.0388C4.67383 21.092 4.79635 21.1597 4.94068 21.2143L5.16479 21.3061C5.24299 21.3375 5.32739 21.3616 5.41302 21.3912C5.58377 21.4537 5.77261 21.4976 5.97013 21.5496C6.83538 21.7512 7.73263 21.7747 8.60722 21.6184C8.80704 21.5772 8.99729 21.5428 9.17176 21.4895C9.259 21.4643 9.34446 21.4446 9.42425 21.4173L9.6528 21.3372C9.79979 21.2904 9.92568 21.229 10.0386 21.1817C10.0946 21.1568 10.1475 21.1356 10.1947 21.1127L10.3218 21.046L10.497 20.9529L10.542 20.9279C10.5474 20.9254 10.5524 20.9221 10.5569 20.9182C10.5511 20.9195 10.5455 20.9217 10.5402 20.9246L10.4934 20.9464L10.3161 21.0334L10.1879 21.0969C10.1406 21.1187 10.0874 21.1391 10.0312 21.1629C9.91788 21.2084 9.79181 21.2677 9.64482 21.3129L9.41645 21.3904C9.33684 21.4168 9.25155 21.4359 9.16467 21.4602C8.99144 21.5122 8.80119 21.5453 8.60208 21.5843C7.73149 21.736 6.83942 21.7128 5.97793 21.5159C5.78129 21.4655 5.59299 21.4225 5.42278 21.3616C5.33732 21.3327 5.25309 21.3084 5.17455 21.2788L4.95061 21.1902C4.8061 21.137 4.68341 21.0716 4.57259 21.0203C4.5178 20.9935 4.46621 20.9705 4.4194 20.9462L4.29528 20.8753L4.12205 20.7792L4.07648 20.7549C4.07096 20.7519 4.06505 20.7498 4.05893 20.7485ZM3.32771 5.90912C3.33215 5.91427 3.33715 5.91891 3.34261 5.92295L3.38853 5.9609L3.56761 6.10363C3.72364 6.22774 3.94918 6.40505 4.23411 6.61888C4.51904 6.83272 4.86568 7.07776 5.27703 7.30843C5.48466 7.41943 5.70594 7.53273 5.94885 7.61748C6.19872 7.70839 6.45937 7.76639 6.72421 7.79C7.27192 7.82706 7.79125 7.68822 8.2136 7.48024C8.41267 7.3789 8.60487 7.26459 8.78896 7.13804C8.96006 7.01712 9.11645 6.90027 9.25475 6.78821C9.53241 6.56551 9.74979 6.37704 9.90103 6.24778L10.0743 6.09795L10.1186 6.05842C10.1285 6.0492 10.1335 6.04441 10.1329 6.04388C10.127 6.04708 10.1214 6.05095 10.1163 6.0554L10.0695 6.09228L9.89216 6.23679C9.73826 6.36267 9.51822 6.54832 9.23914 6.76871C9.09996 6.87935 8.94339 6.9946 8.77211 7.11375C8.58878 7.23782 8.3976 7.34988 8.19977 7.44921C7.78043 7.65365 7.26748 7.78929 6.72811 7.75294C6.46655 7.72957 6.20911 7.67254 5.96215 7.58326C5.72136 7.49957 5.50115 7.38822 5.29458 7.27829C4.88447 7.05045 4.53784 6.80648 4.2506 6.59743C3.96336 6.38838 3.73641 6.21161 3.57683 6.09175L3.39367 5.95434C3.37381 5.93997 3.35821 5.92845 3.34544 5.91887C3.33995 5.91492 3.33399 5.91165 3.32771 5.90912Z" fill="#0047AB"/>
<path opacity="0.24" d="M9.65141 21.3376C9.31914 21.081 8.85229 21.1425 8.44165 21.2296C8.031 21.3166 7.61699 21.4563 7.20049 21.3982C6.88737 21.3544 6.59978 21.2001 6.29073 21.1333C5.98168 21.0665 5.60632 21.1156 5.43504 21.3815C6.80799 21.8236 8.28732 21.8081 9.6507 21.3374" fill="#0047AB"/>
</svg>
