<svg width="200" height="86" viewBox="0 0 200 86" fill="none" xmlns="http://www.w3.org/2000/svg">
<rect x="40.5" y="28.5" width="159" height="49" rx="9.5" fill="url(#paint0_linear_26_3761)" stroke="url(#paint1_linear_26_3761)"/>
<path d="M73.69 42.8H77.278V61H73.69V42.8ZM91.177 42.8H94.765V61H92.035L84.235 49.872V61H80.647V42.8H83.377L91.177 53.902V42.8ZM105.369 42.8C107.865 42.8 109.945 43.6753 111.609 45.426C113.291 47.1767 114.131 49.3347 114.131 51.9C114.131 54.4653 113.291 56.6233 111.609 58.374C109.945 60.1247 107.865 61 105.369 61H98.1412V42.8H105.369ZM105.369 57.568C106.947 57.568 108.229 57.048 109.217 56.008C110.205 54.9507 110.699 53.5813 110.699 51.9C110.699 50.2187 110.205 48.858 109.217 47.818C108.229 46.7607 106.947 46.232 105.369 46.232H101.729V57.568H105.369ZM116.676 42.8H120.264V61H116.676V42.8ZM135.333 61L134.241 57.724H126.987L125.895 61H122.021L128.391 42.8H132.837L139.233 61H135.333ZM128.131 54.37H133.123L130.627 46.934L128.131 54.37Z" fill="#0047AB"/>
<path fill-rule="evenodd" clip-rule="evenodd" d="M47.9175 6.92309C58.9619 4.01307 66.5172 14.9645 77.4827 12.3723C77.8912 10.2604 78.3009 8.14737 78.7106 6.03195C67.8262 8.30629 60.2686 -2.63809 49.1394 0.606258C48.7333 2.70991 48.3248 4.81591 47.9175 6.92309Z" fill="#EE7C00"/>
<path fill-rule="evenodd" clip-rule="evenodd" d="M46.7134 13.1387C57.6778 10.5488 65.233 21.5003 76.2786 18.5879C76.6871 16.4807 77.0956 14.3712 77.5041 12.2593C66.5409 14.8468 58.9856 3.89415 47.9388 6.81007C47.5315 8.91842 47.123 11.0279 46.7134 13.1387Z" fill="white"/>
<path fill-rule="evenodd" clip-rule="evenodd" d="M45.4961 19.4226C56.3816 17.1482 63.938 28.0926 75.0672 24.8483C75.4745 22.7446 75.8819 20.6386 76.2892 18.5314C65.2447 21.4415 57.6895 10.49 46.7239 13.0822C46.3154 15.1941 45.9069 17.3071 45.4961 19.4226Z" fill="#008D3D"/>
<path fill-rule="evenodd" clip-rule="evenodd" d="M62.6185 9.87897L62.4996 11.5965L62.4183 12.0191L62.3359 12.4417L62.3477 12.0144L62.3595 11.5883L62.6185 9.87897Z" fill="#3498C1"/>
<path fill-rule="evenodd" clip-rule="evenodd" d="M63.1918 10.0002L62.6856 11.6565L62.5113 12.0485L62.3359 12.4417L62.4454 12.025L62.5537 11.6083L63.1918 10.0002Z" fill="#3498C1"/>
<path fill-rule="evenodd" clip-rule="evenodd" d="M63.7074 10.2863L62.848 11.7707L62.5926 12.1062L62.3359 12.4417L62.5361 12.0627L62.735 11.6836L63.7074 10.2863Z" fill="#3498C1"/>
<path fill-rule="evenodd" clip-rule="evenodd" d="M64.13 10.7195L62.9752 11.9296L62.6561 12.1851L62.3359 12.4417L62.6114 12.1274L62.888 11.8107L64.13 10.7195Z" fill="#3498C1"/>
<path fill-rule="evenodd" clip-rule="evenodd" d="M64.4302 11.2704L63.0587 12.1239L62.6973 12.2828L62.3359 12.4417L62.6703 12.2122L63.0034 11.9826L64.4302 11.2704Z" fill="#3498C1"/>
<path fill-rule="evenodd" clip-rule="evenodd" d="M64.5879 11.9014L63.0929 12.3405L62.715 12.3911L62.3359 12.4417L62.7044 12.3134L63.0729 12.1851L64.5879 11.9014Z" fill="#3498C1"/>
<path fill-rule="evenodd" clip-rule="evenodd" d="M64.5914 12.5689L63.0752 12.563L62.7068 12.5029L62.3359 12.4417L62.715 12.4229L63.0929 12.4041L64.5914 12.5689Z" fill="#3498C1"/>
<path fill-rule="evenodd" clip-rule="evenodd" d="M64.4419 13.2281L63.0081 12.7784L62.6714 12.61L62.3359 12.4417L62.6985 12.5347L63.0623 12.6265L64.4419 13.2281Z" fill="#3498C1"/>
<path fill-rule="evenodd" clip-rule="evenodd" d="M64.1488 13.8331L62.8951 12.9703L62.6161 12.7066L62.3359 12.4417L62.6585 12.6383L62.9799 12.8361L64.1488 13.8331Z" fill="#3498C1"/>
<path fill-rule="evenodd" clip-rule="evenodd" d="M63.7321 14.3441L62.7432 13.1268L62.5396 12.7843L62.3359 12.4417L62.5961 12.7301L62.8551 13.0185L63.7321 14.3441Z" fill="#3498C1"/>
<path fill-rule="evenodd" clip-rule="evenodd" d="M63.22 14.7255L62.5643 13.2351L62.4501 12.8396L62.3359 12.4417L62.5161 12.8019L62.695 13.1633L63.22 14.7255Z" fill="#3498C1"/>
<path fill-rule="evenodd" clip-rule="evenodd" d="M62.6479 14.9503L62.3689 13.2916L62.3524 12.8667L62.3359 12.4417L62.423 12.849L62.509 13.2563L62.6479 14.9503Z" fill="#3498C1"/>
<path fill-rule="evenodd" clip-rule="evenodd" d="M62.0542 15.0045L62.1719 13.2881L62.2543 12.8655L62.3356 12.4417L62.3238 12.869L62.312 13.2964L62.0542 15.0045Z" fill="#3498C1"/>
<path fill-rule="evenodd" clip-rule="evenodd" d="M61.481 14.8844L61.9872 13.2269L62.1614 12.8349L62.3356 12.4417L62.2273 12.8596L62.1178 13.2775L61.481 14.8844Z" fill="#3498C1"/>
<path fill-rule="evenodd" clip-rule="evenodd" d="M60.9644 14.5983L61.8249 13.1139L62.0792 12.7772L62.3358 12.4417L62.1369 12.8219L61.9379 13.201L60.9644 14.5983Z" fill="#3498C1"/>
<path fill-rule="evenodd" clip-rule="evenodd" d="M60.5415 14.1639L61.6963 12.9538L62.0165 12.6972L62.3355 12.4417L62.0601 12.7572L61.7835 13.0727L60.5415 14.1639Z" fill="#3498C1"/>
<path fill-rule="evenodd" clip-rule="evenodd" d="M60.2427 13.613L61.6141 12.7595L61.9755 12.6006L62.3357 12.4417L62.0014 12.6724L61.6683 12.902L60.2427 13.613Z" fill="#3498C1"/>
<path fill-rule="evenodd" clip-rule="evenodd" d="M60.0835 12.9832L61.5785 12.5429L61.9576 12.4935L62.3355 12.4417L61.967 12.57L61.5985 12.6995L60.0835 12.9832Z" fill="#3498C1"/>
<path fill-rule="evenodd" clip-rule="evenodd" d="M60.0815 12.3146L61.5966 12.3193L61.9662 12.3805L62.3359 12.4418L61.958 12.4606L61.5789 12.4794L60.0815 12.3146Z" fill="#3498C1"/>
<path fill-rule="evenodd" clip-rule="evenodd" d="M60.2295 11.6565L61.6633 12.1062L62 12.2734L62.3355 12.4417L61.9729 12.3499L61.6103 12.2569L60.2295 11.6565Z" fill="#3498C1"/>
<path fill-rule="evenodd" clip-rule="evenodd" d="M60.5239 11.0503L61.7765 11.9132L62.0566 12.178L62.3356 12.4417L62.0143 12.2451L61.6917 12.0474L60.5239 11.0503Z" fill="#3498C1"/>
<path fill-rule="evenodd" clip-rule="evenodd" d="M60.9409 10.5394L61.9286 11.7566L62.1322 12.1003L62.3359 12.4417L62.0769 12.1533L61.8167 11.8649L60.9409 10.5394Z" fill="#3498C1"/>
<path fill-rule="evenodd" clip-rule="evenodd" d="M61.4517 10.1603L62.1085 11.6483L62.2227 12.045L62.3357 12.4417L62.1556 12.0815L61.9779 11.7213L61.4517 10.1603Z" fill="#3498C1"/>
<path fill-rule="evenodd" clip-rule="evenodd" d="M62.0239 9.93549L62.3029 11.5941L62.3194 12.018L62.3359 12.4417L62.2488 12.0344L62.1628 11.6271L62.0239 9.93549Z" fill="#3498C1"/>
<path fill-rule="evenodd" clip-rule="evenodd" d="M62.6279 9.78954C63.9169 9.86253 64.8316 11.1092 64.6704 12.5736C64.5091 14.038 63.3342 15.167 62.0452 15.0952C60.755 15.0222 59.8415 13.7767 60.0016 12.3111C60.1629 10.8467 61.3377 9.71655 62.6279 9.78954ZM62.6067 9.98614C61.4119 9.91904 60.3242 10.9632 60.1746 12.3205C60.0251 13.6778 60.8727 14.8326 62.0676 14.8997C63.2612 14.9668 64.3513 13.9203 64.4997 12.5642C64.648 11.2069 63.8004 10.0532 62.6067 9.98614Z" fill="#3498C1"/>
<path fill-rule="evenodd" clip-rule="evenodd" d="M62.8867 9.92487C62.9491 9.9284 62.9927 9.98962 62.9856 10.0603C62.9774 10.1309 62.9209 10.185 62.8596 10.1815C62.7972 10.178 62.7525 10.1179 62.7607 10.0473C62.7666 9.97667 62.8231 9.92134 62.8867 9.92487Z" fill="#3498C1"/>
<path fill-rule="evenodd" clip-rule="evenodd" d="M63.4354 10.1226C63.4943 10.145 63.5226 10.2168 63.4978 10.2839C63.4743 10.351 63.4084 10.3887 63.3495 10.3663C63.2918 10.3451 63.2636 10.2721 63.2871 10.2062C63.3107 10.1379 63.3778 10.1014 63.4354 10.1226Z" fill="#3498C1"/>
<path fill-rule="evenodd" clip-rule="evenodd" d="M63.9101 10.4794C63.9596 10.5182 63.9702 10.5959 63.9313 10.6571C63.8925 10.716 63.8219 10.7336 63.7724 10.6948C63.7218 10.6571 63.7124 10.5771 63.75 10.5182C63.7889 10.4582 63.8595 10.4417 63.9101 10.4794Z" fill="#3498C1"/>
<path fill-rule="evenodd" clip-rule="evenodd" d="M64.2769 10.9702C64.3157 11.022 64.3063 11.1032 64.2569 11.1503C64.2074 11.1986 64.1356 11.1951 64.0968 11.1409C64.0579 11.0891 64.0673 11.0079 64.1168 10.9608C64.1662 10.9137 64.238 10.9172 64.2769 10.9702Z" fill="#3498C1"/>
<path fill-rule="evenodd" clip-rule="evenodd" d="M64.5115 11.56C64.5362 11.6224 64.5091 11.7013 64.4515 11.7331C64.3938 11.7648 64.3267 11.7401 64.302 11.6766C64.2772 11.6142 64.3055 11.5365 64.362 11.5035C64.422 11.4717 64.488 11.4976 64.5115 11.56Z" fill="#3498C1"/>
<path fill-rule="evenodd" clip-rule="evenodd" d="M64.5987 12.211C64.6069 12.2792 64.5645 12.3475 64.5021 12.3616C64.4398 12.3769 64.3833 12.3334 64.3738 12.2639C64.3644 12.1945 64.408 12.1262 64.4704 12.1109C64.5328 12.0968 64.5893 12.1403 64.5987 12.211Z" fill="#3498C1"/>
<path fill-rule="evenodd" clip-rule="evenodd" d="M64.5315 12.8761C64.5232 12.9479 64.4667 13.0009 64.4043 12.9973C64.3419 12.9938 64.2984 12.935 64.3054 12.8631C64.3137 12.7925 64.3702 12.7384 64.4314 12.7419C64.495 12.7454 64.5385 12.8055 64.5315 12.8761Z" fill="#3498C1"/>
<path fill-rule="evenodd" clip-rule="evenodd" d="M64.3139 13.513C64.2892 13.5813 64.2244 13.6177 64.1656 13.5954C64.1067 13.5742 64.0796 13.5012 64.1032 13.4341C64.1267 13.3682 64.1927 13.3317 64.2515 13.3517C64.3104 13.3741 64.3375 13.4447 64.3139 13.513Z" fill="#3498C1"/>
<path fill-rule="evenodd" clip-rule="evenodd" d="M63.9616 14.0769C63.9251 14.1357 63.8533 14.1534 63.8027 14.1157C63.7521 14.0768 63.7427 13.9968 63.7803 13.9379C63.818 13.8779 63.8898 13.8614 63.9392 13.9003C63.9899 13.9368 63.9993 14.0156 63.9616 14.0769Z" fill="#3498C1"/>
<path fill-rule="evenodd" clip-rule="evenodd" d="M63.4989 14.5289C63.4494 14.5771 63.3788 14.5736 63.3399 14.5194C63.3011 14.4665 63.3105 14.3864 63.36 14.3381C63.4106 14.2911 63.4812 14.2946 63.5189 14.3476C63.5577 14.3994 63.5483 14.4806 63.4989 14.5289Z" fill="#3498C1"/>
<path fill-rule="evenodd" clip-rule="evenodd" d="M62.9578 14.8385C62.9001 14.8702 62.833 14.8467 62.8095 14.782C62.7847 14.7196 62.8118 14.6419 62.8695 14.6101C62.9272 14.5783 62.9931 14.603 63.0178 14.6654C63.0425 14.7278 63.0155 14.8067 62.9578 14.8385Z" fill="#3498C1"/>
<path fill-rule="evenodd" clip-rule="evenodd" d="M62.3727 14.9856C62.3104 14.9998 62.2538 14.9562 62.2444 14.8879C62.235 14.8185 62.2797 14.7502 62.3421 14.7349C62.4045 14.7184 62.4622 14.7631 62.4704 14.8326C62.4787 14.9032 62.4351 14.9703 62.3727 14.9856Z" fill="#3498C1"/>
<path fill-rule="evenodd" clip-rule="evenodd" d="M61.7862 14.9598C61.725 14.9562 61.6802 14.895 61.6885 14.8244C61.6967 14.7526 61.7532 14.6984 61.8144 14.7019C61.8768 14.7055 61.9216 14.7655 61.9133 14.8373C61.9051 14.908 61.8486 14.9633 61.7862 14.9598Z" fill="#3498C1"/>
<path fill-rule="evenodd" clip-rule="evenodd" d="M61.2367 14.7608C61.179 14.7396 61.1508 14.6666 61.1743 14.5995C61.1979 14.5313 61.265 14.4948 61.3227 14.516C61.3803 14.5371 61.4086 14.6101 61.385 14.6772C61.3615 14.7455 61.2944 14.782 61.2367 14.7608Z" fill="#3498C1"/>
<path fill-rule="evenodd" clip-rule="evenodd" d="M60.7622 14.4041C60.7115 14.3652 60.7021 14.2864 60.7398 14.2275C60.7775 14.1675 60.8481 14.1498 60.8987 14.1899C60.9493 14.2275 60.9587 14.3064 60.9211 14.3653C60.8834 14.4253 60.8128 14.4429 60.7622 14.4041Z" fill="#3498C1"/>
<path fill-rule="evenodd" clip-rule="evenodd" d="M60.3961 13.9132C60.3572 13.8614 60.3667 13.7802 60.4161 13.7331C60.4644 13.686 60.5374 13.6895 60.575 13.7425C60.6139 13.7943 60.6044 13.8755 60.555 13.9226C60.5056 13.9709 60.4338 13.9673 60.3961 13.9132Z" fill="#3498C1"/>
<path fill-rule="evenodd" clip-rule="evenodd" d="M60.1609 13.3234C60.1361 13.261 60.1644 13.1833 60.2209 13.1504C60.2797 13.1186 60.3457 13.1445 60.3704 13.2069C60.3951 13.2693 60.368 13.347 60.3104 13.3799C60.2515 13.4117 60.1856 13.3858 60.1609 13.3234Z" fill="#3498C1"/>
<path fill-rule="evenodd" clip-rule="evenodd" d="M60.0745 12.6748C60.0651 12.6054 60.1087 12.5371 60.171 12.5218C60.2334 12.5053 60.29 12.5512 60.2994 12.6195C60.3088 12.6889 60.264 12.7572 60.2028 12.7725C60.1404 12.7866 60.0828 12.7431 60.0745 12.6748Z" fill="#3498C1"/>
<path fill-rule="evenodd" clip-rule="evenodd" d="M60.1404 12.0073C60.1486 11.9355 60.2052 11.8826 60.2675 11.8861C60.3299 11.8896 60.3747 11.9485 60.3664 12.0203C60.3582 12.0909 60.3017 12.1451 60.2393 12.1415C60.1769 12.138 60.1333 12.078 60.1404 12.0073Z" fill="#3498C1"/>
<path fill-rule="evenodd" clip-rule="evenodd" d="M60.3584 11.3717C60.382 11.3034 60.4479 11.2669 60.5056 11.2881C60.5644 11.3093 60.5915 11.3823 60.568 11.4494C60.5444 11.5176 60.4785 11.553 60.4196 11.5318C60.3631 11.5106 60.3349 11.4388 60.3584 11.3717Z" fill="#3498C1"/>
<path fill-rule="evenodd" clip-rule="evenodd" d="M60.7114 10.8066C60.749 10.7478 60.8197 10.7301 60.8703 10.769C60.9209 10.8066 60.9303 10.8855 60.8926 10.9467C60.8538 11.0056 60.7832 11.0221 60.7337 10.9844C60.6819 10.9467 60.6725 10.8655 60.7114 10.8066Z" fill="#3498C1"/>
<path fill-rule="evenodd" clip-rule="evenodd" d="M61.1729 10.3557C61.2224 10.3086 61.2942 10.3122 61.3318 10.3651C61.3707 10.4181 61.3625 10.4993 61.3118 10.5453C61.2624 10.5935 61.1906 10.59 61.1529 10.5358C61.1152 10.484 61.1235 10.4028 61.1729 10.3557Z" fill="#3498C1"/>
<path fill-rule="evenodd" clip-rule="evenodd" d="M61.7159 10.045C61.7735 10.012 61.8395 10.0379 61.8642 10.1003C61.8889 10.1627 61.8607 10.2415 61.8041 10.2733C61.7465 10.3051 61.6805 10.2816 61.6546 10.2168C61.6311 10.1556 61.657 10.0779 61.7159 10.045Z" fill="#3498C1"/>
<path fill-rule="evenodd" clip-rule="evenodd" d="M62.2995 9.89783C62.3618 9.8837 62.4183 9.92725 62.4278 9.99788C62.436 10.0673 62.3925 10.1344 62.3301 10.1497C62.2688 10.1639 62.2112 10.1203 62.2029 10.0509C62.1935 9.9814 62.2382 9.91313 62.2995 9.89783Z" fill="#3498C1"/>
<path fill-rule="evenodd" clip-rule="evenodd" d="M62.3726 12.118C62.5303 12.1274 62.641 12.2793 62.6221 12.4571C62.6021 12.636 62.4585 12.7737 62.3019 12.7643C62.1454 12.7549 62.0335 12.6042 62.0524 12.4253C62.0712 12.2475 62.2148 12.1098 62.3726 12.118Z" fill="#3498C1"/>
<path d="M40.957 43.3691L49.1527 0.592133" stroke="#0047AB" stroke-miterlimit="10" stroke-linecap="round" stroke-linejoin="round"/>
<path opacity="0.31" d="M18.5137 78.4035L18.4784 78.3141L4.38505 44.3908L0 33.3511L9.08441 30.1362C9.20566 33.4182 9.51527 38.8627 10.2946 44.0141L10.2852 43.8752C11.2093 51.261 12.7514 59.6814 15.267 68.4621C15.267 68.4621 15.3483 68.7447 15.4683 69.1531C15.5849 69.5616 15.7462 70.0902 15.8992 70.6058C15.8992 70.6058 15.8992 70.6105 15.8992 70.6152C16.1099 71.3145 16.33 72.0231 16.5584 72.7271C17.16 74.6094 17.8098 76.5024 18.5137 78.4035Z" fill="#2A72DA"/>
<path d="M26.4035 17.7921C31.4941 17.7921 35.6209 13.8092 35.6209 8.89607C35.6209 3.9829 31.4941 0 26.4035 0C21.3128 0 17.186 3.9829 17.186 8.89607C17.186 13.8092 21.3128 17.7921 26.4035 17.7921Z" fill="#0047AB"/>
<path d="M50.7289 71.3722L45.1242 74.188C43.4962 71.0897 40.0352 69.0355 36.1199 69.3451C31.537 69.7123 27.883 73.3946 27.6947 77.8291C27.6229 79.4842 28.0172 81.044 28.7706 82.399L28.3892 82.5873L25.3933 84.0894H25.3886L21.5862 86L18.5149 78.4036C17.8109 76.5024 17.1611 74.6095 16.5596 72.7271C16.3312 72.0232 16.1111 71.3145 15.9004 70.6152C15.9004 70.6105 15.9004 70.6058 15.9004 70.6058C15.7485 70.0902 15.586 69.5605 15.4695 69.1532C15.3483 68.7447 15.2682 68.4622 15.2682 68.4622C12.7525 59.6826 11.2104 51.261 10.2863 43.8753L10.2957 44.0142C9.51525 38.8616 9.20565 33.4182 9.08558 30.1362C9.01377 28.2527 9.00435 27.0826 9.00435 27.0826C8.96432 25.6123 8.9502 24.2891 8.9502 23.1143C8.9502 22.4056 8.95019 21.751 8.96314 21.1589C8.99846 18.8092 9.0844 17.4143 9.09734 17.2224C9.09734 17.2047 9.09734 17.1953 9.09734 17.1953L14.0074 17.864L16.4866 18.276C16.4689 18.4961 16.4595 18.7151 16.4595 18.9352C16.4595 23.85 20.5844 27.8313 25.6746 27.8313C29.9208 27.8313 33.49 25.0649 34.5624 21.2978L37.2076 21.7416L41.2477 22.4503V22.468C41.2383 22.6022 41.1312 24.5893 41.1441 27.7771C41.1441 27.7771 41.3819 36.7721 41.7633 40.2436C42.2389 45.1631 43.0453 50.6159 44.4179 55.9474C44.4226 55.9651 44.4273 55.9745 44.4309 55.9921C44.9465 58.0864 45.0183 58.1535 45.023 58.1535C46.3921 62.8976 48.2438 67.4627 50.7289 71.3722Z" fill="#6495ED"/>
<path d="M21.5864 86C20.4658 83.4714 19.4428 80.9334 18.5151 78.4036L21.5864 86Z" fill="#0047AB"/>
<defs>
<linearGradient id="paint0_linear_26_3761" x1="200" y1="46.5" x2="40" y2="46.5" gradientUnits="userSpaceOnUse">
<stop stop-color="#0047AB" stop-opacity="0.25"/>
<stop offset="1" stop-color="#D9D9D9" stop-opacity="0"/>
</linearGradient>
<linearGradient id="paint1_linear_26_3761" x1="200" y1="53" x2="40" y2="53" gradientUnits="userSpaceOnUse">
<stop stop-color="#0047AB"/>
<stop offset="1" stop-color="white"/>
</linearGradient>
</defs>
</svg>
