<svg width="201" height="78" viewBox="0 0 201 78" fill="none" xmlns="http://www.w3.org/2000/svg">
<path d="M104.111 53.7476C101.426 50.4823 99.0674 47.0163 97.2256 43.1556L89.6855 30.0473L96.0753 18.9239C98.7601 14.568 100.602 12.0945 102.442 10.8054H90.9362C91.9328 12.6856 92.4685 13.7762 92.4685 14.2714C92.4685 14.965 92.238 15.8549 91.7023 16.9455L91.5487 17.144L87.7839 25.8942L83.4942 17.2443C82.9585 16.1558 82.6512 15.0653 82.6512 14.2735C82.6512 13.3835 83.1122 12.2951 84.0299 10.8076H68.8387C71.0647 13.2832 72.8296 15.9574 74.9766 20.4114L81.8402 32.6382L75.1794 45.0379C72.7251 49.2935 70.8064 51.8695 68.8878 53.7476H80.4722C79.4734 52.0658 78.8609 50.8771 78.8609 50.0853C78.8609 49.2935 79.0914 48.2072 79.627 47.3151L84.0214 36.0231L89.4465 47.0185L89.6001 47.3151C90.138 48.4036 90.3685 49.3938 90.3685 50.0853C90.3685 50.8771 89.8306 52.0658 88.9108 53.7476H104.111Z" fill="#6495ED"/>
<path d="M150.124 17.8269C150.124 17.8269 150.124 14.3461 152.405 10.8054H142.564V10.91L131.065 43.0318L115.296 10.8054H106.834C108.43 13.4454 109.006 15.4281 109.017 19.4468V45.1318C108.876 49.285 108.607 50.9518 106.782 53.7732H116.566C114.792 51.0713 114.195 48.9649 114.169 45.1318V25.7469L123.948 49.5731C123.948 49.5731 124.991 52.0317 126.575 52.9942C128.261 54.0144 131.242 54.0741 131.242 54.0741L142.564 24.5838V46.8157C142.56 47.3514 142.453 51.21 140.223 53.7732H152.405C150.124 50.2304 150.124 46.7496 150.124 46.7496V17.8248V17.8269Z" fill="#0047AB"/>
<path d="M177.093 48.7343C177.093 48.7343 176.709 48.9904 176.131 49.2764C175.435 49.62 174.571 49.6371 174.571 49.6371H165.33V34.2132H171.632C171.632 34.2132 175.113 34.2132 178.653 36.4947V27.7317C176.092 29.9619 172.234 30.0686 171.696 30.0729H165.332V14.95H174.573C174.573 14.95 175.437 14.9649 176.133 15.3106C176.711 15.5966 177.095 15.8485 177.095 15.8485L180.875 18.7894L183.997 10.8096H154.77C157 13.3707 157.107 17.2293 157.111 17.7671V46.8199C157.107 47.3556 157 51.2142 154.77 53.7774H183.997L180.875 45.7955L177.095 48.7364L177.093 48.7343Z" fill="#0047AB"/>
<path d="M0.111111 10.7904L3.17155 18.7702L6.95334 15.8293C6.95334 15.8293 7.33323 15.5753 7.9116 15.2915C8.60735 14.9457 9.47169 14.9308 9.47169 14.9308H14.2331V46.8007C14.2288 47.3364 14.1221 51.195 11.8919 53.7582H24.7355C22.454 50.2154 22.454 46.7346 22.454 46.7346V14.9286H27.3755C27.3755 14.9286 28.2398 14.9436 28.9356 15.2893C29.5139 15.5753 29.8938 15.8271 29.8938 15.8271L33.6756 18.7681L36.9153 10.7883H0.111111V10.7904Z" fill="#6495ED"/>
<path opacity="0.31" d="M61.8386 36.7594L57.0067 34.4203L51.5539 40.9232L50.6383 39.6235L51.778 30.8818L47.2641 17.2955L36.9197 20.9578L39.6749 27.894L48.5297 49.2103L50.4825 54.04L50.7087 52.6378L52.8664 44.4105L55.882 41.0619L61.2666 40.6479L52.6914 34.7127L61.8386 36.7594Z" fill="#6495ED"/>
<path d="M53.5087 11.1789C56.7077 11.1789 59.3009 8.67643 59.3009 5.58946C59.3009 2.50249 56.7077 0 53.5087 0C50.3098 0 47.7165 2.50249 47.7165 5.58946C47.7165 8.67643 50.3098 11.1789 53.5087 11.1789Z" fill="#0047AB"/>
<path d="M68.7964 44.8501L65.2729 46.6194C64.2485 44.6708 62.0758 43.3797 59.6151 43.576C56.7361 43.8065 54.4397 46.1221 54.3202 48.9072C54.2754 49.9466 54.5229 50.9283 54.9967 51.7777L54.7577 51.8972L52.8753 52.8405L50.485 54.04C49.2515 51.2548 48.2078 48.459 47.3264 45.6995C47.1834 45.2578 47.0447 44.8117 46.9124 44.3699V44.3657C46.8142 44.0413 46.716 43.7083 46.6413 43.4501C46.5666 43.194 46.5154 43.0168 46.5154 43.0168C44.934 37.4999 43.9672 32.2093 43.3867 27.5674L43.391 27.657C42.6184 22.5627 42.58 17.0159 42.58 17.0159C42.5543 16.094 42.5479 15.2595 42.5479 14.5232C42.5479 14.0771 42.5479 13.6652 42.5565 13.2939C42.58 11.817 42.6333 10.9441 42.6397 10.8204V10.8054L45.7258 11.2237L47.2837 11.4841C47.2731 11.6207 47.2667 11.7594 47.2667 11.8981C47.2667 14.9863 49.8597 17.4876 53.0567 17.4876C55.7245 17.4876 57.9675 15.7504 58.6398 13.3835L60.3045 13.661L62.8442 14.107V14.1177C62.8377 14.2052 62.7695 15.4516 62.778 17.4556C62.778 17.4556 62.9252 23.1069 63.1643 25.2881C63.4652 28.3805 63.9731 31.8059 64.8332 35.1545C64.8375 35.1651 64.8396 35.1737 64.8418 35.1843C65.1662 36.5011 65.211 36.5417 65.2131 36.5417C66.0753 39.5232 67.2363 42.3915 68.7986 44.848L68.7964 44.8501Z" fill="#6495ED"/>
<path d="M2.321 73L0.165 65.3H1.76L3.234 71.009L4.84 65.3H6.138L7.755 71.009L9.229 65.3H10.824L8.668 73H6.941L5.489 67.918L4.048 73H2.321ZM16.0823 65.3H17.5893V73H16.0823V69.81H13.2223V73H11.7043V65.3H13.2223V68.358H16.0823V65.3ZM20.5377 71.548H23.7827V73H19.0197V65.3H23.7277V66.752H20.5377V68.391H23.4527V69.821H20.5377V71.548ZM29.0767 73L27.5257 70.327H26.3707V73H24.8527V65.3H27.9327C28.644 65.3 29.249 65.5493 29.7477 66.048C30.2464 66.5467 30.4957 67.148 30.4957 67.852C30.4957 68.3287 30.36 68.7723 30.0887 69.183C29.8174 69.5863 29.458 69.8907 29.0107 70.096L30.7157 73H29.0767ZM26.3707 66.719V68.996H27.9327C28.2187 68.996 28.4644 68.886 28.6697 68.666C28.875 68.4387 28.9777 68.1673 28.9777 67.852C28.9777 67.5367 28.875 67.269 28.6697 67.049C28.4644 66.829 28.2187 66.719 27.9327 66.719H26.3707ZM33.1275 71.548H36.3725V73H31.6095V65.3H36.3175V66.752H33.1275V68.391H36.0425V69.821H33.1275V71.548ZM41.7105 71.548H44.9555V73H40.1925V65.3H44.9005V66.752H41.7105V68.391H44.6255V69.821H41.7105V71.548ZM47.9285 73L45.3435 65.3H46.9935L48.8745 71.218L50.7445 65.3H52.4055L49.8095 73H47.9285ZM54.6656 71.548H57.9106V73H53.1476V65.3H57.8556V66.752H54.6656V68.391H57.5806V69.821H54.6656V71.548ZM63.2046 73L61.6536 70.327H60.4986V73H58.9806V65.3H62.0606C62.772 65.3 63.377 65.5493 63.8756 66.048C64.3743 66.5467 64.6236 67.148 64.6236 67.852C64.6236 68.3287 64.488 68.7723 64.2166 69.183C63.9453 69.5863 63.586 69.8907 63.1386 70.096L64.8436 73H63.2046ZM60.4986 66.719V68.996H62.0606C62.3466 68.996 62.5923 68.886 62.7976 68.666C63.003 68.4387 63.1056 68.1673 63.1056 67.852C63.1056 67.5367 63.003 67.269 62.7976 67.049C62.5923 66.829 62.3466 66.719 62.0606 66.719H60.4986ZM71.6166 65.3L68.9766 69.997V73H67.4696V69.997L64.8406 65.3H66.5566L68.2286 68.512L69.9006 65.3H71.6166ZM118.268 65.3V66.752H116.189V73H114.671V66.752H112.603V65.3H118.268ZM120.633 71.548H123.878V73H119.115V65.3H123.823V66.752H120.633V68.391H123.548V69.821H120.633V71.548ZM126.466 71.548H129.403V73H124.948V65.3H126.466V71.548ZM131.784 71.548H134.721V73H130.266V65.3H131.784V71.548ZM138.073 73.154C137.31 73.154 136.668 72.9853 136.148 72.648C135.627 72.3033 135.26 71.8377 135.048 71.251L136.346 70.492C136.646 71.2767 137.237 71.669 138.117 71.669C138.542 71.669 138.854 71.592 139.052 71.438C139.25 71.284 139.349 71.0897 139.349 70.855C139.349 70.5837 139.228 70.3747 138.986 70.228C138.744 70.074 138.311 69.909 137.688 69.733C137.343 69.6303 137.05 69.5277 136.808 69.425C136.573 69.3223 136.335 69.1867 136.093 69.018C135.858 68.842 135.678 68.622 135.554 68.358C135.429 68.094 135.367 67.786 135.367 67.434C135.367 66.7373 135.612 66.1837 136.104 65.773C136.602 65.355 137.2 65.146 137.897 65.146C138.52 65.146 139.066 65.3 139.536 65.608C140.012 65.9087 140.383 66.3303 140.647 66.873L139.371 67.61C139.063 66.95 138.571 66.62 137.897 66.62C137.581 66.62 137.332 66.6933 137.149 66.84C136.973 66.9793 136.885 67.1627 136.885 67.39C136.885 67.632 136.984 67.83 137.182 67.984C137.387 68.1307 137.776 68.292 138.348 68.468C138.582 68.5413 138.758 68.6 138.876 68.644C139 68.6807 139.165 68.743 139.371 68.831C139.583 68.9117 139.745 68.9887 139.855 69.062C139.972 69.1353 140.104 69.2343 140.251 69.359C140.397 69.4837 140.507 69.612 140.581 69.744C140.661 69.876 140.727 70.0373 140.779 70.228C140.837 70.4113 140.867 70.613 140.867 70.833C140.867 71.5443 140.606 72.109 140.086 72.527C139.572 72.945 138.901 73.154 138.073 73.154ZM149.557 73L149.095 71.614H146.026L145.564 73H143.925L146.62 65.3H148.501L151.207 73H149.557ZM146.51 70.195H148.622L147.566 67.049L146.51 70.195ZM157.333 73.154C156.571 73.154 155.929 72.9853 155.408 72.648C154.888 72.3033 154.521 71.8377 154.308 71.251L155.606 70.492C155.907 71.2767 156.497 71.669 157.377 71.669C157.803 71.669 158.114 71.592 158.312 71.438C158.51 71.284 158.609 71.0897 158.609 70.855C158.609 70.5837 158.488 70.3747 158.246 70.228C158.004 70.074 157.572 69.909 156.948 69.733C156.604 69.6303 156.31 69.5277 156.068 69.425C155.834 69.3223 155.595 69.1867 155.353 69.018C155.119 68.842 154.939 68.622 154.814 68.358C154.69 68.094 154.627 67.786 154.627 67.434C154.627 66.7373 154.873 66.1837 155.364 65.773C155.863 65.355 156.461 65.146 157.157 65.146C157.781 65.146 158.327 65.3 158.796 65.608C159.273 65.9087 159.643 66.3303 159.907 66.873L158.631 67.61C158.323 66.95 157.832 66.62 157.157 66.62C156.842 66.62 156.593 66.6933 156.409 66.84C156.233 66.9793 156.145 67.1627 156.145 67.39C156.145 67.632 156.244 67.83 156.442 67.984C156.648 68.1307 157.036 68.292 157.608 68.468C157.843 68.5413 158.019 68.6 158.136 68.644C158.261 68.6807 158.426 68.743 158.631 68.831C158.844 68.9117 159.005 68.9887 159.115 69.062C159.233 69.1353 159.365 69.2343 159.511 69.359C159.658 69.4837 159.768 69.612 159.841 69.744C159.922 69.876 159.988 70.0373 160.039 70.228C160.098 70.4113 160.127 70.613 160.127 70.833C160.127 71.5443 159.867 72.109 159.346 72.527C158.833 72.945 158.162 73.154 157.333 73.154ZM165.931 65.3V66.752H163.852V73H162.334V66.752H160.266V65.3H165.931ZM172.817 71.999C172.04 72.769 171.094 73.154 169.979 73.154C168.864 73.154 167.918 72.769 167.141 71.999C166.371 71.2217 165.986 70.272 165.986 69.15C165.986 68.028 166.371 67.082 167.141 66.312C167.918 65.5347 168.864 65.146 169.979 65.146C171.094 65.146 172.04 65.5347 172.817 66.312C173.594 67.082 173.983 68.028 173.983 69.15C173.983 70.272 173.594 71.2217 172.817 71.999ZM168.208 70.965C168.685 71.4343 169.275 71.669 169.979 71.669C170.683 71.669 171.273 71.4343 171.75 70.965C172.227 70.4883 172.465 69.8833 172.465 69.15C172.465 68.4167 172.227 67.8117 171.75 67.335C171.273 66.8583 170.683 66.62 169.979 66.62C169.275 66.62 168.685 66.8583 168.208 67.335C167.731 67.8117 167.493 68.4167 167.493 69.15C167.493 69.8833 167.731 70.4883 168.208 70.965ZM179.274 73L177.723 70.327H176.568V73H175.05V65.3H178.13C178.841 65.3 179.446 65.5493 179.945 66.048C180.444 66.5467 180.693 67.148 180.693 67.852C180.693 68.3287 180.557 68.7723 180.286 69.183C180.015 69.5863 179.655 69.8907 179.208 70.096L180.913 73H179.274ZM176.568 66.719V68.996H178.13C178.416 68.996 178.662 68.886 178.867 68.666C179.072 68.4387 179.175 68.1673 179.175 67.852C179.175 67.5367 179.072 67.269 178.867 67.049C178.662 66.829 178.416 66.719 178.13 66.719H176.568ZM187.686 65.3L185.046 69.997V73H183.539V69.997L180.91 65.3H182.626L184.298 68.512L185.97 65.3H187.686ZM188.622 70.415L188.325 67.5V65.3H190.03V67.5L189.744 70.415H188.622ZM189.843 72.868C189.66 73.0513 189.44 73.143 189.183 73.143C188.926 73.143 188.706 73.0513 188.523 72.868C188.34 72.6847 188.248 72.4647 188.248 72.208C188.248 71.9513 188.34 71.7313 188.523 71.548C188.706 71.3647 188.926 71.273 189.183 71.273C189.44 71.273 189.66 71.3647 189.843 71.548C190.026 71.7313 190.118 71.9513 190.118 72.208C190.118 72.4647 190.026 72.6847 189.843 72.868Z" fill="#0047AB"/>
<path d="M80.1976 65.3V66.752H78.1186V73H76.6006V66.752H74.5326V65.3H80.1976ZM81.0451 65.3H82.5631V73H81.0451V65.3ZM87.6404 73.154C86.4818 73.154 85.5248 72.769 84.7694 71.999C84.0141 71.229 83.6364 70.2793 83.6364 69.15C83.6364 68.0133 84.0141 67.0637 84.7694 66.301C85.5248 65.531 86.4818 65.146 87.6404 65.146C88.3371 65.146 88.9788 65.311 89.5654 65.641C90.1594 65.9637 90.6214 66.4037 90.9514 66.961L89.6424 67.72C89.4518 67.3753 89.1804 67.1077 88.8284 66.917C88.4764 66.719 88.0804 66.62 87.6404 66.62C86.8924 66.62 86.2874 66.8547 85.8254 67.324C85.3708 67.7933 85.1434 68.402 85.1434 69.15C85.1434 69.8907 85.3708 70.4957 85.8254 70.965C86.2874 71.4343 86.8924 71.669 87.6404 71.669C88.0804 71.669 88.4764 71.5737 88.8284 71.383C89.1878 71.185 89.4591 70.9173 89.6424 70.58L90.9514 71.339C90.6214 71.8963 90.1631 72.34 89.5764 72.67C88.9898 72.9927 88.3444 73.154 87.6404 73.154ZM97.9009 73H96.1519L93.4019 69.392V73H91.8839V65.3H93.4019V68.699L96.0419 65.3H97.7909L94.9419 69.04L97.9009 73ZM100.17 71.548H103.415V73H98.6515V65.3H103.36V66.752H100.17V68.391H103.085V69.821H100.17V71.548ZM109.578 65.3V66.752H107.499V73H105.981V66.752H103.913V65.3H109.578Z" fill="#6495ED"/>
</svg>
