<svg width="1223" height="537" viewBox="0 0 1223 537" fill="none" xmlns="http://www.w3.org/2000/svg">
<path d="M1159.86 166.114C1159.83 270.508 1159.78 374.88 1159.78 479.249C1153.17 479.589 1133.77 481.803 1118.81 496.933C1103.86 511.989 1103.4 529.818 1103.86 536.895C932.991 536.92 762.122 536.943 591.255 536.968V115.57H642.146C738.63 115.57 835.089 115.545 931.573 115.522C990.409 115.547 1049.28 115.57 1108.11 115.57C1108.7 121.311 1111.22 136.172 1124.62 149.161C1137.49 161.563 1152.82 165.043 1159.86 166.114Z" fill="url(#paint0_linear_26_3065)"/>
<path d="M0 166.114C0.026123 270.517 0.0834961 374.898 0.0834961 479.276C6.96094 479.616 27.1439 481.83 42.7062 496.961C58.2685 512.019 58.7413 529.85 58.2685 536.927C236.057 536.952 413.848 536.975 591.637 537V115.565H538.684C438.291 115.565 337.925 115.54 237.533 115.517C176.313 115.542 115.061 115.565 53.8409 115.565C53.2297 121.307 50.6127 136.169 36.6646 149.159C23.2729 161.563 7.32141 165.043 0 166.114Z" fill="url(#paint1_linear_26_3065)"/>
<mask id="path-3-inside-1_26_3065" fill="white">
<path d="M1059.31 151.421H92.7448C66.9362 151.421 46.0508 170.028 46.0508 192.991V447.062C46.0508 470.001 66.9362 488.608 92.7448 488.608H1059.31C1085.12 488.608 1106 470.001 1106 447.062V192.991C1106 170.028 1085.12 151.421 1059.31 151.421ZM1100.93 441.776C1100.93 474.168 1078.42 482.363 1055.27 482.363H574.465H96.7848C60.4905 483.924 51.1242 463.241 51.1242 441.386V198.253C51.1242 170.154 69.5945 156.495 92.7448 156.495H574.465H1055.27C1078.42 156.495 1100.93 177.241 1100.93 197.863V320.795V441.776Z"/>
</mask>
<path d="M1059.31 151.421H92.7448C66.9362 151.421 46.0508 170.028 46.0508 192.991V447.062C46.0508 470.001 66.9362 488.608 92.7448 488.608H1059.31C1085.12 488.608 1106 470.001 1106 447.062V192.991C1106 170.028 1085.12 151.421 1059.31 151.421ZM1100.93 441.776C1100.93 474.168 1078.42 482.363 1055.27 482.363H574.465H96.7848C60.4905 483.924 51.1242 463.241 51.1242 441.386V198.253C51.1242 170.154 69.5945 156.495 92.7448 156.495H574.465H1055.27C1078.42 156.495 1100.93 177.241 1100.93 197.863V320.795V441.776Z" fill="white"/>
<path d="M96.7848 482.363V466.363H96.4409L96.0973 466.378L96.7848 482.363ZM1059.31 135.421H92.7448V167.421H1059.31V135.421ZM92.7448 135.421C59.8956 135.421 30.0508 159.496 30.0508 192.991H62.0508C62.0508 180.559 73.9768 167.421 92.7448 167.421V135.421ZM30.0508 192.991V447.062H62.0508V192.991H30.0508ZM30.0508 447.062C30.0508 480.538 59.9019 504.608 92.7448 504.608V472.608C73.9705 472.608 62.0508 459.464 62.0508 447.062H30.0508ZM92.7448 504.608H1059.31V472.608H92.7448V504.608ZM1059.31 504.608C1092.15 504.608 1122 480.538 1122 447.062H1090C1090 459.464 1078.08 472.608 1059.31 472.608V504.608ZM1122 447.062V192.991H1090V447.062H1122ZM1122 192.991C1122 159.497 1092.16 135.421 1059.31 135.421V167.421C1078.08 167.421 1090 180.559 1090 192.991H1122ZM1084.93 441.776C1084.93 453.81 1081.04 458.65 1077.47 461.206C1072.9 464.473 1065.45 466.363 1055.27 466.363V498.363C1068.25 498.363 1083.62 496.156 1096.09 487.228C1109.56 477.587 1116.93 462.134 1116.93 441.776H1084.93ZM96.0973 466.378C81.0331 467.026 74.9758 463.021 72.2818 460.002C69.1344 456.475 67.1242 450.463 67.1242 441.386H35.1242C35.1242 454.163 37.7971 469.42 48.4064 481.309C59.4691 493.705 76.2422 499.262 97.4723 498.349L96.0973 466.378ZM67.1242 441.386V198.253H35.1242V441.386H67.1242ZM67.1242 198.253C67.1242 187.891 70.4063 182.005 74.1002 178.599C78.0112 174.992 84.2155 172.495 92.7448 172.495V140.495C78.1238 140.495 63.5178 144.827 52.4061 155.075C41.0772 165.523 35.1242 180.516 35.1242 198.253H67.1242ZM1055.27 172.495C1062.19 172.495 1069.9 175.708 1076 181.272C1082.22 186.937 1084.93 193.273 1084.93 197.863H1116.93C1116.93 181.831 1108.38 167.483 1097.56 157.619C1086.62 147.655 1071.5 140.495 1055.27 140.495V172.495ZM92.7448 172.495H574.465V140.495H92.7448V172.495ZM574.465 172.495H1055.27V140.495H574.465V172.495ZM1055.27 466.363H574.465V498.363H1055.27V466.363ZM574.465 466.363H96.7848V498.363H574.465V466.363ZM1084.93 197.863V320.795H1116.93V197.863H1084.93ZM1084.93 320.795V441.776H1116.93V320.795H1084.93Z" fill="white" mask="url(#path-3-inside-1_26_3065)"/>
<path opacity="0.31" d="M1160.78 324.909L1118.08 304.234L1069.88 361.712L1061.79 350.224L1071.86 272.958L1031.96 152.871L940.531 185.241L964.884 246.549L1043.15 434.96L1060.41 477.649L1062.41 465.255L1081.48 392.536L1108.14 362.938L1155.73 359.279L1079.93 306.819L1160.78 324.909Z" fill="#010101" fill-opacity="0.3"/>
<path d="M1087.16 98.8085C1115.43 98.8085 1138.36 76.6894 1138.36 49.4042C1138.36 22.119 1115.43 0 1087.16 0C1058.88 0 1035.96 22.119 1035.96 49.4042C1035.96 76.6894 1058.88 98.8085 1087.16 98.8085Z" fill="#0047AB"/>
<path d="M1222.28 396.421L1191.14 412.059C1182.08 394.836 1162.88 383.424 1141.13 385.159C1115.68 387.196 1095.38 407.664 1094.33 432.281C1093.93 441.467 1096.12 450.145 1100.31 457.653L1098.2 458.709L1081.56 467.047L1060.43 477.648C1049.53 453.031 1040.3 428.319 1032.51 403.929C1031.25 400.024 1030.02 396.081 1028.85 392.176V392.139C1027.98 389.271 1027.12 386.329 1026.46 384.046C1025.8 381.782 1025.34 380.217 1025.34 380.217C1011.37 331.454 1002.82 284.691 997.689 243.662L997.727 244.454C990.898 199.426 990.558 150.399 990.558 150.399C990.332 142.25 990.275 134.874 990.275 128.366C990.275 124.424 990.275 120.783 990.351 117.501C990.558 104.447 991.03 96.7319 991.087 95.6378V95.5057L1018.36 99.203L1032.13 101.504C1032.04 102.712 1031.98 103.938 1031.98 105.164C1031.98 132.46 1054.9 154.568 1083.16 154.568C1106.74 154.568 1126.57 139.213 1132.51 118.293L1147.22 120.745L1169.67 124.688V124.782C1169.61 125.556 1169.01 136.572 1169.09 154.285C1169.09 154.285 1170.39 204.237 1172.5 223.515C1175.16 250.849 1179.65 281.125 1187.25 310.723C1187.29 310.817 1187.31 310.892 1187.33 310.987C1190.19 322.626 1190.59 322.984 1190.61 322.984C1198.23 349.337 1208.49 374.69 1222.3 396.402L1222.28 396.421Z" fill="#6495ED"/>
<defs>
<linearGradient id="paint0_linear_26_3065" x1="875.556" y1="115.522" x2="875.556" y2="536.968" gradientUnits="userSpaceOnUse">
<stop stop-color="#0047AB" stop-opacity="0.15"/>
<stop offset="1" stop-color="#0047AB" stop-opacity="0.15"/>
</linearGradient>
<linearGradient id="paint1_linear_26_3065" x1="295.818" y1="115.517" x2="295.818" y2="537" gradientUnits="userSpaceOnUse">
<stop stop-color="#0047AB" stop-opacity="0.15"/>
<stop offset="1" stop-color="#0047AB" stop-opacity="0.15"/>
</linearGradient>
</defs>
</svg>
