<svg width="151" height="108" viewBox="0 0 151 108" fill="none" xmlns="http://www.w3.org/2000/svg">
<path opacity="0.31" d="M44.3725 77.2287L35.7686 73.0636L26.0589 84.6431L24.4285 82.3287L26.4579 66.7627L18.4203 42.57L0.000244141 49.0913L4.90642 61.4423L20.6738 99.3996L24.1511 108L24.5539 105.503L28.396 90.8528L33.7659 84.8901L43.354 84.1529L28.0844 73.5842L44.3725 77.2287Z" fill="white"/>
<path d="M29.5398 31.6785C35.236 31.6785 39.8538 27.2224 39.8538 21.7255C39.8538 16.2286 35.236 11.7725 29.5398 11.7725C23.8435 11.7725 19.2258 16.2286 19.2258 21.7255C19.2258 27.2224 23.8435 31.6785 29.5398 31.6785Z" fill="#0047AB"/>
<path d="M56.7609 91.6358L50.4866 94.7863C48.6625 91.3166 44.7938 89.0174 40.4121 89.3671C35.2855 89.7775 31.1964 93.9008 30.9835 98.8602C30.9037 100.711 31.3446 102.459 32.1882 103.972L31.7626 104.184L28.4107 105.864L24.1544 108C21.9578 103.041 20.0995 98.0621 18.53 93.1484C18.2754 92.3617 18.0283 91.5674 17.7927 90.7808V90.7732C17.6179 90.1955 17.4431 89.6027 17.3101 89.1429C17.1771 88.6868 17.0859 88.3714 17.0859 88.3714C14.2698 78.5476 12.5483 69.1267 11.5146 60.8611L11.5222 61.0207C10.1465 51.9494 10.0781 42.0724 10.0781 42.0724C10.0325 40.4307 10.0211 38.9448 10.0211 37.6337C10.0211 36.8394 10.0211 36.106 10.0363 35.4447C10.0781 32.8149 10.1731 31.2606 10.1845 31.0402V31.0136L15.6798 31.7584L18.454 32.2221C18.435 32.4653 18.4236 32.7123 18.4236 32.9593C18.4236 38.4583 23.0409 42.9123 28.7338 42.9123C33.4841 42.9123 37.4782 39.8188 38.6753 35.6043L41.6396 36.0984L46.1619 36.8926V36.9116C46.1505 37.0674 46.0289 39.2868 46.0441 42.8553C46.0441 42.8553 46.3063 52.9185 46.732 56.8024C47.2678 62.309 48.1723 68.4084 49.7038 74.3711C49.7114 74.3901 49.7152 74.4053 49.719 74.4243C50.2966 76.7691 50.3764 76.8413 50.3802 76.8413C51.9156 82.1503 53.9829 87.2579 56.7647 91.632L56.7609 91.6358Z" fill="#6495ED"/>
<path opacity="0.31" d="M106.573 65.4562L115.177 61.2911L124.887 72.8706L126.517 70.5562L124.488 54.9902L132.525 30.7975L150.945 37.3188L146.039 49.6698L130.272 87.6271L126.794 96.2272L126.392 93.7304L122.549 79.0802L117.18 73.1176L107.592 72.3803L122.861 61.8117L106.573 65.4562Z" fill="white"/>
<path d="M121.406 19.9059C115.709 19.9059 111.092 15.4498 111.092 9.95297C111.092 4.4561 115.709 0 121.406 0C127.102 0 131.72 4.4561 131.72 9.95297C131.72 15.4498 127.102 19.9059 121.406 19.9059Z" fill="#0047AB"/>
<path d="M94.1846 79.8633L100.459 83.0138C102.283 79.5441 106.152 77.2449 110.533 77.5945C115.66 78.005 119.749 82.1283 119.962 87.0877C120.042 88.9384 119.601 90.6866 118.757 92.1991L119.183 92.4119L122.535 94.0916L126.791 96.2274C128.988 91.268 130.846 86.2896 132.416 81.3758C132.67 80.5892 132.917 79.7949 133.153 79.0083V79.0007C133.328 78.423 133.502 77.8302 133.635 77.3703C133.768 76.9143 133.86 76.5989 133.86 76.5989C136.676 66.7751 138.397 57.3542 139.431 49.0885L139.423 49.2482C140.799 40.1769 140.867 30.2999 140.867 30.2999C140.913 28.6582 140.924 27.1723 140.924 25.8612C140.924 25.0669 140.924 24.3334 140.909 23.6722C140.867 21.0424 140.772 19.4881 140.761 19.2676V19.241L135.266 19.9859L132.492 20.4495C132.511 20.6928 132.522 20.9398 132.522 21.1868C132.522 26.6858 127.905 31.1398 122.212 31.1398C117.461 31.1398 113.467 28.0463 112.27 23.8318L109.306 24.3258L104.784 25.1201V25.1391C104.795 25.2949 104.917 27.5143 104.901 31.0828C104.901 31.0828 104.639 41.1459 104.214 45.0298C103.678 50.5365 102.773 56.6359 101.242 62.5986C101.234 62.6176 101.23 62.6328 101.227 62.6518C100.649 64.9966 100.569 65.0688 100.565 65.0688C99.0299 70.3778 96.9626 75.4854 94.1808 79.8595L94.1846 79.8633Z" fill="#6495ED"/>
<path d="M13.3048 72.0736C13.3048 72.0736 13.3048 72.0736 13.3022 72.0786C10.6538 73.8612 9.51108 77.0912 9.19875 80.1535L9.20129 80.1561C8.96006 82.5354 9.14543 84.9477 9.6025 87.2889L9.59996 87.2914C9.64566 87.5047 9.69137 87.718 9.73708 87.9237C7.39079 88.9496 4.43761 89.5666 2.10148 88.7007C-1.29607 81.2124 4.94038 71.7841 13.2946 72.0786L13.3048 72.0736Z" fill="#0047AB"/>
<path d="M13.358 72.038C13.3402 72.0481 13.325 72.0608 13.3097 72.0761C13.3047 72.0761 13.3047 72.0761 13.3047 72.0761C13.3224 72.0634 13.3402 72.0481 13.358 72.038ZM13.2945 72.0786C13.297 72.0786 13.3072 72.0659 13.3021 72.0786C10.6537 73.8612 9.51099 77.0911 9.19866 80.1535L9.2012 80.156C8.96251 82.5328 9.1428 84.9502 9.60241 87.2888L9.59987 87.2914C9.64303 87.5072 9.68874 87.7154 9.73699 87.9237C8.49021 88.4747 7.16724 88.8581 5.8976 89.0206C3.36086 79.9046 4.78032 71.7536 13.2945 72.0786Z" fill="#6495ED"/>
<path d="M13.31 72.0736C13.3049 72.0736 13.3049 72.0736 13.3049 72.0736C13.3404 72.0508 13.3785 72.0229 13.4141 72C13.3785 72.0203 13.343 72.0457 13.31 72.0736ZM17.7359 72.9472C13.0103 75.0014 12.0784 80.2399 13.9803 84.9021C12.6624 86.3215 11.4284 87.1798 9.73973 87.9213C9.69149 87.7181 9.64833 87.4921 9.60262 87.289L9.60515 87.2864C9.143 84.9503 8.96272 82.5355 9.20141 80.1562L9.19887 80.1536C9.50104 77.0938 10.6691 73.8461 13.3023 72.0787C14.8234 72.0863 16.3266 72.386 17.7359 72.9472Z" fill="white"/>
<path d="M3.1325 90.6661C3.11726 90.6636 3.10203 90.6559 3.08679 90.6458C3.10203 90.6483 3.11472 90.6585 3.12996 90.661C3.13249 90.6661 3.1325 90.6661 3.1325 90.6661Z" fill="#6495ED"/>
<path d="M21.9485 92.3928C16.9589 98.1164 7.04552 97.0956 3.1325 90.6687C8.23898 92.9616 13.8609 89.7215 17.7181 86.4078C19.6708 87.8704 21.5956 90.0491 21.9485 92.3928ZM3.1325 90.6661C3.11726 90.6636 3.10203 90.656 3.08679 90.6458C3.10203 90.6484 3.11472 90.6585 3.12996 90.6611C3.13249 90.6661 3.1325 90.6661 3.1325 90.6661Z" fill="#0047AB"/>
<path d="M20.4225 89.0588C14.765 94.729 7.3681 97.931 3.13513 90.6687C8.24161 92.9616 13.8636 89.7215 17.7207 86.4078C18.7517 87.1772 19.6912 88.0888 20.4225 89.0588Z" fill="#6495ED"/>
<path d="M17.3498 86.5018C17.1492 86.6618 16.941 86.8217 16.7328 86.9843C16.6312 87.0655 16.5246 87.1391 16.4179 87.2204C16.0878 87.4642 15.7552 87.7003 15.4022 87.9289C15.3235 87.9797 15.2499 88.0279 15.1762 88.0787C14.8791 88.2717 14.5668 88.4596 14.2519 88.6449C13.7847 88.9166 13.3048 89.1807 12.8096 89.4169C12.609 89.5185 12.4059 89.6099 12.2027 89.7064C11.9945 89.7952 11.7863 89.8866 11.5806 89.9679C11.5628 89.9781 11.5476 89.9882 11.5298 89.9933C11.3749 90.0568 11.2175 90.1203 11.0651 90.1761C10.6004 90.3513 10.1307 90.5012 9.65076 90.623C9.49841 90.6662 9.33843 90.7043 9.17845 90.7449C8.86104 90.8211 8.54109 90.8846 8.22622 90.9354C8.06625 90.9608 7.90627 90.9785 7.74884 90.9988C7.65997 91.009 7.57109 91.0217 7.48222 91.0242C7.31463 91.0369 7.14957 91.0522 6.9769 91.0623C6.80677 91.0674 6.62902 91.0725 6.45889 91.0699C6.37002 91.0674 6.2913 91.0649 6.20242 91.0649C6.14402 91.0623 6.08816 91.0623 6.03229 91.0573C5.94596 91.0547 5.85962 91.0471 5.77328 91.0395C5.59807 91.0242 5.42794 91.0039 5.25781 90.9836C5.08514 90.9608 4.91501 90.9303 4.74741 90.8947C4.63061 90.8719 4.51888 90.844 4.40208 90.816C4.33098 90.8008 4.25988 90.7805 4.19385 90.7602C4.14561 90.7475 4.09736 90.7373 4.04911 90.7195C3.96786 90.6967 3.88407 90.6713 3.80027 90.6434C3.74695 90.6205 3.686 90.6027 3.63268 90.5849H3.6276C3.5565 90.557 3.49048 90.5342 3.41938 90.5062C3.35336 90.4783 3.2848 90.4529 3.2137 90.4199C3.14514 90.3894 3.07404 90.3615 3.00802 90.331C2.96739 90.3132 2.9293 90.2955 2.88867 90.2777C2.88613 90.2752 2.88613 90.2752 2.88613 90.2726C2.58649 89.7648 2.32495 89.2417 2.10657 88.711L2.10404 88.7084C1.79678 87.9568 1.52508 87.2458 1.3778 86.4688C1.35495 86.3367 1.31686 86.1615 1.29401 86.032C2.01262 86.5881 3.11466 87.2204 4.39954 87.548C4.67632 87.6216 4.9531 87.6749 5.2248 87.7079C5.33653 87.7206 5.44826 87.7333 5.55491 87.741C6.79915 87.8425 8.02562 87.5835 9.20385 87.0452L9.20892 87.0427C9.31557 86.9919 9.41969 86.9436 9.5238 86.8852C10.7173 86.2834 11.8498 85.3972 12.9036 84.2825C12.9087 84.2748 12.9188 84.2647 12.929 84.2545C12.9442 84.2368 12.962 84.219 12.9797 84.1987C13.1321 84.2444 13.2794 84.2901 13.4267 84.3409C13.4622 84.3536 13.5028 84.3663 13.5409 84.3815L13.5435 84.384C13.64 84.4145 13.7339 84.445 13.8279 84.478C13.8913 84.4983 13.9523 84.5262 14.0158 84.5491C14.5287 84.7395 14.9959 84.9554 15.4225 85.1788C16.0904 85.5521 16.7379 86.0016 17.3498 86.5018Z" fill="#DDDDEB"/>
<path d="M17.7155 86.4027C13.8634 89.7241 8.24142 92.9617 3.1324 90.6687L3.12986 90.6661C2.28936 89.3737 1.64438 87.8882 1.35999 86.39C5.26793 89.526 10.1408 88.1396 13.2489 84.2824C13.4368 84.3357 13.6323 84.3814 13.8177 84.4424L13.8202 84.4449C15.2803 84.8385 16.5169 85.5063 17.7155 86.4027Z" fill="white"/>
<path d="M17.1187 86.9131C17.0323 86.9893 16.9333 87.063 16.8393 87.1442C15.0238 84.5872 13.0406 84.5161 13.0406 84.5161C13.0863 84.4678 13.1295 84.4196 13.1726 84.3662C13.1777 84.3586 13.1879 84.3485 13.198 84.3383C13.2133 84.3205 13.2285 84.3002 13.2463 84.2799C13.3047 84.2951 13.3656 84.3129 13.424 84.3282C13.5561 84.3612 13.6856 84.3967 13.8125 84.4373L13.8151 84.4399C13.9877 84.483 14.1401 84.5313 14.295 84.5846C14.8155 84.7548 15.2904 84.9477 15.7297 85.1534C16.4127 85.5064 17.0806 85.9254 17.7129 86.3977C17.5199 86.5729 17.3218 86.743 17.1187 86.9131Z" fill="#DDDDEB"/>
<path d="M21.9486 92.3928C21.9257 92.4436 21.9029 92.4919 21.8749 92.5401C21.1513 93.2841 20.3184 93.9418 19.3839 94.4954C19.0894 94.6706 18.7897 94.8306 18.485 94.9778C18.3631 95.0388 18.2412 95.0921 18.1168 95.1505C18.6374 93.3476 18.6958 91.9688 18.4977 90.8287C18.292 89.6377 17.807 88.7058 17.2789 87.8145C17.1367 87.5733 16.9894 87.3549 16.8421 87.1467C16.9386 87.0731 17.03 86.9944 17.1214 86.9182C17.3296 86.7506 17.5277 86.5779 17.7182 86.4078C18.7516 87.1797 19.6912 88.0913 20.4225 89.0588C21.2325 90.1329 21.7937 91.2806 21.9486 92.3928Z" fill="#DDDDEB"/>
<path d="M23.6194 77.9926C26.3948 82.6953 25.6432 88.5433 22.0145 92.3954C22.8398 88.0964 20.105 84.1326 17.068 81.3597C16.7989 81.1083 15.3007 80.3033 15.0188 80.0748C14.3155 79.4882 13.5943 78.9626 12.8528 78.4674C13.7238 76.1821 15.1255 73.9983 17.1722 72.7388C17.3651 72.8049 17.5454 72.8709 17.7359 72.9471L17.7384 72.9496C20.1177 73.9018 22.2126 75.6158 23.6194 77.9926Z" fill="#0047AB"/>
<path d="M24.7417 87.7409C24.2034 89.4524 23.2816 91.0648 22.0145 92.3954C22.8398 88.0964 20.105 84.1326 17.068 81.3597C16.7989 81.1083 15.3007 80.3033 15.0188 80.0748C14.3155 79.4882 13.5943 78.9626 12.8528 78.4675C13.3302 77.2207 13.9625 76.0297 14.7065 75.0267C20.8719 78.47 24.8179 83.6857 24.7417 87.7409Z" fill="#6495ED"/>
<path d="M20.5189 84.841C22.4742 88.5255 22.4285 90.9683 22.1491 92.2532C21.1334 93.3603 19.8689 94.3125 18.485 94.9778C20.1101 91.0622 17.9898 86.5017 14.2977 84.5871C7.49245 82.7486 12.8148 78.4827 12.8503 78.47C15.1382 78.9194 18.6856 81.6999 20.5189 84.841Z" fill="white"/>
<path d="M17.6137 72.899C16.9433 73.3052 15.948 74.0442 15.077 75.2427C14.757 75.6769 14.4549 76.1721 14.1908 76.7383C13.9038 77.3579 13.6677 77.9826 13.4798 78.5996C13.4544 78.6809 13.4265 78.7647 13.4036 78.8434C12.7205 81.2176 12.7383 83.3887 13.1319 84.2825C11.5499 82.6092 12.85 78.4676 12.85 78.4676C12.8526 78.4651 12.8551 78.4676 12.8577 78.4676C12.8551 78.4651 12.8526 78.4676 12.85 78.4625C13.3274 77.2157 13.9597 76.0248 14.7037 75.0218C15.369 74.1229 16.2933 73.2773 17.1693 72.7365C17.3242 72.7898 17.4664 72.8406 17.6137 72.899Z" fill="#DDDDEB"/>
<path d="M9.89994 82.1499C11.9179 79.206 12.1922 75.8862 10.5127 74.7349C8.8331 73.5836 5.83566 75.0368 3.81769 77.9806C1.79971 80.9245 1.52538 84.2443 3.20494 85.3956C4.88451 86.5469 7.88196 85.0938 9.89994 82.1499Z" fill="#0047AB"/>
<path d="M23.2462 77.4213V77.4188C23.1319 77.2512 23.0202 77.0937 22.8983 76.9312C22.1137 75.8774 21.1564 74.9557 20.0721 74.2066C20.0696 74.2066 20.0645 74.2015 20.0645 74.2015C27.4461 83.0128 16.0804 97.4663 3.83344 91.6539C5.67949 93.9621 8.35842 95.5873 11.4563 96.0469C11.789 96.0977 12.1292 96.1332 12.472 96.1535C13.5563 96.2221 14.6152 96.1485 15.6334 95.9402C15.6995 95.9301 15.7629 95.9174 15.829 95.8996C15.895 95.8869 15.9559 95.8717 16.022 95.859C17.7512 95.4502 19.3459 94.663 20.7044 93.5889C23.2944 91.5473 25.0389 88.4545 25.2675 84.902C25.4427 82.1469 24.6758 79.5492 23.2462 77.4213Z" fill="#DDDDEB"/>
<path d="M61.6119 102.813C66.5963 102.813 70.637 98.7724 70.637 93.7879C70.637 88.8035 66.5963 84.7628 61.6119 84.7628C56.6275 84.7628 52.5868 88.8035 52.5868 93.7879C52.5868 98.7724 56.6275 102.813 61.6119 102.813Z" fill="white"/>
<path d="M66.806 88.2177L64.3038 90.9042L64.2259 90.9873L64.2181 90.9977H64.2129L64.1065 90.9717L60.592 90.1074L60.4804 90.0814L60.4518 90.0736H60.4492L60.4181 89.9646L59.4395 86.4111L59.4447 86.4059L59.5252 86.3203L60.9502 84.7888C62.8372 84.6487 64.6568 85.1081 66.196 86.0244L66.7671 88.1061L66.806 88.2177ZM69.6405 97.9021C68.841 99.4647 67.5899 100.781 66.0325 101.658L63.7665 101.103L63.6575 101.074H63.6471L62.6737 97.5361L62.6426 97.4245L62.64 97.4115L62.71 97.3363L65.137 94.7354L65.2175 94.6472L65.2304 94.6368H65.233L65.3446 94.6627L68.9967 95.5608L68.9993 95.5712L69.0305 95.6854L69.6405 97.9021Z" fill="#0047AB"/>
<path d="M63.7663 101.103L62.7644 97.4505L62.7332 97.3415L62.7125 97.3363L62.619 97.313L58.9643 96.4175L58.915 96.4045L58.8605 96.3889H58.8579L58.7774 96.4668V96.472L58.7749 96.4772L56.2259 99.2104L56.1948 99.2493L56.2025 99.2987L56.784 101.414C56.867 101.463 56.9449 101.515 57.0306 101.562L56.4102 99.3064L58.9176 96.6121L58.9228 96.6095L62.5749 97.5076V97.5128L63.5509 101.059L61.9182 102.808C62.0142 102.805 62.1103 102.8 62.2063 102.792L63.7715 101.113L63.7663 101.103Z" fill="#0047AB"/>
<path d="M65.3471 94.6601L65.3264 94.5771L64.3426 91.008L64.3141 90.9042H64.3063L64.1921 90.8756L60.5711 89.9879L60.4309 89.9542L60.4206 89.9646L60.3712 90.0191L57.8379 92.7367L57.7652 92.8172L57.7963 92.934L58.7723 96.4797L58.8035 96.5887L58.8138 96.5913L58.9177 96.6147L62.575 97.5128L62.6788 97.5387H62.6866L62.767 97.4504L65.2693 94.7665L65.3523 94.6757L65.3471 94.6601ZM62.6191 97.3155L58.967 96.4174V96.4148L57.9962 92.8951L57.9884 92.8665L60.4984 90.1722L60.527 90.18L64.1298 91.0677L64.1479 91.0703L65.1239 94.6212L65.1109 94.6342L62.6165 97.3129L62.6191 97.3155Z" fill="#0047AB"/>
<path d="M58.8916 96.5004V96.5056L58.8137 96.5913L56.3037 99.2856L56.3011 99.283L56.1947 99.257L54.0585 98.7327C53.3992 97.7282 52.9319 96.5757 52.7165 95.3168C52.6153 94.7276 52.5737 94.1384 52.5867 93.5621L54.0533 91.9917L54.1182 91.9217L54.1337 91.9269L57.7625 92.8172L57.8741 92.8431L57.8793 92.8457V92.8509L57.9104 92.9625L58.8552 96.3914L58.8916 96.5004Z" fill="#0047AB"/>
<path d="M60.5736 89.9853L59.5664 86.328L59.5327 86.3203L57.412 85.7985C57.3264 85.8426 57.2381 85.892 57.1525 85.9413L59.4055 86.4942L60.3763 90.0165L60.3841 90.045L57.8741 92.7393L57.8455 92.7315L54.2246 91.8412L53.612 89.6193C53.5679 89.7076 53.5237 89.7958 53.4796 89.8867L54.0481 91.9476L54.061 91.9892L54.0688 92.0099L57.804 92.9288L57.8663 92.9444L57.9208 92.9573L57.939 92.9625L58.0013 92.8951L60.532 90.18L60.5606 90.1514L60.6021 90.1047L60.6099 90.0969L60.5736 89.9853ZM68.9549 95.47L65.3262 94.5796L65.308 94.5771L64.3295 91.0236L64.3425 91.0106L66.8369 88.3293L69.2041 88.9107C69.1496 88.8277 69.0951 88.7446 69.038 88.6641L66.8343 88.1242L66.7772 88.1061H66.7746L64.1945 90.8782L64.153 90.9224L64.1114 90.9691L64.1192 91.0184L64.1322 91.0703L65.1134 94.6393L65.1238 94.6757L65.1393 94.738V94.7406L65.2665 94.7717L69.0224 95.6958L69.0302 95.688L70.6317 93.9645C70.6369 93.8684 70.6343 93.7698 70.6343 93.6712L68.9549 95.47Z" fill="#0047AB"/>
<path d="M70.5048 92.2618C70.2219 90.6187 69.5106 89.1573 68.5061 87.9685C68.6852 92.851 67.7716 102.086 58.3052 102.188C59.7899 102.774 61.4485 102.971 63.1357 102.683C68.0493 101.84 71.3484 97.1753 70.5048 92.2618Z" fill="#EBF2FC"/>
<path d="M60.5806 9.73606C55.613 8.22854 50.0028 12.2283 48.0502 18.6657C46.0975 25.1031 48.5415 31.5447 53.5091 33.0522C58.4768 34.5598 64.087 30.56 66.0396 24.1226C67.9923 17.6831 65.5483 11.2415 60.5806 9.73606ZM53.7275 32.3342C49.1629 30.9505 46.9395 24.9162 48.7682 18.8841C50.597 12.8519 55.7998 9.07049 60.3623 10.4541C64.9268 11.8378 67.1503 17.8721 65.3216 23.9042C63.4928 29.9364 58.2921 33.7178 53.7275 32.3342Z" fill="#6495ED"/>
<path d="M48.7672 18.8842C49.0464 17.9625 49.4055 17.0954 49.8275 16.2891L49.0968 16.0687C48.6811 16.8791 48.3284 17.7484 48.0491 18.668C47.3059 21.1203 47.2009 23.5748 47.6292 25.7542L48.4481 26.0019C47.9483 23.8435 48.0155 21.3639 48.7672 18.8842ZM65.3226 23.9044C64.571 26.384 63.2482 28.4837 61.6357 29.9996L62.4545 30.2473C64.023 28.6726 65.2974 26.5751 66.0407 24.1207C66.3199 23.201 66.5089 22.2814 66.6139 21.3765L65.8832 21.156C65.7845 22.061 65.6019 22.9827 65.3226 23.9044Z" fill="#0047AB"/>
<path d="M47.9766 27.1041C47.9766 27.1041 51.1722 37.3229 49.9839 41.4424L50.8825 41.7153L51.7811 41.9883C53.0808 37.9045 61.4141 31.1816 61.4141 31.1816C55.2308 34.184 50.6746 33.0124 47.9766 27.1041ZM52.2577 38.2804C52.0667 38.5302 51.6677 38.4105 51.6488 38.0956C51.567 36.7833 51.3612 35.2674 51.0295 33.5583C50.9749 33.277 51.273 33.0565 51.525 33.193C52.6378 33.7956 53.8261 34.1567 55.0859 34.2722C55.3714 34.2995 55.4974 34.6459 55.2959 34.8496C54.0676 36.0884 53.0556 37.2327 52.2577 38.2804Z" fill="#6495ED"/>
<path d="M51.9722 41.1819L50.2736 40.6675C48.4932 44.3692 47.3153 48.2009 46.7841 52.1713L48.4826 52.6857C50.2484 49.0891 51.3948 45.2489 51.9722 41.1819Z" fill="#6495ED"/>
<path d="M48.9462 52.3434L46.8298 51.7009C46.6388 51.6422 46.4372 51.7513 46.3784 51.9424L46.3217 52.1314C46.2629 52.3224 46.3721 52.524 46.5632 52.5828L48.6796 53.2253C48.8706 53.284 49.0722 53.1749 49.131 52.9838L49.1877 52.7948C49.2444 52.6038 49.1373 52.4022 48.9462 52.3434Z" fill="#0047AB"/>
<path d="M64.1091 26.7826C64.128 26.749 64.1447 26.7154 64.1636 26.6818L63.5233 26.4887L63.9327 25.1365L64.7809 25.3948C64.7956 25.3591 64.8103 25.3255 64.825 25.2898L63.9642 25.0294L64.3736 23.6773L65.3016 23.9586C65.3079 23.9397 65.3121 23.9229 65.3184 23.9041C65.3247 23.8852 65.3289 23.8684 65.3352 23.8495L64.4072 23.5681L64.8166 22.216L65.6775 22.4763C65.6859 22.4385 65.6922 22.4028 65.6985 22.365L64.8502 22.1068L65.2596 20.7546L65.9 20.9478C65.9042 20.91 65.9084 20.8722 65.9105 20.8344L65.2932 20.6476L65.7027 19.2954L65.9567 19.3731C65.9567 19.3332 65.9546 19.2933 65.9546 19.2555L65.7363 19.1904L65.9168 18.592C65.9084 18.4934 65.9 18.3926 65.8895 18.2939L65.6271 19.1568L64.2749 18.7474L64.6843 17.3953L65.8181 17.7396C65.8118 17.6976 65.8055 17.6577 65.7992 17.6157L64.7158 17.2882L65.1253 15.936L65.4339 16.0305C65.4213 15.9864 65.4087 15.9444 65.394 15.9003L65.1568 15.829L65.2575 15.4993C65.2366 15.4405 65.2156 15.3838 65.1925 15.325L65.0497 15.7954L63.6975 15.3859L64.107 14.0338L64.6885 14.2102C64.6634 14.164 64.6382 14.1157 64.613 14.0695L64.1406 13.9267L64.2707 13.4984C64.2434 13.4585 64.2182 13.4165 64.1909 13.3766L64.0335 13.8931L62.6813 13.4837L63.0907 12.1315L63.1894 12.1609C63.1306 12.1021 63.0719 12.0455 63.011 11.9888L61.6651 11.5814L61.8142 11.0922C61.7806 11.0733 61.747 11.0523 61.7134 11.0334L61.558 11.5478L60.2059 11.1384L60.4095 10.4665C60.3906 10.4602 60.3738 10.4539 60.3549 10.4498C60.3361 10.4435 60.3193 10.4393 60.3004 10.4351L60.0967 11.1069L58.7446 10.6975L58.8999 10.1831C58.8621 10.181 58.8222 10.1789 58.7844 10.1768L58.6354 10.666L57.2895 10.2587C57.2076 10.2713 57.1278 10.286 57.046 10.3028L57.1447 10.3322L56.7352 11.6843L55.3831 11.2749L55.5405 10.7563C55.4965 10.7752 55.4503 10.7941 55.4062 10.813L55.276 11.2413L54.8036 11.0985C54.7574 11.1237 54.7091 11.1489 54.6629 11.1741L55.2445 11.3505L54.8351 12.7026L53.4829 12.2932L53.6257 11.8229C53.5753 11.8586 53.5249 11.8943 53.4745 11.9321L53.3737 12.2617L53.1365 12.1903C53.1008 12.2176 53.0672 12.247 53.0315 12.2764L53.3402 12.3709L52.9307 13.723L51.8473 13.3955C51.82 13.4249 51.7906 13.4564 51.7633 13.4879L52.8971 13.8322L52.4877 15.1844L51.1356 14.7749L51.398 13.912C51.335 13.9876 51.272 14.0653 51.2112 14.143L51.0306 14.7414L50.8122 14.6763C50.7891 14.7078 50.766 14.7414 50.7429 14.7729L50.997 14.8505L50.5876 16.2027L49.9703 16.0158C49.9514 16.0494 49.9346 16.083 49.9157 16.1166L50.5561 16.3098L50.1466 17.6619L49.2984 17.4037C49.2837 17.4394 49.269 17.4729 49.2543 17.5086L50.1152 17.769L49.7057 19.1211L48.7777 18.8398C48.7714 18.8587 48.7672 18.8755 48.7609 18.8944C48.7546 18.9133 48.7504 18.9301 48.7441 18.949L49.6721 19.2303L49.2627 20.5825L48.4019 20.3221C48.3935 20.3599 48.3872 20.3956 48.3809 20.4334L49.2291 20.6916L48.8197 22.0438L48.1793 21.8506C48.1751 21.8884 48.173 21.9262 48.1688 21.964L48.7861 22.1509L48.3767 23.503L48.1226 23.4253C48.1226 23.4652 48.1247 23.5051 48.1247 23.5429L48.3431 23.608L48.1625 24.2064C48.1709 24.3051 48.1793 24.4059 48.1898 24.5045L48.4523 23.6416L49.8044 24.051L49.395 25.4032L48.2612 25.0588C48.2675 25.1008 48.2738 25.1407 48.2801 25.1827L49.3635 25.5103L48.9541 26.8624L48.6454 26.7679C48.658 26.812 48.6706 26.854 48.6853 26.8981L48.9226 26.9695L48.8218 27.2991C48.8428 27.3579 48.8638 27.4146 48.8869 27.4734L49.0297 27.0031L50.3818 27.4125L49.9724 28.7647L49.3908 28.5883C49.416 28.6345 49.4412 28.6828 49.4664 28.729L49.9388 28.8717L49.8086 29.3001C49.8359 29.3399 49.8611 29.3819 49.8884 29.4218L50.0459 28.9053L51.398 29.3148L50.9886 30.6669L50.8899 30.6375C50.9487 30.6963 51.0075 30.753 51.0684 30.8097L52.4142 31.217L52.2652 31.7062C52.2988 31.7251 52.3323 31.7461 52.3659 31.765L52.5213 31.2506L53.8735 31.66L53.6698 32.3319C53.6887 32.3382 53.7055 32.3445 53.7223 32.3487C53.7412 32.355 53.758 32.3592 53.7769 32.3634L53.9805 31.6915L55.3327 32.1009L55.1773 32.6153C55.2151 32.6174 55.255 32.6195 55.2928 32.6216L55.4419 32.1324L56.7877 32.5397C56.8696 32.5272 56.9494 32.5125 57.0313 32.4957L56.9326 32.4663L57.342 31.1141L58.6942 31.5235L58.5367 32.04C58.5808 32.0212 58.627 32.0022 58.6711 31.9834L58.8012 31.555L59.2737 31.6978C59.3198 31.6726 59.3681 31.6474 59.4143 31.6222L58.8327 31.4459L59.2422 30.0937L60.5943 30.5031L60.4515 30.9734C60.5019 30.9377 60.5523 30.9021 60.6027 30.8643L60.7035 30.5346L60.9408 30.606C60.9764 30.5787 61.01 30.5493 61.0457 30.5199L60.7371 30.4254L61.1465 29.0733L62.2278 29.4008C62.2551 29.3714 62.2845 29.3399 62.3118 29.3085L61.178 28.9641L61.5874 27.612L62.9396 28.0214L62.6771 28.8843C62.7401 28.8087 62.8031 28.7311 62.864 28.6534L63.0445 28.055L63.2629 28.1201C63.286 28.0886 63.3091 28.055 63.3322 28.0235L63.0782 27.9458L63.4876 26.5937L64.1091 26.7826ZM49.8443 23.9313L48.4922 23.5219L48.9016 22.1698L50.2537 22.5792L49.8443 23.9313ZM50.2852 22.4721L48.9331 22.0627L49.3425 20.7105L50.6946 21.12L50.2852 22.4721ZM50.7282 21.0129L49.3761 20.6035L49.7855 19.2513L51.1377 19.6607L50.7282 21.0129ZM51.1713 19.5537L49.8191 19.1442L50.2285 17.7921L51.5807 18.2015L51.1713 19.5537ZM51.6143 18.0944L50.2621 17.685L50.6715 16.3329L52.0237 16.7423L51.6143 18.0944ZM52.0552 16.6352L50.703 16.2258L51.1125 14.8736L52.4646 15.2831L52.0552 16.6352ZM50.4175 27.2907L49.0654 26.8813L49.4748 25.5292L50.8269 25.9386L50.4175 27.2907ZM50.8605 25.8315L49.5084 25.4221L49.9178 24.0699L51.2699 24.4793L50.8605 25.8315ZM51.3035 24.3723L49.9514 23.9628L50.3608 22.6107L51.713 23.0201L51.3035 24.3723ZM51.7444 22.9151L50.3923 22.5057L50.8017 21.1536L52.1539 21.563L51.7444 22.9151ZM52.1875 21.4559L50.8353 21.0465L51.2447 19.6943L52.5969 20.1038L52.1875 21.4559ZM52.6305 19.9967L51.2783 19.5873L51.6878 18.2351L53.0399 18.6445L52.6305 19.9967ZM53.0735 18.5374L51.7214 18.128L52.1308 16.7759L53.4829 17.1853L53.0735 18.5374ZM53.5144 17.0782L52.1623 16.6688L52.5717 15.3166L53.9238 15.7261L53.5144 17.0782ZM53.9574 15.619L52.6053 15.2096L53.0147 13.8574L54.3669 14.2668L53.9574 15.619ZM54.4005 14.1598L53.0483 13.7503L53.4577 12.3982L54.8099 12.8076L54.4005 14.1598ZM51.4337 29.193L50.0816 28.7835L50.491 27.4314L51.8431 27.8408L51.4337 29.193ZM51.8767 27.7337L50.5246 27.3243L50.934 25.9722L52.2861 26.3816L51.8767 27.7337ZM52.3198 26.2745L50.9676 25.8651L51.377 24.5129L52.7292 24.9224L52.3198 26.2745ZM52.7607 24.8153L51.4085 24.4059L51.8179 23.0537L53.1701 23.4631L52.7607 24.8153ZM53.2037 23.3561L51.8515 22.9466L52.261 21.5945L53.6131 22.0039L53.2037 23.3561ZM53.6467 21.8968L52.2945 21.4874L52.704 20.1353L54.0561 20.5447L53.6467 21.8968ZM54.0897 20.4397L52.7376 20.0303L53.147 18.6781L54.4991 19.0875L54.0897 20.4397ZM54.5306 18.9805L53.1785 18.571L53.5879 17.2189L54.9401 17.6283L54.5306 18.9805ZM54.9736 17.5212L53.6215 17.1118L54.0309 15.7597L55.3831 16.1691L54.9736 17.5212ZM55.4167 16.062L54.0645 15.6526L54.4739 14.3004L55.8261 14.7099L55.4167 16.062ZM55.8597 14.6028L54.5075 14.1934L54.917 12.8412L56.2691 13.2506L55.8597 14.6028ZM56.3006 13.1436L54.9485 12.7341L55.3579 11.382L56.71 11.7914L56.3006 13.1436ZM52.4499 31.0952L51.0978 30.6858L51.5072 29.3336L52.8593 29.7431L52.4499 31.0952ZM52.8929 29.636L51.5408 29.2266L51.9502 27.8744L53.3024 28.2838L52.8929 29.636ZM53.336 28.1768L51.9838 27.7673L52.3932 26.4152L53.7454 26.8246L53.336 28.1768ZM53.779 26.7175L52.4268 26.3081L52.8362 24.956L54.1884 25.3654L53.779 26.7175ZM54.2199 25.2583L52.8677 24.8489L53.2772 23.4967L54.6293 23.9062L54.2199 25.2583ZM54.6629 23.7991L53.3108 23.3896L53.7202 22.0375L55.0723 22.4469L54.6629 23.7991ZM55.1059 22.3398L53.7538 21.9304L54.1632 20.5783L55.5154 20.9877L55.1059 22.3398ZM55.5489 20.8806L54.1968 20.4712L54.6062 19.119L55.9584 19.5285L55.5489 20.8806ZM55.9899 19.4214L54.6377 19.012L55.0471 17.6598L56.3993 18.0692L55.9899 19.4214ZM56.4329 17.9622L55.0807 17.5527L55.4902 16.2006L56.8423 16.61L56.4329 17.9622ZM56.8759 16.505L55.5237 16.0956L55.9332 14.7435L57.2853 15.1529L56.8759 16.505ZM57.3189 15.0458L55.9668 14.6364L56.3762 13.2842L57.7283 13.6937L57.3189 15.0458ZM57.7598 13.5866L56.4077 13.1771L56.8171 11.825L58.1693 12.2344L57.7598 13.5866ZM58.2029 12.1273L56.8507 11.7179L57.2601 10.3658L58.6123 10.7752L58.2029 12.1273ZM53.9091 31.5361L52.557 31.1267L52.9664 29.7746L54.3186 30.184L53.9091 31.5361ZM54.3522 30.0769L53 29.6675L53.4094 28.3153L54.7616 28.7248L54.3522 30.0769ZM54.7952 28.6198L53.443 28.2104L53.8525 26.8582L55.2046 27.2676L54.7952 28.6198ZM55.2382 27.1606L53.8861 26.7511L54.2955 25.399L55.6476 25.8084L55.2382 27.1606ZM55.6791 25.7013L54.327 25.2919L54.7364 23.9397L56.0885 24.3492L55.6791 25.7013ZM56.1221 24.2421L54.77 23.8327L55.1794 22.4805L56.5316 22.8899L56.1221 24.2421ZM56.5652 22.7829L55.213 22.3734L55.6224 21.0213L56.9746 21.4307L56.5652 22.7829ZM57.0082 21.3236L55.656 20.9142L56.0654 19.5621L57.4176 19.9715L57.0082 21.3236ZM57.4491 19.8644L56.0969 19.455L56.5064 18.1028L57.8585 18.5123L57.4491 19.8644ZM57.8921 18.4052L56.54 17.9957L56.9494 16.6436L58.3015 17.053L57.8921 18.4052ZM58.3351 16.9459L56.983 16.5365L57.3924 15.1844L58.7446 15.5938L58.3351 16.9459ZM58.7781 15.4867L57.426 15.0773L57.8354 13.7251L59.1876 14.1346L58.7781 15.4867ZM59.2191 14.0275L57.8669 13.6181L58.2763 12.2659L59.6285 12.6753L59.2191 14.0275ZM59.6621 12.5704L58.3099 12.1609L58.7194 10.8088L60.0715 11.2182L59.6621 12.5704ZM55.3684 31.9792L54.0162 31.5697L54.4257 30.2176L55.7778 30.627L55.3684 31.9792ZM55.8114 30.5199L54.4592 30.1105L54.8687 28.7584L56.2208 29.1678L55.8114 30.5199ZM56.2544 29.0607L54.9023 28.6513L55.3117 27.2991L56.6638 27.7085L56.2544 29.0607ZM56.6953 27.6015L55.3432 27.192L55.7526 25.8399L57.1048 26.2493L56.6953 27.6015ZM57.1383 26.1422L55.7862 25.7328L56.1956 24.3807L57.5478 24.7901L57.1383 26.1422ZM57.5814 24.6851L56.2292 24.2757L56.6386 22.9235L57.9908 23.333L57.5814 24.6851ZM58.0244 23.2259L56.6722 22.8165L57.0817 21.4643L58.4338 21.8737L58.0244 23.2259ZM58.4653 21.7667L57.1132 21.3572L57.5226 20.0051L58.8747 20.4145L58.4653 21.7667ZM58.9083 20.3074L57.5562 19.898L57.9656 18.5458L59.3177 18.9553L58.9083 20.3074ZM59.3513 18.8482L57.9992 18.4388L58.4086 17.0866L59.7608 17.496L59.3513 18.8482ZM59.7944 17.389L58.4422 16.9795L58.8516 15.6274L60.2038 16.0368L59.7944 17.389ZM60.2353 15.9297L58.8831 15.5203L59.2925 14.1682L60.6447 14.5776L60.2353 15.9297ZM60.6783 14.4705L59.3261 14.0611L59.7356 12.7089L61.0877 13.1184L60.6783 14.4705ZM61.1213 13.0113L59.7692 12.6019L60.1786 11.2497L61.5307 11.6591L61.1213 13.0113ZM56.8276 32.4222L55.4755 32.0128L55.8849 30.6606L57.237 31.07L56.8276 32.4222ZM57.2706 30.9629L55.9185 30.5535L56.3279 29.2014L57.68 29.6108L57.2706 30.9629ZM57.7136 29.5037L56.3615 29.0943L56.7709 27.7421L58.1231 28.1516L57.7136 29.5037ZM58.1546 28.0445L56.8024 27.6351L57.2118 26.2829L58.564 26.6923L58.1546 28.0445ZM58.5976 26.5853L57.2454 26.1758L57.6549 24.8237L59.007 25.2331L58.5976 26.5853ZM59.0406 25.126L57.6884 24.7166L58.0979 23.3645L59.45 23.7739L59.0406 25.126ZM59.4836 23.6668L58.1315 23.2574L58.5409 21.9052L59.893 22.3146L59.4836 23.6668ZM59.9245 22.2076L58.5724 21.7981L58.9818 20.446L60.334 20.8554L59.9245 22.2076ZM60.3675 20.7504L59.0154 20.341L59.4248 18.9889L60.777 19.3983L60.3675 20.7504ZM60.8106 19.2912L59.4584 18.8818L59.8678 17.5296L61.22 17.9391L60.8106 19.2912ZM61.2536 17.832L59.9014 17.4226L60.3109 16.0704L61.663 16.4798L61.2536 17.832ZM61.6945 16.3728L60.3424 15.9633L60.7518 14.6112L62.1039 15.0206L61.6945 16.3728ZM62.1375 14.9135L60.7854 14.5041L61.1948 13.152L62.5469 13.5614L62.1375 14.9135ZM62.5805 13.4543L61.2284 13.0449L61.6378 11.6927L62.99 12.1021L62.5805 13.4543ZM58.7299 31.406L57.3777 30.9965L57.7871 29.6444L59.1393 30.0538L58.7299 31.406ZM59.1729 29.9467L57.8207 29.5373L58.2301 28.1852L59.5823 28.5946L59.1729 29.9467ZM59.6138 28.4875L58.2616 28.0781L58.6711 26.7259L60.0232 27.1354L59.6138 28.4875ZM60.0568 27.0283L58.7047 26.6189L59.1141 25.2667L60.4662 25.6761L60.0568 27.0283ZM60.4998 25.569L59.1477 25.1596L59.5571 23.8075L60.9093 24.2169L60.4998 25.569ZM60.9428 24.1098L59.5907 23.7004L60.0001 22.3482L61.3523 22.7577L60.9428 24.1098ZM61.3838 22.6506L60.0316 22.2412L60.441 20.889L61.7932 21.2984L61.3838 22.6506ZM61.8268 21.1914L60.4746 20.7819L60.8841 19.4298L62.2362 19.8392L61.8268 21.1914ZM62.2698 19.7321L60.9176 19.3227L61.3271 17.9706L62.6792 18.38L62.2698 19.7321ZM62.7128 18.275L61.3607 17.8656L61.7701 16.5134L63.1222 16.9228L62.7128 18.275ZM63.1537 16.8158L61.8016 16.4063L62.211 15.0542L63.5632 15.4636L63.1537 16.8158ZM63.5967 15.3565L62.2446 14.9471L62.654 13.595L64.0062 14.0044L63.5967 15.3565ZM60.63 30.3897L59.2778 29.9803L59.6873 28.6282L61.0394 29.0376L60.63 30.3897ZM61.073 28.9305L59.7209 28.5211L60.1303 27.1689L61.4824 27.5784L61.073 28.9305ZM61.516 27.4713L60.1639 27.0619L60.5733 25.7097L61.9255 26.1191L61.516 27.4713ZM61.9591 26.0121L60.6069 25.6026L61.0163 24.2505L62.3685 24.6599L61.9591 26.0121ZM62.4 24.5528L61.0478 24.1434L61.4572 22.7913L62.8094 23.2007L62.4 24.5528ZM62.843 23.0936L61.4908 22.6842L61.9003 21.332L63.2524 21.7415L62.843 23.0936ZM63.286 21.6344L61.9339 21.225L62.3433 19.8728L63.6954 20.2822L63.286 21.6344ZM63.729 20.1751L62.3769 19.7657L62.7863 18.4136L64.1385 18.823L63.729 20.1751ZM64.1699 18.7159L62.8178 18.3065L63.2272 16.9543L64.5794 17.3638L64.1699 18.7159ZM64.613 17.2567L63.2608 16.8473L63.6702 15.4951L65.0224 15.9045L64.613 17.2567ZM62.9753 27.9122L61.6231 27.5028L62.0325 26.1506L63.3847 26.5601L62.9753 27.9122ZM63.4183 26.4551L62.0661 26.0457L62.4756 24.6935L63.8277 25.1029L63.4183 26.4551ZM63.8592 24.9958L62.5071 24.5864L62.9165 23.2343L64.2686 23.6437L63.8592 24.9958ZM64.3022 23.5366L62.9501 23.1272L63.3595 21.775L64.7116 22.1845L64.3022 23.5366ZM64.7452 22.0774L63.3931 21.668L63.8025 20.3158L65.1547 20.7252L64.7452 22.0774ZM65.1883 20.6182L63.8361 20.2087L64.2455 18.8566L65.5977 19.266L65.1883 20.6182Z" fill="#B6B5EB"/>
<path d="M52.1876 41.4572L49.9389 40.7748C49.731 40.7118 49.5126 40.8294 49.4497 41.0372L49.1935 41.8813C49.1305 42.0892 49.2481 42.3075 49.456 42.3705L51.7046 43.0529C51.9125 43.1159 52.1309 42.9983 52.1938 42.7904L52.45 41.9464C52.513 41.7385 52.3954 41.5202 52.1876 41.4572Z" fill="#0047AB"/>
<path d="M150.322 95.5977C150.322 97.3648 137.403 98.7973 121.467 98.7973C105.53 98.7973 92.6113 97.3648 92.6113 95.5977C92.6113 93.8307 103.476 91.9675 121.049 95.0276C136.854 97.7799 150.322 93.8307 150.322 95.5977Z" fill="#EBEBEB"/>
<path d="M105.55 35.3178L104.453 32.3152C104.39 32.1433 104.369 31.9385 104.395 31.7424C104.42 31.5463 104.49 31.3735 104.59 31.2589C104.645 31.1968 104.706 31.1537 104.771 31.1324C104.836 31.1111 104.903 31.112 104.967 31.1351C105.032 31.1582 105.093 31.2029 105.147 31.2665C105.201 31.3301 105.246 31.4112 105.279 31.5047L106.27 34.2501L105.55 35.3178ZM138.839 32.4659L139.874 30.0586C139.922 29.9468 139.993 29.8681 140.074 29.8377C140.156 29.8073 140.241 29.8274 140.313 29.894C140.353 29.9305 140.388 29.9798 140.416 30.039C140.444 30.0982 140.464 30.166 140.476 30.2384C140.487 30.3108 140.49 30.3863 140.483 30.4604C140.476 30.5344 140.46 30.6054 140.436 30.6691L139.469 33.2496L138.839 32.4659Z" fill="#0047AB"/>
<path d="M120.819 91.8263C120.721 91.8263 120.623 91.8254 120.526 91.8235C118.913 91.7931 117.396 91.5101 116.017 90.982C113.489 90.0139 111.336 88.192 109.619 85.5669C107.532 82.3767 106.056 77.9719 105.233 72.4749C104.618 68.3716 104.373 63.7438 104.504 58.72C104.656 52.8472 103.061 48.0119 101.653 43.7458C100.762 41.0462 99.9204 38.4964 99.7207 36.1514C99.4984 33.5406 100.08 31.4092 101.552 29.4437C102.09 28.7251 102.621 28.4816 103.129 28.7201C103.586 28.9347 104.029 29.557 104.409 30.5196C104.583 30.958 104.73 31.4253 104.849 31.9144L104.714 32.0035C104.709 31.9779 104.12 29.44 103.09 28.9572C102.629 28.7409 102.141 28.9697 101.641 29.6376C98.5324 33.7888 99.9648 38.1295 101.778 43.625C103.196 47.9199 104.802 52.7878 104.648 58.7309C104.432 67.0266 105.136 78.3846 109.715 85.3835C113.339 90.9226 118.822 92.7595 126.012 90.8434C131.839 89.2905 135.827 85.2806 138.202 78.5845C140.29 72.6984 141.241 64.7996 141.286 52.9732C141.296 50.1416 142.455 46.0534 143.576 42.0999C144.248 39.732 144.942 37.2834 145.375 35.1511C145.857 32.7823 145.959 31.0642 145.687 29.8987C145.508 29.1279 145.17 28.5908 144.655 28.2567C143.355 27.4132 142.26 27.5474 141.402 28.6553C140.761 29.4839 140.498 30.5785 140.495 30.5894L140.361 30.4979C140.372 30.4509 140.639 29.3366 141.31 28.4659C141.703 27.9552 142.167 27.6288 142.656 27.5189C143.275 27.3748 143.964 27.5455 144.706 28.0266C145.254 28.3816 145.629 28.9809 145.821 29.8077C145.975 30.4669 146.017 31.2604 145.95 32.2336C145.89 33.0913 145.747 34.072 145.511 35.2318C145.075 37.3777 144.379 39.8329 143.706 42.2071C142.592 46.1361 141.44 50.1988 141.43 52.9748C141.408 58.6275 141.178 63.3351 140.725 67.3669C140.218 71.877 139.433 75.5881 138.325 78.712C137.169 82.0021 135.554 84.7527 133.624 86.7188C132.611 87.7624 131.468 88.6559 130.226 89.3746C128.962 90.1062 127.552 90.6822 126.034 91.0865C124.191 91.5778 122.438 91.8263 120.819 91.8263Z" fill="#0047AB"/>
</svg>
