<svg width="177" height="86" viewBox="0 0 177 86" fill="none" xmlns="http://www.w3.org/2000/svg">
<rect x="26.5" y="28.5" width="150" height="49" rx="9.5" fill="url(#paint0_linear_26_3846)" stroke="url(#paint1_linear_26_3846)"/>
<path d="M95.476 61.364C93.448 61.364 91.784 60.792 90.484 59.648C89.184 58.504 88.534 56.97 88.534 55.046V42.8H92.096V54.76C92.096 55.7133 92.3647 56.4673 92.902 57.022C93.4567 57.5767 94.3147 57.854 95.476 57.854C96.6373 57.854 97.4867 57.5767 98.024 57.022C98.5787 56.4673 98.856 55.7133 98.856 54.76V42.8H102.444V55.046C102.444 56.97 101.794 58.504 100.494 59.648C99.194 60.792 97.5213 61.364 95.476 61.364ZM111.89 61.364C110.088 61.364 108.571 60.9653 107.34 60.168C106.11 59.3533 105.243 58.2527 104.74 56.866L107.808 55.072C108.519 56.9267 109.914 57.854 111.994 57.854C113 57.854 113.736 57.672 114.204 57.308C114.672 56.944 114.906 56.4847 114.906 55.93C114.906 55.2887 114.62 54.7947 114.048 54.448C113.476 54.084 112.454 53.694 110.98 53.278C110.166 53.0353 109.472 52.7927 108.9 52.55C108.346 52.3073 107.782 51.9867 107.21 51.588C106.656 51.172 106.231 50.652 105.936 50.028C105.642 49.404 105.494 48.676 105.494 47.844C105.494 46.1973 106.075 44.8887 107.236 43.918C108.415 42.93 109.828 42.436 111.474 42.436C112.948 42.436 114.239 42.8 115.348 43.528C116.475 44.2387 117.35 45.2353 117.974 46.518L114.958 48.26C114.23 46.7 113.069 45.92 111.474 45.92C110.729 45.92 110.14 46.0933 109.706 46.44C109.29 46.7693 109.082 47.2027 109.082 47.74C109.082 48.312 109.316 48.78 109.784 49.144C110.27 49.4907 111.188 49.872 112.54 50.288C113.095 50.4613 113.511 50.6 113.788 50.704C114.083 50.7907 114.473 50.938 114.958 51.146C115.461 51.3367 115.842 51.5187 116.102 51.692C116.38 51.8653 116.692 52.0993 117.038 52.394C117.385 52.6887 117.645 52.992 117.818 53.304C118.009 53.616 118.165 53.9973 118.286 54.448C118.425 54.8813 118.494 55.358 118.494 55.878C118.494 57.5593 117.879 58.894 116.648 59.882C115.435 60.87 113.849 61.364 111.89 61.364ZM132.255 61L131.163 57.724H123.909L122.817 61H118.943L125.313 42.8H129.759L136.155 61H132.255ZM125.053 54.37H130.045L127.549 46.934L125.053 54.37Z" fill="#989898"/>
<path d="M75.2804 24.0536C64.4938 27.2462 56.5171 15.3565 45.7305 18.549C46.8453 12.5618 47.9601 6.57343 49.0749 0.586211C59.8615 -2.60634 67.8382 9.28332 78.6248 6.09077C77.51 12.0792 76.3952 18.0664 75.2804 24.0536Z" fill="white"/>
<path d="M78.6271 6.09431C78.5388 6.57108 78.4493 7.04784 78.3611 7.52461C72.8071 9.16915 67.9982 6.81594 63.167 4.58044C63.2553 4.10368 63.3447 3.62691 63.433 3.15015C68.2642 5.38564 73.0731 7.74003 78.6271 6.09431Z" fill="#CF1C39"/>
<path d="M78.0988 8.93018C78.0105 9.40694 77.921 9.88371 77.8327 10.3605C72.2787 12.005 67.4699 9.6518 62.6387 7.4163C62.727 6.93954 62.8164 6.46279 62.9047 5.98602C67.7359 8.22034 72.5448 10.5747 78.0988 8.93018Z" fill="#CF1C39"/>
<path d="M77.0085 14.7832C76.9202 15.26 76.8307 15.7367 76.7424 16.2135C71.1837 17.8592 66.3714 15.5001 61.5366 13.2634C61.6249 12.7867 61.7144 12.3099 61.8027 11.8331C66.6374 14.0698 71.451 16.4301 77.0085 14.7832Z" fill="#CF1C39"/>
<path d="M77.5514 11.8696C77.4631 12.3464 77.3737 12.8232 77.2854 13.2999C71.7314 14.9445 66.9225 12.5913 62.0913 10.3558C62.1796 9.87901 62.2691 9.40224 62.3574 8.92548C67.1886 11.161 71.9974 13.5142 77.5514 11.8696Z" fill="#CF1C39"/>
<path d="M61.6075 13.2964C57.0353 11.1798 52.4466 9.15383 47.1904 10.7101C47.8191 7.33624 48.4465 3.96123 49.0751 0.58739C54.3313 -0.968863 58.92 1.05709 63.4922 3.17368C62.8648 6.54753 62.2362 9.92137 61.6075 13.2964Z" fill="#213668"/>
<path d="M49.415 1.67393C49.4644 1.53385 49.515 1.39258 49.5645 1.2525C49.4785 1.18186 49.3926 1.11359 49.3066 1.04532C49.455 0.987633 49.6021 0.932301 49.7493 0.879327C49.8364 0.741595 49.9235 0.605043 50.0106 0.469666C50.0518 0.577967 50.0918 0.687443 50.133 0.796922C50.2719 0.787504 50.4097 0.781622 50.5474 0.77809C50.4273 0.889924 50.3061 1.00411 50.186 1.11947C50.1848 1.24896 50.1837 1.37964 50.1825 1.50913C50.0671 1.46911 49.9517 1.43143 49.8364 1.39494C49.6963 1.48558 49.5562 1.57858 49.415 1.67393Z" fill="white"/>
<path d="M49.0111 3.84587C49.0606 3.70578 49.1112 3.56452 49.1606 3.42443C49.0747 3.3538 48.9888 3.28552 48.9028 3.21724C49.0512 3.15956 49.1983 3.10424 49.3455 3.05126C49.4326 2.91353 49.5197 2.77698 49.6068 2.6416C49.648 2.7499 49.688 2.85938 49.7292 2.96886C49.8681 2.95944 50.0059 2.95356 50.1436 2.95003C50.0235 3.06186 49.9023 3.17604 49.7822 3.29141C49.781 3.4209 49.7798 3.55157 49.7787 3.68106C49.6633 3.64104 49.5479 3.60337 49.4326 3.56688C49.2913 3.65752 49.1512 3.75052 49.0111 3.84587Z" fill="white"/>
<path d="M51.7024 3.46212C51.7519 3.32675 51.8001 3.19137 51.8496 3.05599C51.7683 2.96417 51.6859 2.87235 51.6035 2.78288C51.746 2.7558 51.8872 2.73108 52.0285 2.70871C52.1133 2.58511 52.198 2.46151 52.2828 2.33908C52.3204 2.46151 52.3593 2.58276 52.3969 2.70637C52.53 2.72638 52.663 2.74875 52.7949 2.77347C52.6783 2.86529 52.5618 2.95829 52.4452 3.05246C52.4429 3.18784 52.4405 3.32204 52.4393 3.45742C52.3287 3.39149 52.2192 3.32792 52.1085 3.26553C51.9732 3.32792 51.8378 3.39385 51.7024 3.46212Z" fill="white"/>
<path d="M54.2757 3.60221C54.3239 3.47154 54.3722 3.33969 54.4205 3.20903C54.3416 3.09955 54.2639 2.99007 54.1851 2.88295C54.3228 2.88059 54.4593 2.88059 54.5959 2.88177C54.6783 2.76876 54.7607 2.65575 54.8431 2.54391C54.8796 2.67576 54.9161 2.80878 54.9514 2.94181C55.0797 2.98536 55.2092 3.03009 55.3375 3.07718C55.2245 3.15252 55.1103 3.22904 54.9961 3.30673C54.9938 3.44564 54.9902 3.58456 54.9879 3.72229C54.8819 3.63635 54.7748 3.55159 54.6677 3.46801C54.5382 3.51039 54.4063 3.55512 54.2757 3.60221Z" fill="white"/>
<path d="M56.7925 4.1543C56.8396 4.02599 56.8878 3.89885 56.9349 3.77054C56.8584 3.64693 56.7831 3.5245 56.7065 3.40325C56.8407 3.42091 56.9738 3.43857 57.108 3.45858C57.1892 3.35381 57.2704 3.24904 57.3516 3.14545C57.387 3.28553 57.4211 3.4268 57.4564 3.56688C57.5824 3.6281 57.7072 3.68932 57.8331 3.75288C57.7213 3.81645 57.6106 3.88119 57.4988 3.94594C57.4953 4.0872 57.4917 4.22847 57.4894 4.37091C57.3858 4.26967 57.2822 4.16961 57.1786 4.06955C57.0479 4.09662 56.9208 4.12605 56.7925 4.1543Z" fill="white"/>
<path d="M59.2343 5.0007C59.2813 4.87474 59.3284 4.74878 59.3755 4.624C59.3013 4.49215 59.2272 4.36031 59.1519 4.22846C59.2837 4.25907 59.4144 4.28967 59.5462 4.32146C59.6262 4.22257 59.7063 4.1237 59.7864 4.02481C59.8205 4.17078 59.8535 4.31557 59.8876 4.46155C60.0112 4.53335 60.1348 4.60634 60.2572 4.6805C60.1478 4.73701 60.0371 4.79351 59.9276 4.85002C59.9241 4.99364 59.9206 5.13726 59.917 5.28088C59.8158 5.17022 59.7134 5.05956 59.6121 4.94891C59.4862 4.96539 59.3602 4.98187 59.2343 5.0007Z" fill="white"/>
<path d="M61.6263 6.0013C61.6733 5.87652 61.7204 5.75175 61.7675 5.62814C61.6945 5.49159 61.6203 5.35503 61.5474 5.21847C61.6769 5.25614 61.8075 5.29382 61.937 5.33266C62.0171 5.23613 62.0959 5.1396 62.176 5.04425C62.209 5.19258 62.2431 5.3409 62.2761 5.48923C62.3985 5.56692 62.5209 5.64462 62.6433 5.72349C62.5339 5.77646 62.4244 5.82945 62.3161 5.88242C62.3125 6.02722 62.3079 6.17082 62.3043 6.31562C62.2031 6.20025 62.103 6.0849 62.0018 5.96953C61.8758 5.97777 61.751 5.98953 61.6263 6.0013Z" fill="white"/>
<path d="M50.5757 2.47443C50.6252 2.3367 50.6746 2.19897 50.7241 2.06124C50.6405 1.98001 50.5569 1.89879 50.4722 1.81991C50.617 1.77871 50.7617 1.73869 50.9054 1.70219C50.9913 1.57153 51.0772 1.44203 51.1632 1.31372C51.202 1.42909 51.242 1.54563 51.2809 1.66217C51.4163 1.66806 51.5516 1.67747 51.687 1.68807C51.5681 1.78931 51.4504 1.89172 51.3315 1.99649C51.3303 2.12952 51.328 2.26136 51.3268 2.39439C51.215 2.34141 51.102 2.28961 50.9889 2.23899C50.8512 2.31433 50.7135 2.39321 50.5757 2.47443Z" fill="white"/>
<path d="M50.1685 4.66636C50.218 4.52863 50.2674 4.3909 50.3168 4.25317C50.2333 4.17194 50.1497 4.09071 50.0649 4.01184C50.2097 3.97064 50.3545 3.93061 50.4981 3.89412C50.5841 3.76345 50.67 3.63396 50.7559 3.50565C50.7948 3.62101 50.8348 3.73756 50.8737 3.8541C51.009 3.85998 51.1444 3.8694 51.2798 3.87999C51.1609 3.98123 51.0432 4.08365 50.9243 4.18842C50.9231 4.32144 50.9207 4.45329 50.9196 4.58631C50.8077 4.53334 50.6947 4.48154 50.5817 4.43092C50.4428 4.50744 50.3063 4.58631 50.1685 4.66636Z" fill="white"/>
<path d="M52.8041 4.58045C52.8524 4.44743 52.9006 4.3144 52.9501 4.18138C52.87 4.08014 52.79 3.9789 52.71 3.88002C52.85 3.86589 52.9889 3.85412 53.1278 3.84471C53.2114 3.72699 53.295 3.60927 53.3786 3.49155C53.4163 3.61868 53.4528 3.747 53.4904 3.87531C53.6211 3.90827 53.7518 3.94241 53.8824 3.97891C53.7671 4.06249 53.6529 4.14607 53.5375 4.23083C53.5352 4.36738 53.5328 4.50511 53.5305 4.64167C53.4222 4.56515 53.3139 4.48981 53.2056 4.41564C53.0702 4.46979 52.9371 4.52512 52.8041 4.58045Z" fill="white"/>
<path d="M57.8026 5.65053C57.8497 5.52339 57.8968 5.39743 57.9451 5.2703C57.8697 5.14198 57.7944 5.01485 57.7202 4.88771C57.8532 4.91243 57.9851 4.93715 58.1169 4.96423C58.197 4.86299 58.2782 4.76057 58.3583 4.65933C58.3924 4.80295 58.4265 4.94539 58.4607 5.08901C58.5855 5.15611 58.7091 5.22439 58.8339 5.29384C58.7232 5.3527 58.6125 5.41273 58.5019 5.47277C58.4984 5.61521 58.4948 5.75765 58.4913 5.90009C58.3889 5.79297 58.2865 5.68703 58.1829 5.58226C58.0569 5.6058 57.9298 5.62816 57.8026 5.65053Z" fill="white"/>
<path d="M60.2089 6.57344C60.256 6.44866 60.3031 6.32387 60.3502 6.19909C60.276 6.06371 60.2031 5.92951 60.1289 5.79531C60.2596 5.82944 60.3902 5.86476 60.5209 5.90126C60.6009 5.80355 60.6798 5.70584 60.7599 5.60931C60.7928 5.75646 60.827 5.90361 60.8599 6.05076C60.9824 6.1261 61.106 6.20263 61.2284 6.27915C61.1189 6.3333 61.0094 6.38745 60.8999 6.4416C60.8964 6.58522 60.8929 6.73 60.8882 6.87362C60.787 6.75943 60.6857 6.64642 60.5845 6.53223C60.4597 6.544 60.3349 6.55814 60.2089 6.57344Z" fill="white"/>
<path d="M53.2162 2.36851C53.2645 2.23548 53.3128 2.10246 53.3622 1.96944C53.2821 1.8682 53.2021 1.76696 53.1221 1.66808C53.2622 1.65395 53.401 1.64218 53.54 1.63276C53.6235 1.51504 53.7071 1.39732 53.7907 1.2796C53.8284 1.40674 53.8649 1.53505 53.9025 1.66337C54.0332 1.69633 54.1639 1.73046 54.2946 1.76696C54.1792 1.85054 54.065 1.93412 53.9496 2.01888C53.9473 2.15543 53.9449 2.29316 53.9426 2.42972C53.8343 2.3532 53.726 2.27786 53.6177 2.2037C53.4823 2.25667 53.3492 2.312 53.2162 2.36851Z" fill="white"/>
<path d="M55.7484 2.72753C55.7967 2.59804 55.8438 2.46855 55.8921 2.33906C55.8144 2.22252 55.7379 2.10597 55.6602 1.99061C55.7955 1.99885 55.9309 2.00826 56.0663 2.02004C56.1475 1.91173 56.2299 1.80343 56.3111 1.69513C56.3465 1.83168 56.3818 1.96824 56.4171 2.10597C56.5443 2.15894 56.6714 2.21309 56.7973 2.26842C56.6855 2.33788 56.5725 2.40734 56.4607 2.47797C56.4571 2.61805 56.4548 2.75814 56.4513 2.89823C56.3465 2.80405 56.2417 2.71105 56.1357 2.61805C56.0074 2.65455 55.8779 2.68986 55.7484 2.72753Z" fill="white"/>
<path d="M55.3363 5.0466C55.3846 4.91711 55.4317 4.78762 55.48 4.6593C55.4035 4.54276 55.3257 4.42622 55.248 4.31086C55.3834 4.3191 55.5188 4.32969 55.6542 4.34029C55.7354 4.23199 55.8178 4.12368 55.899 4.01538C55.9344 4.15194 55.9697 4.28967 56.005 4.42622C56.1321 4.47919 56.2593 4.53335 56.3852 4.58985C56.2734 4.65931 56.1604 4.72876 56.0485 4.79939C56.045 4.93948 56.0427 5.07956 56.0391 5.21965C55.9344 5.12547 55.8296 5.0313 55.7236 4.93948C55.5953 4.97479 55.467 5.01011 55.3363 5.0466Z" fill="white"/>
<path d="M58.2347 3.44446C58.2818 3.31732 58.3289 3.19136 58.3772 3.06422C58.3018 2.93591 58.2265 2.80877 58.1523 2.68164C58.2854 2.70636 58.4172 2.73226 58.549 2.75816C58.6291 2.65692 58.7103 2.55568 58.7904 2.45444C58.8245 2.59806 58.8587 2.74167 58.8928 2.88529C59.0176 2.95239 59.1412 3.02067 59.266 3.09013C59.1553 3.14899 59.0446 3.20902 58.934 3.26905C58.9305 3.41149 58.9269 3.55394 58.9234 3.69638C58.821 3.58925 58.7186 3.48331 58.6162 3.37736C58.4878 3.39973 58.3619 3.42209 58.2347 3.44446Z" fill="white"/>
<path d="M60.6372 4.38856C60.6843 4.26378 60.7313 4.139 60.7784 4.01421C60.7043 3.87884 60.6313 3.74464 60.5571 3.61044C60.6878 3.64458 60.8185 3.67989 60.9491 3.71639C61.0292 3.61868 61.1081 3.52097 61.1881 3.42444C61.2211 3.57159 61.2552 3.71874 61.2882 3.86589C61.4106 3.94123 61.5342 4.01775 61.6566 4.09426C61.5472 4.14841 61.4377 4.20257 61.3282 4.25672C61.3247 4.40033 61.3211 4.54513 61.3164 4.68875C61.2152 4.57456 61.114 4.46155 61.0127 4.34736C60.8879 4.36031 60.762 4.37444 60.6372 4.38856Z" fill="white"/>
<path d="M52.1072 1.29019C52.1566 1.15481 52.2049 1.01943 52.2543 0.884053C52.1731 0.792231 52.0907 0.700417 52.0083 0.61095C52.1507 0.583874 52.292 0.559153 52.4333 0.536786C52.518 0.41318 52.6028 0.289573 52.6875 0.167145C52.7252 0.289573 52.7641 0.410824 52.8018 0.534429C52.9348 0.554441 53.0678 0.576809 53.1996 0.60153C53.0831 0.693351 52.9666 0.786349 52.85 0.880525C52.8477 1.0159 52.8453 1.1501 52.8441 1.28548C52.7335 1.21956 52.624 1.15599 52.5133 1.0936C52.3768 1.15599 52.2426 1.22191 52.1072 1.29019Z" fill="white"/>
<path d="M54.6795 1.43028C54.7278 1.29961 54.776 1.16777 54.8243 1.0371C54.7454 0.927618 54.6677 0.818136 54.5889 0.711012C54.7266 0.708657 54.8632 0.708656 54.9997 0.709833C55.0821 0.596822 55.1645 0.483812 55.2469 0.371979C55.2834 0.503825 55.3199 0.636848 55.3552 0.769871C55.4835 0.813428 55.613 0.858164 55.7413 0.905252C55.6283 0.980592 55.5141 1.0571 55.3999 1.1348C55.3976 1.27371 55.3941 1.41262 55.3917 1.55035C55.2858 1.46442 55.1786 1.37966 55.0715 1.29607C54.942 1.33845 54.8114 1.38319 54.6795 1.43028Z" fill="white"/>
<path d="M57.1763 1.97767C57.2234 1.84935 57.2716 1.72222 57.3187 1.5939C57.2422 1.47147 57.1668 1.34905 57.0903 1.22662C57.2245 1.2431 57.3575 1.26193 57.4917 1.28194C57.573 1.17717 57.6542 1.0724 57.7354 0.968811C57.7707 1.1089 57.8049 1.24899 57.8402 1.39025C57.9662 1.45146 58.091 1.51267 58.2169 1.57624C58.1051 1.63981 57.9944 1.70456 57.8826 1.7693C57.8791 1.91057 57.8755 2.05183 57.8732 2.19427C57.7696 2.09303 57.666 1.99297 57.5624 1.89291C57.4329 1.9188 57.3046 1.94824 57.1763 1.97767Z" fill="white"/>
<path d="M59.6381 2.82877C59.6851 2.70281 59.7322 2.57802 59.7793 2.45206C59.7052 2.32022 59.631 2.18837 59.5557 2.05653C59.6875 2.08713 59.8182 2.11774 59.95 2.14952C60.0301 2.05064 60.1101 1.95176 60.1902 1.85287C60.2243 1.99885 60.2573 2.14364 60.2914 2.28961C60.415 2.36142 60.5386 2.43441 60.661 2.50857C60.5516 2.56508 60.4409 2.62158 60.3314 2.67809C60.3279 2.82171 60.3244 2.96532 60.3208 3.10894C60.2196 2.99828 60.1172 2.88763 60.0159 2.77697C59.89 2.79345 59.764 2.80993 59.6381 2.82877Z" fill="white"/>
<path d="M62.011 3.81996C62.0581 3.69517 62.1052 3.57039 62.1523 3.44679C62.0793 3.31023 62.0051 3.17368 61.9321 3.03713C62.0616 3.0748 62.1923 3.11246 62.3218 3.15013C62.4018 3.0536 62.4807 2.95708 62.5608 2.86172C62.5937 3.01005 62.6279 3.15837 62.6608 3.3067C62.7833 3.3844 62.9057 3.46209 63.0281 3.54096C62.9186 3.59394 62.8091 3.64691 62.7008 3.69989C62.6973 3.84468 62.6938 3.9883 62.6891 4.13309C62.5878 4.01773 62.4878 3.90236 62.3865 3.787C62.2606 3.79642 62.1358 3.80818 62.011 3.81996Z" fill="white"/>
<path d="M48.6464 6.02721C48.6958 5.88713 48.7465 5.74585 48.7959 5.60577C48.71 5.53514 48.624 5.46569 48.5381 5.39741C48.6864 5.33973 48.8336 5.28557 48.9795 5.2326C49.0666 5.09604 49.1538 4.95949 49.2409 4.82294C49.2821 4.93124 49.3221 5.04072 49.3621 5.15137C49.501 5.14313 49.6388 5.13725 49.7765 5.13372C49.6564 5.24555 49.5352 5.35856 49.4151 5.47392C49.4139 5.60341 49.4128 5.73409 49.4116 5.86358C49.2962 5.82356 49.182 5.78471 49.0655 5.74822C48.9266 5.84004 48.7865 5.93304 48.6464 6.02721Z" fill="white"/>
<path d="M48.2416 8.2003C48.291 8.06021 48.3417 7.91896 48.3911 7.77887C48.3052 7.70824 48.2192 7.63878 48.1333 7.5705C48.2816 7.51282 48.4288 7.45867 48.5747 7.40569C48.6619 7.26914 48.749 7.13259 48.8361 6.99603C48.8773 7.10433 48.9173 7.21382 48.9573 7.32447C49.0962 7.31623 49.234 7.31035 49.3717 7.30681C49.2516 7.41865 49.1304 7.53166 49.0103 7.64703C49.0091 7.77652 49.0079 7.90718 49.0068 8.03667C48.8914 7.99664 48.7772 7.9578 48.6607 7.92131C48.523 8.01195 48.3829 8.10495 48.2416 8.2003Z" fill="white"/>
<path d="M47.8344 10.3923C47.8838 10.2522 47.9344 10.1109 47.9839 9.97083C47.8979 9.90019 47.812 9.83074 47.7261 9.76246C47.8744 9.70478 48.0216 9.65062 48.1675 9.59765C48.2546 9.4611 48.3417 9.32454 48.4289 9.18799C48.4701 9.29629 48.5101 9.40577 48.5501 9.51643C48.689 9.50819 48.8268 9.5023 48.9645 9.49877C48.8444 9.6106 48.7232 9.72362 48.6031 9.83898C48.6019 9.96847 48.6007 10.0991 48.5995 10.2286C48.4842 10.1886 48.37 10.1498 48.2535 10.1133C48.1145 10.2051 47.9745 10.2969 47.8344 10.3923Z" fill="white"/>
<path d="M50.5227 10.0167C50.5722 9.88135 50.6204 9.74596 50.6699 9.61058C50.5886 9.51759 50.5062 9.42695 50.4238 9.3363C50.5663 9.30923 50.7075 9.28568 50.8488 9.26332C50.9336 9.13971 51.0183 9.01728 51.1019 8.89368C51.1396 9.01611 51.1784 9.13853 51.2161 9.26096C51.3491 9.28215 51.4821 9.30451 51.614 9.32923C51.4974 9.42105 51.3809 9.51287 51.2644 9.60705C51.262 9.74243 51.2596 9.87663 51.2585 10.012C51.1478 9.94609 51.0383 9.88134 50.9277 9.81895C50.7935 9.8837 50.6581 9.94963 50.5227 10.0167Z" fill="white"/>
<path d="M53.095 10.1651C53.1433 10.0344 53.1916 9.90254 53.2398 9.77187C53.161 9.66239 53.0833 9.55291 53.0044 9.4446C53.1421 9.44343 53.2787 9.44343 53.4152 9.4446C53.4976 9.33159 53.58 9.21976 53.6624 9.10675C53.6989 9.23977 53.7354 9.37162 53.7707 9.50464C53.8991 9.5482 54.0286 9.59411 54.1557 9.6412C54.0427 9.71654 53.9285 9.79307 53.8143 9.86959C53.8119 10.0085 53.8084 10.1474 53.806 10.2863C53.7001 10.2004 53.593 10.1144 53.487 10.0309C53.3575 10.0744 53.2257 10.1192 53.095 10.1651Z" fill="white"/>
<path d="M55.5518 10.7066C55.5988 10.5782 55.6471 10.4511 55.6942 10.3228C55.6177 10.2004 55.5423 10.0779 55.4658 9.95551C55.6 9.97199 55.733 9.99082 55.8672 10.0108C55.9485 9.90606 56.0297 9.80129 56.1109 9.69769C56.1462 9.83778 56.1804 9.97787 56.2157 10.1191C56.3417 10.1804 56.4664 10.2416 56.5924 10.3051C56.4806 10.3687 56.3699 10.4334 56.2581 10.4982C56.2545 10.6395 56.251 10.7807 56.2486 10.9232C56.1451 10.8219 56.0415 10.7218 55.9379 10.6218C55.8072 10.6477 55.6801 10.6771 55.5518 10.7066Z" fill="white"/>
<path d="M58.0136 11.5577C58.0606 11.4317 58.1077 11.3069 58.1548 11.181C58.0807 11.0491 58.0065 10.9173 57.9312 10.7854C58.063 10.816 58.1937 10.8467 58.3255 10.8784C58.4056 10.7796 58.4856 10.6807 58.5657 10.5818C58.5998 10.7278 58.6328 10.8726 58.6669 11.0185C58.7905 11.0903 58.9141 11.1633 59.0366 11.2375C58.9271 11.294 58.8164 11.3505 58.7069 11.407C58.7034 11.5506 58.6999 11.6942 58.6963 11.8379C58.5951 11.7272 58.4927 11.6165 58.3915 11.5059C58.2655 11.5224 58.1395 11.5389 58.0136 11.5577Z" fill="white"/>
<path d="M60.4397 12.5959C60.4868 12.4712 60.5339 12.3476 60.581 12.2228C60.508 12.0862 60.4338 11.9497 60.3608 11.8131C60.4903 11.8508 60.621 11.8885 60.7505 11.9273C60.8305 11.8308 60.9094 11.7342 60.9894 11.6389C61.0224 11.7872 61.0566 11.9355 61.0895 12.0839C61.2119 12.1616 61.3344 12.2393 61.4568 12.3181C61.3473 12.3711 61.2379 12.4241 61.1296 12.477C61.126 12.6218 61.1213 12.7655 61.1178 12.9103C61.0165 12.7949 60.9165 12.6795 60.8152 12.5642C60.6893 12.5724 60.5645 12.5842 60.4397 12.5959Z" fill="white"/>
<path d="M50.9099 7.82596C50.9594 7.69059 51.0076 7.55522 51.0571 7.41984C50.9759 7.32802 50.8934 7.2362 50.811 7.14556C50.9535 7.11848 51.0948 7.09376 51.236 7.07139C51.3208 6.94779 51.4055 6.82418 51.4891 6.70175C51.5268 6.82418 51.5656 6.94661 51.6033 7.06904C51.7363 7.08905 51.8693 7.11259 52.0012 7.13731C51.8846 7.22913 51.7681 7.32213 51.6516 7.41512C51.6492 7.5505 51.6469 7.68471 51.6457 7.82009C51.535 7.75416 51.4255 7.68942 51.3149 7.62703C51.1807 7.69177 51.0453 7.75769 50.9099 7.82596Z" fill="white"/>
<path d="M53.4622 7.96604C53.5105 7.83537 53.5588 7.70353 53.607 7.57286C53.5281 7.46338 53.4505 7.3539 53.3716 7.24678C53.5093 7.24442 53.6459 7.24442 53.7824 7.2456C53.8648 7.13259 53.9472 7.01958 54.0296 6.90775C54.0661 7.03959 54.1026 7.17261 54.1379 7.30564C54.2663 7.34919 54.3957 7.39393 54.5241 7.44102C54.4111 7.51636 54.2969 7.59287 54.1827 7.67057C54.1803 7.80947 54.1768 7.94839 54.1744 8.08612C54.0685 8.00018 53.9614 7.91542 53.8542 7.83184C53.7248 7.8754 53.5941 7.92013 53.4622 7.96604Z" fill="white"/>
<path d="M55.9604 8.51344C56.0075 8.38513 56.0558 8.25799 56.1029 8.12968C56.0264 8.00725 55.951 7.88482 55.8745 7.76239C56.0087 7.77887 56.1417 7.7977 56.2759 7.81772C56.3572 7.71295 56.4384 7.60817 56.5196 7.50458C56.5549 7.64466 56.5891 7.78476 56.6244 7.92602C56.7504 7.98724 56.8751 8.04845 57.0011 8.11201C56.8893 8.17558 56.7786 8.24033 56.6668 8.30508C56.6632 8.44634 56.6597 8.5876 56.6574 8.73004C56.5538 8.6288 56.4502 8.52875 56.3466 8.42869C56.2159 8.45576 56.0876 8.48401 55.9604 8.51344Z" fill="white"/>
<path d="M58.3783 9.37046C58.4254 9.2445 58.4725 9.11853 58.5196 8.99375C58.4454 8.8619 58.3712 8.73006 58.2959 8.59939C58.4277 8.63 58.5584 8.66061 58.6902 8.6924C58.7703 8.59351 58.8503 8.49345 58.9304 8.39456C58.9645 8.54053 58.9975 8.68532 59.0316 8.8313C59.1553 8.90311 59.2788 8.97609 59.4013 9.05025C59.2918 9.10676 59.1811 9.16327 59.0717 9.21978C59.0681 9.36339 59.0646 9.50702 59.0611 9.64946C58.9598 9.5388 58.8574 9.42814 58.7562 9.31866C58.6302 9.33396 58.5043 9.35163 58.3783 9.37046Z" fill="white"/>
<path d="M60.8279 10.3946C60.875 10.2698 60.9221 10.1451 60.9692 10.0214C60.8962 9.88489 60.822 9.74834 60.749 9.61178C60.8785 9.64945 61.0092 9.68712 61.1387 9.72597C61.2187 9.62944 61.2976 9.53291 61.3777 9.43756C61.4106 9.58589 61.4448 9.73422 61.4777 9.88254C61.6002 9.96024 61.7226 10.0379 61.845 10.1168C61.7355 10.1698 61.626 10.2227 61.5177 10.2757C61.5142 10.4205 61.5095 10.5641 61.506 10.7089C61.4047 10.5936 61.3047 10.4782 61.2034 10.3628C61.0787 10.3711 60.9539 10.3828 60.8279 10.3946Z" fill="white"/>
<path d="M49.8023 6.8536C49.8518 6.71587 49.9012 6.57813 49.9506 6.4404C49.8671 6.358 49.7835 6.27794 49.6987 6.19789C49.8435 6.15669 49.9883 6.11784 50.1319 6.08135C50.2179 5.95186 50.3038 5.82236 50.3886 5.69287C50.4274 5.80824 50.4675 5.92479 50.5063 6.04133C50.6417 6.04839 50.777 6.05781 50.9124 6.0684C50.7947 6.16964 50.6758 6.27206 50.5569 6.37565C50.5557 6.50867 50.5534 6.64052 50.5522 6.77354C50.4404 6.71939 50.3273 6.6676 50.2143 6.61698C50.0778 6.69468 49.94 6.77355 49.8023 6.8536Z" fill="white"/>
<path d="M49.3517 9.05143C49.4011 8.9137 49.4505 8.77596 49.5 8.63823C49.4164 8.55701 49.3328 8.47579 49.248 8.39692C49.3928 8.35571 49.5377 8.31569 49.6813 8.2792C49.7672 8.14853 49.8531 8.01903 49.9391 7.89072C49.9779 8.00608 50.0179 8.12262 50.0568 8.23916C50.1922 8.24505 50.3275 8.25448 50.4629 8.26507C50.344 8.36631 50.2263 8.46873 50.1074 8.5735C50.1062 8.70652 50.1039 8.83837 50.1027 8.97139C49.9897 8.91841 49.8779 8.86661 49.7649 8.81599C49.6271 8.89251 49.4894 8.97138 49.3517 9.05143Z" fill="white"/>
<path d="M51.9955 8.92548C52.0438 8.79246 52.0921 8.65944 52.1415 8.52641C52.0615 8.42517 51.9814 8.32393 51.9014 8.22504C52.0415 8.21092 52.1804 8.19915 52.3193 8.18974C52.4029 8.07202 52.4864 7.9543 52.57 7.83658C52.6077 7.96372 52.6442 8.09203 52.6819 8.22035C52.8125 8.25331 52.9432 8.28745 53.0738 8.32394C52.9585 8.40752 52.8443 8.4911 52.7289 8.57586C52.7266 8.71242 52.7242 8.85015 52.7219 8.9867C52.6136 8.91018 52.5053 8.83484 52.397 8.76067C52.2616 8.81365 52.1286 8.86898 51.9955 8.92548Z" fill="white"/>
<path d="M54.5277 9.28449C54.576 9.155 54.6231 9.02552 54.6714 8.89603C54.5937 8.77949 54.5171 8.66293 54.4395 8.54757C54.5748 8.55581 54.7102 8.56523 54.8456 8.577C54.928 8.4687 55.0092 8.36041 55.0904 8.25211C55.1258 8.38866 55.1611 8.52521 55.1964 8.66295C55.3235 8.71592 55.4507 8.77007 55.5766 8.8254C55.4648 8.89485 55.3518 8.9643 55.24 9.03493C55.2364 9.17502 55.2341 9.31511 55.2305 9.4552C55.1258 9.36102 55.021 9.26802 54.915 9.17502C54.7867 9.21152 54.6572 9.24682 54.5277 9.28449Z" fill="white"/>
<path d="M56.994 9.99435C57.0411 9.86721 57.0882 9.74125 57.1365 9.61412C57.0611 9.4858 56.9858 9.35866 56.9116 9.23153C57.0446 9.25625 57.1765 9.28097 57.3083 9.30805C57.3884 9.20681 57.4696 9.10438 57.5497 9.00314C57.5838 9.14676 57.6179 9.2892 57.6521 9.43282C57.7769 9.49992 57.9005 9.5682 58.0252 9.63765C57.9146 9.69651 57.8039 9.75655 57.6933 9.81659C57.6897 9.95903 57.6862 10.1015 57.6827 10.2439C57.5803 10.1368 57.4778 10.0308 57.3743 9.92607C57.2483 9.94962 57.1212 9.97198 56.994 9.99435Z" fill="white"/>
<path d="M59.4155 10.9455C59.4626 10.8207 59.5097 10.696 59.5567 10.5712C59.4826 10.4358 59.4096 10.3016 59.3354 10.1674C59.4661 10.2015 59.5968 10.2369 59.7274 10.2734C59.8075 10.1756 59.8864 10.0779 59.9664 9.98141C59.9994 10.1286 60.0335 10.2757 60.0665 10.4229C60.1889 10.4982 60.3125 10.5747 60.4349 10.6512C60.3255 10.7054 60.216 10.7595 60.1065 10.8137C60.103 10.9573 60.0994 11.1021 60.0947 11.2457C59.9935 11.1315 59.8922 11.0185 59.791 10.9043C59.6662 10.9173 59.5415 10.9314 59.4155 10.9455Z" fill="white"/>
<path d="M52.4404 6.75591C52.4886 6.62289 52.5369 6.48986 52.5863 6.35684C52.5063 6.2556 52.4262 6.15437 52.3462 6.05431C52.4863 6.04136 52.6252 6.02958 52.7641 6.02016C52.8477 5.90244 52.9312 5.78472 53.0148 5.66818C53.0525 5.79532 53.089 5.92363 53.1267 6.05195C53.2573 6.08491 53.388 6.12023 53.5175 6.15672C53.4021 6.23912 53.288 6.32388 53.1726 6.40864C53.1702 6.5452 53.1679 6.68293 53.1655 6.81948C53.0572 6.74297 52.9489 6.66644 52.8406 6.59228C52.7064 6.64525 52.5734 6.6994 52.4404 6.75591Z" fill="white"/>
<path d="M54.9316 7.1126C54.9798 6.98311 55.0269 6.85361 55.0752 6.72412C54.9975 6.60758 54.921 6.49104 54.8433 6.37568C54.9786 6.38392 55.114 6.39334 55.2494 6.40511C55.3318 6.29681 55.413 6.1885 55.4943 6.0802C55.5296 6.21675 55.5649 6.35331 55.6002 6.49104C55.7273 6.54401 55.8545 6.59817 55.9805 6.65349C55.8686 6.72295 55.7556 6.79241 55.6438 6.86304C55.6402 7.00312 55.6379 7.1432 55.6343 7.28329C55.5296 7.18911 55.4248 7.09612 55.3189 7.00312C55.1905 7.03961 55.061 7.07493 54.9316 7.1126Z" fill="white"/>
<path d="M57.379 7.81538C57.4261 7.68824 57.4732 7.56228 57.5214 7.43515C57.4461 7.30683 57.3708 7.17969 57.2954 7.05256C57.4284 7.07728 57.5603 7.102 57.6921 7.12908C57.7722 7.02784 57.8534 6.92543 57.9334 6.82419C57.9676 6.96781 58.0017 7.11024 58.0359 7.25385C58.1607 7.32095 58.2842 7.38923 58.409 7.45868C58.2984 7.51754 58.1877 7.57758 58.0771 7.6388C58.0735 7.78124 58.07 7.92368 58.0665 8.06612C57.9641 7.959 57.8616 7.85305 57.758 7.74828C57.6333 7.77065 57.5061 7.79301 57.379 7.81538Z" fill="white"/>
<path d="M59.8017 8.76537C59.8488 8.64059 59.8959 8.5158 59.943 8.39101C59.8688 8.25564 59.7958 8.12145 59.7217 7.98725C59.8523 8.02138 59.983 8.05669 60.1137 8.09318C60.1937 7.99547 60.2726 7.89777 60.3527 7.80124C60.3856 7.94839 60.4198 8.09554 60.4527 8.24269C60.5752 8.31803 60.6988 8.39455 60.8212 8.47107C60.7117 8.52522 60.6022 8.57937 60.4927 8.63352C60.4892 8.77714 60.4857 8.92193 60.481 9.06555C60.3798 8.95136 60.2785 8.83834 60.1773 8.72416C60.0525 8.73711 59.9265 8.75124 59.8017 8.76537Z" fill="white"/>
<path d="M51.3401 5.63288C51.3895 5.4975 51.4378 5.36211 51.4872 5.22673C51.406 5.13374 51.3236 5.0431 51.2412 4.95245C51.3837 4.92538 51.5249 4.90183 51.6662 4.87946C51.7509 4.75586 51.8357 4.63343 51.9193 4.50983C51.9569 4.63225 51.9958 4.75468 52.0335 4.87711C52.1665 4.8983 52.2995 4.92066 52.4313 4.94538C52.3148 5.0372 52.1983 5.12903 52.0817 5.22321C52.0794 5.35858 52.077 5.49278 52.0758 5.62816C51.9663 5.56224 51.8557 5.49749 51.745 5.4351C51.6108 5.49867 51.4755 5.5646 51.3401 5.63288Z" fill="white"/>
<path d="M53.9276 5.80355C53.9758 5.67288 54.0241 5.54103 54.0724 5.41036C53.9935 5.29971 53.9158 5.19141 53.8369 5.08311C53.9746 5.08193 54.1112 5.08193 54.2478 5.08311C54.3302 4.97009 54.4126 4.85826 54.495 4.74643C54.5315 4.87945 54.568 5.01129 54.6033 5.14549C54.7316 5.18905 54.8611 5.23496 54.9882 5.28205C54.8752 5.35739 54.761 5.43391 54.648 5.51043C54.6457 5.64934 54.6421 5.78825 54.6398 5.92716C54.5338 5.84122 54.4267 5.75528 54.3208 5.6717C54.1901 5.71291 54.0594 5.75764 53.9276 5.80355Z" fill="white"/>
<path d="M56.4043 6.35332C56.4514 6.225 56.4996 6.09786 56.5467 5.96955C56.4702 5.84594 56.3949 5.72352 56.3184 5.60227C56.4526 5.61992 56.5856 5.63758 56.7198 5.65759C56.801 5.55282 56.8822 5.44805 56.9635 5.34445C56.9988 5.48454 57.0329 5.6258 57.0682 5.76588C57.1942 5.8271 57.319 5.8895 57.4449 5.95189C57.3331 6.01546 57.2224 6.0802 57.1106 6.14495C57.1071 6.28621 57.1035 6.42865 57.1012 6.56992C56.9976 6.46868 56.894 6.36861 56.7904 6.26855C56.6597 6.29562 56.5326 6.32389 56.4043 6.35332Z" fill="white"/>
<path d="M58.8104 7.16439C58.8575 7.03843 58.9046 6.91248 58.9517 6.7877C58.8775 6.65585 58.8034 6.52401 58.728 6.39334C58.8599 6.42394 58.9906 6.45456 59.1224 6.48634C59.2024 6.38746 59.2825 6.28857 59.3626 6.18851C59.3967 6.33448 59.4296 6.47927 59.4638 6.62524C59.5874 6.69705 59.711 6.77004 59.8334 6.8442C59.724 6.9007 59.6133 6.95722 59.5038 7.01372C59.5003 7.15734 59.4967 7.30095 59.4932 7.44339C59.392 7.33273 59.2896 7.22208 59.1883 7.11142C59.0624 7.12908 58.9364 7.14673 58.8104 7.16439Z" fill="white"/>
<path d="M61.2176 8.19327C61.2647 8.06848 61.3117 7.9437 61.3588 7.82009C61.2858 7.68354 61.2117 7.54698 61.1387 7.41043C61.2682 7.4481 61.3988 7.48577 61.5283 7.52461C61.6084 7.42808 61.6873 7.33156 61.7673 7.23621C61.8003 7.38453 61.8344 7.53285 61.8673 7.68117C61.9898 7.75887 62.1122 7.83656 62.2346 7.91544C62.1252 7.96841 62.0157 8.02139 61.9074 8.07437C61.9039 8.21916 61.8992 8.36277 61.8956 8.50757C61.7944 8.3922 61.6943 8.27684 61.5931 8.16148C61.4671 8.16972 61.3423 8.18149 61.2176 8.19327Z" fill="white"/>
<path d="M76.1999 19.127C65.4121 22.3219 57.4343 10.4287 46.6465 13.6237C46.736 13.1422 46.8254 12.6607 46.9149 12.1804C57.7027 8.98551 65.6805 20.8787 76.4684 17.6838C76.3789 18.1653 76.2894 18.6467 76.1999 19.127Z" fill="#CF1C39"/>
<path d="M75.9211 20.6233C75.8328 21.1 75.7433 21.5768 75.6551 22.0536C64.8672 25.2485 56.8894 13.3553 46.1016 16.5502C46.1899 16.0734 46.2793 15.5966 46.3676 15.1199C57.1554 11.9261 65.1333 23.8193 75.9211 20.6233Z" fill="#CF1C39"/>
<path d="M75.3912 23.4721C75.3559 23.6651 75.1687 24.6575 75.1334 24.8494C64.3456 28.0443 56.3689 16.1511 45.5811 19.3472C45.6164 19.1541 45.8024 18.1618 45.8377 17.9687C56.6255 14.7738 64.6034 26.667 75.3912 23.4721Z" fill="#CF1C39"/>
<path d="M40.957 43.3691L49.1527 0.592133" stroke="#0047AB" stroke-miterlimit="10" stroke-linecap="round" stroke-linejoin="round"/>
<path opacity="0.31" d="M18.5138 78.4036L18.4784 78.3141L4.38507 44.3921L0 33.3523L9.08442 30.1374C9.20567 33.4194 9.51528 38.8639 10.2946 44.0153L10.2852 43.8764C11.2093 51.2622 12.7514 59.6826 15.2671 68.4633C15.2671 68.4633 15.3483 68.7459 15.4683 69.1544C15.5849 69.5628 15.7462 70.0914 15.8992 70.607C15.8992 70.607 15.8992 70.6117 15.8992 70.6164C16.1099 71.3157 16.3301 72.0244 16.5584 72.7283C17.16 74.6095 17.8098 76.5024 18.5138 78.4036Z" fill="#2A72DA"/>
<path d="M26.4035 17.7921C31.4941 17.7921 35.6209 13.8092 35.6209 8.89607C35.6209 3.9829 31.4941 0 26.4035 0C21.3128 0 17.186 3.9829 17.186 8.89607C17.186 13.8092 21.3128 17.7921 26.4035 17.7921Z" fill="#0047AB"/>
<path d="M50.7288 71.3722L45.1242 74.188C43.4961 71.0897 40.0352 69.0355 36.1198 69.3451C31.537 69.7123 27.883 73.3946 27.6947 77.8291C27.6229 79.4842 28.0172 81.044 28.7706 82.399L28.3892 82.5873L25.3933 84.0894H25.3885L21.5862 86L18.5149 78.4036C17.8109 76.5024 17.1611 74.6095 16.5596 72.7271C16.3312 72.0232 16.1111 71.3145 15.9003 70.6152C15.9003 70.6105 15.9003 70.6058 15.9003 70.6058C15.7485 70.0902 15.586 69.5605 15.4695 69.1532C15.3482 68.7447 15.2682 68.4622 15.2682 68.4622C12.7525 59.6826 11.2104 51.261 10.2863 43.8753L10.2957 44.0142C9.51524 38.8616 9.20564 33.4182 9.08556 30.1362C9.01375 28.2527 9.00434 27.0826 9.00434 27.0826C8.96432 25.6123 8.9502 24.2891 8.9502 23.1143C8.9502 22.4056 8.95018 21.751 8.96313 21.1589C8.99844 18.8092 9.0844 17.4143 9.09734 17.2224C9.09734 17.2047 9.09734 17.1953 9.09734 17.1953L14.0074 17.864L16.4866 18.276C16.4689 18.4961 16.4595 18.7151 16.4595 18.9352C16.4595 23.85 20.5844 27.8313 25.6746 27.8313C29.9207 27.8313 33.49 25.0649 34.5624 21.2978L37.2076 21.7416L41.2477 22.4503V22.468C41.2383 22.6022 41.1312 24.5893 41.1441 27.7771C41.1441 27.7771 41.3819 36.7721 41.7633 40.2436C42.2389 45.1631 43.0453 50.6159 44.4179 55.9474C44.4226 55.9651 44.4273 55.9745 44.4309 55.9921C44.9465 58.0864 45.0183 58.1535 45.023 58.1535C46.3921 62.8976 48.2438 67.4627 50.7288 71.3722Z" fill="#6495ED"/>
<path d="M21.5864 86C20.4657 83.4714 19.4428 80.9334 18.5151 78.4036L21.5864 86Z" fill="#0047AB"/>
<defs>
<linearGradient id="paint0_linear_26_3846" x1="177" y1="46.5" x2="26" y2="46.5" gradientUnits="userSpaceOnUse">
<stop stop-color="#828282" stop-opacity="0.25"/>
<stop offset="1" stop-color="#D9D9D9" stop-opacity="0"/>
</linearGradient>
<linearGradient id="paint1_linear_26_3846" x1="177" y1="53" x2="26" y2="53" gradientUnits="userSpaceOnUse">
<stop stop-color="#9B9B9B"/>
<stop offset="1" stop-color="white"/>
</linearGradient>
</defs>
</svg>
